<svg xmlns="http://www.w3.org/2000/svg" viewBox="0 0 2323.05 1180.7"><defs><style>.cls-1{fill:#424242;}</style></defs><title>MANCHAS PARA FONDO GRIS OSCVURO</title><g id="Capa_2" data-name="Capa 2"><g id="Capa_1-2" data-name="Capa 1"><path class="cls-1" d="M528.74,722.36C495.34,695.62,492,674.08,517.85,621c19.08-39.17,28.23-72.63,8-102.49-15.75-23.32-4.29-52.43,19.76-82.77,23.67-29.85,43.62-24.46,64.18-20.32,10.65,2.15,21.1,6.48,28.79,13.24,20.87,18.35,47.89,23.61,76.74,27.66,65.3,9.16,75.69,22.11,67.26,86.4-5.44,41.4,18,57.56,43.25,69.13,20.67,9.47,37.3,23.49,55.06,36.29,22.26,16,19.88,43,1.86,74.4-17.22,30-40.76,34.65-63.87,34.17a96.32,96.32,0,0,1-32.5-6.78c-55.06-21.24-116.85-21.25-183-9.95C574.44,744.89,548.16,740,528.74,722.36Z"/><path class="cls-1" d="M1615.73,499.41c9.66-27,22.57-33.81,61.86-29,29,3.54,52.17,2,66.69-17.26,11.33-15.07,32.27-14.16,56.74-5.54,24.07,8.48,25,22.3,26.87,36.22,1,7.22.5,14.78-2.1,21.13-7.07,17.22-4.51,35.49-.78,54.65,8.44,43.36,2.5,52.77-40.06,61.45-27.41,5.59-32.54,24-34.36,42.48-1.49,15.16-6.74,28.76-11,42.8-5.31,17.6-22.92,22-46.72,17.4-22.73-4.37-30.85-18.25-35.58-33a64.65,64.65,0,0,1-2.8-22.06c1.45-39.52-12-78.66-33.62-118.12C1611.43,533.28,1608.82,515.56,1615.73,499.41Z"/><path class="cls-1" d="M813,923c12.33-29.57,27.14-36.44,70.72-28.83,32.14,5.62,58.12,5.28,75.44-15.43,13.51-16.17,36.84-14,63.65-2.92,26.39,10.85,26.64,26.33,27.92,42,.66,8.1-.29,16.52-3.57,23.46-8.88,18.82-7.07,39.35-4,61,6.93,48.89-.23,59.05-48.25,66.29-30.92,4.67-37.7,24.87-40.8,45.45-2.53,16.84-9.18,31.71-14.71,47.14-6.94,19.35-26.86,23.22-53.16,16.75-25.12-6.19-33.38-22.16-37.82-38.89a72.13,72.13,0,0,1-1.85-24.79c3.89-44-8.91-88.5-30.74-133.79C806.22,960.51,804.32,940.58,813,923Z"/><path class="cls-1" d="M322.54,111.29c41.16,10.79,52.91,29,50.88,87.72-1.49,43.3,3.71,77.4,34.12,96.38,23.74,14.81,25.1,45.89,15.51,83.18C413.61,415.26,393.31,418.43,373,423c-10.54,2.35-21.79,2.64-31.51-.39-26.38-8.23-53.06-2.09-80.91,5.89-63,18.07-77.7,10.52-96-51.3-11.8-39.81-39.61-45-67.24-45.33-22.61-.25-43.39-6.26-64.7-10.71C5.86,315.56-2.89,290.08.81,254.3c3.53-34.18,23-48,44.21-56.87a96,96,0,0,1,32.27-7c58.6-2.95,114.75-27.93,170.3-64.95C271.91,109.3,297.77,103.15,322.54,111.29Z"/><path class="cls-1" d="M1326.6.58c51.17,2.78,69.43,21.43,81.24,91.2,8.71,51.45,23.11,90.43,63.57,105.46,31.59,11.74,40.72,48.08,38.42,94.4-2.26,45.57-25.46,54.22-48.37,64.51-11.86,5.33-25.06,8.39-37.27,7.16-33.11-3.33-63.1,10.36-94,26.52-70,36.57-89.14,31.2-125.72-37.31-23.55-44.12-57.63-43.54-90.3-37.22-26.74,5.18-52.71,3.11-78.93,3-32.87-.12-49.35-28.07-53.64-71.18C977.47,206,997.13,185,1020,169.34a115.53,115.53,0,0,1,36.39-16C1124.8,135.64,1185,92.59,1241.6,35.48,1266.38,10.48,1295.41-3,1326.6.58Z"/><path class="cls-1" d="M1674.9,864.36c28.88,31.56,28.87,53.36-4.87,101.86-24.87,35.77-39.08,67.42-23.74,100,12,25.46-3.83,52.46-32.27,78.73-28,25.85-46.86,17.45-66.54,10.19-10.19-3.76-19.85-9.64-26.41-17.51-17.79-21.34-43.68-30.71-71.56-39.15-63.11-19.11-71.38-33.5-53.15-95.73,11.75-40.06-8.91-59.64-32.08-75-19-12.54-33.24-29-48.82-44.33-19.53-19.28-13-45.59,9.63-73.8,21.62-26.94,45.61-28,68.36-23.92a96.17,96.17,0,0,1,31.07,11.7c51.13,29.47,112.18,39,179.31,38C1633.21,835.07,1658.42,844,1674.9,864.36Z"/><path class="cls-1" d="M2025.22,1032.43c-42.56-4.39-57-20.68-64.07-79.34-5.18-43.26-15.61-76.35-48.75-90.52-25.87-11.07-32-41.75-28.21-80.28,3.72-37.91,23.42-44.18,42.94-51.84,10.11-4,21.24-6,31.37-4.47,27.48,4.12,53-6.08,79.49-18.31,59.85-27.66,75.6-22.41,103.33,36.2,17.86,37.74,46.3,38.65,73.81,34.69,22.5-3.23,44.08-.46,65.94.68,27.4,1.43,40,25.41,41.85,61.54,1.75,34.51-15.49,51.21-35.17,63.31a96.48,96.48,0,0,1-31,11.91c-57.79,12-109.73,45.43-159.24,90.77C2075.84,1026.61,2051.08,1036.71,2025.22,1032.43Z"/><path class="cls-1" d="M1790.69,369.92c-33.4-26.74-36.75-48.28-10.88-101.4,19.07-39.17,28.23-72.63,8-102.5-15.75-23.31-4.3-52.42,19.76-82.76,23.66-29.85,43.62-24.46,64.17-20.32,10.65,2.15,21.1,6.47,28.8,13.24,20.86,18.34,47.88,23.61,76.74,27.66,65.29,9.16,75.68,22.11,67.25,86.4-5.43,41.39,18,57.56,43.25,69.13,20.67,9.47,37.31,23.49,55.07,36.29,22.26,16,19.88,43,1.85,74.4-17.22,29.95-40.76,34.65-63.86,34.17a96.42,96.42,0,0,1-32.51-6.78c-55.05-21.25-116.84-21.25-183-9.95C1836.39,392.44,1810.12,387.52,1790.69,369.92Z"/><path class="cls-1" d="M126.82,1005.16c-33.4-26.74-36.75-48.28-10.89-101.4,19.08-39.17,28.23-72.63,8-102.49-15.75-23.32-4.29-52.43,19.76-82.77,23.67-29.85,43.62-24.45,64.18-20.32,10.65,2.15,21.1,6.48,28.79,13.24,20.87,18.35,47.89,23.61,76.74,27.66,65.3,9.16,75.69,22.11,67.26,86.4-5.44,41.4,18,57.56,43.25,69.13,20.67,9.47,37.3,23.49,55.06,36.29,22.26,16.05,19.88,43,1.86,74.4-17.22,30-40.76,34.66-63.87,34.17a96.32,96.32,0,0,1-32.5-6.78c-55.06-21.24-116.85-21.25-183-10C172.52,1027.69,146.24,1022.77,126.82,1005.16Z"/></g></g></svg>