<svg xmlns="http://www.w3.org/2000/svg" viewBox="0 0 2323.05 1272.49"><defs><style>.cls-1{fill:#f4f4f4;}</style></defs><title>MANCHAS COMPLETAS</title><g id="Capa_2" data-name="Capa 2"><g id="Capa_1-2" data-name="Capa 1"><path class="cls-1" d="M273.68,652.69C240.28,626,236.93,604.42,262.8,551.3c19.07-39.17,28.23-72.63,8.05-102.5-15.76-23.31-4.3-52.42,19.76-82.76,23.66-29.85,43.62-24.46,64.17-20.32,10.65,2.14,21.1,6.47,28.79,13.24,20.87,18.34,47.89,23.61,76.75,27.66,65.29,9.16,75.68,22.11,67.25,86.4-5.43,41.39,18,57.56,43.25,69.13,20.67,9.47,37.3,23.49,55.06,36.29,22.27,16,19.88,43,1.86,74.4C610.52,682.79,587,687.49,563.87,687a96.32,96.32,0,0,1-32.5-6.78c-55.05-21.25-116.85-21.25-183-10C319.38,675.22,293.1,670.3,273.68,652.69Z" transform="translate(255.06 140.45)"/><path class="cls-1" d="M1283.16,432.34c9.65-27,22.56-33.82,61.86-29,29,3.54,52.17,2,66.68-17.26C1423,371,1444,371.9,1468.44,380.52c24.08,8.48,25,22.3,26.88,36.22,1,7.22.5,14.78-2.11,21.13-7.07,17.22-4.51,35.49-.78,54.65,8.44,43.36,2.51,52.77-40.06,61.45-27.41,5.59-32.54,23.95-34.36,42.48-1.49,15.16-6.74,28.76-11,42.8-5.31,17.6-22.93,22-46.73,17.41-22.73-4.38-30.84-18.26-35.58-33a64.64,64.64,0,0,1-2.79-22.06c1.44-39.52-12-78.66-33.63-118.12C1278.86,466.2,1276.25,448.48,1283.16,432.34Z" transform="translate(255.06 140.45)"/><path class="cls-1" d="M557.91,874.29c12.32-29.57,27.13-36.44,70.72-28.83,32.14,5.61,58.11,5.27,75.43-15.43,13.51-16.17,36.84-13.95,63.66-2.92,26.38,10.85,26.63,26.32,27.91,42,.66,8.11-.29,16.53-3.56,23.47-8.89,18.82-7.08,39.35-4,61,6.93,48.88-.23,59-48.25,66.29-30.92,4.66-37.7,24.87-40.8,45.45-2.53,16.83-9.17,31.71-14.71,47.14-6.93,19.35-26.85,23.22-53.16,16.74C606,1123,597.75,1107,593.31,1090.25a72.41,72.41,0,0,1-1.85-24.8c3.89-44-8.91-88.49-30.74-133.78C551.16,911.85,549.26,891.92,557.91,874.29Z" transform="translate(255.06 140.45)"/><path class="cls-1" d="M67.48,41.63c41.16,10.78,52.91,29,50.88,87.72-1.49,43.3,3.72,77.4,34.13,96.37,23.73,14.82,25.09,45.9,15.5,83.19-9.43,36.69-29.74,39.85-50.09,44.4-10.54,2.36-21.79,2.65-31.51-.38-26.38-8.24-53-2.1-80.91,5.89-63,18.07-77.7,10.51-96-51.31-11.8-39.8-39.61-45-67.24-45.32-22.61-.25-43.39-6.26-64.7-10.71-26.71-5.58-35.46-31.06-31.76-66.84,3.53-34.18,23-48,44.21-56.87a95.78,95.78,0,0,1,32.27-7c58.61-3,114.75-27.93,170.31-64.95C16.85,39.64,42.72,33.48,67.48,41.63Z" transform="translate(255.06 140.45)"/><path class="cls-1" d="M816.39-140c42.72,2.32,58,17.89,67.83,76.14,7.27,43,19.29,75.5,53.08,88.06,26.37,9.8,34,40.14,32.07,78.81-1.89,38.05-21.25,45.27-40.38,53.86-9.91,4.45-20.93,7-31.12,6-27.65-2.78-52.69,8.65-78.51,22.14-58.44,30.53-74.43,26-105-31.15C694.73,117,666.28,117.52,639,122.8c-22.32,4.32-44,2.59-65.9,2.51-27.44-.1-41.2-23.44-44.78-59.43C524.9,31.5,541.31,14,560.38.93a96.44,96.44,0,0,1,30.38-13.39c57.15-14.75,107.41-50.69,154.66-98.37C766.11-131.71,790.34-143,816.39-140Z" transform="translate(255.06 140.45)"/><path class="cls-1" d="M1419.84,794.7c28.89,31.56,28.88,53.36-4.86,101.86-24.88,35.77-39.08,67.42-23.74,100,12,25.46-3.83,52.46-32.27,78.73-28,25.85-46.87,17.45-66.54,10.19-10.2-3.76-19.86-9.64-26.41-17.51-17.8-21.34-43.68-30.71-71.57-39.15-63.1-19.11-71.38-33.5-53.14-95.73,11.74-40.06-8.91-59.64-32.09-75-19-12.54-33.24-28.95-48.82-44.34-19.52-19.28-13-45.58,9.63-73.79,21.62-26.95,45.61-28,68.36-23.93a96.42,96.42,0,0,1,31.07,11.71c51.13,29.47,112.18,39,179.31,38C1378.15,765.4,1403.36,774.31,1419.84,794.7Z" transform="translate(255.06 140.45)"/><path class="cls-1" d="M1770.16,983.77c-42.56-4.39-57-20.68-64.07-79.34-5.18-43.26-15.6-76.35-48.74-90.53-25.87-11.06-32-41.74-28.22-80.27,3.73-37.91,23.42-44.19,42.94-51.84,10.11-4,21.24-6,31.38-4.47,27.47,4.12,53-6.09,79.49-18.31,59.85-27.66,75.59-22.41,103.33,36.2,17.85,37.74,46.3,38.64,73.8,34.69,22.5-3.24,44.08-.46,65.94.68,27.41,1.43,40,25.41,41.86,61.54,1.75,34.5-15.5,51.2-35.18,63.31a96.43,96.43,0,0,1-31,11.91c-57.79,12-109.74,45.42-159.25,90.76C1820.78,978,1796,988.05,1770.16,983.77Z" transform="translate(255.06 140.45)"/><path class="cls-1" d="M1535.63,300.25c-33.4-26.73-36.75-48.27-10.88-101.39,19.07-39.17,28.23-72.63,8-102.5-15.75-23.31-4.29-52.43,19.76-82.76,23.67-29.85,43.62-24.46,64.18-20.32,10.64,2.14,21.1,6.47,28.79,13.24,20.87,18.34,47.89,23.61,76.74,27.66,65.29,9.16,75.69,22.1,67.25,86.39-5.43,41.4,18,57.57,43.25,69.14,20.68,9.47,37.31,23.49,55.07,36.29,22.26,16,19.88,43,1.85,74.39-17.22,30-40.76,34.66-63.86,34.17a96.55,96.55,0,0,1-32.5-6.77c-55.06-21.25-116.85-21.25-183-10C1581.34,322.78,1555.06,317.86,1535.63,300.25Z" transform="translate(255.06 140.45)"/><path class="cls-1" d="M-128.24,935.5c-33.4-26.74-36.75-48.28-10.88-101.4,19.07-39.17,28.23-72.63,8.05-102.5-15.76-23.31-4.3-52.42,19.76-82.76,23.66-29.85,43.62-24.46,64.17-20.32,10.65,2.15,21.1,6.47,28.79,13.24C2.52,660.1,29.54,665.37,58.4,669.42c65.29,9.16,75.68,22.11,67.25,86.4-5.43,41.39,18,57.56,43.25,69.13,20.67,9.47,37.3,23.49,55.06,36.29,22.27,16,19.88,43,1.86,74.4-17.22,30-40.76,34.65-63.87,34.17a96.32,96.32,0,0,1-32.5-6.78c-55-21.25-116.85-21.25-183-9.95C-82.54,958-108.82,953.1-128.24,935.5Z" transform="translate(255.06 140.45)"/></g></g></svg>