<?xml version="1.0" encoding="UTF-8" standalone="no"?>
<!-- Generator: Adobe Illustrator 24.0.0, SVG Export Plug-In . SVG Version: 6.00 Build 0)  -->

<svg
   version="1.1"
   id="Capa_1"
   x="0px"
   y="0px"
   viewBox="0 0 1920 1080"
   style="enable-background:new 0 0 1920 1080;"
   xml:space="preserve"
   sodipodi:docname="03666545-0825-41cb-9866-c3afd325b57a.svgz"
   xmlns:inkscape="http://www.inkscape.org/namespaces/inkscape"
   xmlns:sodipodi="http://sodipodi.sourceforge.net/DTD/sodipodi-0.dtd"
   xmlns="http://www.w3.org/2000/svg"
   xmlns:svg="http://www.w3.org/2000/svg"><defs
   id="defs24" /><sodipodi:namedview
   id="namedview24"
   pagecolor="#ffffff"
   bordercolor="#000000"
   borderopacity="0.25"
   inkscape:showpageshadow="2"
   inkscape:pageopacity="0.0"
   inkscape:pagecheckerboard="0"
   inkscape:deskcolor="#d1d1d1" />
<style
   type="text/css"
   id="style1">
	.st0{fill:#272728;}
	.st1{fill:#181816;}
	.st2{fill:#363638;}
</style>
<rect
   x="-46.41"
   y="-48.57"
   class="st0"
   width="1995.5"
   height="1154"
   id="rect1" />
<g
   id="JJYeTo_1_">
	<g
   id="g13">
		<g
   id="g1">
			<path
   class="st1"
   d="M1921.09,566.08c-19.65,2.63-39.49,4.29-58.89,8.17c-21.21,4.24-36.33-0.75-49.2-19.41     c-17.19-24.91-37.46-47.68-55.92-71.74c-6.77-8.82-13.14-18.22-18.01-28.17c-13.17-26.9-5.79-53.87,22.53-59.6     c60.83-12.31,109.13-46.96,159.49-78.78C1921.09,399.72,1921.09,482.9,1921.09,566.08z"
   id="path1" />
		</g>
		<g
   id="g2">
			<path
   class="st1"
   d="M778.99,1170.72c10.26-41.38,49.06-72.17,98.34-71.78c45.39,0.36,90.9,4.81,136.04,10.16     c30.49,3.61,48.65,27.08,53.54,61.63C970.94,1170.72,874.96,1170.72,778.99,1170.72z"
   id="path2" />
		</g>
		<g
   id="g3">
			<path
   class="st1"
   d="M1167.69,1170.72c-4.94-71.14,36.19-72.97,80.26-50.47c24.92,12.73,45.8,33.38,68.5,50.47     C1266.86,1170.72,1217.27,1170.72,1167.69,1170.72z"
   id="path3" />
		</g>
		<g
   id="g4">
			<path
   class="st1"
   d="M657.87-123.64c-1.07,9.38-3.48,18.63-7.46,27.63C627.34-43.99,559.9-21.84,539.21,31.18     c-18.66,47.82,7.81,101.83,0.45,152.63c-5.71,39.4-33.33,74.9-70.13,90.1s-81.42,9.57-113.28-14.3     c-47.26-35.42-60.17-99.7-91.44-149.79c-23.59-37.8-58.1-67.88-81.25-105.95c-37.09-61.01-40.8-141-9.5-205.18     c32.02-65.66,94.69-110.16,155.84-150.13c122.6-80.13,208.08,0.35,283.44,103.27C639.89-211.93,662.76-166.45,657.87-123.64z"
   id="path4" />
		</g>
		<g
   id="g5">
			<path
   class="st1"
   d="M1154.76-0.47c-0.23-6.21-0.3-12.42-0.31-18.6c-0.1-53.14,3.24-106.28,9.99-158.98     c2.61-20.43,6.06-41.61,17.86-58.48c17.8-25.44,50.3-35.41,80.68-41.86c76.98-16.33,156.45-20.7,234.78-13.17     c58.99,5.67,162.47,9,204.61,57.23c19.45,22.27,25.87,57.44,9.27,81.92c-14.58,21.5-41.74,29.79-63.08,44.6     c-30.77,21.36-48.93,55.99-70.35,86.72s-51.05,60.55-88.44,62.87c-37.34,2.31-80.16-22.27-108.97,1.6     c-9.7,8.03-15.03,20-21.94,30.52c-22.19,33.75-64.09,53.43-104.23,48.94c-40.14-4.49-76.67-32.94-90.85-70.76     C1157.51,35.34,1155.43,17.47,1154.76-0.47z"
   id="path5" />
		</g>
		<g
   id="g6">
			<path
   class="st1"
   d="M-43.41,471.76c-0.42-31.47,10.61-66.05,39.54-76.54c17.8-6.46,38.13-1.92,55.98-8.24     c25.4-9,39.04-37.15,62.64-50.18c51.61-28.49,131.47,18.72,173.68,47.66c23.07,15.82,43.14,39.74,44.27,67.69     c0.91,22.69-10.98,44.38-27.15,60.31c-16.17,15.94-36.37,27.04-56.29,37.94c-30.71,16.8-61.41,33.6-92.12,50.39     c-32.85,17.97-69.97,36.53-106.12,26.78c-24.89-6.71-44.56-26.05-59.01-47.4c-20-29.55-32.2-64.34-35.03-99.91     C-43.24,477.46-43.37,474.62-43.41,471.76z"
   id="path6" />
		</g>
		<g
   id="g7">
			<path
   class="st1"
   d="M1931.41,1263.3c-49.58,0.19-74.22-15.44-89.73-55.43c-9.21-23.75-14.06-49.22-23.75-72.73     c-11.13-27-23.74-53.73-38.85-78.67c-14.53-23.98-21.05-48.66-6.01-72.01c16.55-25.69,34.77-53.45,74.02-45.33     c19.52,4.04,39.68,4.89,59.26,8.65c59.57,11.42,98.16,49.69,127.73,100.04c12.46,21.21,26.68,41.53,41.65,61.07     c27.63,36.07,24.47,73.83-11.85,103.11C2023.45,1244.62,1975.88,1259.43,1931.41,1263.3z"
   id="path7" />
		</g>
		<g
   id="g8">
			<path
   class="st1"
   d="M661.44,676c59.34,3.12,103.72,30.11,126.34,80.69c25.54,57.1,44.33,117.44,62.78,177.38     c8.5,27.61-10.58,48.68-30.69,65.51c-18.73,15.68-42.55,16.61-60.33,3.17c-33.4-25.24-64.79-53.59-94.43-83.23     c-25.87-25.87-47.88-55.56-72.17-83.06c-27.47-31.1-35.08-66.82-19.52-104.4C589.5,693.24,624.2,679.39,661.44,676z"
   id="path8" />
		</g>
		<g
   id="g9">
			<path
   class="st1"
   d="M487.4,775.57c0.12,14.33-3.63,28.31-12.27,39.88c-10.89,14.59-27.69,23.36-43.9,31.66     c-25.61,13.1-51.55,26.32-79.57,32.84s-58.79,5.77-83.99-8.11c-30.31-16.69-48.25-49.73-57.6-83.05     c-5.37-19.15-8.4-39.89-2.01-58.73s24.48-34.85,44.31-33.23c15.27,1.25,29.48,12.31,44.53,9.45c17.33-3.3,25.8-22.61,39.1-34.2     c41.54-36.19,110.09,17.15,134.22,51.4C480.83,738.51,487.25,757.31,487.4,775.57z"
   id="path9" />
		</g>
		<g
   id="g10">
			<path
   class="st1"
   d="M1576.81-450.5c-48.58,0-97.32,2.24-145.69-0.98c-22.88-1.52-47.11-9.95-67.11-21.51     c-31-17.92-32.48-51.32-6.53-76.46c26.08-25.27,58.17-34.88,92.57-24.43c33.86,10.28,61.26,6.82,91.74-13.53     c57.6-38.45,102.17-21.92,129.08,42.36c27.31,65.24,20.13,79.59-49.02,95.18c-14.63,3.3-29.85,3.97-44.8,5.86     C1576.96-446.18,1576.88-448.34,1576.81-450.5z"
   id="path10" />
		</g>
		<g
   id="g11">
			<path
   class="st1"
   d="M1492.14,435.02c-11.14,3.38-22.38,6.54-33.35,10.02c-51.75,16.42-103.04,42.16-157.16,37.73     c-18.94-1.55-39.53-8.37-48.53-25.11c-5.02-9.34-5.62-20.62-3.24-30.95c2.38-10.33,7.55-19.83,13.56-28.56     c8.55-12.45,19.23-23.89,32.79-30.53c25.24-12.37,56.38-6.45,81.86-18.31c17.93-8.35,30.8-24.41,44.01-39.13     c13.95-15.55,30.76-31.07,52.42-33.57c19.04-2.19,38.95,6.74,53.72,18.05c16.49,12.63,29.17,29.49,41.34,46.33     c5.6,7.74,11.33,16.05,12.07,25.57c1.03,13.25-7.9,25.26-17.95,33.95C1543.42,418.01,1518.05,427.15,1492.14,435.02z"
   id="path11" />
		</g>
		<g
   id="g12">
			<path
   class="st1"
   d="M1186.23,1037.11c-6.59-0.04-13.17-0.19-19.75-0.47c-25.12-1.04-52.6-4.99-69.48-23.63     c-19.85-21.93-18.96-57.9-40.75-77.91c-14.17-13.01-37.96-20.17-39.56-39.34c-0.89-10.62,6.17-20.22,13.77-27.68     c85.04-83.47,217.54-9.53,257.65,83.07c9.06,20.91,13.77,47.32-0.78,64.85c-11.54,13.9-31.23,17.33-49.23,18.94     C1220.86,1036.48,1203.54,1037.21,1186.23,1037.11z"
   id="path12" />
		</g>
	</g>
</g>
<g
   id="JJYeTo_5_">
	<g
   id="g24">
		<path
   class="st2"
   d="M1917.09,558.08c-19.65,2.63-39.49,4.29-58.89,8.17c-21.21,4.24-36.33-0.75-49.2-19.41    c-17.19-24.91-37.46-47.68-55.92-71.74c-6.77-8.82-13.14-18.22-18.01-28.17c-13.17-26.9-5.79-53.87,22.53-59.6    c60.83-12.31,109.13-46.96,159.49-78.78C1917.09,391.72,1917.09,474.9,1917.09,558.08z"
   id="path13" />
		<path
   class="st2"
   d="M774.99,1162.72c10.26-41.38,49.06-72.17,98.34-71.78c45.39,0.36,90.9,4.81,136.04,10.16    c30.49,3.61,48.65,27.08,53.54,61.63C966.94,1162.72,870.96,1162.72,774.99,1162.72z"
   id="path14" />
		<path
   class="st2"
   d="M1163.69,1162.72c-4.94-71.14,36.19-72.97,80.26-50.47c24.92,12.73,45.8,33.38,68.5,50.47    C1262.86,1162.72,1213.27,1162.72,1163.69,1162.72z"
   id="path15" />
		<path
   class="st2"
   d="M653.87-131.64c-1.07,9.38-3.48,18.63-7.46,27.63C623.34-51.99,555.9-29.84,535.21,23.18    c-18.66,47.82,7.81,101.83,0.45,152.63c-5.71,39.4-33.33,74.9-70.13,90.1s-81.42,9.57-113.28-14.3    c-47.26-35.42-60.17-99.7-91.44-149.79c-23.59-37.8-58.1-67.88-81.25-105.95c-37.09-61.01-40.8-141-9.5-205.18    c32.02-65.66,94.69-110.16,155.84-150.13c122.6-80.13,208.08,0.35,283.44,103.27C635.89-219.93,658.76-174.45,653.87-131.64z"
   id="path16" />
		<path
   class="st2"
   d="M1150.76-8.47c-0.23-6.21-0.3-12.42-0.31-18.6c-0.1-53.14,3.24-106.28,9.99-158.98    c2.61-20.43,6.06-41.61,17.86-58.48c17.8-25.44,50.3-35.41,80.68-41.86c76.98-16.33,156.45-20.7,234.78-13.17    c58.99,5.67,162.47,9,204.61,57.23c19.45,22.27,25.87,57.44,9.27,81.92c-14.58,21.5-41.74,29.79-63.08,44.6    c-30.77,21.36-48.93,55.99-70.35,86.72s-51.05,60.55-88.44,62.87c-37.34,2.31-80.16-22.27-108.97,1.6    c-9.7,8.03-15.03,20-21.94,30.52c-22.19,33.75-64.09,53.43-104.23,48.94c-40.14-4.49-76.67-32.94-90.85-70.76    C1153.51,27.34,1151.43,9.47,1150.76-8.47z"
   id="path17" />
		<path
   class="st2"
   d="M-47.41,463.76c-0.42-31.47,10.61-66.05,39.54-76.54c17.8-6.46,38.13-1.92,55.98-8.24    c25.4-9,39.04-37.15,62.64-50.18c51.61-28.49,131.47,18.72,173.68,47.66c23.07,15.82,43.14,39.74,44.27,67.69    c0.91,22.69-10.98,44.38-27.15,60.31c-16.17,15.94-36.37,27.04-56.29,37.94c-30.71,16.8-61.41,33.6-92.12,50.39    c-32.85,17.97-69.97,36.53-106.12,26.78c-24.89-6.71-44.56-26.05-59.01-47.4c-20-29.55-32.2-64.34-35.03-99.91    C-47.24,469.46-47.37,466.62-47.41,463.76z"
   id="path18" />
		<path
   class="st2"
   d="M1927.41,1255.3c-49.58,0.19-74.22-15.44-89.73-55.43c-9.21-23.75-14.06-49.22-23.75-72.73    c-11.13-27-23.74-53.73-38.85-78.67c-14.53-23.98-21.05-48.66-6.01-72.01c16.55-25.69,34.77-53.45,74.02-45.33    c19.52,4.04,39.68,4.89,59.26,8.65c59.57,11.42,98.16,49.69,127.73,100.04c12.46,21.21,26.68,41.53,41.65,61.07    c27.63,36.07,24.47,73.83-11.85,103.11C2019.45,1236.62,1971.88,1251.43,1927.41,1255.3z"
   id="path19" />
		<path
   class="st2"
   d="M657.44,668c59.34,3.12,103.72,30.11,126.34,80.69c25.54,57.1,44.33,117.44,62.78,177.38    c8.5,27.61-10.58,48.68-30.69,65.51c-18.73,15.68-42.55,16.61-60.33,3.17c-33.4-25.24-64.79-53.59-94.43-83.23    c-25.87-25.87-47.88-55.56-72.17-83.06c-27.47-31.1-35.08-66.82-19.52-104.4C585.5,685.24,620.2,671.39,657.44,668z"
   id="path20" />
		<path
   class="st2"
   d="M483.4,767.57c0.12,14.33-3.63,28.31-12.27,39.88c-10.89,14.59-27.69,23.36-43.9,31.66    c-25.61,13.1-51.55,26.32-79.57,32.84s-58.79,5.77-83.99-8.11c-30.31-16.69-48.25-49.73-57.6-83.05    c-5.37-19.15-8.4-39.89-2.01-58.73s24.48-34.85,44.31-33.23c15.27,1.25,29.48,12.31,44.53,9.45c17.33-3.3,25.8-22.61,39.1-34.2    c41.54-36.19,110.09,17.15,134.22,51.4C476.83,730.51,483.25,749.31,483.4,767.57z"
   id="path21" />
		<path
   class="st2"
   d="M1572.81-458.5c-48.58,0-97.32,2.24-145.69-0.98c-22.88-1.52-47.11-9.95-67.11-21.51    c-31-17.92-32.48-51.32-6.53-76.46c26.08-25.27,58.17-34.88,92.57-24.43c33.86,10.28,61.26,6.82,91.74-13.53    c57.6-38.45,102.17-21.92,129.08,42.36c27.31,65.24,20.13,79.59-49.02,95.18c-14.63,3.3-29.85,3.97-44.8,5.86    C1572.96-454.18,1572.88-456.34,1572.81-458.5z"
   id="path22" />
		<path
   class="st2"
   d="M1488.14,427.02c-11.14,3.38-22.38,6.54-33.35,10.02c-51.75,16.42-103.04,42.16-157.16,37.73    c-18.94-1.55-39.53-8.37-48.53-25.11c-5.02-9.34-5.62-20.62-3.24-30.95c2.38-10.33,7.55-19.83,13.56-28.56    c8.55-12.45,19.23-23.89,32.79-30.53c25.24-12.37,56.38-6.45,81.86-18.31c17.93-8.35,30.8-24.41,44.01-39.13    c13.95-15.55,30.76-31.07,52.42-33.57c19.04-2.19,38.95,6.74,53.72,18.05c16.49,12.63,29.17,29.49,41.34,46.33    c5.6,7.74,11.33,16.05,12.07,25.57c1.03,13.25-7.9,25.26-17.95,33.95C1539.42,410.01,1514.05,419.15,1488.14,427.02z"
   id="path23" />
		<path
   class="st2"
   d="M1182.23,1029.11c-6.59-0.04-13.17-0.19-19.75-0.47c-25.12-1.04-52.6-4.99-69.48-23.63    c-19.85-21.93-18.96-57.9-40.75-77.91c-14.17-13.01-37.96-20.17-39.56-39.34c-0.89-10.62,6.17-20.22,13.77-27.68    c85.04-83.47,217.54-9.53,257.65,83.07c9.06,20.91,13.77,47.32-0.78,64.85c-11.54,13.9-31.23,17.33-49.23,18.94    C1216.86,1028.48,1199.54,1029.21,1182.23,1029.11z"
   id="path24" />
	</g>
</g>
</svg>
