<svg xmlns="http://www.w3.org/2000/svg" viewBox="0 0 356.07 183.83"><defs><style>.cls-1{fill:#f4f4f4;}</style></defs><title>MANCHA BOTON BLANCON SIN SOMBRA</title><g id="Capa_2" data-name="Capa 2"><g id="Capa_1-2" data-name="Capa 1"><path class="cls-1" d="M287,32.76a44,44,0,0,0-3-11.44C277.38,6.73,258.85-.52,241.86,0s-33,7.24-48.58,13.52c-18.72,7.53-37.81,14.67-57.88,18C104.23,36.75,83.21,23,54.7,17.18c-6.74-1.38-14.43-.42-19.4,4C21.87,33.27,34.51,56.45,9,88.59c-11.53,14.49-10.86,36.49-4.1,53.71,7.53,19.15,27.31,32.43,48.41,37.81C80.06,187,108.42,182.77,136,180c39.39-4,114.71.38,133.6,2.61,41.1,4.87,78.05-21.92,85.41-59.81,1.53-7.85,1.66-16.2-1.69-23.54-3.63-7.92-10.89-13.83-18.12-19.19C320.4,69.09,292,63.49,287,32.76Z"/></g></g></svg>
