<svg xmlns="http://www.w3.org/2000/svg" viewBox="0 0 358 190"><title>MANCHA BOTON NEGRO SIN SOMBRA</title><g id="Capa_2" data-name="Capa 2"><g id="Capa_1-2" data-name="Capa 1"><path d="M69.07,151.07a44.12,44.12,0,0,0,3,11.44c6.66,14.59,25.19,21.83,42.19,21.29s33-7.24,48.57-13.52c18.72-7.54,37.81-14.67,57.88-18,31.18-5.19,52.2,8.57,80.71,14.38,6.74,1.38,14.42.42,19.4-4.05,13.42-12,.78-35.22,26.33-67.36C358.63,80.75,358,58.75,351.2,41.53,343.68,22.38,323.89,9.1,302.79,3.71c-26.77-6.84-55.14-2.66-82.74.12-39.39,4-114.72-.38-133.6-2.61C45.34-3.65,8.4,23.14,1,61-.49,68.88-.63,77.23,2.72,84.57c3.63,7.92,10.89,13.83,18.13,19.19C35.68,114.74,64,120.34,69.07,151.07Z" stroke="#444" stroke-width="4" /></g></g></svg>
