<svg xmlns="http://www.w3.org/2000/svg" xmlns:xlink="http://www.w3.org/1999/xlink" xml:space="preserve" viewBox="-29 -10 1689 1398.5">
  <defs>
    <path id="a" d="M-29-10h1689v811H-29z"/>
  </defs>
  <clipPath id="b">
    <use xlink:href="#a" overflow="visible"/>
  </clipPath>
  <g clip-path="url(#b)">
    <path d="M1470.5 114.7c49.5 34.5 88.7 83.2 103.6 141.8 44.7 175.5-138.5 346.9-101.6 524.2 16.4 78.7 75.3 146.6 77.7 227 2.1 70.1-39.1 133.2-78.7 191.1-32.9 48.1-69.8 99.2-125.2 117.2-39.2 12.7-82 6.5-121.8-4.4-93.7-25.7-178.8-76.1-271.5-105.3-87.2-27.4-179-35.4-269.5-48.3-90.5-12.9-182.2-31.7-261-77.8S278.8 955.7 269.4 864.8c-5.9-57.6 10.2-117.4-6.2-173-19.4-65.4-78.7-109.3-120.6-163-62.8-80.3-87.2-191.3-56.7-288.6S203.4 63.8 304.4 49.9c75.5-10.4 150.9 13.6 225.1 31 148.6 34.9 304 44.1 454.6 19.5 121.5-19.8 247.3-63.4 371.1-36.2 40.4 8.9 80.4 26.2 115.3 50.5z" fill="#181816"/>
  </g>
  <g opacity=".33" clip-path="url(#b)">
    <path d="M296.2 3.9H293.7c-2.2 0-4.4.1-6.6.1h-2v1c3.6-.1 7.3-.2 11-.2v-.9h.1zm-22 .8c-3.7.3-7.3.6-11 1l.1 1c3.6-.4 7.3-.7 10.9-1v-1zM252.3 7c-1.6.2-3.2.5-4.7.7H246.6c-1.7.3-3.3.6-5 .9l.2 1c3.6-.7 7.2-1.3 10.8-1.8l-.3-.8zm-21.6 4.2c-2.1.5-4.2 1-6.3 1.6h-1.3c-1 .3-2 .5-3 .8l.3 1c3.5-1 7.1-1.9 10.6-2.7l-.3-.7zm-21.2 5.9c-.2.1-.4.1-.7.2H208c-3 1-5.9 2-8.9 3.1l.3.9c3.4-1.3 6.9-2.5 10.3-3.6l-.2-.6zm-20.6 7.7c-3.4 1.4-6.7 2.9-10.1 4.4l.4.9c3.3-1.5 6.7-3 10-4.4l-.3-.9zM169 34c-1.2.6-2.4 1.3-3.7 1.9 0 0-.1 0-.1.1h-.4s-.1 0-.1.1c0 0-.1 0-.1.1-1.8 1-3.6 1.9-5.3 2.9l.5.9c3.2-1.8 6.4-3.5 9.7-5.2l-.5-.8zm-19.2 10.8-2.4 1.5s-.1 0-.1.1h-.4s-.1 0-.1.1h-.1s-.1 0-.1.1c0 0-.1 0-.1.1 0 0-.1 0-.1.1 0 0-.1 0-.1.1l-.1.1c-1.9 1.2-3.8 2.4-5.6 3.6l.6.8c3-2 6.1-4 9.2-5.9l-.6-.7zm-18.4 12.1c-1 .7-2 1.5-3.1 2.2l-.1.1-.1.1-.1.1-.1.1-.1.1-.1.1h-.1l-.1.1s-.1 0-.1.1c0 0-.1 0-.1.1l-.1.1-.1.1s-.1 0-.1.1l-.1.1-.1.1-.1.1-.1.1-.1.1-.1.1c-.1.1-.2.1-.2.2-.2.1-.3.3-.5.4 0 0-.1 0-.1.1l-.1.1h-.1l-.1.1h-.2s-.1 0-.1.1c0 0-.1 0-.1.1l-.1.1-.1.1c-.5.4-1.1.8-1.6 1.3l.6.8c2.9-2.2 5.8-4.4 8.8-6.5l-1.1-.9zM114 70.4c-2.8 2.3-5.6 4.7-8.3 7.2l.7.7c2.7-2.4 5.5-4.8 8.3-7.2l-.7-.7zM97.6 85.1c-2.1 2-4.1 4-6.2 6.1l-.1.1-.1.1-.1.1-.1.1-.1.1-.1.1-.1.1-.1.1c-.3.3-.6.6-.8.9l.7.7c2.5-2.6 5.1-5.2 7.8-7.7l-.7-.8zm-15.3 15.7c-2.2 2.4-4.3 4.9-6.4 7.3v.1s0 .1-.1.1l-.1.1-.1.1c-.1.2-.3.3-.4.5l.8.6c2.3-2.8 4.8-5.6 7.2-8.3l-.9-.5zm-14.1 16.9-.1.1-.1.1-.1.1-.1.1-.1.1-.1.1-.1.1-.1.1-.1.1c-.2.3-.4.5-.6.8l-.1.1v.1s0 .1-.1.1v.1s0 .1-.1.1v.1s0 .1-.1.1v.1l-.1.1v.1l-.1.1v.1l-.1.1v.1l-.1.1-.1.1v.1s0 .1-.1.1c0 0 0 .1-.1.1v.1s0 .1-.1.1c0 0 0 .1-.1.1-.2.2-.3.4-.5.6l-.1.1-.1.1s0 .1-.1.1c0 0 0 .1-.1.1 0 0 0 .1-.1.1v.1s0 .1-.1.1c0 0 0 .1-.1.1 0 0 0 .1-.1.1 0 0 0 .1-.1.1v.1s0 .1-.1.1v.1s0 .1-.1.1v.1l-.1.1s0 .1-.1.1v.1l-.1.1c-.1.1-.1.2-.2.3l-.1.1-.1.1-1.5 2.1.8.6c2.1-2.9 4.4-5.9 6.6-8.7l-.8-.9zm-13 17.7c-2.1 3-4 6.1-6 9.2l.8.5c1.9-3.1 3.9-6.2 6-9.2l-.8-.5zm-11.6 18.7c-.9 1.5-1.7 3-2.5 4.5 0 0 0 .1-.1.1 0 0 0 .1-.1.1v.7s0 .1-.1.1c0 0 0 .1-.1.1 0 0 0 .1-.1.1l-.1.1c-.7 1.3-1.4 2.5-2 3.8l.9.5c1.7-3.2 3.5-6.4 5.3-9.6l-1.1-.5zm-10.3 19.4c-1 2.1-2 4.1-2.9 6.2 0 0 0 .1-.1.1 0 0 0 .1-.1.1 0 0 0 .1-.1.1 0 0 0 .1-.1.1 0 0 0 .1-.1.1 0 0 0 .1-.1.1-.4.9-.8 1.9-1.3 2.8l.9.4c1.5-3.3 3-6.7 4.6-10h-.7zm-8.8 20.2s-.1 0 0 0c-.1 0-.1.1 0 0 0 .1-.1.2-.1.2v.2l-.3.9s0 .1-.1.1c0 0 0 .1-.1.1 0 0 0 .1-.1.1V195.6s0 .1-.1.1c0 .1 0 .1-.1.1-.3.7-.5 1.4-.8 2.1 0 .1 0 .1-.1.1 0 .1 0 .1-.1.1l-.6 1.5V200.4s0 .1-.1.1c-.4 1-.7 1.9-1 2.9l.9.3c1.2-3.4 2.5-6.9 3.8-10.3l-1.1.3zm-7.3 20.8c-.6 2.1-1.3 4.2-1.9 6.3v.1c0 .1-.1.3-.1.4V223.2c-.1.5-.3.9-.4 1.4l1 .3c.9-3.5 2-7.1 3-10.5l-1.6.1zm-5.7 21.2c-.8 3.6-1.6 7.2-2.3 10.8l1 .2c.7-3.6 1.5-7.2 2.3-10.7l-1-.3zm-4.2 21.6c-.1.3-.1.7-.2 1V258.9c-.3 2-.6 4-.8 6v.6c-.1.9-.2 1.9-.4 2.9l1 .1c.4-3.6 1-7.3 1.5-10.9l-1.1-.3zm-2.7 21.8c-.3 3.6-.6 7.2-.8 10.8v.2l1 .1c.2-3.6.5-7.3.8-10.9l-1-.2zm-1.2 22c-.1 3.7-.1 7.3 0 11h1v-11h-1zM4.7 323h-1v1.9c.1 1.4.2 2.9.2 4.3V330.5l.3 3.6 1-.1c-.1-3.7-.3-7.3-.5-11zm1.7 21.9-1 .1v.6c.2 2.2.5 4.3.8 6.5v.7c.1 1 .3 1.9.4 2.9l1-.1c-.3-3.4-.8-7.1-1.2-10.7zm3.1 21.7-1 .2c.1.7.2 1.4.4 2V369.7c0 .1 0 .2.1.3V371.7c.4 2 .8 3.9 1.2 5.9l1-.2c-.4-3.6-1.1-7.2-1.7-10.8zm4.4 21.5-1 .2.6 2.7v.5c0 .1.1.2.1.3V393.6c0 .1.1.2.1.3.1.3.1.5.2.8V396.8c.1.3.1.6.2.8v.8l1-.3c.5-2.9-.4-6.5-1.2-10zm5.7 21.2-1 .3c.7 2.2 1.3 4.4 2.1 6.6v.6c.3 1.1.7 2.2 1.1 3.2l.9-.3c-.9-3.4-2-6.9-3.1-10.4zm7 20.8-.9.3c.5 1.3 1 2.7 1.5 4V436.1s0 .1.1.1c0 .1 0 .1.1.2.2.6.5 1.3.8 1.9.2.6.5 1.2.7 1.8 0 .1 0 .1.1.2 0 0 0 .1.1.1v.4l.9-.4c-.8-3.5-2.1-6.9-3.4-10.3zm8.2 20.3-.9.4c.8 1.9 1.7 3.8 2.5 5.6 0 .1 0 .1.1.2 0 0 0 .1.1.1 0 0 0 .1.1.1V458.2s0 .1.1.1c0 .1 0 .1.1.2 0 0 0 .1.1.1 0 0 0 .1.1.1 0 0 0 .1.1.1 0 0 0 .1.1.1 0 0 0 .1.1.1 0 0 0 .1.1.1.2.5.5 1 .7 1.6l.9-.4c-1.3-3.2-2.8-6.6-4.3-9.9zm9.5 19.8-.9.5c1.7 3.3 3.4 6.5 5.2 9.7l.9-.5c-1.8-3.2-3.5-6.4-5.2-9.7zm10.6 19.2-.9.5c.6 1 1.2 1.9 1.7 2.9 0 0 0 .1.1.1 0 0 0 .1.1.1 0 0 0 .1.1.1v.1s0 .1.1.1v.6s0 .1.1.1v.1s0 .1.1.1c0 0 0 .1.1.1.1.2.2.4.4.6l.1.1s0 .1.1.1c0 0 0 .1.1.1v.1s0 .1.1.1v.6s0 .1.1.1c0 0 0 .1.1.1 0 0 0 .1.1.1.7 1 1.3 2.1 2 3.1l.8-.5c-1.6-3.2-3.5-6.4-5.4-9.5zm11.8 18.5-.8.6 6.3 9 .8-.6-6.3-9zm12.9 17.7-.8.6.1.1c.1.1.1.2.2.2l.1.1c.1.1.1.2.2.2 2.1 2.6 4.2 5.3 6.3 7.9l.8-.6c-2.3-2.8-4.5-5.6-6.6-8.2l-.3-.3zm14 17-.8.7c.1.1.1.2.2.2 2.3 2.7 4.7 5.4 7 8l.7-.7c-2.5-2.9-4.8-5.6-7.1-8.2zm14.6 16.4-.7.7c1.3 1.4 2.5 2.8 3.8 4.2l.1.1.1.1.1.1.1.1.2.2c.1.1.1.2.2.2.9 1 1.9 2 2.8 3l.7-.7c-2.7-2.9-5.2-5.5-7.4-8zm14.9 16.1-.7.7c.7.7 1.3 1.4 2 2.1.8.9 1.7 1.8 2.5 2.7l.2.2c.9 1 1.9 2 2.8 3l.7-.7c-1.8-1.9-3.6-3.8-5.4-5.8l-2.1-2.2zm15 16.2-.7.7c.5.5 1 1.1 1.5 1.6l.1.1.1.1.2.2c1.6 1.8 3.2 3.5 4.8 5.3v.1c0 .1.1.1.1.2.2.2.3.4.5.6l.7-.7c-2.2-2.6-4.6-5.3-7.3-8.2zm14.7 16.3-.8.7c1 1.2 2 2.3 3 3.5l.1.1.1.1.1.1.1.1v.1l.1.1.1.1.1.1c.1.1.1.2.2.2.1.1.1.2.2.2 1 1.1 2 2.3 2.9 3.5l.8-.6c-2.1-2.6-4.5-5.4-7-8.3zm14.2 16.9-.8.6c2.3 2.9 4.6 5.8 6.8 8.7l.8-.6c-2.1-2.9-4.4-5.8-6.8-8.7zm13.3 17.6-.8.6c.3.4.6.9.9 1.3l.1.1.1.1v.1s0 .1.1.1v.2s0 .1.1.1c0 0 0 .1.1.1 0 0 0 .1.1.1l.1.1.1.1.1.1c1.5 2.1 2.9 4.3 4.3 6.4l.8-.5c-1.8-2.9-3.9-6-6.1-9zm12 18.5-.9.5c.1.1.1.2.2.3l.1.1s0 .1.1.1c0 0 0 .1.1.1 0 0 0 .1.1.1 0 0 0 .1.1.1 0 0 0 .1.1.1v.6s0 .1.1.1v.1s0 .1.1.1v.2s0 .1.1.1c0 .1.1.2.1.3 0 .1.1.1.1.2.1.1.1.2.2.3 1.3 2.2 2.5 4.5 3.6 6.7l.9-.5c-1.4-3.1-3.2-6.3-5.1-9.6zm10.2 19.7-.9.4c.3.8.7 1.5 1 2.3 0 .1.1.2.1.3 0 .1 0 .1.1.2v.1c0 .1 0 .1.1.2 0 .1 0 .1.1.2v.2s0 .1.1.1V685.4s0 .1.1.1v.1s0 .1.1.1c0 .1.1.2.1.3.7 1.6 1.3 3.3 2 5l.9-.4c-.9-3.5-2.3-7-3.8-10.3zm7.8 20.6-1 .3v.2c.1.3.2.6.3 1V702.7c.1.2.1.5.2.7V708.9c.3 1.1.5 2.1.8 3.2l1-.2c-.7-2.8-1.4-5.6-2.3-8.4 1.5-1.1 1.3-1.8 1-2.6zm5.3 21.5-1 .2c.1.7.3 1.5.4 2.2V725.9c.3 1.6.5 3.2.7 4.8v1.2c.1.5.1 1 .2 1.5l1-.1c-.1-3.7-.7-7.4-1.3-10.9zm2.8 21.9-1 .1c.1.7.1 1.3.2 2V749.4c0 .6.1 1.1.1 1.7v1c.1 1 .1 2.1.1 3.1h1c.1-3.7-.1-7.4-.4-10.9zm.9 22h-1V777.2h1c.1-3.7.1-7.4 0-10.9zm-1.3 22.1c-.1 3.7-.3 7.3-.4 11h1c.2-4 .3-7.6.4-11h-1zm-.9 21.9v1c0 .5-.1 1.1-.1 1.6 0 .6-.1 1.1-.1 1.7l-.3 6.6 1 .1.3-6.6.2-4.4h-1zm-1.1 22c-.2 3.7-.3 7.3-.4 11h1c.1-3.4.2-7 .4-11h-1zm-.7 22v11h1c-.1-3.5-.1-7.2 0-11h-1zm1.4 21.9h-1c.2 3.7.4 7.3.7 11l1-.1c-.3-3.4-.5-7.1-.7-10.9zm1.9 21.9-1 .1c.1.6.2 1.2.2 1.8v1c.2 1.7.5 3.4.8 5.1v1.3c0 .1 0 .3.1.4v.2c0 .3.1.5.1.8l1-.2c-.1-3.3-.7-6.9-1.2-10.5zm3.9 21.5-1 .2c.5 2.3 1.1 4.7 1.7 7V927.9l.6 2.4 1-.3c-.6-3.3-1.5-6.8-2.3-10.4zm5.7 21.2-1 .3v.5c0 .1.1.2.1.2V942.1c.1.2.1.3.2.5v.2c.1.2.1.4.2.7v.1c.1.2.1.4.2.7.1.3.2.5.3.8.1.3.2.5.3.8.1.3.2.5.3.8v.1c.1.2.1.4.2.5V947.6c0 .1 0 .1.1.2V948.6c0 .1.1.2.1.3 0 0 0 .1.1.1 0 0 0 .1.1.1.2.6.5 1.3.7 1.9l.9-.3c-.5-3-1.7-6.5-2.8-9.9zm7.5 20.6-.9.4c.4 1 .8 2 1.2 2.9 0 0 0 .1.1.1 0 0 0 .1.1.1.1.1.1.2.2.4v.6c0 .1.1.2.1.3 0 0 0 .1.1.1 0 0 0 .1.1.1.6 1.5 1.3 2.9 2 4.4 0 0 0 .1.1.1v.4c.1.1.1.3.2.4l.9-.4c-1.3-3.2-2.8-6.6-4.2-9.9zm9.2 19.9-.9.5c1.7 3.3 3.4 6.5 5.2 9.7l.9-.5c-1.9-3.2-3.6-6.5-5.2-9.7zm10.6 19.1-.9.5.9 1.5c.1.2.2.3.3.5 0 0 0 .1.1.1v.6l.1.1s0 .1.1.1c0 0 0 .1.1.1 0 0 0 .1.1.1 1.3 2.1 2.6 4.2 4 6.2l.8-.5c-1.8-3-3.7-6.2-5.6-9.3zm12 18.4-.8.6c1.3 1.9 2.7 3.8 4.1 5.7l.1.1s0 .1.1.1l.1.1v.2c.1.1.1.2.2.3l.1.1c.6.8 1.1 1.5 1.7 2.3l.8-.6c-2.2-3-4.3-5.9-6.4-8.9zm13.2 17.5-.8.6 5.7 6.9.1.1.1.1c.4.4.7.8 1.1 1.2l.8-.7c-2.4-2.5-4.7-5.4-7-8.2zm14.3 16.6-.7.7c.6.6 1.1 1.2 1.7 1.8 0 0 0 .1.1.1l.1.1.1.1v.1l.1.1.1.1.1.1.1.1.1.1 1.2 1.2.1.1.1.1.2.2.1.1.1.1.1.1.1.1c1 1 1.9 2 2.9 3l.7-.7c-2.4-2.3-4.9-5-7.4-7.7zm15.3 15.7-.7.7c.8.8 1.7 1.6 2.5 2.4l.5.5.1.1.1.1.1.1.1.1.1.1.1.1h.1l.1.1.1.1.1.1h.1l.1.1.3.3.1.1.1.1c1.1 1 2.2 2.1 3.4 3.1l.7-.7c-2.8-2.4-5.5-5-8.1-7.5zm16.3 14.8-.7.8c2.8 2.4 5.6 4.7 8.4 7l.6-.8c-2.8-2.3-5.6-4.6-8.3-7zm17 13.8-.6.8c2.9 2.2 5.9 4.4 8.8 6.6l.6-.8c-2.9-2.2-5.9-4.4-8.8-6.6zm17.8 12.8-.6.8c3 2.1 6.1 4.1 9.2 6l.5-.8c-3-1.9-6.1-3.9-9.1-6zm18.5 11.8-.5.9c.1.1.2.1.3.2 0 0 .1 0 .1.1.1 0 .1.1.2.1h.1c.1 0 .1.1.2.1s.1.1.2.1.1.1.2.1.1.1.2.1h.1c.1 0 .1.1.2.1 0 0 .1 0 .1.1l.1.1s.1 0 .1.1c.1 0 .1.1.2.1.3.2.6.3.9.5.1 0 .1.1.2.1s.1.1.2.1.2.1.2.1h.1c.1 0 .1.1.2.1.2.1.3.2.5.3.2.1.3.2.5.3.1 0 .2.1.2.1.2.1.3.2.5.3.1 0 .1.1.2.1.2.1.3.2.5.3h.1c.1 0 .1.1.2.1h.1c.1 0 .1.1.2.1 0 0 .1 0 .1.1 0 0 .1 0 .1.1l.1.1h.1c.7.4 1.3.8 2 1.1l.5-.9c-2-1.1-3.9-2.3-5.9-3.4-1.2-.3-2.4-1.1-3.6-1.8zm19.1 10.8-.5.9c3.2 1.7 6.5 3.4 9.8 5.1l.5-.9c-3.3-1.6-6.6-3.4-9.8-5.1zm19.6 9.9-.4.9c2.7 1.3 5.3 2.5 8 3.7h.1c.1 0 .1.1.2.1h.2c.5.2 1 .5 1.5.7l.4-.9c-3.4-1.3-6.7-2.9-10-4.5zm20 9.1-.4.9 10.2 4.2.4-.9c-3.5-1.4-6.9-2.8-10.2-4.2zm20.4 8.2-.4.9c2.2.8 4.4 1.7 6.6 2.5.1 0 .2.1.3.1.4.2.9.3 1.3.5.7.2 1.4.5 2.1.7l.3-.9c-3.4-1.2-6.9-2.5-10.2-3.8zm20.6 7.4-.3.9c.5.2 1.1.4 1.6.6.1 0 .2.1.3.1.1 0 .2.1.2.1h.2c.1 0 .2.1.4.1.1 0 .2.1.3.1 2.4.8 4.9 1.6 7.3 2.4l.3-1c-3.3-.9-6.8-2.1-10.3-3.3zm20.9 6.8-.3 1c.4.1.9.3 1.3.4h.1c.1 0 .1 0 .2.1H502.1c.1 0 .1 0 .2.1h.1c2.8.8 5.6 1.7 8.4 2.5l.3-1c-3.6-1-7.1-2.1-10.6-3.1zm21.2 6-.3 1c3 .8 6 1.6 8.9 2.4h.2c.1 0 .2 0 .2.1.4.1.8.2 1.1.3l.2-1c-3.3-.9-6.9-1.8-10.3-2.8zm21.2 5.5-.2 1 6.3 1.5c.1 0 .2 0 .3.1h.5c1.2.3 2.3.5 3.5.8l.2-1c-3.5-.7-7.1-1.5-10.6-2.4zm21.5 4.9-.2 1c2.5.5 4.9 1.1 7.4 1.6h.8c.9.2 1.7.4 2.6.5l.2-1c-3.7-.5-7.3-1.3-10.8-2.1zm21.5 4.5-.2 1c2.4.5 4.7.9 7.1 1.4h.4c1.1.2 2.1.4 3.2.6l.2-1c-3.6-.6-7.2-1.3-10.7-2zm21.6 4.1-.2 1c1.3.2 2.6.5 3.9.7H612c.1 0 .2 0 .3.1 1 .2 2 .4 3 .5h.8l1.8.3.2-1c-3.4-.4-7.1-1-10.6-1.6zm21.7 3.6-.2 1c3.6.6 7.2 1.2 10.9 1.7l.2-1c-3.8-.5-7.4-1.1-10.9-1.7zm21.7 3.4-.1 1H651.7c1.1.2 2.3.3 3.4.5H656.2c1.4.2 2.7.4 4.1.6h.3c.4.1.7.1 1.1.2l.1-1c-3.7-.2-7.3-.7-10.9-1.3zm21.7 3.2-.1 1c3.1.4 6.2.9 9.2 1.3h.4c.4.1.9.1 1.3.2l.1-1c-3.6-.5-7.2-1-10.9-1.5zm21.8 3-.1 1c1.9.3 3.8.5 5.7.8h.1c.1 0 .3 0 .4.1.1 0 .3 0 .4.1h.2c.2 0 .4.1.6.1h.1c1.1.1 2.2.3 3.4.4l.1-1c-3.6-.5-7.2-1-10.9-1.5zm21.8 2.9-.1 1c3.6.5 7.3 1 10.9 1.4l.1-1-.6-.1-10.3-1.3zm21.8 2.9-.1 1c.9.1 1.8.2 2.7.4h.1c.2 0 .4.1.6.1h.2c.2 0 .3 0 .5.1h.1l4.5.6c.7.1 1.5.2 2.2.3l.1-1c-3.6-.6-7.2-1.1-10.9-1.5zm21.9 2.9-.1 1c1.6.2 3.1.4 4.7.6h.1c.1 0 .3 0 .4.1 1.9.3 3.8.5 5.6.8l.1-1c-3.6-.6-7.2-1.1-10.8-1.5zm21.8 3-.1 1 2.4.3h.4l8.1 1.2.1-1c-3.7-.5-7.3-1-10.9-1.5zm21.7 3.1-.1 1c3.6.5 7.3 1.1 10.9 1.7l.2-1c-3.7-.6-7.3-1.1-11-1.7zm21.8 3.4-.2 1c.3.1.7.1 1 .2.1 0 .2 0 .3.1.1 0 .2 0 .3.1.2 0 .4.1.7.1.1 0 .2 0 .3.1.1 0 .2 0 .3.1 2.6.4 5.2.9 7.8 1.3l.2-1c-3.4-.8-7-1.4-10.7-2zm21.7 3.7-.2 1c3.4.6 6.7 1.2 10.1 1.8.2 0 .5.1.7.1l.2-1c-3.5-.6-7.2-1.2-10.8-1.9zm21.6 4.1-.2 1c1.5.3 2.9.6 4.4.9.1 0 .2 0 .3.1h.8c1.7.4 3.5.7 5.2 1.1l.2-1c-3.4-.7-7-1.4-10.7-2.1zm21.6 4.4-.2 1c3.6.8 7.2 1.6 10.7 2.4l.2-1c-3.5-.8-7.1-1.6-10.7-2.4zm21.4 5-.2 1c.6.2 1.3.3 1.9.5.1 0 .2 0 .2.1h.1c.1 0 .1 0 .2.1H914.3c.1 0 .2 0 .3.1h.1c.1 0 .2 0 .2.1h.1c.1 0 .2 0 .2.1h.1c.1 0 .2 0 .3.1h.1c2.1.5 4.2 1.1 6.3 1.6l.3-1-10.8-2.7zm21.4 5.5-.3 1c.6.2 1.2.3 1.9.5h.2c.1 0 .1 0 .2.1h.1c2.7.8 5.5 1.5 8.2 2.3l.3-1c-3.5-.9-7.1-1.9-10.6-2.9zm21.1 6.2-.3 1h.1c1.5.4 2.9.9 4.4 1.4.1 0 .2.1.3.1.1 0 .2.1.3.1.1 0 .2.1.3.1.1 0 .2.1.3.1 1.6.5 3.3 1 4.9 1.6l.3-1c-1.8-.6-3.7-1.2-5.5-1.8-1.7-.6-3.4-1.1-5.1-1.6zm21 6.7-.3.9c1.8.6 3.7 1.3 5.5 1.9.1 0 .1 0 .2.1h.1c.1 0 .2.1.2.1 1.4.5 2.9 1 4.3 1.5l.3-.9c-3.4-1.2-6.9-2.4-10.3-3.6zm20.7 7.4-.3.9h.1c.1 0 .2.1.2.1.1 0 .2.1.3.1.4.1.7.3 1.1.4.1 0 .1.1.2.1h.1c.1 0 .1 0 .2.1h.1c.1 0 .1 0 .2.1h.1c.1 0 .1 0 .2.1h.1c.1 0 .1 0 .2.1h.1c.1 0 .1 0 .2.1h.1c.1 0 .1 0 .2.1h.1c.1.1.3.1.4.2h.1c.1 0 .1 0 .2.1 0 0 .1 0 .1.1.1 0 .1 0 .2.1 0 0 .1 0 .2.1 0 0 .1 0 .1.1.1 0 .1 0 .2.1 0 0 .1 0 .1.1.1 0 .1 0 .2.1h.1c.1 0 .1 0 .2.1h.1c.1 0 .2.1.2.1h.1c1.3.5 2.6 1 3.8 1.5l.4-.9c-3.3-1.4-6.8-2.7-10.2-4zm20.6 7.9-.4.9c3.4 1.3 6.8 2.7 10.2 4.1l.4-.9c-3.4-1.4-6.9-2.8-10.2-4.1zm20.4 8.2-.4.9 10.2 4.2.4-.9c-3.5-1.4-6.9-2.8-10.2-4.2zm20.3 8.6-.4.9c1 .4 2.1.9 3.1 1.3.1 0 .1 0 .2.1s.3.1.4.2c.1 0 .2.1.3.1.1 0 .2.1.3.1.1.1.3.1.4.2.1 0 .1.1.2.1.1.1.3.1.4.2.1 0 .2.1.2.1.1.1.2.1.4.2.1.1.2.1.4.2.1 0 .1.1.2.1.2.1.3.1.5.2h.1c1 .4 2.1.9 3.1 1.3l.4-.9c-3.5-1.5-6.8-3-10.2-4.4zm20.2 8.7-.4.9c1.7.7 3.4 1.5 5.2 2.2 1.6.7 3.3 1.4 4.9 2.2l.4-.9c-3.4-1.5-6.7-2.9-10.1-4.4zm20.2 8.8-.4.9c3.4 1.5 6.7 2.9 10.1 4.4l.4-.9c-3.4-1.4-6.8-2.9-10.1-4.4zm20.1 8.8-.4.9c1.2.5 2.4 1 3.5 1.5.1.1.3.1.4.2.1 0 .2.1.3.1.1 0 .2.1.2.1.2.1.3.1.5.2h.1c1.7.7 3.3 1.4 5 2.2l.4-.9c-3.2-1.4-6.6-2.8-10-4.3zm20.2 8.7-.4.9c1.4.6 2.7 1.2 4.1 1.7.1 0 .2.1.3.1 0 0 .1 0 .1.1.1 0 .1 0 .2.1.1 0 .1.1.2.1h.1c.1 0 .1.1.2.1h.1c.1 0 .2.1.2.1 1.5.6 3.1 1.3 4.6 1.9l.4-.9c-3.3-1.3-6.7-2.8-10.1-4.2zm20.3 8.5-.4.9c.2.1.3.1.5.2h.2c1.5.6 2.9 1.2 4.4 1.8.1 0 .2.1.3.1.1 0 .2.1.3.1.1 0 .2.1.3.1.2.1.4.1.5.2.1 0 .2.1.3.1.1 0 .2.1.3.1.9.4 1.9.8 2.8 1.1 0 0 .1 0 .1.1l.4-.9c-3.1-1.1-6.5-2.5-10-3.9zm20.4 8.2-.4.9h.1c.1 0 .2.1.2.1h.1c.1 0 .2.1.2.1h.1c.1 0 .2.1.2.1h.1c.1 0 .2.1.3.1h.1c.1 0 .2.1.3.1l8.7 3.3.4-.9c-3.5-1.2-6.9-2.5-10.4-3.8zm20.6 7.7-.3.9h.2c.1 0 .1 0 .2.1.1 0 .1 0 .2.1h.1c.1 0 .2.1.3.1.4.2.9.3 1.3.5.1 0 .2.1.3.1.1 0 .2.1.3.1h.1c.1 0 .2.1.3.1h.1c.1 0 .2.1.3.1h.1c.1 0 .2.1.3.1.2.1.4.1.6.2 0 0 .1 0 .2.1 0 0 .1 0 .1.1.1 0 .1 0 .2.1h.1c.1 0 .1 0 .2.1h.1c.1 0 .1.1.2.1h.1c.1 0 .2.1.2.1.7.2 1.3.5 2 .7.1 0 .2.1.3.1.1 0 .2.1.2.1h.1c.1 0 .1.1.2.1h.1c.1 0 .1 0 .2.1.1 0 .1 0 .2.1h.1c.3.1.6.2 1 .3l.3-.9c-3.5-1.1-7-2.3-10.5-3.6zm20.7 7.3-.3.9c.5.2 1 .3 1.5.5.1 0 .2.1.2.1h.1s.1 0 .2.1c.1 0 .1 0 .2.1h.1c2.7.9 5.4 1.8 8.2 2.6l.3-1c-3.4-1-7-2.2-10.5-3.3zm21 6.6-.3 1c1.9.6 3.9 1.1 5.8 1.7.1 0 .1 0 .2.1h.6c.1 0 .2 0 .2.1h.1c1.2.3 2.4.7 3.6 1l.3-1c-3.4-.8-7-1.9-10.5-2.9zm21.1 5.9-.2 1h.2c1.3.3 2.7.7 4 1H1266.8c1.8.4 3.6.9 5.4 1.3l.2-1c-3.4-.6-7-1.4-10.6-2.3zm21.4 4.8-.2 1c.1 0 .2 0 .3.1h1.5c.4.1.8.1 1.2.2 2.5.5 5.1.9 7.6 1.3l.2-1c-3.3-.2-6.9-.9-10.6-1.6zm21.7 3.5-.1 1c3.6.5 7.3.8 10.9 1.1l.1-1c-3.6-.2-7.2-.6-10.9-1.1zm21.8 1.8v1c1.9.1 3.9.1 5.8.1h5v-1h-3.8c-2.2 0-4.6 0-7-.1zm32.8-1.6c-3.5.5-7.2.9-10.9 1.2l.1 1h1.1c3.3-.3 6.5-.6 9.7-1.1v-1.1zm21.3-4.6c-3.5 1-7 1.9-10.6 2.6l.2 1c2.8-.6 5.6-1.3 8.3-2h1.2c.4-.1.7-.2 1.1-.3l-.2-1.3zm20.5-7.6c-3.3 1.5-6.7 2.9-10.1 4.2l.3.9c.1 0 .1 0 .2-.1.1 0 .1 0 .2-.1.1 0 .1 0 .2-.1.1 0 .1 0 .2-.1.1 0 .1 0 .2-.1.2-.1.4-.1.6-.2h1.2s.1 0 .1-.1c0 0 .1 0 .1-.1 0 0 .1 0 .2-.1 2.2-.9 4.3-1.8 6.4-2.7h.4s.1 0 .1-.1c0 0 .1 0 .1-.1 0 0 .1 0 .1-.1l-.5-1.1zm19.2-10.3c-3.1 2-6.3 3.8-9.4 5.5l.5.9c.3-.2.7-.4 1-.6 0 0 .1 0 .1-.1 0 0 .1 0 .1-.1h.1s.1 0 .1-.1h.6s.1 0 .1-.1h.1s.1 0 .1-.1c0 0 .1 0 .1-.1 0 0 .1 0 .1-.1l.1-.1c.3-.2.6-.4.9-.5.1 0 .1-.1.2-.1l.1-.1s.1 0 .1-.1c0 0 .1 0 .1-.1 0 0 .1 0 .1-.1h.1s.1 0 .1-.1h.1s.1 0 .1-.1h.1s.1 0 .1-.1h.6s.1 0 .1-.1c0 0 .1 0 .1-.1l3.9-2.4-.5-1.1zm17.8-12.7c-2.9 2.3-5.8 4.5-8.7 6.6l.6.8c.4-.3.7-.5 1.1-.8l.1-.1s.1 0 .1-.1l.1-.1.1-.1.1-.1.1-.1.1-.1.1-.1.1-.1 2.1-1.5.1-.1.1-.1.1-.1.1-.1.1-.1.1-.1s.1 0 .1-.1l.1-.1.1-.1s.1 0 .1-.1h.1l.1-.1c1-.8 2-1.6 3-2.3l-.2-.8zm16.4-14.5c-2.7 2.6-5.4 5.1-8 7.4l.7.7c1.5-1.3 2.9-2.6 4.3-3.9l.1-.1s.1 0 .1-.1l.1-.1.1-.1.1-.1.1-.1s.1 0 .1-.1l.1-.1.1-.1c1-.9 1.9-1.8 2.9-2.8l-.8-.5zm15.2-15.9c-2.5 2.8-5 5.5-7.4 8l.7.7.5-.5.1-.1.1-.1.1-.1.1-.1.1-.1.1-.1.1-.1.1-.1.1-.1s0-.1.1-.1v-.1l.1-.1.1-.1c2-2.1 4-4.3 5.9-6.5l-.9-.4zm14.2-16.7c-2.3 2.9-4.7 5.8-7 8.5l.8.6.1-.1.1-.1s0-.1.1-.1l.1-.1v-.1l.1-.1.1-.1c2.1-2.6 4.3-5.1 6.3-7.8l-.7-.6zm13.3-17.5c-2.2 3-4.5 6-6.6 8.8l.8.6c2.2-2.9 4.4-5.8 6.6-8.8l-.8-.6zm12.8-17.8c-2.2 3.2-4.3 6.1-6.3 9l.8.6c.5-.7 1.1-1.5 1.6-2.2.1-.1.1-.2.2-.2 0 0 0-.1.1-.1 0-.1.1-.1.1-.2l.1-.1v-.1c.1-.1.1-.2.2-.2 1.4-1.9 2.7-3.9 4.1-5.8l-.9-.7zm12.5-18.1-2.1 3-4.2 6 .8.6c1.4-2 2.8-4 4.2-6.1 0 0 0-.1.1-.1.7-1 1.3-1.9 2-2.9l-.8-.5zm12.3-18.2c-1.9 2.9-3.9 5.9-6.1 9.1l.8.6c.8-1.1 1.5-2.3 2.3-3.4.1-.1.1-.2.2-.2 0 0 0-.1.1-.1l.1-.1c1.2-1.7 2.3-3.5 3.5-5.2l-.9-.7zm12.1-18.4c-1.9 3-3.9 6.1-6 9.2l.8.5c.6-1 1.2-1.9 1.9-2.9.1-.1.1-.2.2-.3 0-.1.1-.1.1-.2 0 0 0-.1.1-.1 0-.1.1-.1.1-.2l.1-.1c0-.1.1-.1.1-.2s.1-.1.1-.2c0 0 0-.1.1-.1.1-.1.1-.2.2-.2 1-1.6 2-3.2 3.1-4.8l-.9-.4zm11.5-18.7c-1.8 3-3.7 6.2-5.7 9.4l.9.5c.7-1.2 1.4-2.3 2.2-3.5.1-.1.1-.2.2-.3.1-.1.1-.2.2-.3.1-.1.1-.2.2-.2 0-.1.1-.2.1-.2v-.1c0-.1.1-.2.1-.2v-.1c0-.1.1-.2.1-.2v-.1c0-.1.1-.2.1-.2v-.1c0-.1.1-.1.1-.2 0 0 0-.1.1-.1 0-.1.1-.1.1-.2 0 0 0-.1.1-.1 0-.1.1-.1.1-.2l.1-.1c0-.1.1-.1.1-.2 0 0 .1-.1.1-.2l.1-.1c0-.1.1-.1.1-.2 0 0 0-.1.1-.1 0-.1.1-.1.1-.2.4-.6.8-1.3 1.2-1.9l-.8-.6zm10.9-19.1c-1.7 3.1-3.5 6.4-5.3 9.6l.9.5c1.6-2.8 3.2-5.6 4.7-8.4 0 0 0-.1.1-.1 0 0 0-.1.1-.1.2-.3.4-.6.5-1l-1-.5zm10-19.5c-1.5 3.2-3.2 6.5-4.9 9.8l.9.5c1.3-2.5 2.5-5 3.7-7.5 0-.1.1-.2.1-.3 0-.1.1-.2.1-.3 0-.1.1-.1.1-.2v-.1c.2-.5.5-1 .7-1.5l-.7-.4zm8.8-20.1c-1.3 3.3-2.8 6.7-4.3 10.1l.9.4c1.5-3.4 2.9-6.7 4.3-10.1l-.9-.4zm7.4-20.6c-1.1 3.4-2.2 6.9-3.5 10.4l.9.3c1.2-3.5 2.4-6.9 3.5-10.4l-.9-.3zm5.6-21.2c-.8 3.5-1.6 7.1-2.6 10.6l1 .3c.8-2.8 1.5-5.7 2.1-8.5V1096.4c0-.1 0-.2.1-.3.1-.5.2-1.1.4-1.6l-1-.2zm3.6-21.6c-.4 3.6-.9 7.2-1.5 10.8l1 .2c.3-2.1.7-4.2.9-6.4V1076.4c.2-1.2.3-2.4.4-3.6l-.8-.1zm2.1-21.9h-1c0 3.6-.1 7.3-.3 10.9l1 .1V1060.3c.1-2.6.2-5.1.2-7.7V1051.7c.1-.3.1-.6.1-.9zm-1.4-21.9-1 .1c.4 3.6.8 7.3 1 10.9l1-.1V1035l-.3-3.3V1030.8c-.6-1-.7-1.5-.7-1.9zm-3.8-21.7-1 .2c.8 3.6 1.5 7.2 2.1 10.7l1-.2c-.4-2.5-.9-5.1-1.5-7.6 0-.2-.1-.3-.1-.5 0-.1 0-.2-.1-.3v-.1c0-.1 0-.2-.1-.3v-1.5c-.2-.1-.2-.2-.3-.4zm-5.7-21.2-1 .3c1.1 3.5 2.1 7.1 3.1 10.5l1-.3c-.1-.6-.3-1.1-.5-1.7 0-.1-.1-.2-.1-.3v-.6c-.9-2.6-1.7-5.2-2.5-7.9zm-7.2-20.8-.9.4c1.3 3.5 2.6 7 3.8 10.3l.9-.3c-.8-2.3-1.6-4.6-2.5-6.9v-.1c0-.1-.1-.1-.1-.2v-.4s0-.1-.1-.1v-.1c-.5-1-.8-1.8-1.1-2.6zm-8.4-20.3-.9.4c1.5 3.5 2.9 6.9 4.3 10.1l.9-.4c-1.4-3.4-2.8-6.8-4.3-10.1zm-8.9-20.1-.9.4c1.7 3.6 3.1 6.9 4.6 10l.9-.4c-1.6-3.3-3.1-6.7-4.6-10zm-9.4-20-.9.4.7 1.4c1.3 2.8 2.7 5.7 4 8.5l.9-.4c-.1-.2-.2-.4-.3-.7-1.2-2.6-2.5-5.2-3.7-7.8-.1-.3-.2-.5-.4-.8 0-.1-.2-.3-.3-.6zm-9.2-19.9-.9.4c1.4 3 2.9 6.3 4.6 10l.9-.4c-.5-1-1-2-1.4-3.1 0-.1-.1-.1-.1-.2-1.1-2.2-2.1-4.5-3.1-6.7zm-9-20.1-.9.4c1.4 3.3 2.8 6.6 4.4 10.1l.9-.4c-1.5-3.4-2.9-6.7-4.4-10.1zm-8.2-20.4-.9.4c1.2 3.3 2.6 6.8 4 10.3l.9-.4c-.4-.9-.7-1.8-1.1-2.7 0 0 0-.1-.1-.1v-.2c-.9-2.5-1.9-4.9-2.8-7.3zm-7.1-20.8-1 .3c1 3.4 2.2 7 3.4 10.5l.9-.3c-.4-1.1-.7-2.1-1.1-3.2 0-.1 0-.1-.1-.2v-.4c-.7-2-1.3-4-1.9-6v-.5l-.2-.2zm-5.6-21.3-1 .2c.8 3.5 1.6 7.1 2.6 10.7l1-.3-.3-1.2v-.2c0-.1-.1-.2-.1-.3V808.2c0-.1 0-.2-.1-.3v-1.6c0-.1-.1-.2-.1-.3v-.2c0-.2-.1-.3-.1-.5 0-.1 0-.2-.1-.3v-.2c0-.1 0-.2-.1-.3v-.1c0-.1 0-.2-.1-.3v-.1c0-.1 0-.2-.1-.3v-.2c-1.5-1.1-1.5-1.1-1.5-1.2zm-3.7-21.7-1 .1c.5 3.6 1 7.3 1.6 10.9l1-.2c-.1-.4-.1-.8-.2-1.1v-1.2c-.4-2.1-.7-4.3-1-6.4V782.4c-.3-.6-.3-1.2-.4-1.8zm-1.9-21.9h-1c.2 3.7.4 7.4.7 11l1-.1c-.1-.6-.1-1.3-.2-1.9v-1.6c-.1-1.8-.2-3.5-.3-5.3v-.6c-.2-.7-.2-1.1-.2-1.5zm-1.1-22c-.1 3.7-.2 7.4-.2 11h1V744.4c0-2 .1-3.9.1-5.9V737.4l-.9-.7zm1.5-22c-.4 3.7-.7 7.4-1 11l1 .1V724.8c.2-2.8.5-5.7.7-8.5v-.4c0-.3.1-.6.1-1l-.8-.2zm3-21.9c-.6 3.7-1.2 7.3-1.7 10.9l1 .1v-.3c.5-3.5 1-7.1 1.6-10.6l-.9-.1zm4.3-21.6c-.8 3.6-1.6 7.2-2.3 10.8l1 .2c.3-1.8.7-3.5 1.1-5.3V675.8c.3-1.5.6-2.9 1-4.4l-.8-.2zm5.3-21.4c-1 3.6-1.9 7.2-2.8 10.7l1 .2c.1-.2.1-.4.2-.7V659.7c.8-3.2 1.7-6.5 2.5-9.7l-.9-.2zm6.2-21.2c-1.1 3.6-2.2 7.1-3.2 10.5l1 .3c.3-1 .6-2.1.9-3.1 0-.1 0-.2.1-.2v-.4c0-.1 0-.1.1-.2v-.1c0-.1 0-.2.1-.2v-.1c0-.1 0-.2.1-.2v-.1c0-.1.1-.2.1-.3 0-.1.1-.2.1-.3 0-.1.1-.2.1-.3 0-.1.1-.2.1-.3 0-.1.1-.2.1-.3v-.1c0-.1.1-.2.1-.3 0-.1.1-.2.1-.3v-.1c0-.1 0-.2.1-.2v-.1c0-.1 0-.1.1-.2 0-.1 0-.1.1-.2v-.1c.3-.9.6-1.8.9-2.8l-1-.3zm6.9-20.9c-1.2 3.5-2.4 7-3.5 10.4l.9.3.6-1.8v-.2c0-.1.1-.2.1-.3.8-2.5 1.7-5 2.5-7.5 0-.1.1-.2.1-.3v-.1c0-.1 0-.1.1-.2v-.1l-.8-.2zm7.4-20.7c-1.3 3.5-2.6 7-3.8 10.3l.9.3c.6-1.7 1.2-3.4 1.9-5.2 0-.1.1-.1.1-.2s0-.1.1-.2c.6-1.6 1.2-3.2 1.8-4.7l-1-.3zm7.9-20.6c-1.4 3.5-2.7 7-4 10.3l.9.4c.9-2.4 1.8-4.7 2.7-7.1 0-.1.1-.2.1-.2.4-1 .7-1.9 1.1-2.9l-.8-.5zm8.1-20.4c-1.4 3.4-2.7 6.8-4.1 10.2l.9.4c.5-1.2.9-2.3 1.4-3.5 0-.1.1-.2.1-.3v-.1c0-.1.1-.1.1-.2s0-.1.1-.2c0 0 0-.1.1-.2 0-.1 0-.1.1-.2 0-.1 0-.1.1-.2 0 0 0-.1.1-.1 0-.1.1-.1.1-.2v-.1c0-.1.1-.1.1-.2v-.1c0-.1.1-.2.1-.3 0-.1.1-.2.1-.3.6-1.4 1.1-2.8 1.7-4.1l-1-.3zm8.3-20.4-4.2 10.2.9.4 4.2-10.2-.9-.4zm8.4-20.4-4.2 10.2.9.4c.2-.4.3-.8.5-1.2 1.2-3 2.4-6 3.7-8.9l-.9-.5zm8.2-20.4c-1.4 3.4-2.7 6.8-4.1 10.2l.9.4c1-2.4 1.9-4.8 2.9-7.2v-.1c0-.1 0-.1.1-.2.4-.9.8-1.9 1.1-2.8l-.9-.3zm8.1-20.4c-1.3 3.3-2.6 6.7-4 10.2l.9.4c1.3-3.4 2.7-6.8 4-10.2l-.9-.4zm7.7-20.6c-1.2 3.3-2.5 6.8-3.8 10.3l.9.4.9-2.4c0-.1 0-.1.1-.2v-.1c1-2.6 1.9-5.1 2.8-7.7l-.9-.3zm7.3-20.7c-1.1 3.4-2.3 6.9-3.6 10.4l.9.3c.4-1.2.9-2.5 1.3-3.7 0-.1.1-.2.1-.3 0 0 0-.1.1-.1 0 0 0-.1.1-.1 0-.1 0-.1.1-.2v-.1c0-.1.1-.2.1-.2v-.1c0-.1.1-.2.1-.3v-.1c0-.1.1-.2.1-.3 0-.1.1-.2.1-.3 0-.1.1-.2.1-.3.1-.2.1-.4.2-.6 0-.1.1-.2.1-.3 0-.1.1-.2.1-.3 0-.1.1-.2.1-.3v-.1c0-.1.1-.2.1-.3v-.1c0-.1.1-.2.1-.2v-.1c0-.1 0-.1.1-.2.2-.6.4-1.1.6-1.7l-.9-.4zm6.6-21c-1 3.4-2.1 7-3.2 10.5l1 .3c1.1-3.5 2.2-7 3.2-10.5l-1-.3zm5.9-21.1c-.9 3.5-1.8 7-2.8 10.6l1 .3c.2-.6.3-1.1.5-1.7V389.9c.6-2.3 1.2-4.5 1.8-6.8v-.2c.1-.5.3-1 .4-1.5l-.9-.4zm4.9-21.4c-.7 3.5-1.5 7.1-2.3 10.7l1 .2V370.2c.8-3.5 1.6-6.9 2.3-10.4l-1-.2zm3.8-21.6c-.5 3.6-1.1 7.2-1.7 10.8l1 .2c.1-.5.2-.9.2-1.4v-.2c.4-2.5.8-5 1.2-7.4v-.1c.1-.5.2-1.1.2-1.6l-.9-.3zm2.4-21.8c-.3 3.6-.6 7.3-1 10.9l1 .1c.4-3.6.8-7.3 1-11h-1zm.9-21.9c0 3.6-.1 7.3-.2 11h1c.1-3.7.2-7.3.2-11h-1zm.2-22-1 .1c.3 3.6.5 7.3.6 10.9h1c0-.6-.1-1.3-.1-1.9V275.6c-.4-1.2-.4-2.2-.5-3.3zm-2.7-21.8-1 .2c.6 3.6 1.1 7.2 1.6 10.8l1-.1c-.3-2-.5-4-.8-6.1V251.7c-.7-.4-.8-.8-.8-1.2zm-4.7-21.5-1 .3c.2.7.4 1.4.5 2 .7 2.8 1.4 5.7 2 8.6l1-.2c-.4-1.6-.7-3.3-1.1-4.9v-.6c-.2-1-.5-2.1-.8-3.1-.2-.8-.4-1.4-.6-2.1zm-6.6-21-.9.3c1.3 3.4 2.5 6.9 3.5 10.4l1-.3c-.1-.4-.3-.9-.4-1.3V216.2c-.1-.2-.2-.5-.2-.7 0-.1 0-.1-.1-.2 0-.1 0-.1-.1-.2 0-.1 0-.1-.1-.2-.1-.4-.3-.8-.4-1.3 0-.1 0-.1-.1-.2 0-.1 0-.1-.1-.2 0-.1 0-.1-.1-.2-.1-.2-.2-.5-.2-.7 0 0 0-.1-.1-.1V211.3c-.8-1-1.3-2.1-1.7-3.3zm-8.6-20.3-.9.4c1.6 3.3 3.1 6.7 4.5 10l.9-.4c-.4-1-.9-2-1.3-3 0-.1 0-.1-.1-.2-.1-.2-.1-.3-.2-.5v-.5s0-.1-.1-.1v-.1s0-.1-.1-.1c0-.1 0-.1-.1-.1-.8-1.7-1.7-3.5-2.6-5.4zm-10.3-19.4-.9.5c1.9 3.1 3.7 6.4 5.4 9.6l.9-.5c-.8-1.5-1.7-3.1-2.5-4.6 0-.1-.1-.1-.1-.2s-.1-.1-.1-.2c-.2-.4-.4-.8-.6-1.1 0-.1-.1-.1-.1-.2s-.1-.1-.1-.2-.1-.1-.1-.2c-.6-.9-1.2-1.9-1.8-2.9zm-12-18.4-.8.6c2.1 3 4.2 6 6.2 9.1l.8-.5c-.1-.1-.1-.2-.2-.3l-.1-.1-.1-.1-.1-.1-.1-.1-.1-.1c-.1-.1-.2-.3-.3-.4 0 0 0-.1-.1-.1v-.1s0-.1-.1-.1v-.1s0-.1-.1-.1v-.2s0-.1-.1-.1v-.1s0-.1-.1-.1v-.1s0-.1-.1-.1v-.1l-.1-.1c-1.4-2.3-2.9-4.5-4.5-6.6zm-13.4-17.4-.8.6c2.3 2.8 4.7 5.7 6.9 8.5l.8-.6-.9-1.2-.1-.1c-.2-.2-.3-.4-.5-.6l-.1-.1-.1-.1s0-.1-.1-.1c0 0 0-.1-.1-.1v-.1l-.1-.1v-.1s0-.1-.1-.1v-.1s0-.1-.1-.1v-.1l-.1-.1-.1-.1s0-.1-.1-.1l-.1-.1-.1-.1s0-.1-.1-.1l-.1-.1-.1-.1-.1-.1s0-.1-.1-.1l-.1-.1-.1-.1v-.1s0-.1-.1-.1v-.1s0-.1-.1-.1l-.1-.1-.1-.1s0-.1-.1-.1v-.1s0-.1-.1-.1l-.1-.1s0-.1-.1-.1v-.1s0-.1-.1-.1l-.1-.1-.1-.1-.1-.1s0-.1-.1-.1l-.1-.1s0-.1-.1-.1v-.1s0-.1-.1-.1v-.1s0-.1-.1-.1l-.1-.1c-.2-.1-.9-1-1.7-1.9zm-14.8-16.3-.7.7c2.5 2.6 5.1 5.3 7.5 8l.7-.7c-1.5-1.7-3-3.3-4.5-4.9l-.1-.1-.6-.6-.1-.1-.1-.1-.1-.1-.1-.1-.1-.1-.1-.1-.1-.1-.1-.1-.1-.1c-.4-.5-.9-1-1.4-1.5zm-15.9-15.2-.7.7c2.7 2.4 5.4 4.9 8.1 7.4l.7-.7c-1.2-1.2-2.5-2.4-3.8-3.5l-.1-.1-.1-.1-.1-.1s-.1 0-.1-.1l-.1-.1c-1.2-1.1-2.5-2.3-3.8-3.4zm-16.9-14.1-.6.8c2.9 2.2 5.8 4.5 8.6 6.9l.6-.8c-.1-.1-.2-.2-.4-.3 0 0-.1 0-.1-.1l-.1-.1h-.1l-.1-.1c-2.5-2.2-5.2-4.2-7.8-6.3zM1516 74l-.6.8c1.5 1 3 2 4.4 3 1.5 1.1 3.1 2.2 4.6 3.2l.6-.8c-.6-.4-1.2-.8-1.7-1.2l-.1-.1-.1-.1h-.1s-.1 0-.1-.1c0 0-.1 0-.1-.1l-.1-.1-.1-.1c-.1-.1-.2-.1-.3-.2l-.1-.1-.1-.1-.1-.1s-.1 0-.1-.1h-.1s-.1 0-.1-.1h-.1s-.1 0-.1-.1h-.1l-.1-.1-.1-.1-.1-.1c-.1 0-.1-.1-.2-.1l-.1-.1-.1-.1c-1.1-.7-2.1-1.5-3.2-2.2 0 0-.1 0-.1-.1 0 0-.1 0-.1-.1-.8-.2-1.1-.4-1.3-.6zm-18.6-11.7-.5.9c3.1 1.8 6.3 3.8 9.4 5.7l.5-.8c-3.1-2-6.3-3.9-9.4-5.8zM1478 51.8l-.5.9c3.3 1.6 6.5 3.4 9.7 5.1l.5-.9c-.5-.3-1-.5-1.5-.8 0 0-.1 0-.1-.1h-.1c-.1 0-.1-.1-.2-.1 0 0-.1 0-.1-.1-2.5-1.4-5.1-2.7-7.7-4zm-19.9-9.3-.4.9c3.3 1.4 6.7 2.9 10 4.5l.4-.9c-.5-.3-1.1-.5-1.6-.8H1466.2c-2-.9-4-1.8-5.9-2.7h-.2c-.7-.4-1.3-.7-2-1zm-20.5-8.1-.3.9c3.4 1.2 6.9 2.5 10.3 3.9l.4-.9c-.1 0-.2-.1-.2-.1h-.6c-3.3-1.5-6.4-2.6-9.6-3.8zm-20.9-6.7-.3 1c3.5 1 7 2.1 10.5 3.2l.3-1c-2.8-.9-5.5-1.8-8.3-2.6h-.1c-.1 0-.2-.1-.3-.1h-.4c-.4-.2-.9-.4-1.4-.5zm-21.3-5.4-.2 1c3.5.8 7.1 1.6 10.6 2.5l.2-1c-3.5-.9-6.9-1.7-10.4-2.5h-.2zm-21.6-4.1-.2 1c3.6.6 7.2 1.2 10.8 1.9l.2-1c-.4-.1-.8-.1-1.2-.2-3.2-.7-6.4-1.2-9.6-1.7zm-21.8-2.9-.1 1c3.6.4 7.3.8 10.9 1.3l.1-1c-3.7-.5-7.3-.9-10.9-1.3zm-22-1.8-.1 1c3.7.2 7.3.4 11 .7l.1-1c-.9-.1-1.7-.1-2.6-.2-1.6-.1-3.3-.2-4.9-.3h-.8c-.9-.1-1.8-.1-2.7-.2zm-22-.6v1c3.7 0 7.4.1 11 .2v-1c-3.6-.1-7.3-.2-11-.2zm-10.9 0H1294.8c-2.9.1-5.8.1-8.7.2v1c3.7-.1 7.4-.2 11-.3v-.9zm-22 .7c-1.2.1-2.4.1-3.6.2H1270.6c-.4 0-.7 0-1.1.1h-1.6c-1.3.1-2.5.2-3.8.3l.1 1c3.7-.3 7.4-.5 11-.7l-.1-.9zm-22 1.6-9.6.9h-1.4l.1 1c3.7-.4 7.3-.7 10.9-1v-.9zm-21.9 2.2c-3.6.4-7.3.9-10.9 1.4l.1 1c3.7-.5 7.3-.9 10.9-1.4l-.1-1zm-21.8 2.9c-.7.1-1.4.2-2 .3H1205.6c-2.3.3-4.7.7-7 1.1l.2 1c3.7-.6 7.3-1.1 10.9-1.6l-.3-.8zm-21.7 3.4c-.5.1-.9.2-1.4.2-.1 0-.2 0-.3.1h-1.6c-2.5.4-5.1.9-7.6 1.3l.2 1c3.7-.6 7.3-1.3 10.8-1.8l-.1-.8zm-21.7 3.7c-.3 0-.5.1-.8.1-2.4.4-4.8.9-7.2 1.3h-.2c-.9.2-1.8.3-2.6.5l.2 1c3.7-.7 7.3-1.4 10.8-2l-.2-.9zm-21.6 4.1c-.4.1-.7.1-1.1.2-2.1.4-4.3.8-6.4 1.3-1.1.2-2.2.4-3.3.7l.2 1 10.8-2.1-.2-1.1zm-21.6 4.4c-3.6.7-7.2 1.5-10.8 2.2l.2 1c3.6-.7 7.2-1.5 10.8-2.2l-.2-1zm-21.5 4.4c-.1 0-.3.1-.4.1-3.4.7-6.9 1.4-10.3 2.2l.2 1c3.6-.8 7.2-1.5 10.8-2.3l-.3-1zm-21.6 4.5c-.7.2-1.5.3-2.2.5-2.9.6-5.7 1.2-8.6 1.8l.2 1c3.6-.7 7.2-1.5 10.8-2.2l-.2-1.1zm-21.5 4.5c-3.6.7-7.2 1.5-10.8 2.2l.2 1c3.6-.7 7.2-1.4 10.8-2.2l-.2-1zm-21.6 4.3-10.8 2.1.2 1 10.8-2.1-.2-1zm-21.6 4.1c-1.4.3-2.8.5-4.1.7-.3 0-.5.1-.8.1h-2.2c-.2 0-.4.1-.7.1H1005.3c-.4.1-.8.1-1.2.2l.2 1c3.5-.6 7.2-1.3 10.8-1.9l-.1-.2zm-21.7 3.7h-.2c-.2 0-.4.1-.6.1-.1 0-.2 0-.3.1h-1.3c-.1 0-.2 0-.3.1-.5.1-1 .2-1.4.2-.1 0-.2 0-.3.1-.1 0-.2 0-.3.1-.4.1-.7.1-1.1.2h-1.7c-1.1.2-2.3.4-3.4.5l.2 1c3.4-.5 6.8-1.1 10.1-1.6l.7-.1-.1-.7zm-21.7 3.4c-3.6.5-7.3 1-10.9 1.5l.1 1c3.6-.5 7.3-1 10.9-1.5l-.1-1zm-21.8 2.9c-3.6.5-7.3.9-10.9 1.3l.1 1c3.6-.4 7.3-.9 10.9-1.3l-.1-1zm-21.9 2.5h-1.1c-.2 0-.5 0-.7.1H924.5c-1.4.1-2.7.3-4.1.4h-1.2c-.6.1-1.3.1-1.9.2l.1 1c3.6-.3 7.3-.7 11-1.1l-.5-.6zM906 72.3c-1.6.1-3.1.3-4.7.4h-.5c-1.7.1-3.4.3-5.1.4h-.6l.1 1c3.6-.3 7.3-.6 11-.9l-.2-.9zm-21.9 1.6c-.7 0-1.3.1-2 .1-3 .2-6 .4-9 .5l.1 1c3.7-.2 7.3-.4 11-.7l-.1-.9zm-22 1.3c-3.7.2-7.3.3-11 .5v1c3.7-.1 7.4-.3 11-.5v-1zm-22 .8-11 .3v1c3.7-.1 7.4-.2 11-.3v-1zm-22 .5c-3.7 0-7.3.1-11 .1v1c3.7 0 7.4 0 11-.1v-1zm-33-.1v1c3.7.1 7.4.1 11 .1v-1c-3.6 0-7.3 0-11-.1zm-21.9-.5v1c3.7.1 7.4.2 11 .3v-1c-3.7-.1-7.4-.2-11-.3zm-22-.9v1c3.7.2 7.4.4 11 .5v-1c-3.7-.2-7.4-.3-11-.5zm-22-1.3-.1 1c3.6.2 7.3.5 11 .7l.1-1c-3.7-.2-7.3-.5-11-.7zM697.3 72l-.1 1c3.6.3 7.3.6 11 .9l.1-1c-3.7-.3-7.4-.6-11-.9zm-21.9-2-.1 1c3.6.4 7.3.7 11 1.1l.1-1c-2.1-.2-4.1-.4-6.1-.6h-1.1c-1.4-.3-2.6-.4-3.8-.5zm-21.9-2.4-.1 1c3.6.4 7.3.8 10.9 1.2l.1-1c-3.6-.4-7.3-.8-10.9-1.2zm-21.8-2.8-.1 1c3.6.5 7.3 1 10.9 1.4l.1-1c-3.7-.4-7.3-.9-10.9-1.4zm-21.8-3.1-.1 1c3.6.5 7.3 1.1 10.9 1.6l.1-1c-3.7-.5-7.3-1-10.9-1.6zm-21.7-3.4-.2 1c3.6.6 7.3 1.2 10.9 1.8l.2-1c-3.7-.6-7.3-1.2-10.9-1.8zm-21.7-3.8-.2 1c3.6.7 7.2 1.3 10.8 1.9l.2-1c-2.1-.4-4.3-.8-6.4-1.1-.1 0-.2 0-.3-.1H569.3c-1-.4-1.9-.6-2.8-.7zm-21.6-4.2-.2 1 10.8 2.1.2-1-10.8-2.1zm-21.5-4.5-.2 1c3.6.8 7.2 1.5 10.8 2.3l.2-1-8.7-1.8H525.2c-.6-.2-1.2-.4-1.8-.5zM501.9 41l-.2 1c3.6.8 7.2 1.7 10.7 2.5l.2-1c-1.3-.3-2.5-.6-3.8-.9-.1 0-.2 0-.3-.1-.1 0-.1 0-.2-.1h-.1c-2.1-.4-4.2-.9-6.3-1.4zm-21.4-5.1-.2 1c3.6.9 7.1 1.7 10.7 2.6l.2-1c-1.7-.4-3.3-.8-5-1.2H485.9c-1.8-.6-3.6-1-5.4-1.4zm-21.4-5.3-.2 1 2.8.7 7.9 2 .2-1c-1.7-.4-3.5-.9-5.2-1.3-1.2-.3-2.5-.6-3.7-.9-.6-.2-1.2-.4-1.8-.5zm-21.3-5.3-.2 1c3.6.9 7.1 1.7 10.7 2.6l.2-1c-2.5-.6-5.1-1.2-7.6-1.9h-.1c-.2 0-.3-.1-.5-.1-.1 0-.2-.1-.3-.1-.1 0-.2 0-.3-.1-.2 0-.3-.1-.5-.1h-.1c-.5-.1-.9-.2-1.3-.3zm-21.4-5-.2 1c3.4.8 6.9 1.6 10.7 2.5l.2-1c-2.4-.6-4.9-1.1-7.3-1.7h-.1c-.1 0-.2 0-.2-.1h-.2c-1-.3-2-.5-2.9-.7zm-21.5-4.7-.2 1c3.5.7 7.1 1.5 10.7 2.3l.2-1c-3.2-.7-6.3-1.4-9.5-2h-.2c-.1 0-.2 0-.3-.1-.3-.1-.5-.2-.7-.2zm-21.6-4.2-.2 1c3.5.6 7.1 1.3 10.8 2l.2-1-3-.6H377.8c-.1 0-.2 0-.3-.1-1.5-.8-2.9-1.1-4.2-1.3zM351.5 8l-.1 1c3.5.5 7.2 1 10.9 1.6l.2-1c-3.7-.6-7.3-1.1-11-1.6zm-21.8-2.5-.1 1c3.6.3 7.2.7 10.9 1.1l.1-1c-.7-.1-1.5-.2-2.2-.2h-.5c-2.7-.4-5.5-.7-8.2-.9zm-22-1.4v1c3.6.1 7.3.3 11 .5l.1-1c-.9-.1-1.7-.1-2.6-.2h-.5c-2.7-.1-5.3-.2-8-.3zm-11.5-.2v1h.6v-1H296.2z" fill="#fff"/>
  </g>
</svg>