<?xml version="1.0" encoding="UTF-8" standalone="no"?>
<!-- Generator: Adobe Illustrator 24.0.0, SVG Export Plug-In . SVG Version: 6.00 Build 0)  -->

<svg
   version="1.1"
   id="Capa_1"
   x="0px"
   y="0px"
   viewBox="0 0 94.03 86.19"
   style="enable-background:new 0 0 94.03 86.19;"
   xml:space="preserve"
   sodipodi:docname="c36829ec-1b5f-4f60-a8b3-deb8cc1dfc6a.svgz"
   xmlns:inkscape="http://www.inkscape.org/namespaces/inkscape"
   xmlns:sodipodi="http://sodipodi.sourceforge.net/DTD/sodipodi-0.dtd"
   xmlns="http://www.w3.org/2000/svg"
   xmlns:svg="http://www.w3.org/2000/svg"><defs
   id="defs1" /><sodipodi:namedview
   id="namedview1"
   pagecolor="#ffffff"
   bordercolor="#000000"
   borderopacity="0.25"
   inkscape:showpageshadow="2"
   inkscape:pageopacity="0.0"
   inkscape:pagecheckerboard="0"
   inkscape:deskcolor="#d1d1d1" />
<style
   type="text/css"
   id="style1">
	.st0{fill:#15635A;}
	.st1{opacity:0.46;fill:#13B8AF;}
</style>
<path
   id="_x31_2_6_"
   class="st0"
   d="M11.26,42.54c0.22,0.12,37.51,1.15,40.42,3.74c2.95,2.63,5.85,4.7,7.77,8.18h2.86  c2.47-4.49,6.16-8.18,10.65-10.65v-2.86c-4.49-2.47-8.18-6.16-10.65-10.65h-2.86c-1.88,3.42-4.61,6.2-7.58,8.68  c-1.83,1.53-40.43,3.14-40.61,3.24V42.54z" />
<path
   id="_x31_2_2_"
   class="st1"
   d="M27.96,42.5c0.16,0.09,26.93,0.82,29.03,2.69c2.12,1.89,4.2,3.37,5.58,5.87h2.05  c1.77-3.22,4.43-5.87,7.65-7.65v-2.05c-3.22-1.77-5.87-4.43-7.65-7.65h-2.05c-1.35,2.45-3.31,4.45-5.44,6.23  c-1.31,1.1-29.03,2.26-29.16,2.33V42.5z" />
</svg>
