<svg version="1.2" xmlns="http://www.w3.org/2000/svg" viewBox="0 0 960 162" width="960" height="162">
    <style>.a{fill:#871400}.b{fill:#be4407}.c{fill:#f5730a}</style>
    <path class="a" d="m0 43l137-24 137 29 137-46 138 67 137 37 137-48 137-30v135h-137-137-137-138-137-137-137z"/>
    <path class="b" d="m0 49l137-7 137 72 137-47 138 44 137 7 137-11 137-51v107h-137-137-137-138-137-137-137z"/>
    <path class="c" d="m0 140l137-44 137 9 137-14 138 33 137-41 137 44 137-28v64h-137-137-137-138-137-137-137z"/>
</svg>