<svg version="1.1" id="Capa_1" x="0" y="0" style="enable-background:new 0 0 324.57 183.4" xml:space="preserve" xmlns="http://www.w3.org/2000/svg" viewBox="7.61 4.09 304.9 172.63"><g id="g13" style="opacity:.73"><g id="g12"><path class="st1" d="M246.13 19.37c1.13-1.35 2.25-2.72 3.54-3.93 4.28-4 9-7.34 14.52-9.42 2.31-.87 4.71-1.36 7.16-1.63.41-.04.81-.11 1.22-.16.56.1 1.09-.12 1.64-.14h3.38c.26.25.57.15.87.14 2.55.32 5.04.88 7.39 1.94 4.32 1.94 7.75 4.95 10.39 8.85 3.15 4.66 5.12 9.82 6.26 15.32.55 2.67.78 5.37.89 8.08.02.46.01.92-.07 1.38-.12.7-.46 1.25-1.06 1.61-.3.18-.48.38-.54.76-.16 1.06-.79 1.75-1.82 2.06-1.25.38-2.56.52-3.84.75-4.66.85-9.32 1.68-13.97 2.51-.02 0-.03.03-.09.1.1.24.34.39.54.56 3.59 3.06 7.18 6.11 10.77 9.17 2.04 1.75 4.06 3.53 5.98 5.41 2.18 2.12 3.88 4.62 5.45 7.21 1.31 2.16 2.3 4.45 2.83 6.93.8 3.76.55 7.47-.82 11.03-2.48 6.45-6.25 12.02-11.81 16.25-2.87 2.18-6.12 3.59-9.49 4.78-4.61 1.62-9.35 2.44-14.25 2.18-4.46-.23-8.69-1.38-12.64-3.45-6.66-3.49-11.92-8.44-15.53-15.08-2.12-3.91-3.42-8.09-4.05-12.49-.19-1.32-.29-2.65-.4-3.97-.04-.46-.02-.92.07-1.38.24-1.22.92-2.03 2.11-2.4.35-.11.63-.25.84-.59.49-.77 1.27-1.12 2.13-1.21 1.89-.2 3.73-.66 5.58-1.01 4.7-.88 9.39-1.81 14.09-2.71.17-.03.36-.01.49-.18-.1-.25-.35-.36-.54-.51-2.84-2.31-5.8-4.47-8.68-6.74-2.68-2.11-5.24-4.36-7.37-7.04-2.98-3.74-5.1-7.9-6.06-12.61-.04-.17-.09-.34-.15-.57-.16.22-.2.43-.25.63-2.02 8.09-4.03 16.18-6.05 24.27-2.42 9.7-4.85 19.41-7.27 29.11-.85 3.4-1.7 6.8-2.53 10.2-.23.94-.51 1.83-1.43 2.35-.14.08-.2.22-.26.37-.22.53-.6.95-.97 1.38-.52.61-1.16.98-1.96 1.11-2.58.42-5.15.86-7.72 1.28-3.36.55-6.72 1.09-10.08 1.62-.71.11-1.41.26-2.13.26-1.33-.01-2.15-.6-2.56-1.89-.28-.91-.38-1.85-.54-2.79-.75-4.29-1.47-8.57-2.21-12.86-.03-.2-.1-.39-.18-.7-.38 1.03-.58 2-.84 2.95-.8 2.94-1.57 5.88-2.35 8.82-.16.61-.42 1.15-.87 1.6-.44.44-.75.96-.94 1.56-.45 1.41-1.47 2.12-2.92 2.21-4.62.27-9.25.52-13.87.78-2.04.12-4.09.24-6.13.38-1.72.12-2.96-.66-3.41-2.32-.36-1.33-.62-2.69-.91-4.04-1.51-6.95-3.01-13.9-4.52-20.85-.14-.62-.27-1.25-.41-1.87-.03-.15-.03-.31-.21-.4-.94.79-1.87 1.61-2.9 2.29-.34.22-.41.46-.24.82.86 1.88.38 3.47-1.07 4.87-.77.75-1.53 1.52-2.45 2.09-.65.4-1.05.95-1.16 1.72-.51 3.77-3.16 5.45-6.42 6.53-.36.12-.74.22-1.12.27-1 .14-1.57.82-1.8 1.68-.33 1.23-1.12 2.04-2.04 2.79-1.35 1.11-2.85 1.86-4.58 2.21-1.03.21-2.03.51-3.1.45-.49-.03-.99-.06-1.43-.24-.53-.22-.98-.11-1.46.12-1.84.89-3.71 1.73-5.55 2.62-2.04.99-4.24 1.53-6.55 1.04-.99-.21-1.89-.63-2.7-1.23-.53-.4-1.04-.83-1.63-1.15-.87-.49-1.75-.64-2.7-.17-.73.36-1.5.63-2.11 1.22-.23.23-.54.41-.85.52-1.62.58-3.25 1.08-5 .97-.91-.06-1.69-.41-2.34-1.02-.39-.37-.84-.56-1.35-.67-.75-.17-1.49-.37-2.24-.54-.95-.22-1.9-.4-2.89-.36-1.66.06-3.24-.38-4.81-.87-1.69-.52-3.32-1.2-4.94-1.89-2.07-.88-3.5-2.35-4.2-4.51-.28-.85-.83-1.33-1.8-1.4-1.44-.1-2.7-.76-3.87-1.56-.38-.26-.75-.54-1.16-.84-.35.55-.68 1.09-1.03 1.62-2.08 3.16-4.56 5.92-7.82 7.92-2.85 1.74-5.96 2.81-9.21 3.49-2.44.52-4.91.75-7.4.7-8.11-.17-15.15-2.96-20.93-8.72-2.75-2.74-4.83-5.97-6.69-9.34-2.99-5.41-5.02-11.19-6.48-17.18a84.57 84.57 0 0 1-1.81-9.96c-.27-2.26-.45-4.54-.5-6.81-.08-3.15 0-6.3.33-9.44.51-4.95 1.49-9.81 3-14.56 1.39-4.37 3.04-8.64 5.31-12.64 3.63-6.42 8.7-11.42 15.16-14.98 2.88-1.58 6-2.46 9.25-2.88 4.13-.54 8.17-.22 12.14 1.04 5.1 1.63 9.14 4.72 12.31 9.01 2.27 3.07 3.99 6.43 5.35 9.98.04.12.06.24.09.36.89-.52 1.24-1.29 1.07-2.29-.36-2.04.26-3.68 1.97-4.87 1.2-.84 2.32-1.74 3.26-2.88.87-1.04 1.98-1.81 3.24-2.36.98-.43 2.02-.64 3.04-.91.76-.2 1.53-.34 2.3-.5.81-.17 1.54-.54 2.15-1.11.99-.92 2.09-1.55 3.48-1.63.24-.01.46-.19.7-.26.95-.27 1.89-.21 2.81.14.5.19.94.17 1.4-.14.27-.19.54-.38.8-.58.36-.28.67-.66 1.21-.54.2.04.32-.13.45-.25 1.1-.99 2.43-1.34 3.84-1.08 1.07.2 2.18.48 2.98 1.35.24.26.49.48.82.61.2.08.42.24.53.43.18.32.49.45.78.55.34.12.67.25.97.43.37.22.65.16.97-.09.7-.56 1.42-1.09 2.13-1.63.18-.14.35-.36.6-.3.64.14 1.15-.2 1.64-.49 1.29-.75 2.69-1.09 4.16-.94 1.04.11 2.08.28 2.86 1.14.32.35.72.65 1.05.99.33.34.66.41 1.06.41.87 0 1.77.03 2.58.31.68.23 1.46.08 2.06.56.43-.16.81.11 1.23.14 1.98.16 3.76.86 5.32 2.14.55.45.95 1.08 1.63 1.38.12.05.24.16.35.15.84-.08 1.55.43 2.35.51.36.04.66.26.97.43.66.38 1.23.88 1.77 1.4.13.12.23.41.48.26.19-.12.06-.32.02-.49-.1-.5-.21-1-.29-1.51-.22-1.38.33-2.37 1.61-2.87.57-.22 1.08-.41 1.44-1.01.38-.65 1.14-.84 1.86-.94 2.74-.38 5.48-.74 8.22-1.11 2.82-.38 5.63-.77 8.45-1.15 3.04-.42 6.08-.86 9.13-1.26 1.55-.21 2.72.69 3.03 2.28.28 1.41.52 2.82.78 4.23.79 4.28 1.58 8.56 2.37 12.83.79 4.28 1.59 8.55 2.39 12.83l2.55 13.74c.14.73.27 1.46.41 2.23.29-.17.31-.46.41-.7 2.39-6.07 4.77-12.14 7.15-18.21.45-1.14.9-2.29 1.35-3.43.12-.31.26-.61.42-.9.4-.74 1-1.25 1.85-1.34.39-.05.57-.22.73-.54.5-1.06 1.03-2.11 1.56-3.18.24.05.26.25.34.39.58 1.02 1.15 2.05 1.73 3.08.64 1.12.94 2.37 1.36 3.58 1.67 4.86 3.33 9.73 4.99 14.59.05.13.04.3.2.42.28-.59.34-1.23.47-1.85 1.58-7.3 3.14-14.61 4.71-21.91.79-3.7 1.58-7.4 2.37-11.11.1-.48.24-.94.46-1.38.41-.83 1.05-1.39 1.93-1.63.32-.09.54-.21.72-.49.45-.68 1.13-1.02 1.93-1.11 1.53-.16 3.06-.3 4.59-.44l9.48-.87 7.03-.66c1.4-.13 2.8-.27 4.21-.39.43-.04.87-.07 1.3-.05 1.4.08 2.24 1.07 2.1 2.47-.12 1.18-.5 2.3-.77 3.44-.6 2.51-1.22 5.02-1.83 7.53-.08.08-.11.22-.04.26.18.05.18-.11.22-.18zm-98.02-7.42c.03.22.04.34.07.47.7 3.22 1.41 6.45 2.1 9.67.39 1.81.85 3.6 1.09 5.43.06.45.32.89.34 1.34.04 1.03.52 1.79 1.22 2.48.43.42.91.81 1.34 1.22.61.59 1.07 1.31 1.42 2.1.5 1.13.86 2.27.68 3.54-.08.56-.02 1.12.03 1.69.04.4-.06.86.1 1.21.33.71.6 1.46 1.15 2.06.15.16.34.37.36.57.1 1.19.61 2.28.77 3.46.11.86.29 1.75.66 2.52.47.99.62 2.03.79 3.06.29 1.71-.03 3.37-.72 4.95-.53 1.21-.45 1.86.42 2.64.9.81 1.43 1.86 1.91 2.91.33.72.49 1.54.69 2.32.18.72.15 1.47.12 2.22-.03.73-.29 1.42-.46 2.12-.13.51-.48.93-.75 1.37-.27.44-.29.85-.19 1.3.42 1.93.84 3.85 1.26 5.77l4.71 21.67c.45 2.07.91 4.15 1.35 6.22.07.32.2.43.51.41.25-.02.51-.02.77-.03 2.55-.15 5.11-.3 7.66-.44l10.81-.6c.78-.04.79-.03 1-.82.89-3.34 1.76-6.68 2.64-10.01 1.46-5.51 2.91-11.03 4.36-16.54.15-.58.39-1.09.86-1.5.45.43.65.94.74 1.5.77 4.49 1.55 8.97 2.32 13.46.8 4.64 1.59 9.28 2.38 13.92.17.99.21 1 1.23.89.03 0 .05 0 .08-.01 1.34-.22 2.67-.45 4.01-.66 3.03-.49 6.06-.99 9.09-1.48 1.29-.21 2.58-.39 3.87-.6.92-.15 1.53-.68 1.8-1.58.06-.2.11-.39.16-.59 1.21-4.87 2.41-9.73 3.61-14.6 1.61-6.48 3.23-12.96 4.84-19.43 2.89-11.61 5.78-23.23 8.68-34.84 1.96-7.84 3.93-15.68 5.88-23.52.05-.21.17-.43.03-.66-.42 0-.83-.03-1.23 0-3.9.36-7.8.73-11.7 1.09-3.87.36-7.75.71-11.62 1.07-1.16.11-1.33.27-1.57 1.39-1.1 5.15-2.2 10.3-3.31 15.46l-3.78 17.55c-.93 4.33-1.88 8.65-2.81 12.97-.13.6-.36 1.15-.81 1.61-.48-.45-.77-.97-.97-1.57l-5.85-17.13c-1.02-2.98-2.04-5.95-3.07-8.92-.08-.23-.09-.5-.37-.66-.08.18-.16.33-.22.49l-11.1 28.2c-.64 1.62-1.28 3.24-1.91 4.85-.07.19-.12.39-.41.36-.26-.03-.44-.09-.47-.39-.02-.2-.08-.4-.12-.6l-.87-4.52c-.94-5.03-1.89-10.06-2.83-15.09-.96-5.13-1.9-10.26-2.85-15.39-.9-4.83-1.8-9.66-2.69-14.49-.37-1.96-.73-3.92-1.11-5.88-.1-.53-.14-.55-.65-.47-.58.08-1.16.17-1.75.25-3.2.43-6.39.86-9.59 1.3-3.25.44-6.49.89-9.74 1.33l-4.39.61zm119.24 56.74c-.94.18-1.89.36-2.84.54L252.3 71.6c-2.71.52-5.43 1.05-8.14 1.55-.38.07-.51.21-.44.61.1.66.14 1.32.2 1.99.35 4.47 1.49 8.72 3.56 12.7 3.47 6.66 8.6 11.59 15.47 14.67 5.34 2.39 10.96 3.03 16.75 2.51 5.87-.53 11.14-2.6 15.72-6.31 3.24-2.62 6.02-5.65 7.83-9.44 2.45-5.12 2.83-10.39.76-15.71-1.64-4.22-4.33-7.77-7.62-10.85-2.77-2.59-5.74-4.96-8.65-7.39-5.21-4.35-10.35-8.78-15.13-13.62-.99-1-1.97-2.01-2.8-3.16-3.21-4.48-3.02-9.31-.24-13.89.46-.76 1.12-1.33 1.99-1.61 1.52-.48 3.11-.02 4.16 1.24a8.727 8.727 0 0 1 1.78 3.46c.52 2.06.95 4.14 1.19 6.25.26 2.29.38 4.59.48 6.89.02.56.09 1.11.14 1.68.17-.01.3-.01.42-.03l4.38-.78c5.29-.96 10.57-1.91 15.86-2.87.81-.15.81-.14.83-.95v-.31c-.09-3.34-.51-6.63-1.37-9.86-1.26-4.72-3.19-9.13-6.15-13.04-3.86-5.09-8.98-8.01-15.35-8.56-4.47-.38-8.84.26-13.07 1.76-5.5 1.94-9.91 5.37-13.5 9.91-1.6 2.04-3.07 4.16-4.04 6.59-1.74 4.37-1.76 8.84-.66 13.35 1.25 5.14 4.09 9.33 7.86 12.95 2.26 2.17 4.76 4.05 7.23 5.96 4.5 3.48 8.96 7.01 13.21 10.8 1.44 1.28 2.82 2.61 3.98 4.15 1.71 2.27 2.62 4.8 2.48 7.65-.11 2.2-.72 4.28-1.53 6.31-.73 1.84-1.98 3.02-4.04 3.15-.05 0-.1.02-.15.03-2.54.3-4.84-.25-6.77-1.99-.91-.82-1.47-1.8-1.48-3.08-.01-1.74-.13-3.48-.12-5.22.01-3.23-.14-6.46.1-9.68.01-.23.05-.46-.08-.72zM65.15 52.82c2.77 0 5.74.01 8.72 0 1.04 0 .97.19.87-.93-.27-3.14-.57-6.27-1.02-9.39-.6-4.16-1.4-8.27-2.64-12.29-1.24-4-2.78-7.86-5.02-11.42-2-3.16-4.48-5.86-7.68-7.83-4.76-2.93-9.95-3.9-15.47-3.2-5.24.66-9.82 2.77-13.7 6.35-2.64 2.44-4.78 5.27-6.52 8.41-4.17 7.53-6.6 15.62-7.71 24.12-.47 3.61-.62 7.24-.52 10.88.11 4.08.52 8.12 1.25 12.13 1.35 7.46 3.82 14.53 7.46 21.18 1.82 3.32 4 6.37 6.82 8.94 3.95 3.6 8.55 5.86 13.87 6.56 4.1.55 8.18.3 12.21-.61 4.98-1.13 9.04-3.72 12.08-7.88 2-2.74 3.41-5.76 4.34-9.01 1.09-3.79 1.52-7.67 1.81-11.58.04-.51.02-.51-.53-.57-2.73-.27-5.45-.53-8.18-.8-2.85-.28-5.7-.58-8.56-.86-.74-.07-1.48-.14-2.22-.2-.53-.04-.53-.03-.6.51-.01.08-.01.15-.02.23-.21 2.04-.54 4.06-1.14 6.03-.52 1.72-1.13 3.41-2.2 4.87-1.45 1.98-3.42 2.53-5.69 1.6-1.5-.62-2.72-1.62-3.71-2.9-1.55-2.02-2.52-4.34-3.25-6.74-1.71-5.6-2.5-11.33-2.36-17.19.07-2.77.33-5.52.69-8.26.57-4.27 1.52-8.46 2.58-12.62.63-2.47 2-4.47 4.16-5.87.86-.56 1.81-.84 2.84-.75 1.37.11 2.41.8 3.19 1.9.61.86 1.07 1.8 1.49 2.77.94 2.17 1.45 4.47 1.99 6.76.5 2.12.94 4.24 1.41 6.37.25 1.15.61 1.5 1.62 1.45 3.05-.17 6.1-.1 9.34-.16zm72.27 5.31c-.56.03-.99-.13-1.42-.39-1.2-.72-2.5-1.2-3.92-1.21-1.92-.01-3.66.54-4.96 2.02-1.14 1.29-1.5 2.78-.79 4.42.27.62.71 1.12 1.23 1.55 1.19.99 2.53 1.74 3.89 2.46.59.31 1.15.67 1.64 1.13 1.29 1.2 1.67 2.65 1.13 4.33-.21.64-.53 1.22-.9 1.77-.16.23-.3.48-.43.72-.12.23-.17.48-.11.74.24 1.05 1.62 1.92 2.68 1.66.95-.23 1.87-.54 2.76-.92 1.61-.69 2.83-1.81 3.67-3.35.29-.53.35-1.05.18-1.62-.1-.32-.19-.63-.39-.91-.31-.44-.37-.95-.42-1.46-.04-.5.28-.88.78-.99.28-.06.58-.07.83.06.75.4 1.42.21 2.09-.22.3-.19.62-.36.94-.52 1.19-.56 1.87-1.55 2.38-2.71.11-.26.2-.53.34-.77.3-.52.79-.72 1.22-.52.43.2.58.66.38 1.26-.1.32-.25.62-.46.88l-.57.72c-.68.85-1.18 1.79-1.56 2.81-.14.38-.16.75-.08 1.13.13.61.44 1.14.89 1.59.55.55 1.25.97 1.95 1.12 1.49.33 3.03.46 4.55.65 1.95.24 3.38-.71 4.13-2.57.54-1.32.79-2.68.87-4.08.11-1.84-.21-3.59-1.26-5.17-.43-.66-1.01-1.12-1.73-1.3-1.76-.44-3.31.28-3.32 2.37 0 .69.11 1.4.27 2.04.23.91.52 1.83 1.02 2.66.18.29.26.71.03.94-.43.44-.86.95-1.54 1.05-.4.06-.6-.04-.65-.44-.05-.36-.01-.71.05-1.07.12-.73.17-1.47.13-2.22-.06-1.33-.12-2.66-.03-3.99.02-.3.02-.62-.03-.92-.1-.62-.42-1.12-1.01-1.35-.49-.19-1.02-.3-1.57-.25-.72.07-.92.26-.96.99-.02.45.08.9-.05 1.49-.52-.81-1.03-1.51-1.26-2.35-.16-.56.03-.91.6-1.14.61-.25 1.24-.43 1.88-.58.33-.08.52.02.75.21.26.22.48.48.8.66.79.43 1.64.49 2.49.49 2.16.02 3.34-.77 3.81-3.12.29-1.44.13-2.91-.14-4.35-.44-2.33-1.17-4.59-1.99-6.81-.98-2.65-2.95-4.31-5.6-5.21-.6-.2-1.13-.27-1.54.37-.14.22-.44.35-.62.55-.34.37-.75.3-1.13.18-.35-.11-.45-.45-.49-.8-.06-.55.11-1.07.24-1.58.41-1.58 0-2.88-1.27-3.88-.98-.77-1.76-1.73-2.43-2.76-.55-.86-1.31-1.29-2.24-1.58-.78-.24-1.57-.13-2.36-.18-1.97-.13-3.41-1.48-3.5-3.3-.04-.87.29-1.64.63-2.41.51-1.17.15-1.97-1.05-2.41-1.77-.64-4 .44-4.27 2.6-.02.18-.06.35-.09.53-.39 2.88.3 5.45 2.25 7.64.62.7 1.41 1.19 2.24 1.63.35.19.68.54 1.05.59.93.13 1.9.3 2.81 0 1.34-.45 2.53-.3 3.63.6.79.65 1.34 1.41 1.49 2.46.14.94.21 1.83-.1 2.78-.25.77-.47 1.55-.81 2.28-.3.64-.82 1.07-1.47 1.33-.56.22-.89-.05-.87-.65.02-.45.31-.74.56-1.05.55-.67 1.05-1.37 1.41-2.17.18-.4.3-.8.26-1.25-.16-1.84-1.32-2.62-3.01-2.68-1.04-.03-1.99.31-2.41 1.44-.11.31-.28.6-.43.9-.12.25-.27.5-.49.68-.33.27-.7.32-1.08.15-.36-.16-.41-.5-.41-.84-.01-.5.18-.94.4-1.37.17-.33.28-.65.03-.99-.88-1.18-1.96-2.08-3.42-2.44-.94-.24-1.91-.36-2.87-.49-1.58-.2-3.17-.09-4.75-.29-1.06-.13-2.12-.28-3.08-.8-.52-.28-1.02-.6-1.31-1.15-.24-.47-.24-.94.08-1.37.3-.39.74-.48 1.32-.26.56.21 1.07.52 1.5.92.21.2.44.35.68.43.52.16.98.41 1.43.69.11.07.2.12.33.13 1.3.14 2.59.3 3.89.42 1.23.11 1.21-.26.98-1.23-.21-.89-.94-1.29-1.71-1.61-1.02-.42-2.1-.6-3.18-.78-2.59-.44-5.21-.74-7.69-1.67-.48-.18-.99-.29-1.39-.61-.45-.36-.43-1.05.06-1.2.42-.13.91-.23 1.32.05.56.38 1.17.73 1.64 1.2.58.59 1.24.63 1.95.52 2.12-.34 2.55-2.25 2.03-3.55-.29-.73-.72-1.35-1.3-1.87-1.95-1.74-4.25-2.36-6.8-2.07-.92.1-1.74.47-2.25 1.34-.3.51-.41 1.04-.42 1.64-.02 1.77-.06 3.55.06 5.32.06.94.26 1.88.26 2.83 0 .95.33 1.76.78 2.53.38.65.94 1.23 1.69 1.34.65.1 1.31.21 1.98.16 1.2-.09 2.4-.14 3.6.01.37.05.66.27 1 .3.48.04.92.17 1.37.27 1.14.25 2.19.73 3.3 1.04.4.11.79.33 1.14.59.29.21.42.47.31.78-.11.31-.35.57-.73.57-.18 0-.36-.03-.53-.06-.7-.14-1.28-.54-1.9-.85-.79-.4-1.48-1-2.42-1.05-1.84-.08-3.68-.19-5.52-.25-.89-.03-1.78.06-2.63.38-1.33.49-2.01 1.33-2.05 2.7-.08 2.38-.04 4.76-.01 7.15.01.92.08 1.85.03 2.76-.02.33.01.64.18.86.51.64.97 1.3 1.85 1.57.76.23 1.51.44 2.3.54 1.75.22 3.49.47 5.24-.12.54-.18 1.14-.27 1.74-.25.37.01.81.27.86.5.06.27-.36.78-.72.87-.17.04-.36.05-.53.05-1.02.04-2.05.1-3.07.1-1.79 0-3.56.09-5.23.82-.89.39-1.63.91-2.24 1.68-.69.86-.6 1.81-.51 2.78.02.19.19.36.35.53.57.61 1.3 1.01 1.92 1.57.35.32.85.51 1.34.62.97.22 1.82-.24 2.66-.58.48-.2.85-.22 1.27 0 .54.28.59.71.15 1.13-.43.42-.97.61-1.55.7-.76.11-1.53.19-2.28.33-1.12.22-2.31.31-3.16 1.22-.48.52-1.08.99-1.03 1.82.01.18-.03.36-.06.53-.26 1.66.19 3.21.89 4.68.59 1.24 1.78 1.76 3.14 1.51.73-.14 1.43-.35 2.09-.74.91-.53 1.87-.95 2.88-1.25.94-.28 1.9-.42 2.88-.25 1.84.31 2.57 1.84 2.19 3.56-.09.38-.32.7-.63.94-.32.26-.73.34-1.08.22-.36-.12-.19-.54-.19-.82.01-.68-.04-1.34-.35-1.94-.28-.56-.69-.89-1.39-.88-.73.01-1.42.1-2.08.41-.53.25-1.08.48-1.64.66-1.11.35-1.97 1.06-2.8 1.83-.28.26-.5.58-.67.93-.77 1.62-.42 3.14.39 4.62.39.72 1 1.25 1.75 1.55 2.17.88 4.41 1.29 6.76.97 1.1-.15 2.14-.51 3.18-.86.21-.07.46-.26.63-.02.19.26-.05.48-.19.68-.17.23-.39.41-.62.57-.45.31-.95.49-1.47.64-1.27.37-2.58.31-3.89.32-1.55.01-2.99-.33-4.32-1.15-.57-.36-1.19-.6-1.83-.77-.46-.12-.91-.13-1.36.02-1.31.43-1.95 1.89-1.36 3.27.68 1.61 1.91 2.58 3.68 2.75 3.81.37 7.57.09 11.26-.96.38-.11.76-.09 1.14-.15.14-.02.25.01.32.14.1.18-.03.28-.13.39-.25.27-.56.45-.91.55-.64.19-1.27.39-1.91.58-1.42.44-2.86.77-4.35.9-1.71.15-3.42.2-5.14.25-1.19.03-1.98.53-2.42 1.65-.72 1.83-1.45 3.66-2.21 5.48-.66 1.56-.31 2.9.82 4.09 1.43 1.5 3.2 2.29 5.27 2.3 2.29.02 4.46-.54 6.55-1.45.57-.24 1.07-.6 1.56-.98.72-.55 1.09-1.26 1.16-2.16.03-.41.08-.82.12-1.22.03-.26.11-.5.28-.7.33-.39.86-.3 1.04.17.05.14.06.3.05.45 0 .12-.06.25-.09.37-.33 1.38-.09 1.65 1.36 1.52.18-.02.36-.06.53-.04 1.9.22 3.56-.52 5.22-1.26.73-.33 1.08-.95 1.11-1.71.04-.98-.25-1.87-.95-2.59-.28-.29-.61-.46-1.01-.5-1.81-.15-3.58-.02-5.26.77-.81.38-1.61.78-2.47 1.06-1.78.58-3.58 1.08-5.44 1.3-.54.06-.91.25-1.02.83-.05.24-.19.48-.32.69-.22.34-.49.34-.74.03-.2-.25-.26-.55-.26-.86 0-.23.17-.59-.16-.66-.26-.05-.37.3-.48.52-.1.21-.17.43-.28.63-.09.18-.2.36-.34.51-.23.25-.52.32-.83.12-.33-.21-.32-.5-.16-.81.17-.32.37-.61.54-.93.48-.88.8-1.82 1.06-2.79.07-.25.15-.51.45-.57.32-.06.54.09.69.37.04.07.06.19.19.17.68-.72 1.05-.67 1.44.2.27.59.93.92 1.67.76 2.2-.48 4.38-1.04 6.53-1.71.43-.13.92-.28 1.04-.8.12-.55-.3-.82-.67-1.11-.08-.06-.16-.13-.23-.2-.24-.23-.47-.47-.58-.8-.12-.35-.07-.67.22-.91.27-.22.57-.2.86-.02.19.12.37.27.54.43.59.56 1.17 1.15 1.77 1.7.24.22.5.45.85.5.91.13 1.84.23 2.76.16 1.23-.09 1.98-1.04 1.84-2.27-.09-.79-.43-1.47-.95-2.06-1.2-1.35-2.74-1.71-4.46-1.48-.28.04-.56.07-.84.12-.35.07-.56-.11-.64-.4-.08-.27.22-.31.38-.39.79-.42 1.43-.99 1.81-1.81.53-1.12.67-2.28.45-3.52-.26-1.41-1.07-2.2-2.44-2.53-1.02-.24-2.04-.11-3.06-.15-.23-.01-.46 0-.69-.01-.11 0-.18-.09-.21-.19-.03-.11.03-.19.14-.24.26-.11.52-.23.77-.34 1.08-.48 2.16-.97 3.02-1.8 1.18-1.14 1.79-2.5 1.33-4.16-.31-1.12-1.15-1.86-2.09-2.46-2.88-1.83-6-2.24-9.29-1.46-.72.17-1.45.27-2.18.36 0-.14.08-.2.17-.26.66-.39 1.37-.7 2.07-1.01.68-.3 1.37-.58 1.99-1 1.99-1.36 2.47-3.46 1.11-5.38-.16-.23-.28-.49-.42-.73-.18-.3-.11-.43.24-.52 1.26-.33 2.52-.69 3.77-1.06.66-.2 1.3-.48 1.84-.92 1.97-1.61 1.9-4.62-.16-5.9-.91-.57-1.89-1.03-2.95-1.26-.75-.17-1.48-.39-2.22-.62-.41-.13-.83-.26-1.26-.34-.37-.07-.76-.2-1.14-.06-.38.14-.31.56-.45.84-.14.28-.35.44-.67.42-.33-.03-.5-.25-.56-.55-.04-.17-.03-.36-.02-.53.02-.23.06-.54-.19-.6-.29-.07-.29.28-.38.46-.18.41-.42.77-.88.91-.53.16-.87-.1-.82-.65.03-.39.2-.74.42-1.06.1-.15.33-.27.21-.54-.28.01-.39.31-.62.39-.25.08-.51.14-.74-.02-.23-.16-.28-.41-.2-.69.14-.48.09-.96-.03-1.44-.08-.3-.13-.6-.15-.91-.06-.99.11-1.95.93-2.57 1-.76 2.1-1.35 3.42-1.43 1.3-.08 2.55.13 3.81.37 1.73.33 3.45.46 5.16-.14.07-.03.15-.04.22-.06.81-.12 1.36.27 1.46 1.08.08.65-.07 1.28-.4 1.85-.35.6-1.11.61-1.53.04-.14-.19-.22-.4-.23-.64-.01-.23-.08-.44-.4-.46-.05.64-.16 1.24-.48 1.78-.37.61-.91.65-1.35.1-.15-.19-.27-.41-.27-.63.01-.9-.54-1.04-1.27-1.1-1.89-.15-3.78-.25-5.66.09-.7.13-1.26.47-1.46 1.19-.19.7.12 1.25.62 1.71.85.77 1.8 1.37 2.89 1.69 2.38.7 4.8 1.3 7.25 1.66 1.59.23 3.11.01 4.39-1.13.38-.34.54-.8.83-1.19.56-.78 1.29-.97 2.14-.53.39.21.73.49.96.86.53.84.95 1.75 1.66 2.48.31.32.25.75 0 .97-.24.22-.67.23-.97-.09-.39-.43-.84-.43-1.33-.36-1.17.18-2.3.51-3.4.93-.24.09-.46.21-.64.41-.62.72-.9 1.54-.76 2.48.19 1.29.96 2.18 2.03 2.84.52.32 1.07.6 1.63.86.63.39.96.87.88 1.65zm-31.54-18.97c-.02-.21-.18-.27-.28-.38-.34-.4-.39-.83-.12-1.1.28-.28.61-.25 1.07.09.3.22.59.3.99.22 1.1-.21 1.82-1.02 2.36-1.81.55-.8.82-1.82.77-2.89-.07-1.49-.19-2.97-.39-4.44-.15-1.06-.33-2.1-.82-3.08-.68-1.36-2.67-2.23-4.19-1.8-.47.13-.91.41-1.29.77-.34.32-.17.71-.22 1.07-.11.93.49 1.54 1.15 1.89.48.25.52.49.43.85-.24.96-.49 1.91-1.1 2.73-.3.4-.47.93-.93 1.19-.63.35-1.17.83-1.79 1.2-1.42.83-2.01 2.73-1.49 4.14.28.74.62 1.46.89 2.19.38 1.07.95 2 1.65 2.86 1.4 1.73 2.6 3.56 3.25 5.71.1.33.09.72.25 1.01.47.88.18 1.72-.07 2.55-.07.23-.27.46-.56.44-.3-.02-.43-.24-.51-.5-.05-.17-.1-.35-.13-.52-.25-1.19-.53-2.37-1.11-3.45-.17-.32-.37-.6-.69-.8-1.26-.81-2.6-1.36-4.13-1.24-.23.02-.46-.01-.68-.07-.32-.09-.57-.23-.61-.59-.02-.22.35-.7.62-.68.49.04.87-.22 1.3-.33.67-.16 1.02-.65 1.29-1.22.31-.66.05-1.36-.21-1.87-.43-.85-.82-1.74-1.39-2.53-.49-.69-.72-1.45-.69-2.29.01-.2.04-.41-.06-.6-.42-.86-.78-1.76-1.49-2.46-.16-.16-.34-.32-.41-.55-.07-.23-.09-.46.11-.64.23-.19.5-.19.7 0 .41.37.87.68 1.21 1.14.23.32.42.73.84.95.14-.39.08-.7-.09-1-.2-.38-.35-.79-.45-1.21-.06-.26-.2-.59.14-.75.33-.17.57.13.79.3.12.09.21.27.24.46.04.27.15.52.19.79.04.28.3.31.58.16.55-.28.83-.81 1.2-1.25.81-.94 1.26-2.03 1.08-3.3-.11-.81-.46-1.54-.83-2.27-.48-.97-1.34-1.37-2.31-1.52-1.3-.19-2.47-.71-3.67-1.17-.16-.06-.33-.12-.29-.38.05-.25.23-.24.41-.26.69-.08 1.39-.1 2.07-.02 2.51.28 4.96.13 7.4-.64.8-.25 1.54-.57 2.26-.96 1.49-.8 2.37-2.4 2.11-4.22-.17-1.19-.43-2.35-.67-3.52-.26-1.26-.96-2.18-1.96-2.92-.55-.41-1.18-.71-1.82-.93-1.81-.62-3.6-.68-5.32.35-.21.13-.33.26-.44.47-.32.63-.22 1.21.21 1.71.41.48.84.96 1.34 1.35.36.28.79.49 1.32.49.63 0 1.29-.04 2 .27-.64.32-1.18.61-1.73.87-.24.11-.35.34-.16.46.49.3.64 1.03 1.35 1.02.12 0 .26.13.24.25-.02.14-.14.27-.31.27-.18.01-.36.01-.53-.03-.37-.08-.7.05-1.05.14-.23.06-.33.18-.37.42-.1.67.02.95.61 1.32.17.11.42.19.32.45-.11.32-.38.18-.59.12-.27-.08-.55-.15-.79-.29-.81-.49-1.65-.45-2.51-.21-1.51.41-3.02.75-4.59.83-1.87.1-3.73.28-5.59.42-.41.03-.8.1-1.15.32-.42.26-.61.91-.52 1.41.12.66.52.99 1.1 1.21.3.11.43.39.31.69-.14.35-.48.31-.72.18-.94-.49-1.96-.53-2.98-.57-3.55-.15-6.77.83-9.73 2.76-.75.49-1.37 1.15-2.16 1.59-.2.12-.35.33-.14.57.17.18.19.42.26.63.66 2.1 1.2 4.23 1.65 6.39.26 1.22.38 1.31 1.62 1.07.23-.04.46-.09.67-.16 1.15-.42 2.32-.8 3.44-1.32 1.15-.53 2.22-1.17 3.09-2.11.45-.49.86-1.02 1.09-1.66.31-.87.01-1.7-.78-1.98-.92-.33-1.85-.38-2.74.14-.73.43-1.43.9-2.12 1.39-.67.47-1.36.92-2.03 1.39-.53.36-1.14.47-1.75.5a1 1 0 0 1-1.05-.83c-.05-.4.24-.75.77-.91.19-.06.4-.09.6-.13.33-.06.62-.2.92-.37 2.07-1.2 4.18-2.29 6.6-2.6.43-.05.7-.26.91-.61.21-.35.39-.72.71-1 .32-.28.9-.42 1.04-.22.22.32.14.68-.04 1.01-.13.23-.34.43-.35.73.3.09.48-.06.67-.18.59-.36.99-.37 1.22-.02.23.35.11.73-.45 1.15-.33.25-.5.53-.47.97.06.98-.25 1.86-.89 2.62-.36.43-.7.88-1.04 1.34-.34.45-.69.89-.98 1.38-.94 1.61-1 3.26-.1 4.9.87 1.6 2.61 2.16 4.28 1.43 1.41-.62 1.9-1.6 1.49-3.1-.17-.64-.4-1.27-.57-1.91-.37-1.37-.26-2.67.47-3.93.61-1.06 1.12-2.19 1.74-3.25.73-1.26.43-2.84-.68-3.82-.47-.41-.57-.83-.31-1.11.24-.26.61-.21 1.07.22.73.69 1.52 1.29 2.39 1.79.27.15.51.34.75.54.89.76.96 1.91.18 2.79-.29.32-.63.6-.96.89-.51.44-1.1.74-1.66 1.11-1.74 1.15-2.55 3.23-1.94 5 .3.88.76 1.68 1.4 2.37.46.5 1 .87 1.62 1.14.74.32 1.44.29 2.11-.18.27-.19.56-.37.87-.48.3-.11.62-.09.82.22.17.26.11.67-.22.88-.75.48-1.54.92-2.4 1.17-.53.15-1.07.01-1.59-.11-1.08-.24-2.03.03-2.87.71-.65.53-.72.79-.34 1.51.75 1.43 1.95 2.14 3.56 2.09.44-.01.86.06 1.29.1.23.02.39.12.42.36.03.24-.19.27-.34.35-.16.09-.33.14-.49.22-.69.33-1.41.62-2.07 1.01-1.37.8-1.4 2.44-.1 3.35.1.07.21.14.33.2 1.12.57 2.15 1.29 3.21 1.97.17.11.34.23.52.33s.24.24.2.45c-.04.22-.19.27-.39.29-.49.05-.97.04-1.41-.24-.56-.35-1.15-.68-1.69-1.06-1.82-1.29-3.84-1.55-6-1.34-.78.08-1.28.4-1.63 1.06-.25.47-.53.92-.96 1.38-.1-.87-.57-1.44-1.05-2-1.31-1.53-2.92-2.47-4.97-2.58-.49-.03-.53.01-.51.5.04.74.13 1.48.16 2.22.03.75-.22 1.41-.74 1.96-.12.12-.32.18-.3.41.19.07.39.13.57.22 1.05.54 1.74 1.3 1.73 2.58-.01.89.09 1.79.17 2.68.04.48.07.97.2 1.44.76 2.81 3.38 4.78 6.96 4.3 1.25-.17 2.24-.67 2.73-1.92.08-.21.24-.4.39-.56.23-.25.53-.31.84-.18.27.11.42.51.33.86-.05.2-.15.38-.24.56-.48.97-.43 1.93.01 2.89.09.21.22.41.28.63.26.88 1.12 1.43 1.97 1.17.78-.24 1.58-.12 2.36-.17.28-.02.58.08.63.43.06.36-.11.6-.44.71-.51.18-.89.49-1.07 1.02-.04.13-.14.21-.29.21-.19 0-.25-.12-.29-.29-.04-.16 0-.39-.27-.38-.21.01-.3.16-.37.34-.04.1-.07.2-.12.28-.22.34-.48.37-.75.08-.12-.13-.24-.29-.28-.45-.15-.65-.62-1.04-1.1-1.43-.58-.47-1.22-.82-1.89-1.16-2.9-1.44-5.92-1.68-9.05-.99-.67.15-1.35.29-1.98.6-.67.32-.73.56-.38 1.19.8 1.44 1.91 2.59 3.21 3.57.19.14.4.22.61.31.99.41 2.05.4 3.09.48 3.37.28 6.75.32 10.13.27 3.13-.05 6.12.49 8.81 2.2.28.18.6.29.91.41 1.66.61 3.28.3 4.87-.3 1.23-.47 1.86-1.41 1.96-2.69.05-.66.04-1.33 0-2-.2-2.81-1.38-5.05-3.89-6.49-.33-.19-.62-.41-.9-.79.41-.11.76-.05 1.11-.06.69-.01 1.33-.18 1.93-.51.94-.51 1.78-2.02 1.12-3.38-.56-1.14-1.49-1.76-2.67-1.94-2.59-.39-5.19-.42-7.77.14-2.47.54-4.86 1.31-7.11 2.49-.39.21-.69.46-.85.9-.13.35-.3.68-.55.98-.2.23-.38.32-.65.19-.28-.14-.39-.45-.25-.77.09-.21.2-.42.33-.6 1.01-1.33.73-3.13-.29-4.27-.17-.19-.39-.34-.55-.53-.31-.37-.3-.78 0-1.02.33-.26.79-.18 1.02.25.34.64.86 1.17 1.16 1.83.08.18.18.34.42.39 2.05.44 3.97.16 5.67-1.08 1.14-.84 1.66-1.91.97-3.49-.33-.76-.77-1.43-1.43-1.95-.27-.21-.47-.47-.57-.8-.19-.59.01-1.24.49-1.56.5-.34 1.36-.34 1.72.08.37.43.77.85.92 1.44.13.5.28 1.02.55 1.45.41.65.7 1.35 1.03 2.04.46.96 1.09 1.77 2.22 2.01 1.28.27 2.59.35 3.89.36.56 0 1.06-.32 1.46-.69.5-.47.85-1.07 1.02-1.75.56-2.18.63-4.4.4-6.62-.18-1.76-.77-3.41-1.41-5.04a2.8 2.8 0 0 0-.96-1.25c-.41-.29-.56-.21-.78.25-.1.21-.13.42-.17.64-.05.24-.17.44-.45.44-.27 0-.41-.19-.48-.43-.05-.17-.09-.35-.11-.52-.02-.31 0-.61.07-.92.1-.49-.11-.67-.58-.56-.07.02-.12.09-.19.11-.12.05-.24.08-.36.11-.34.08-.7-.08-.82-.36-.14-.32-.02-.6.32-.83.38-.28.9-.28 1.25-.61zm-46.2 33.53c-.42-1.05-.57-2-.27-2.97.14-.47.37-.9.59-1.33.44-.83.36-1.25-.32-1.9-.07-.07-.16-.13-.23-.2-.99-.9-1.75-2.61-.79-4.25.25-.42.43-.88.47-1.37.06-.72-.06-1.37-.72-1.82-.15-.1-.31-.23-.37-.38-.17-.42-.48-.44-.86-.43-1.46.03-2.92.06-4.38.05-1.8-.01-2.94-.92-3.39-2.64-.04-.17-.09-.35-.12-.52-.5-2.61-1.11-5.2-1.71-7.79-.57-2.45-1.3-4.84-2.47-7.08-.11-.2-.2-.41-.33-.6-.32-.47-.74-.65-1.32-.52-.79.18-1.3.64-1.62 1.38-.72 1.7-1.27 3.46-1.67 5.26-.59 2.63-.86 5.3-1.12 7.98-.35 3.75-.63 7.5-.58 11.26.05 3.52.48 6.99 1.4 10.4.92 3.42 2.17 6.67 4.69 9.28.05.06.1.12.14.18.44.67 1.17.87 1.85 1.17.17.08.3.03.37-.14.08-.19.16-.38.22-.57.56-1.62.98-3.28 1.32-4.96.28-1.4.49-2.82.78-4.22.22-1.1.88-1.82 2.01-2.06.3-.06.54-.16.72-.49.41-.75 1.11-1.1 1.96-1.17.64-.06 1.28.01 1.92.07 1.24.12 2.49.25 3.83.38zm38.45 27.43c.28.01.56.03.84.04 1.84.04 3.5.9 5.31 1.13.61.08 1.05.73 1.06 1.36.01.58-.25 1.06-.77 1.32-.57.28-1.16.26-1.67-.13-.57-.43-1.15-.87-1.62-1.4-.82-.93-1.8-1.18-2.98-.95-1 .19-2.01.36-3.03.51-1.88.28-3.75.45-5.66.23-1.09-.13-1.89-.57-2.3-1.62-.23-.6-.47-1.19-.72-1.78-.45-1.08-1.05-2.06-2.01-2.76-1.08-.79-2.4-.39-2.89.86a6.37 6.37 0 0 0-.41 1.71c-.28 2.58.5 4.6 3.15 5.64 2.62 1.03 5.27 1.98 7.94 2.84.42.14.85.19 1.29.12 1.25-.21 2.5-.12 3.76-.12.6 0 1.16.16 1.67.49.72.46 1.52.74 2.35.9 1.17.23 2.35.18 3.52-.02 2.02-.34 3.45-1.47 4.25-3.37.32-.76.48-1.56.56-2.38.13-1.38-.25-2.58-1.22-3.58-.77-.79-1.71-1.34-2.77-1.58-1.42-.32-2.8-.82-4.25-.99-1.25-.15-2.48-.2-3.74.06-1.68.35-3.32.82-4.96 1.32-.98.3-1.99.5-3.02.46-.38-.01-.77-.03-.97.3-.22.37.05.74.26 1.06.21.33.51.57.85.76.43.23.89.39 1.37.46 1.2.18 2.34-.1 3.48-.39 1.09-.29 2.19-.52 3.33-.5zm-6.91-8.85c.61.02 1.23-.01 1.83.18.32.1.53.32.49.68-.04.33-.26.49-.57.54-.38.06-.76.09-1.14.13-1.44.15-2.71.7-3.9 1.5-.33.22-.48.51-.51.89-.07.73.61 1.55 1.4 1.66 1.49.19 2.96.13 4.41-.26.96-.26 1.93-.51 2.89-.77.35-.09.71-.08 1.05-.22 2.25-.91 4.53-.84 6.74.07 1.13.46 2.19.38 3.3.16 1.19-.24 2.02-.97 2.47-2.09.72-1.81 1.36-3.64 1.77-5.55.48-2.26-1.18-4.1-3.48-3.88-.63.06-1.05.36-1.31.92-.29.62-.41 1.26-.36 1.94.03.49.08.98-.05 1.45-.42 1.52-1.51 2.52-2.91 2.89-2.83.74-5.59.61-7.95-1.48-.8-.71-1.77-1.09-2.85-1.24-1.33-.19-2.6.06-3.84.51-.76.27-1.52.43-2.32.44-.49.01-.97.06-1.46.08-1.36.05-2.71.03-4.01-.46-.65-.24-1.31-.43-1.98-.61-1.04-.28-2.1-.46-3.19-.29-.35.05-.54.18-.63.54a30.14 30.14 0 0 1-2.29 6.01c-.13.26-.15.43.1.65 1.44 1.29 3.11 2.15 4.97 2.64.73.19 1.43 0 2.03-.46 1.14-.87 1.19-2.12.13-3.07-.46-.41-.97-.75-1.58-.91-.39-.11-.77-.26-1.15-.43-.23-.1-.46-.23-.66-.39-.36-.29-.49-.81-.33-1.18.19-.41.55-.5.96-.49.33.01.66.06.98.15 1.26.35 2.39.94 3.26 1.93.56.63 1.27.83 2.04.91 1.24.13 2.2-.44 2.94-1.36.74-.91 1.7-1.35 2.81-1.58.62-.12 1.26-.17 1.9-.15zM62.31 57.9c.2 1.06.57 1.68 1.33 2.23.27.2.52.4.73.67.18.24.08.39-.14.47-.36.13-.74.19-1.1.34-1.42.6-1.7 2.28-.57 3.33.34.32.75.56 1.2.65.76.16 1.12.7 1.45 1.29-.39.25-.74.46-1.07.69-1.6 1.16-1.62 3.35-.77 4.69.32.52.76.83 1.41.93 1.02.15 1.97.04 2.94-.27 1.72-.55 3.41-.36 4.96.56.61.36 1.22.57 1.91.69 1.53.26 2.23.98 2.27 2.52.02.58.35.78.66 1.09.16.15.31.12.49.05 1.25-.53 1.8-1.85 1.26-3.09-.65-1.49-1.7-2.68-3.07-3.54-1.52-.95-3.1-1.8-4.61-2.75-.61-.38-1.23-.6-1.92-.68-.13-.01-.26-.02-.38-.05-.17-.05-.35-.1-.5-.18a.6.6 0 0 1-.28-.79c.13-.31.4-.41.7-.32.56.17 1.12.37 1.69.49.6.12.73.02.74-.6.02-1.05-.37-1.9-1.25-2.49-.7-.47-1.42-.92-2.13-1.38-.19-.12-.4-.24-.54-.43-.15-.2-.21-.41-.09-.64.12-.23.35-.3.59-.29.32.01.57.2.83.37.52.34 1.06.47 1.68.29.24-.07.5-.11.76-.12.55-.02.81.15.98.67.1.29.14.6.19.9.23 1.48.97 2.64 2.27 3.38 1.23.7 2.53.81 3.84.26.85-.36 1.11-1 .84-1.88-.11-.35-.28-.66-.47-.96-.73-1.18-1.17-2.44-1.2-3.84 0-.23-.03-.46-.07-.69-.3-1.41-1.1-2.41-2.39-3.07-.61 1.01-1.52 1.34-2.58 1.36-.23 0-.46.02-.69.02-2.2.04-4.4.08-6.6.1-1.1.03-2.17.02-3.3.02zm80.4 30.04c.62.01 1.23-.03 1.83-.16 2.03-.45 3.85-1.39 5.59-2.47.77-.48 1.24-1.22 1.36-2.14.09-.64.05-1.27-.06-1.91-.31-1.74-1.45-2.6-3.58-2.33-.8.1-1.35.57-1.74 1.25-.25.43-.26.9-.35 1.37-.35 1.67-1.88 3.04-3.43 3.23-.51.06-.97-.08-1.35-.42-.7-.62-.57-1.62.28-2.01.35-.16.73-.24 1.09-.34.54-.15.9-.44.99-1.04.1-.7.49-1.24 1.02-1.66.89-.7 1.85-1.29 2.95-1.6 2.36-.67 4.44.61 4.85 2.73.12.63.24 1.26.4 1.87.16.6.5.84 1 .64 1.17-.46 2.17-1.15 2.6-2.42.56-1.66.26-3.21-.64-4.67-.41-.67-1.04-1.04-1.81-1.17-.4-.07-.81-.11-1.22-.17-.63-.1-1.27-.16-1.89-.31-.81-.19-1.44-.7-2.04-1.27-1.06-1-2.14-1.16-3.46-.57-.72.32-1.28.83-1.83 1.38-1.61 1.61-3.2 3.24-5.13 4.51-.99.65-1.69 1.57-2.02 2.72-.6 2.09.16 3.78 1.65 5.19 1.38 1.3 3.08 1.78 4.94 1.77zm-56.8-6.8c.46.06.92.02 1.38.01.46-.01.92-.07 1.37-.18 1.19-.29 1.91-1.09 1.92-2.27.01-1.36-.38-2.19-1.66-2.64a7.38 7.38 0 0 0-3.55-.37c-2.2.31-3.99 1.42-5.54 2.92-2.45 2.38-2.07 6.45.68 8.48 1.7 1.25 3.01.52 4.06-.7.15-.17.24-.39.37-.58.11-.17.24-.34.43-.43.27-.13.54-.15.79.07.23.2.22.46.11.71-.09.21-.24.39-.38.57-.14.19-.27.37-.33.6-.08.38.04.52.43.47.28-.03.56-.09.83-.14 2.21-.46 4.4-.85 6.67-.32 1.24.29 2.33.71 3.22 1.64a6.372 6.372 0 0 0 3.75 1.95c1.57.23 3.01-.13 4.23-1.17.97-.82 1.02-2.27.15-3.18-.58-.61-1.29-1.01-2.07-1.28-.9-.32-1.83-.48-2.77-.62-1.67-.24-3.23-.73-4.56-1.84-.93-.77-2.06-1.1-3.28-1.11-1.25-.01-2.45.28-3.57.8-1.23.58-2.54.75-3.86.94-.51.07-1.02.09-1.53 0-.4-.07-.76-.21-.88-.63-.11-.4.03-.76.3-1.06.39-.42.88-.61 1.44-.63.62-.02 1.24-.01 1.85-.01zm57.59-54.96c-.07 1.92.13 3.42.93 4.82.66 1.16 1.55 2.09 2.57 2.91.44.35.93.69 1.08 1.26.44 1.71 1.74 2.64 3.11 3.51.64.41 1.37.63 2.09.86.83.26 1.35-.07 1.46-.93.08-.62.02-1.24-.21-1.81-.86-2.12-2.14-3.88-4.24-4.92-.44-.22-.62-.47-.61-.99.01-3.16-1.22-5.74-3.72-7.69-1.14-.89-2.05-1.97-2.78-3.22-.42-.73-.76-1.5-1.27-2.18-.86-1.15-1.98-1.88-3.37-2.22-.59-.14-1.14-.07-1.51.47-.35.52-.36 1.18-.2 1.69.14.43.21.83.21 1.25.01 1.84.01 3.69.01 5.53 0 .36.01.72-.08 1.07-.13.53-.08 1.07-.04 1.6.03.46.28.82.62.99.99.49 2.05.69 3.09.19.83-.4 1.31-1.44.85-2.29-.33-.6-.6-1.23-.92-1.84-.3-.58-.42-1.19-.32-1.84.09-.6.51-.85 1.01-1 .42-.13 1.07.13 1.27.54.34.69.68 1.4.8 2.17.13.78.2 1.6.17 2.07zM89.75 19.1v.04c.51 0 1.03.05 1.53-.01 2.13-.26 4.27-.46 6.38-.92.63-.14 1.22-.34 1.67-.82 1.47-1.58 1.29-4.39-.76-5.67-.8-.5-1.67-.84-2.63-.96-1.78-.21-3.15.54-4.35 1.75-.17.17-.1.37.02.47.33.26.58.64 1.08.64.5 0 .81.3 1 .77.09.24.02.36-.12.54-.15.19-.31.15-.48.08-.14-.06-.28-.13-.39-.23-.42-.35-.92-.59-1.23-1.11-.17-.29-.59-.68-.95-.43-.56.38-1.16.36-1.75.39-2.31.13-4.48.63-6.4 2a2.8 2.8 0 0 0-.97 1.21c-.18.41-.21.82-.18 1.24.03.39.41.22.58.38.16.16.24.34.12.55-.12.22-.33.25-.53.16-.21-.09-.4-.23-.59-.35-.24-.15-.46-.29-.78-.24-.76.12-1.43.4-1.96.95-.23.24-.39.54-.61.78-.57.61-.71 1.35-.64 2.13.05.52.34.9.88 1.04.92.24 1.82 0 2.73-.1 1.78-.96 3.66-1.7 5.49-2.55.2-.09.28-.23.33-.37.34-.92 1.09-1.21 1.97-1.3.51-.02 1.03-.03 1.54-.06zm34.69 5.74h.03c0 .41.03.82-.01 1.23-.04.5.22.84.56 1.1 1.04.8 2.44.64 3.31-.35.22-.25.41-.53.55-.83.59-1.25.79-2.57.68-3.95-.14-1.76-.97-3.1-2.42-4.05-1.66-1.09-3.57-1.56-5.48-1.91-1.28-.23-2.57-.34-3.79-.86-.29-.13-.53-.28-.75-.49-.28-.27-.28-.6-.17-.92.11-.33.38-.47.72-.48.36-.01.72 0 1.07.08.63.15 1.3.14 1.9.01.63-.13 1.21-.5 1.79-.8.82-.42.99-1.06.5-1.83-.47-.74-1.17-1.2-1.99-1.46-1.82-.56-3.59-.3-5.3.43-1.27.54-2.4 1.25-2.95 2.64-.57 1.43-.74 2.81.41 4.03.45.48.9.97 1.6 1.17.94.26 1.93.27 2.86.6.68.24 1.42.24 2.12.47.3.1.58.26.9.34 1.02.27 1.97.76 2.65 1.56.68.81 1.19 1.76 1.22 2.88 0 .47-.01.93-.01 1.39zm8.28 80.92c1.07-.02 1.94-.21 2.75-.62 1.37-.69 2.38-1.76 3.14-3.07.5-.86.22-1.66-.68-2.1-.23-.11-.48-.17-.73-.23-.89-.22-1.78-.08-2.67-.01-3.35.27-6.56 1.02-9.49 2.77a9.982 9.982 0 0 1-3.44 1.27c-2 .34-3.98.15-5.95-.24-.33-.06-.66-.14-.98-.15-1.18-.03-1.92.82-1.74 1.98.09.59.32 1.12.73 1.58.65.73 1.47 1.18 2.41 1.43 1.53.41 3.09.44 4.65.29 2.34-.22 4.49-1 6.43-2.3.86-.58 1.56-1.31 1.78-2.4.12-.58.53-.99 1.03-1.28.31-.18.63-.34.95-.51.18-.09.36-.25.55-.04.17.18-.01.33-.1.47-.28.47-.41.99-.56 1.51-.18.62-.02.95.54 1.28.48.26.99.4 1.38.37zM76.45 43.33c.13 1.13.24 2.22.4 3.3.08.52-.12 1.19.27 1.54.4.35 1.06.3 1.61.41.7.14 1.41.28 1.99.75 1.46 1.19 3.15 1.37 4.94 1.14a4.4 4.4 0 0 0 1.92-.72c1.31-.88 1.75-2.23 1.16-3.69-.55-1.36-1.46-2.39-2.9-2.88-1.63-.55-2.83-1.61-3.62-3.14-.27-.52-.57-1.03-.97-1.47-.47-.5-1.01-.88-1.71-.93-1.2-.09-2.27.28-3.24.97-.4.28-.54.64-.43 1.13.13.6.21 1.21.3 1.82.13.88.25 1.03 1.12 1.18.23.04.46.03.69.05.53.04 1.07.06 1.6.2 1.47.4 2.66 1.29 3.83 2.21.19.15.25.38.37.58.12.21.09.4-.1.54-.17.13-.28-.05-.39-.12-.21-.14-.42-.3-.63-.45-1.14-.79-2.3-1.55-3.62-2-.82-.29-1.65-.53-2.59-.42zm69.88 48.79c.54-.11 1.01-.22 1.49-.31 2.05-.4 3.49-1.63 4.53-3.37.21-.35.35-.74.38-1.16.06-.76-.26-1.1-1.01-1.1-.37 0-.7.13-1.04.24-2.08.71-4.16 1.42-6.25 2.12-1.04.35-2.11.63-3.14 1.01-2.05.76-3.22 2.33-2.93 4.97.06.56.09 1.12.02 1.68-.11.97.25 1.76 1.03 2.34.93.69 1.97.83 3.06.51.89-.26 1.72-.64 2.52-1.12 1.12-.68 1.98-1.62 2.65-2.73.47-.77.41-1.2-.16-1.88-.18-.21-.4-.4-.6-.6-.17-.17-.42-.27-.55-.6zM103.6 79.41c-.06.13-.01.25.01.37.05.33.11.66.12.99.01.31-.12.56-.45.64-.28.07-.56-.14-.66-.51-.06-.25-.09-.51-.09-.76.03-1.12-.49-1.97-1.31-2.65-2.05-1.69-4.44-2.09-7.01-1.81-.41.04-.81.1-1.19.28-.87.39-1.22 1.06-.99 1.99.18.74.55 1.36 1.21 1.8 1.5 1 3.11 1.77 4.75 2.5 2.42 1.07 4.93 1.71 7.61 1.36 1.36-.18 2.66-.53 3.85-1.23 1.37-.81 1.72-1.57 1.48-3.13-.15-.96-.52-1.34-1.47-1.49a2.41 2.41 0 0 0-1.13.09c-.8.27-1.57.63-2.33.99-.91.42-.9.42-.51 1.33.02.05.04.09.06.14.07.23.1.47-.11.64-.23.18-.5.13-.72-.02-.3-.21-.48-.52-.65-.84-.14-.25-.17-.56-.47-.68zm166.32-8.01c-.03.41-.08.71-.08 1.01-.04 2.59-.08 5.17-.1 7.76-.01 1.08-.01 2.15.03 3.23.06 1.63.72 2.48 2.27 3 .76.26 1.54.38 2.33.44.67.05.67.03.93-.62.14-.36.28-.71.39-1.08.69-2.21.81-4.42-.08-6.61-.53-1.32-1.26-2.51-2.16-3.61-1.02-1.29-2.19-2.41-3.53-3.52zM123.99 12.93c-.07.67.11 1.33.44 1.88.73 1.23 2.07 1.64 3.33 2 .79.22 1.68.12 2.5-.14.36-.11.73-.16 1.08-.33.33-.16.68.01.78.27.13.32-.02.54-.35.78-.42.3-.94.21-1.38.41-.18.08-.34.13-.36.33-.04.47-.17.99.16 1.39.33.39.63.92 1.32.71.09-.03.2.02.3.03.16.02.24.12.16.26-.16.29.01.3.22.27 1.5-.27 2.66-.98 3.19-2.49.33-.92.4-1.86.12-2.79-.4-1.34-1.09-2.41-2.5-2.96-2.15-.84-4.36-1.38-6.62-1.78-1.04-.19-2.47.91-2.39 2.16zM270.8 28.61c-.53 1.41-.92 2.72-.76 4.13.33 2.84 1.86 5.06 3.77 7.3-.03-.45-.03-.71-.07-.97-.36-2.6-.78-5.2-1.34-7.77-.23-1.05-.79-1.85-1.6-2.69zM76.66 80.09c-.15 1.14-.28 2.29-.45 3.42-.17 1.14-.37 2.27-.57 3.52.92-.45 1.28-1.13 1.45-1.93.37-1.71-.02-3.35-.43-5.01zm66.57-63.78c.02.03.04.07.05.1.02-.02.05-.04.05-.05a.313.313 0 0 0-.05-.1c-.02.01-.03.02-.05.05z" id="path1"/><path class="st1" d="M7.79 142.53c.16-1.37.27-2.74.5-4.11.79-4.77 2.46-9.23 4.75-13.47 1.65-3.05 3.73-5.75 6.5-7.88 3.06-2.37 6.5-3.9 10.35-4.36 5.47-.66 10.01 1.22 13.61 5.37 1.91 2.2 3.12 4.79 4.08 7.51.37 1.06.69 2.14.98 3.26.31-.15.3-.46.39-.7.85-2.34 1.91-4.58 3.4-6.6 3.36-4.54 7.85-7.41 13.34-8.55 7.85-1.63 14.17 1.09 19.14 7.24.44.55.83 1.14 1.29 1.77.19-.72.13-1.38.11-2.03-.01-.31-.01-.61 0-.92.07-1.42.85-2.26 2.16-2.65.37-.11.62-.26.83-.59.52-.78 1.34-1.09 2.24-1.17 2.5-.22 5-.41 7.5-.62l4.29-.36c1.74-.15 2.61.37 3.3 1.99.7 1.65 1.38 3.3 2.07 4.96.07.16.14.31.28.44v-2c0-.33 0-.66.1-.99.3-1 1.05-1.48 2-1.71.35-.08.58-.21.77-.53.45-.76 1.2-1.08 2.05-1.2 1.78-.24 3.55-.47 5.33-.71l8.91-1.17c.2-.03.41-.04.61-.04 1.18.02 1.93.54 2.31 1.66.11.33.24.43.59.4 2.09-.14 4.19-.25 6.28-.37 3.09-.18 6.18-.35 9.27-.53 4.47-.26 8.95-.41 13.41-.74.61-.04 1.22-.1 1.83.07 1.02.28 1.59.96 1.8 1.98.12.61.06 1.22.05 1.83-.07 2.84.02 5.68 0 8.53 0 .36-.02.72-.08 1.07-.12.72-.48 1.3-1.11 1.67-.29.17-.47.36-.54.68-.31 1.3-1.16 2.02-2.47 2.16-1.42.16-2.85.28-4.28.42-2.45.24-4.89.49-7.34.72-.32.03-.44.13-.43.46.02 2.25.01 4.51.02 6.76 0 .05.04.09.07.16.42.07.84-.04 1.27-.07 2.12-.12 4.24-.29 6.35-.5.3-.03.61-.03.92-.03 1.51.02 2.49.93 2.61 2.45.03.43-.01.87-.01 1.3.01 1.72.02 3.43.02 5.15 0 1.21-.25 2.31-1.43 2.93-.25.13-.29.35-.35.56-.39 1.34-1.33 2.03-2.65 2.22-1.9.28-3.8.54-5.7.79-1.21.16-1.21.14-1.21 1.33v2.92c0 .15-.03.31.12.47 1.53-.08 3.08-.17 4.64-.26l8.43-.48c.08 0 .15-.01.23-.02 1.93-.05 3 1.02 2.95 2.98-.02 1.1-.07 2.2-.06 3.3 0 1.3.07 2.61.08 3.91.01 1.17-.22 2.25-1.34 2.91-.17.1-.26.2-.29.41-.16 1.32-1.09 2.31-2.8 2.46-2.04.18-4.08.33-6.12.49l-8.8.72c-2.12.17-4.24.33-6.35.51-1.99.16-3.98.34-5.97.5h-1.91c-1.32-.26-2.02-1.09-2.26-2.39-.09-.52-.05-1.04-.16-1.72-.64 1.58-1.79 2.02-3.23 2.12-2.94.19-5.87.46-8.8.69-1 .08-1.99.16-2.99.21-1.24.06-2.18-.46-2.8-1.53-.18-.31-.31-.64-.44-.98-1.07-2.79-2.15-5.59-3.23-8.37-.09-.22-.1-.5-.41-.69v.71c0 1.51-.01 3.02 0 4.54.01 1.07-.34 1.96-1.29 2.53-.17.1-.24.23-.28.42-.42 1.59-1.18 2.24-2.83 2.46-2.54.34-5.07.69-7.61 1.02-1.6.21-3.2.41-4.8.58-2 .2-3.13-.92-3.24-2.63-.02-.26-.03-.51-.03-.77v-7.87c-.32.2-.4.45-.53.66-1.13 1.84-2.39 3.57-3.86 5.16-2.62 2.85-5.76 4.8-9.58 5.61-.65.14-1.32.14-1.95.37h-3.38c-.45.02-.87-.24-1.33-.14-.28-.05-.55-.11-.83-.16-3.36-.65-6.36-2.07-8.91-4.37-2-1.81-3.5-4-4.76-6.36-.48-.89-.9-1.81-1.37-2.75-.25.17-.33.42-.46.63-.87 1.45-1.71 2.91-2.6 4.35-1.92 3.09-4.56 5.37-7.91 6.79-3.99 1.69-8.16 2.12-12.42 1.51-3.99-.58-7.36-2.42-10.05-5.44-1.48-1.66-2.59-3.55-3.54-5.54-2.43-5.12-4.18-10.43-4.77-16.1-.03-.33-.06-.66-.13-.99-.05-.25-.18-.17-.29-.02v-.31c.08.1.19.22.25.03a.97.97 0 0 0-.03-.67c-.02-.76-.04-1.52-.04-2.28-.04-.75-.01-1.56 0-2.37zm120.65-27.18c-1.21.15-2.37.29-3.53.45l-9.89 1.32c-.95.12-.95.11-.94 1.06 0 .13.03.25.04.38l.51 6.35c.22 2.63.45 5.25.67 7.88l.69 8.26c.04.51 0 1.02-.14 1.52-.05.17-.03.37-.27.4-.23.03-.31-.13-.39-.29-.25-.53-.53-1.05-.76-1.59-1.38-3.27-2.76-6.55-4.13-9.83-1.93-4.6-3.85-9.2-5.78-13.8-.47-1.12-.68-1.24-1.85-1.13-.76.07-1.53.12-2.3.19-2.68.23-5.36.45-8.03.7-.86.08-.86.1-.86 1v52.04c0 .18.01.36 0 .54-.01.22.07.34.31.31.13-.02.26-.02.38-.04 3.65-.49 7.3-.99 10.96-1.47.62-.08.66-.02.65-.74v-22.91c0-.75.1-1.48.29-2.2.04-.14.07-.31.28-.31.19-.01.27.11.34.26.23.51.5 1.01.7 1.54 3.09 7.96 6.17 15.93 9.25 23.9.5 1.3.5 1.32 1.89 1.22 3.39-.25 6.79-.52 10.18-.79.57-.04.59-.06.61-.64l.21-9.14c.03-1.28.02-2.56.06-3.84.08-3.1.17-6.19.25-9.29.06-2.58.1-5.17.16-7.76l.3-12.44c.06-2.69.12-5.37.17-8.06-.02-1.01-.03-2-.03-3.05zm-77.19 26.1c.03 3.64.34 6.85.92 10.03.84 4.6 2.39 8.93 4.95 12.88 2.94 4.53 7.14 7.02 12.49 7.3 5.45.29 9.9-1.85 13.1-6.31 4.67-6.51 6.76-13.88 6.93-21.83.05-2.23-.19-4.45-.58-6.65-.71-4.06-1.93-7.95-3.98-11.55-1.28-2.23-2.73-4.34-4.67-6.06-2.67-2.37-5.82-3.68-9.36-4.03-3.86-.38-7.44.45-10.64 2.67-2.55 1.77-4.33 4.19-5.63 6.97-2.5 5.38-3.51 11.08-3.53 16.58zm-3.95-1.3c.01-.14.03-.23.02-.33-.15-2.55-.27-5.11-.69-7.64-.6-3.61-1.69-7.06-3.54-10.24-1.8-3.09-4.33-5.3-7.82-6.28-3.01-.84-5.98-.6-8.89.5-3.01 1.13-5.3 3.17-7.09 5.78-4.22 6.16-6.24 13.01-6.3 20.45-.02 3 .32 5.98.89 8.92.75 3.86 1.93 7.58 3.84 11.04.89 1.62 1.88 3.19 3.23 4.46 4.52 4.22 9.84 5.68 15.82 4.16 5.41-1.38 9.04-4.94 11.18-10.03 1.65-3.93 1.82-8.11 1.78-12.3 0-.22-.07-.33-.31-.32-.15.01-.31 0-.46 0H31.74c-.9 0-.77-.05-.77.79v5.3c0 .7-.02.67.67.67h2.08c.77 0 1.54-.02 2.31-.01.89.02 1.22.43 1.03 1.28-.17.77-.36 1.54-.56 2.31-.19.72-.43 1.42-.81 2.07-1.3 2.24-3.99 2.62-5.88.86-.98-.92-1.81-1.97-2.37-3.19-1.89-4.15-2.96-8.49-3.02-13.07-.04-2.86.37-5.67 1.04-8.44.54-2.21 1.37-4.29 2.75-6.12.36-.47.74-.92 1.22-1.27.92-.67 1.8-.62 2.65.14.56.5.95 1.13 1.3 1.8.82 1.58 1.27 3.29 1.73 4.99.34 1.24.46 2.52.61 3.78.05.37.18.5.53.46.13-.02.26-.01.38-.01 2.12-.11 4.24-.21 6.36-.32 1.44-.06 2.87-.12 4.31-.19zm109.26 1.56c-.19 0-.29-.01-.39 0-2.6.19-5.21.37-7.81.56-.69.05-1.38.13-2.07.15-.66.01-.9-.22-.98-.83-.03-.2-.03-.41-.02-.61.01-.97.04-1.95.05-2.92.01-2.05.01-4.1 0-6.15 0-1.02-.05-2.05-.04-3.07.01-.91.26-1.19 1.15-1.32.61-.08 1.22-.11 1.83-.17l7.26-.69c1.81-.18 3.62-.37 5.42-.54.39-.04.56-.14.56-.59-.02-3.1-.01-6.2-.01-9.3 0-.51-.01-.52-.5-.5-1.18.05-2.35.12-3.53.18-4.39.25-8.79.5-13.18.74-3.17.17-6.34.34-9.51.5-.89.05-1.79.11-2.68.15-.34.01-.45.14-.43.47.03.36.01.72.03 1.08.13 3.73.27 7.47.4 11.2.1 2.81.17 5.63.26 8.44.11 3.43.24 6.85.35 10.28.08 2.4.13 4.81.21 7.21.13 3.78.27 7.57.4 11.35.04 1.2.06 2.41.11 3.61.02.63.05.64.66.59.97-.08 1.94-.18 2.91-.25 2.88-.23 5.77-.44 8.65-.67 3.75-.3 7.5-.61 11.25-.91 1.35-.11 2.7-.21 4.06-.32.31-.03.57-.04.57-.51-.02-2.43-.02-4.87-.01-7.3 0-.38-.16-.5-.5-.47-.59.04-1.18.06-1.76.09-2.78.15-5.57.31-8.35.46-1.53.08-3.07.18-4.6.25-.8.04-.92-.12-.99-.9-.07-.79.01-1.58.01-2.38-.02-2.38-.04-4.76-.05-7.15 0-1.07.33-1.46 1.36-1.58 2.8-.31 5.59-.7 8.38-1.08.48-.07 1.1.01 1.4-.26.36-.32.12-.97.13-1.47.01-1.76 0-3.53 0-5.37zm-124.6 3.92c-1.06-.9-1.36-1.49-1.46-2.74-.06-.71-.09-1.43-.17-2.14-.19-1.76-.58-3.48-1.33-5.1-.07-.14-.06-.36-.33-.35a26.95 26.95 0 0 0-1.54 12.28c.22-.07.37-.13.51-.16.47-.07.82-.25 1.08-.71.34-.61.98-.87 1.66-1 .48-.08.96-.03 1.58-.08zm6.34 0c.16-.16.35-.17.52-.11.6.19 1.21.15 1.82.16h5.21c.17 0 .31-.04.31-.25 0-.23-.17-.2-.32-.19-1.02.05-2.04.12-3.05.15-1.35.04-2.69.07-4.01.39-.16.04-.33.06-.48-.15z" id="path2"/><path class="st1" d="M312.38 142.91c-.51 8.29-3.61 15.55-8.88 21.88-4.16 4.99-9.53 8.14-15.78 9.84-2.78.76-5.62 1.1-8.49 1.26-2.2.12-4.4.09-6.61.1-.2 0-.41 0-.61-.02-1.88-.19-2.85-1.24-2.87-3.13-.01-.74 0-1.49 0-2.23 0-.17.05-.35-.08-.59-.33.24-.6.54-.98.68-.17.06-.19.21-.2.37-.11 1.43-1.05 2.28-2.68 2.46-2.24.24-4.49.43-6.73.63-1.48.14-2.96.28-4.44.4-.56.05-1.12.09-1.69.08-1.34-.01-2.24-.67-2.58-1.98-.31-1.21-.53-2.45-.77-3.68-.42-2.16-.83-4.32-1.25-6.48-.1-.52-.11-.53-.65-.48-.79.08-1.57.21-2.36.28-.38.03-.53.19-.58.55-.16 1.04-.36 2.07-.53 3.1-.21 1.29-.39 2.58-.62 3.87-.15.86-.52 1.61-1.33 2.06-.22.12-.32.3-.39.54-.41 1.46-1.43 2.19-2.9 2.35-1.93.21-3.87.42-5.8.62-1.83.19-3.67.37-5.5.56-.64.07-1.28.09-1.91-.08-.85-.24-1.43-.77-1.7-1.62-.19-.59-.19-.58-.84-.45-4.24.86-8.47 1.73-12.71 2.59-1.9.38-3.23-.6-3.42-2.52-.03-.28-.02-.56-.02-.84v-19.07c0-.27.04-.54-.07-.86-.26.19-.34.43-.47.64-1.16 1.96-2.32 3.93-3.65 5.78-.07.1-.14.21-.22.31-1.28 1.74-3.48 1.7-4.69-.09-.53-.78-1-1.61-1.5-2.41-.07-.11-.1-.3-.3-.3-.13.1-.07.23-.07.35 0 2.36-.03 4.72.01 7.07.02 1.41.08 2.81-.01 4.22-.06.91-.44 1.62-1.22 2.1-.22.13-.31.29-.37.53-.31 1.35-1.21 2.09-2.53 2.37-3.06.64-6.11 1.26-9.17 1.89-1.38.28-2.76.56-4.13.85-.51.1-1.02.14-1.52.01-1.05-.26-1.73-1.15-1.83-2.39-.05-.66-.07-1.33-.08-1.99-.04-2.33-.07-4.66-.11-6.99-.06-3.71-.13-7.42-.2-11.14-.03-1.72-.07-3.43-.1-5.14l-.21-11.52c-.03-1.92-.07-3.84-.1-5.76-.07-3.71-.13-7.42-.21-11.14-.02-.87-.09-1.74.04-2.6.17-1.16.8-1.94 1.94-2.21.49-.12.78-.36 1.07-.75.52-.7 1.32-.95 2.15-1.03 1.86-.17 3.73-.3 5.59-.46 1.96-.18 3.93-.35 5.88-.58 2.1-.25 3.37.1 4.34 2.54 1.64 4.16 3.37 8.29 5.07 12.43.09.23.13.5.39.68.73-1.5 1.46-2.99 2.18-4.49.87-1.8 1.73-3.59 2.59-5.4.53-1.11 1.25-2 2.5-2.31.19-.05.3-.18.41-.32.59-.83 1.45-1.19 2.41-1.35 4.87-.81 9.74-1.62 14.62-2.42 1.07-.18 2.15-.08 3.22-.11.46-.01.39.3.39.57-.03 1.54-.07 3.07-.11 4.61-.04 1.71-.07 3.43-.1 5.14-.09 4.84-.17 9.68-.25 14.52-.04 2.25-.09 4.5-.13 6.76 0 .26 0 .51.11.78.22-1.27.44-2.54.65-3.81l1.47-8.86 1.77-10.68c.16-.93.3-1.87.47-2.8.26-1.37.95-2.37 2.41-2.64.22-.04.36-.15.48-.34.51-.89 1.37-1.19 2.32-1.29 4.32-.49 8.65-.95 12.96-1.52 1.82-.24 2.99.52 3.52 2.33 1.09 3.73 2.14 7.47 3.22 11.21 3.84 13.32 7.68 26.64 11.51 39.96.06.21.09.44.29.68V134.5c-.29.02-.59.02-.88.06-1.74.19-2.88-.99-3.08-2.42-.28-2-.57-4-.85-6.01-.35-2.51-.69-5.02-1.03-7.53-.07-.51-.05-1.02.11-1.52.32-.96 1.03-1.52 1.98-1.75.37-.09.63-.2.82-.57.31-.61.92-.87 1.55-1.02 1.24-.31 2.5-.52 3.76-.74 2.68-.46 5.37-.78 8.09-.87 6.06-.21 11.99.49 17.54 3.05 7.86 3.63 12.69 9.79 14.64 18.22.36 1.55.54 3.13.6 4.72.01.24-.07.52.15.72v3.38c-.11.2-.2.43-.13.69zm-110.54 12.67c.15-.23.26-.39.36-.56 2.7-4.59 5.4-9.18 8.11-13.76.13-.22.27-.44.39-.66.09-.17.19-.3.42-.26.2.04.21.19.24.34.13.57.25 1.15.26 1.74 0 3.61.02 7.23.02 10.84v17.15c0 .27-.07.55.07.81.07 0 .13.02.18.01 3.86-.79 7.71-1.63 11.59-2.32 1.08-.19 1.43-.63 1.51-1.72.01-.18 0-.36.01-.54.03-2 .07-3.99.1-5.99l.21-12.52c.03-1.77.07-3.53.1-5.3l.21-11.75c.03-1.56.01-3.13.06-4.69.13-3.74.14-7.48.19-11.21 0-.2.06-.41-.14-.61-.46.07-.94.15-1.42.23-4.24.69-8.49 1.39-12.73 2.05-1.01.16-1.66.63-2.09 1.56-1.25 2.69-2.55 5.36-3.84 8.03-1.36 2.84-2.73 5.67-4.1 8.5-.18.37-.37.8-.85.78-.46-.02-.56-.48-.7-.83-1.82-4.42-3.63-8.85-5.44-13.28-.71-1.73-1.41-3.46-2.11-5.19-.45-1.11-.73-1.27-1.93-1.15-.41.04-.81.11-1.22.14-3.22.22-6.43.57-9.64.87-.8.07-.8.09-.79.89l.15 8.83c.02 1.38.02 2.77.05 4.15.08 3.84.17 7.68.25 11.52.04 2.07.07 4.15.1 6.22.07 3.61.14 7.22.2 10.83.07 3.97.12 7.94.18 11.91 0 .19-.04.41.12.57.09 0 .17.01.24 0 2.98-.61 5.96-1.23 8.95-1.84.8-.16 1.61-.29 2.41-.45 1.05-.2 1.44-.67 1.47-1.73v-.46c-.02-3.31-.05-6.61-.05-9.92 0-4.25.03-8.51.05-12.76 0-.43.06-.87.1-1.3.02-.2.13-.33.33-.37.2-.04.26.12.35.25.41.62.83 1.23 1.22 1.86 2.01 3.27 4.01 6.55 6.02 9.82.27.42.54.82.83 1.27zm68.39-26.2c.5-.09.9-.16 1.31-.22.58-.09 1.16-.18 1.75-.24.72-.08.91.08.98.82.03.28.03.56.03.84v39.36c0 .2.01.41 0 .61-.03.37.12.49.49.46 1.2-.08 2.4-.14 3.6-.19 2.92-.12 5.83-.27 8.71-.8 4.29-.8 8.28-2.36 11.71-5.09 6.49-5.16 9.99-11.99 10.91-20.17.39-3.48.22-6.96-.45-10.4-.73-3.75-2.14-7.21-4.56-10.2-3.86-4.76-8.93-7.5-14.86-8.71-3.48-.71-7.01-.83-10.55-.71-3.46.12-6.88.54-10.27 1.28-.82.18-.68.24-.58.91.39 2.71.77 5.42 1.15 8.13.21 1.42.42 2.83.63 4.32zm-41.71 41.44c.43-.03.76-.03 1.08-.07 3.18-.35 6.36-.7 9.54-1.04.94-.1 1.26-.35 1.44-1.28.26-1.36.5-2.72.73-4.08.31-1.84.59-3.69.91-5.53.15-.88.47-1.18 1.35-1.33.5-.08 1.02-.1 1.53-.16 1.98-.23 3.97-.47 5.95-.68.93-.1 1.18.11 1.36 1.04.46 2.36.9 4.72 1.36 7.08.27 1.38.53 2.76.8 4.14.11.58.12.58.75.53l2.14-.18c2.65-.24 5.3-.47 7.95-.73.44-.04 1.08.15 1.29-.22.21-.38-.13-.92-.26-1.38-3.25-11.3-6.51-22.61-9.76-33.91-1.6-5.55-3.19-11.11-4.78-16.67-.38-1.31-.63-1.47-1.97-1.28-1.04.14-2.08.26-3.13.38-2.7.31-5.39.62-8.09.94-1 .12-1.23.35-1.4 1.32-.21 1.18-.41 2.37-.6 3.56-.84 5.07-1.67 10.15-2.52 15.22-.74 4.47-1.5 8.93-2.25 13.4-.81 4.85-1.62 9.69-2.41 14.54-.34 2.09-.66 4.19-1.01 6.39z" id="path3"/><path class="st1" d="M139.15 64.98c-.07-.13-.13-.24-.18-.35-.34-.77-.97-1.09-1.76-1.14a14.7 14.7 0 0 0-1.15 0c-.55.01-1.06-.13-1.58-.29-.21-.06-.28-.2-.26-.4.02-.19.14-.24.31-.27.83-.16 1.66-.29 2.51-.29.72 0 1.43-.11 2.12-.31 1.91-.57 2.98-1.99 2.96-3.99-.01-.71-.1-1.43-.19-2.14-.2-1.6 1.12-3.31 2.97-3.25 1.29.05 2.54.27 3.79.52.48.1.96.13 1.45.09.58-.05 1.1-.26 1.51-.67 1.44-1.44 2.41-3.74 1.08-6.25-.59-1.13-1.41-1.53-2.65-1.33-.43.07-.86.14-1.26.32-.72.31-1.23.81-1.49 1.56-.26.73-.42 1.48-.58 2.23-.06.28-.02.56.08.83.07.19.14.39.16.59.07.65-.38 1.04-1 .85-.29-.09-.56-.25-.81-.42-.57-.39-1.19-.61-1.87-.61-.98 0-1.63-.51-2.17-1.23-.28-.37-.18-.72.26-.92.39-.17.8-.21 1.2-.1.37.1.74.22 1.08.4.45.25.83.16 1.23-.08.59-.35 1-.86 1.26-1.5.49-1.23 1.4-2.03 2.57-2.62 2.68-1.34 4.91.54 5.4 2.54.42 1.69.23 3.3-.55 4.85-.3.6-.68 1.14-1.07 1.68-.5.69-1.16.97-1.99.89-.92-.09-1.84-.16-2.75-.27-.89-.11-1.79-.09-2.68-.09-1.1.01-1.71.58-1.8 1.67-.05.54.05 1.07.14 1.6.33 2.13-.29 3.92-2.03 5.22-.81.6-1.43 1.29-1.86 2.19-.1.16-.19.35-.4.49z" id="path4"/><path class="st1" d="M125 77.36c-.86-.04-1.65-.31-2.4-.72-.47-.25-.6-.54-.49-.92.11-.38.49-.62.97-.56.63.07 1.16.36 1.63.77.34.3.59.7 1.08.8.17.04.21.26.04.35-.27.13-.5.38-.83.28z" id="path5"/><path class="st1" d="M86.31 59.01c-.05 1.58-.5 3.04-1.5 4.32-.06.08-.12.16-.19.24-.16.2-.38.29-.61.16-.27-.15-.28-.42-.16-.67.13-.28.25-.56.32-.86.32-1.24.23-2.49.07-3.74-.08-.63-.18-1.27-.22-1.91-.05-.74.4-1.03 1.08-.73.4.18.63.51.79.9.3.73.39 1.48.42 2.29z" id="path6"/><path class="st1" d="M96.45 70.04c.08-.42.27-.65.67-.75 1.49-.37 2.99-.69 4.54-.63.86.03 1.66.23 2.46.54 1.1.43 1.79 1.24 2.26 2.28.16.36.02.99-.29 1.17-.19.11-.4.09-.5-.16-.02-.05-.02-.1-.03-.15-.31-1.65-.88-2.23-2.58-2.37-2.04-.17-4.09-.24-6.13.06-.11 0-.24 0-.4.01z" id="path7"/><path class="st1" d="M103.32 64.38c-1.5-.04-2.83.26-4.17.36-.46.03-.91.08-1.37.12-.33.03-.7.1-.81-.34-.06-.26.39-.7.74-.76.55-.1 1.11-.2 1.66-.25 1.43-.12 2.86-.1 4.25.3.12.04.24.07.36.12.19.07.47.1.41.36-.06.27-.33.14-.52.13-.23-.01-.45-.03-.55-.04z" id="path8"/><path class="st1" d="M144.18 92.37c.18-.01.36-.05.45.18.07.18-.03.29-.14.4-.28.27-.54.54-.84.79-.24.2-.53.08-.52-.22.04-.8.03-1.1 1.05-1.15z" id="path9"/><path class="st1" d="M79.01 146.31c-.05 2.98-.26 5.93-1 8.83-.64 2.52-1.66 4.84-3.44 6.77-.78.85-1.68 1.48-2.85 1.69-1.09.19-2.09-.02-3.03-.55-.98-.55-1.79-1.32-2.28-2.33-1.5-3.12-2.78-6.32-3.48-9.73-.81-3.96-.6-7.83.77-11.65.87-2.41 1.7-4.82 2.77-7.15.41-.89.89-1.73 1.54-2.46 2.03-2.27 5.64-2.07 7.41.4.42.59.73 1.23.99 1.9 1.49 4.01 2.38 8.15 2.55 12.43.01.31.04.61.05.92v.93zm-9.46-10.93c-.1.19-.15.28-.19.37-.86 2.05-1.64 4.13-2.21 6.28-.63 2.38-.87 4.79-.33 7.21.48 2.19 1.05 4.37 1.81 6.49.36 1.01.8 1.99 1.41 2.89.09.13.14.34.38.3 2.45-5.55 2.75-15.26-.87-23.54z" id="path10"/><path class="st1" d="M284.68 144.11v-13.76c0-.46 0-.92.12-1.37.28-1.1 1.01-1.74 2.14-1.73 3.16.03 5.83 1.17 7.71 3.75 2.26 3.12 3.65 6.62 4.06 10.47.69 6.55-1.53 12.06-5.97 16.78-.6.64-1.35 1.1-2.15 1.46-.84.38-1.69.74-2.55 1.06-1.76.64-3.28-.41-3.34-2.3-.02-.72 0-1.43 0-2.15-.02-4.06-.02-8.13-.02-12.21zm4.2 11.01c.37-.27.52-.57.7-.85 2.4-3.72 3.06-7.74 2.1-12.04-.43-1.94-1.1-3.78-2.24-5.42-.14-.21-.24-.49-.57-.55.01 6.28.01 12.51.01 18.86z" id="path11"/><path class="st1" d="M247.39 133.83c.08.13.16.2.19.29.78 2.24 1.71 4.43 2.18 6.77.47 2.38 1.05 4.74 1.58 7.11.04.17.09.35.11.52.25 1.9-.66 3.04-2.58 3.22-1.12.1-2.23.29-3.33.51-.43.08-.86.12-1.3.11-1.29-.03-2.14-.92-2.14-2.21 0-.36.09-.71.18-1.06.82-3.27 1.64-6.54 2.47-9.81.08-.32.15-.66.3-.95.76-1.48 1.55-2.97 2.34-4.5zm-1.65 10.25h-.12c-.4 1.78-.81 3.57-1.2 5.35-.04.2.07.28.26.26.85-.11 1.71-.21 2.62-.33-.53-1.79-1.05-3.53-1.56-5.28z" id="path12"/></g></g></svg>