<?xml version="1.0" encoding="UTF-8" standalone="no"?>
<!-- Generator: Adobe Illustrator 24.0.0, SVG Export Plug-In . SVG Version: 6.00 Build 0)  -->

<svg
   version="1.1"
   id="Capa_1"
   x="0px"
   y="0px"
   viewBox="0 0 44.88 43.45"
   style="enable-background:new 0 0 44.88 43.45;"
   xml:space="preserve"
   sodipodi:docname="decbfec7-f015-4b1b-aea1-79ff1676cff3.svgz"
   xmlns:inkscape="http://www.inkscape.org/namespaces/inkscape"
   xmlns:sodipodi="http://sodipodi.sourceforge.net/DTD/sodipodi-0.dtd"
   xmlns="http://www.w3.org/2000/svg"
   xmlns:svg="http://www.w3.org/2000/svg"><defs
   id="defs2" /><sodipodi:namedview
   id="namedview2"
   pagecolor="#ffffff"
   bordercolor="#000000"
   borderopacity="0.25"
   inkscape:showpageshadow="2"
   inkscape:pageopacity="0.0"
   inkscape:pagecheckerboard="0"
   inkscape:deskcolor="#d1d1d1" />
<style
   type="text/css"
   id="style1">
	.st0{opacity:0.46;}
	.st1{fill:#13B8AF;}
</style>
<g
   id="_x36_sCasR.tif_1_"
   class="st0">
	<g
   id="g2">
		<g
   id="g1">
			<path
   class="st1"
   d="M25.24,22.13c0-1.26-0.07-2.48,0.02-3.68c0.09-1.09,0.99-1.81,2.15-1.86c0.79-0.04,1.59-0.01,2.41-0.01     c0-1.34,0-2.65,0-4.01c-0.5-0.06-1.02-0.14-1.54-0.19c-1.26-0.12-2.52-0.22-3.77,0.07c-2.4,0.55-4.02,2.29-4.26,4.76     c-0.14,1.45-0.08,2.92-0.11,4.39c0,0.16,0,0.32,0,0.52c-0.71,0-1.37,0-2.04,0c-0.67,0-1.34,0-2.04,0c0,1.56,0,3.1,0,4.67     c1.35,0,2.69,0,4.05,0c0,3.76,0,7.49,0,11.22C14.66,37.46,7.55,32.48,6.6,23.92C5.58,14.64,12.47,6.68,21.5,6     c8.89-0.67,16.78,6.2,17.28,15.08c0.53,9.32-6.46,16.01-13.58,16.97c0-3.73,0-7.46,0-11.23c1.23,0,2.46,0,3.73,0     c0.24-1.57,0.48-3.11,0.72-4.69C28.16,22.13,26.7,22.13,25.24,22.13z"
   id="path1" />
		</g>
	</g>
</g>
</svg>
