<svg version="1.1" id="Capa_1" x="0" y="0" style="enable-background:new 0 0 324.57 183.4" xml:space="preserve" xmlns="http://www.w3.org/2000/svg" viewBox="51.15 32.45 218.49 113.2"><g id="g15" style="opacity:.78"><g id="g14"><g id="g1"><path class="st1" d="M261.58 145.65h-13.32c-3.63 0-6.84-2.49-7.78-5.98H80.29c-.94 3.48-4.15 5.98-7.78 5.98H59.2c-4.44 0-8.05-3.61-8.05-8.05v-8.7c0-4.44 3.61-8.05 8.05-8.05h6.89c.94-3.48 4.15-5.98 7.78-5.98v.91c-3.32 0-6.26 2.36-6.97 5.62l-.08.36H59.2c-3.94 0-7.14 3.2-7.14 7.14v8.7c0 3.94 3.2 7.14 7.14 7.14h13.32c3.32 0 6.26-2.36 6.97-5.62l.08-.36h161.64l.08.36c.72 3.26 3.65 5.62 6.97 5.62h13.32c3.94 0 7.14-3.2 7.14-7.14v-8.7c0-3.94-3.2-7.14-7.14-7.14h-7.92l-.08-.36c-.72-3.26-3.65-5.62-6.97-5.62v-.91c3.63 0 6.84 2.49 7.78 5.98h7.2c4.44 0 8.05 3.61 8.05 8.05v8.7c-.01 4.43-3.62 8.05-8.06 8.05z" id="path1"/></g><g id="g13"><path class="st1" d="M209.72 41.99c.63-.72 1.24-1.45 1.95-2.09 2.35-2.12 4.93-3.89 7.94-4.97 1.26-.45 2.56-.69 3.89-.82.22-.02.44-.05.66-.07.3.06.59-.06.89-.06l1.83.03c.14.14.31.08.47.08 1.38.2 2.72.52 3.98 1.11 2.32 1.09 4.15 2.74 5.54 4.88 1.67 2.55 2.68 5.36 3.25 8.34.27 1.45.37 2.91.41 4.38.01.25 0 .5-.05.74-.07.38-.26.67-.59.86-.17.1-.26.2-.3.4-.1.57-.44.94-1 1.1-.68.19-1.39.26-2.08.37-2.53.42-5.05.82-7.58 1.23-.01 0-.02.02-.05.05.05.13.18.21.29.31 1.91 1.69 3.83 3.37 5.74 5.05 1.09.96 2.16 1.95 3.19 2.98 1.16 1.17 2.06 2.53 2.88 3.95.69 1.18 1.21 2.43 1.47 3.77.4 2.04.23 4.05-.54 5.96-1.4 3.47-3.48 6.45-6.53 8.69-1.57 1.15-3.34 1.89-5.18 2.5-2.51.83-5.08 1.24-7.73 1.06-2.41-.17-4.69-.82-6.81-1.98-3.57-1.95-6.37-4.67-8.27-8.29-1.11-2.13-1.78-4.41-2.08-6.79-.09-.72-.13-1.43-.18-2.15-.02-.25 0-.5.05-.74.14-.66.52-1.09 1.16-1.28.19-.06.34-.13.46-.31.27-.41.7-.59 1.17-.63 1.02-.09 2.02-.33 3.03-.5 2.55-.44 5.1-.89 7.65-1.34.09-.02.2 0 .27-.1-.05-.14-.19-.2-.29-.28-1.52-1.27-3.1-2.47-4.64-3.72-1.43-1.16-2.79-2.4-3.93-3.88-1.58-2.05-2.69-4.32-3.16-6.87-.02-.09-.05-.19-.08-.31-.09.11-.11.23-.14.34-1.16 4.36-2.32 8.72-3.49 13.08-1.4 5.23-2.79 10.45-4.19 15.68-.49 1.83-.98 3.66-1.46 5.5-.13.51-.29.99-.79 1.26-.08.04-.11.12-.14.2-.13.28-.33.51-.54.74-.28.32-.64.52-1.07.58-1.4.2-2.79.42-4.19.63-1.82.27-3.64.53-5.47.79-.38.05-.76.13-1.16.12-.72-.02-1.16-.34-1.37-1.05-.15-.49-.19-1.01-.27-1.51-.37-2.32-.72-4.65-1.08-6.98-.02-.11-.05-.21-.09-.38-.22.55-.33 1.08-.48 1.59-.46 1.58-.9 3.17-1.35 4.75-.09.33-.24.62-.48.86s-.41.51-.52.84c-.26.76-.81 1.13-1.6 1.17-2.5.11-5.01.2-7.51.3-1.11.05-2.21.09-3.32.15-.93.05-1.59-.38-1.82-1.29-.18-.72-.31-1.46-.46-2.19-.75-3.77-1.51-7.55-2.26-11.32-.07-.34-.14-.68-.2-1.02-.02-.08-.02-.17-.11-.22-.51.42-1.03.85-1.59 1.21-.18.12-.22.24-.14.44.45 1.03.17 1.88-.62 2.62-.43.4-.84.81-1.34 1.11-.36.21-.58.5-.64.92-.31 2.04-1.76 2.92-3.53 3.48-.2.06-.4.11-.61.14-.54.07-.86.43-.99.89-.19.66-.63 1.09-1.13 1.49-.74.59-1.56.98-2.5 1.16-.56.11-1.1.26-1.68.21-.26-.02-.53-.04-.77-.14-.29-.13-.53-.07-.79.05-1 .46-2.02.9-3.02 1.37-1.11.52-2.3.79-3.55.5-.53-.12-1.02-.36-1.45-.69-.29-.22-.56-.46-.87-.64-.47-.27-.94-.36-1.46-.12-.4.19-.82.33-1.15.64-.13.12-.3.21-.46.27-.88.3-1.77.56-2.71.48a2 2 0 0 1-1.26-.58c-.21-.2-.45-.31-.72-.38-.4-.1-.8-.21-1.21-.31-.51-.13-1.02-.23-1.56-.22-.9.02-1.75-.23-2.59-.51-.91-.3-1.78-.68-2.66-1.07-1.11-.49-1.87-1.3-2.23-2.48-.14-.46-.44-.73-.96-.77-.78-.07-1.45-.43-2.08-.88-.2-.14-.4-.3-.62-.46l-.57.87c-1.15 1.69-2.52 3.16-4.3 4.21-1.56.92-3.25 1.46-5.01 1.81-1.32.26-2.66.36-4.01.31-4.39-.16-8.17-1.74-11.24-4.9-1.46-1.5-2.56-3.27-3.53-5.11-1.57-2.95-2.61-6.1-3.35-9.35-.4-1.78-.7-3.59-.89-5.41-.13-1.23-.2-2.46-.21-3.69-.01-1.71.06-3.41.26-5.1.32-2.67.9-5.29 1.75-7.85.79-2.35 1.72-4.65 2.98-6.79 2.02-3.44 4.81-6.1 8.33-7.97 1.57-.83 3.27-1.28 5.03-1.48 2.24-.25 4.42-.05 6.56.67 2.75.93 4.9 2.63 6.58 4.98 1.2 1.68 2.1 3.51 2.81 5.45.02.06.03.13.05.2.49-.27.68-.69.6-1.23-.18-1.1.17-1.99 1.11-2.62.66-.44 1.27-.92 1.79-1.53.48-.56 1.09-.96 1.77-1.25.53-.22 1.1-.33 1.65-.46.41-.1.83-.17 1.25-.25.44-.08.84-.28 1.17-.58.54-.49 1.15-.82 1.9-.85.13-.01.25-.1.38-.13.52-.14 1.03-.1 1.52.1.27.11.51.1.76-.06.15-.1.3-.2.44-.31.2-.15.37-.35.66-.28.11.02.17-.07.25-.13.61-.53 1.33-.7 2.09-.55.58.12 1.17.28 1.6.75.13.14.26.26.44.34.11.05.23.13.28.24.1.18.26.25.42.31.18.07.36.14.52.24.2.12.35.09.53-.04.38-.3.78-.58 1.17-.86.1-.07.19-.19.33-.16.35.08.62-.1.89-.25.71-.39 1.46-.56 2.26-.47.56.07 1.12.17 1.54.64.17.19.39.36.56.55.17.19.35.23.57.23.47.01.95.03 1.39.19.37.13.79.06 1.11.32.23-.08.44.06.66.09 1.07.1 2.02.5 2.86 1.21.29.25.51.59.87.76.06.03.13.09.19.08.45-.03.83.25 1.27.3.2.02.36.15.52.24.35.21.66.48.94.78.07.07.12.22.26.14.1-.06.03-.17.02-.27-.05-.27-.1-.54-.14-.82-.11-.75.2-1.28.9-1.54.31-.12.59-.21.79-.53.21-.35.63-.45 1.02-.49 1.48-.18 2.97-.35 4.46-.53 1.53-.18 3.05-.36 4.58-.55 1.65-.2 3.3-.41 4.95-.6.84-.1 1.46.39 1.62 1.26.14.76.26 1.53.39 2.29l1.17 6.96c.39 2.32.79 4.64 1.18 6.96l1.26 7.45c.07.4.13.79.2 1.21.16-.09.17-.25.23-.38 1.35-3.26 2.69-6.52 4.03-9.79.25-.61.5-1.23.76-1.84.07-.17.15-.33.24-.48.22-.4.55-.66 1.01-.71.21-.02.31-.11.4-.29.28-.57.58-1.13.87-1.71.13.03.14.14.18.21.3.56.6 1.12.91 1.68.33.61.49 1.29.7 1.95.86 2.64 1.71 5.29 2.57 7.94.02.07.02.16.11.23.16-.32.19-.66.27-1 .92-3.94 1.83-7.87 2.74-11.81l1.38-5.99c.06-.26.14-.51.26-.74.23-.44.58-.74 1.06-.87.17-.04.29-.11.39-.26.25-.36.62-.54 1.06-.58.83-.07 1.66-.14 2.48-.2l5.14-.39c1.27-.1 2.54-.2 3.81-.29l2.28-.18c.23-.02.47-.03.71-.01.76.05 1.2.6 1.11 1.35-.07.64-.29 1.24-.45 1.85-.35 1.35-.71 2.7-1.06 4.05-.04.04-.06.12-.02.14 0 .08 0 0 .02-.04zm-52.95-4.89c.02.12.02.19.03.25.35 1.75.71 3.5 1.05 5.25.19.98.43 1.95.54 2.95.03.25.17.48.17.73.01.56.27.98.64 1.35.23.23.48.44.71.67.32.32.57.72.75 1.15.26.62.44 1.24.34 1.92-.05.3-.02.61 0 .91.02.22-.04.47.04.65.17.39.31.8.61 1.12.08.09.18.2.19.31.04.64.31 1.24.38 1.88.05.47.14.95.34 1.37.25.54.32 1.1.4 1.66.14.92-.04 1.82-.43 2.67-.3.65-.26 1 .21 1.43.48.44.76 1.02 1.01 1.59.17.39.25.84.35 1.26.09.39.07.8.04 1.2-.02.4-.17.77-.27 1.14-.07.27-.27.5-.42.74-.15.24-.16.45-.12.7.21 1.05.42 2.09.63 3.13.79 3.92 1.57 7.84 2.35 11.76.23 1.13.46 2.25.67 3.38.03.18.1.24.27.22.14-.01.28 0 .42-.01 1.38-.06 2.77-.12 4.15-.17 1.95-.08 3.9-.15 5.85-.23.42-.02.43-.01.55-.43.51-1.8 1.01-3.6 1.52-5.39.84-2.97 1.67-5.94 2.51-8.91.09-.31.22-.59.48-.8.24.24.34.51.39.82l1.14 7.3 1.17 7.55c.08.53.11.55.66.49h.04c.73-.11 1.45-.22 2.18-.32l4.93-.72c.7-.1 1.4-.19 2.1-.29.5-.07.83-.35.99-.84l.09-.32c.7-2.62 1.39-5.24 2.08-7.86l2.79-10.47c1.67-6.26 3.33-12.51 5-18.77l3.39-12.67c.03-.11.1-.23.02-.36-.23 0-.45-.02-.67-.01-2.11.16-4.23.32-6.34.49l-6.3.48c-.63.05-.72.13-.86.74-.64 2.78-1.28 5.55-1.93 8.33-.73 3.15-1.46 6.31-2.2 9.46-.54 2.33-1.09 4.66-1.63 6.99-.08.33-.21.62-.45.86a1.9 1.9 0 0 1-.51-.86c-1-3.11-2.01-6.21-3.01-9.32-.52-1.62-1.05-3.24-1.58-4.85-.04-.12-.04-.27-.19-.36-.04.09-.09.18-.12.26-2.09 5.05-4.17 10.1-6.26 15.15l-1.08 2.61c-.04.1-.07.21-.22.19-.14-.02-.24-.05-.25-.22-.01-.11-.04-.22-.06-.33-.14-.82-.29-1.63-.43-2.45-.47-2.73-.93-5.46-1.39-8.18l-1.41-8.35c-.44-2.62-.89-5.24-1.33-7.86-.18-1.06-.36-2.13-.55-3.19-.05-.29-.07-.3-.35-.26l-.95.12c-1.73.21-3.47.41-5.2.62l-5.28.63c-.78.13-1.56.22-2.38.32zm63.99 31.75-1.54.27c-2.21.39-4.42.78-6.62 1.17-1.47.26-2.94.52-4.42.77-.21.04-.28.11-.25.33.05.36.07.72.09 1.08.15 2.42.73 4.73 1.81 6.9 1.82 3.63 4.55 6.35 8.24 8.07 2.87 1.34 5.9 1.73 9.04 1.5 3.18-.23 6.05-1.31 8.56-3.27 1.77-1.39 3.3-3 4.32-5.04 1.37-2.75 1.62-5.6.55-8.49-.85-2.3-2.28-4.24-4.03-5.94-1.47-1.43-3.06-2.73-4.61-4.07-2.78-2.4-5.52-4.84-8.06-7.5-.53-.55-1.05-1.11-1.48-1.74-1.7-2.45-1.55-5.06 0-7.51.26-.41.62-.71 1.09-.85.83-.25 1.68.02 2.24.71.45.56.77 1.2.93 1.89.26 1.12.48 2.25.59 3.39.12 1.24.17 2.49.2 3.73.01.3.04.6.06.91.09 0 .16 0 .23-.01.79-.13 1.59-.25 2.38-.38l8.61-1.41c.44-.07.44-.07.46-.51v-.17c-.02-1.81-.22-3.59-.66-5.35-.64-2.56-1.65-4.97-3.21-7.11-2.04-2.78-4.79-4.41-8.23-4.77-2.41-.25-4.78.06-7.09.83-2.99 1-5.41 2.81-7.39 5.24-.89 1.09-1.7 2.22-2.24 3.53-.98 2.35-1.03 4.77-.48 7.21.63 2.79 2.13 5.08 4.14 7.07 1.2 1.19 2.54 2.23 3.86 3.29 2.4 1.92 4.78 3.87 7.05 5.96.76.7 1.5 1.44 2.12 2.28.9 1.24 1.38 2.62 1.27 4.16-.08 1.19-.43 2.31-.89 3.4-.41.99-1.1 1.62-2.22 1.67-.03 0-.05.01-.08.01-1.38.14-2.61-.18-3.65-1.14-.49-.45-.78-.99-.77-1.68.01-.94-.04-1.88-.02-2.82.04-1.75-.02-3.49.14-5.24 0-.1.03-.22-.04-.37zM111.53 58.48c1.5.02 3.11.05 4.72.08.56.01.52.11.48-.5-.12-1.7-.25-3.4-.47-5.09-.29-2.25-.68-4.49-1.32-6.67-.63-2.17-1.43-4.28-2.61-6.22-1.05-1.73-2.37-3.21-4.09-4.3-2.55-1.63-5.35-2.2-8.34-1.87-2.84.31-5.34 1.41-7.47 3.31-1.45 1.29-2.63 2.81-3.6 4.49-2.32 4.03-3.71 8.39-4.38 12.98-.29 1.95-.4 3.91-.38 5.88.02 2.21.21 4.4.57 6.57a37.54 37.54 0 0 0 3.85 11.52c.96 1.81 2.11 3.48 3.61 4.89 2.11 1.98 4.58 3.24 7.44 3.67 2.21.33 4.42.24 6.61-.22 2.7-.57 4.92-1.93 6.6-4.15 1.11-1.46 1.89-3.08 2.43-4.84.62-2.04.89-4.14 1.08-6.25.03-.28.02-.28-.28-.31-1.47-.17-2.94-.33-4.42-.5l-4.62-.54c-.4-.05-.8-.09-1.2-.13-.29-.03-.29-.02-.33.27-.01.04-.01.08-.01.12-.13 1.1-.33 2.19-.67 3.25-.3.92-.64 1.83-1.24 2.62-.8 1.06-1.87 1.34-3.09.81-.81-.35-1.46-.9-1.98-1.6-.82-1.11-1.32-2.37-1.7-3.68-.88-3.04-1.25-6.15-1.12-9.32.06-1.5.23-2.98.45-4.46.35-2.3.9-4.56 1.51-6.8.36-1.33 1.12-2.4 2.3-3.14.47-.29.99-.44 1.54-.38.74.07 1.29.46 1.71 1.06.32.47.56.98.78 1.51.49 1.18.74 2.43 1.02 3.67.25 1.15.47 2.3.71 3.46.13.62.32.82.86.8 1.65-.06 3.3.01 5.05.01zm39.05 3.51c-.3.01-.54-.08-.77-.22-.64-.4-1.34-.67-2.11-.69-1.04-.02-1.98.26-2.7 1.05-.63.69-.84 1.49-.47 2.38.14.34.37.61.65.85.63.55 1.35.96 2.08 1.37.32.18.62.37.88.63.69.66.88 1.45.57 2.35-.12.34-.3.65-.5.95-.09.13-.17.25-.24.39-.07.12-.1.26-.07.4.12.57.86 1.05 1.43.92a9.67 9.67 0 0 0 1.5-.47c.88-.36 1.55-.95 2.02-1.78.16-.28.2-.57.11-.88-.05-.17-.1-.34-.2-.5-.16-.24-.19-.52-.21-.79-.02-.27.16-.48.43-.53.15-.03.31-.03.45.04.4.22.77.12 1.13-.1.16-.1.34-.19.51-.27.65-.29 1.02-.82 1.31-1.44.06-.14.11-.28.19-.41.17-.28.43-.38.66-.27.23.11.31.36.2.69-.06.17-.14.33-.26.47-.11.13-.21.26-.32.39-.37.45-.66.96-.87 1.5-.08.2-.09.41-.05.61.07.33.23.62.47.87.29.3.67.53 1.05.62.8.19 1.63.28 2.45.39 1.05.15 1.83-.36 2.26-1.35.3-.71.45-1.44.51-2.2.08-1-.08-1.94-.63-2.81-.23-.36-.53-.61-.92-.72-.95-.25-1.79.12-1.82 1.25-.01.38.05.76.13 1.1.12.49.26 1 .53 1.45.09.16.13.39.01.51-.24.24-.47.51-.84.56-.22.03-.32-.03-.35-.24-.02-.19 0-.39.04-.58.07-.4.1-.79.09-1.2-.02-.72-.04-1.44.02-2.16.01-.16.02-.33-.01-.5-.05-.33-.22-.61-.54-.74-.27-.11-.55-.17-.85-.15-.39.03-.5.13-.53.53-.02.24.04.49-.04.81-.28-.44-.54-.83-.66-1.28-.08-.31.02-.49.33-.61.33-.13.67-.22 1.02-.3.18-.04.28.02.4.12.14.12.25.26.43.36.42.24.88.28 1.34.29 1.17.03 1.81-.39 2.09-1.65.17-.78.1-1.57-.04-2.36-.22-1.27-.59-2.49-1.02-3.7-.51-1.44-1.56-2.36-2.98-2.87-.32-.12-.61-.16-.84.18-.08.12-.24.18-.34.29-.19.2-.41.16-.61.09-.19-.06-.24-.25-.26-.44-.03-.3.07-.58.15-.85.23-.85.03-1.56-.65-2.11-.52-.43-.94-.95-1.29-1.51-.29-.47-.7-.71-1.19-.88-.42-.14-.85-.08-1.27-.12-1.07-.09-1.83-.83-1.86-1.82-.02-.47.17-.88.36-1.3.29-.63.1-1.07-.55-1.31-.95-.36-2.17.2-2.33 1.37-.01.1-.04.19-.05.29-.23 1.55.11 2.95 1.15 4.15.33.38.75.66 1.2.9.19.11.36.3.56.33.5.08 1.02.18 1.52.02.73-.23 1.37-.14 1.96.36.42.36.71.78.79 1.34.07.51.1.99-.08 1.5-.14.41-.27.83-.46 1.23-.17.35-.45.57-.81.7-.31.11-.48-.04-.46-.36.01-.24.17-.4.31-.57.3-.36.58-.73.78-1.16.1-.21.17-.43.15-.67-.07-1-.69-1.43-1.6-1.47-.56-.03-1.08.15-1.31.76-.06.17-.16.32-.24.48-.07.14-.15.27-.27.36a.55.55 0 0 1-.59.07c-.19-.09-.21-.27-.21-.46 0-.27.11-.51.23-.74.09-.18.16-.35.02-.53-.46-.65-1.04-1.14-1.83-1.35-.51-.14-1.03-.21-1.55-.29-.85-.12-1.72-.08-2.57-.2-.57-.08-1.14-.17-1.66-.46-.28-.16-.55-.34-.7-.63-.13-.25-.12-.51.06-.74.17-.21.41-.25.72-.13.3.12.57.29.8.51.11.11.24.2.37.24.28.09.53.23.77.39a.4.4 0 0 0 .18.07c.7.09 1.4.19 2.1.26.66.07.66-.13.54-.66-.11-.48-.49-.71-.91-.88-.55-.23-1.13-.34-1.71-.45-1.4-.26-2.81-.45-4.15-.97-.26-.1-.53-.16-.75-.34-.24-.2-.22-.57.04-.65.23-.07.49-.12.71.04.3.21.63.4.87.67.31.33.67.35 1.05.3 1.15-.16 1.4-1.19 1.13-1.9-.15-.4-.38-.74-.69-1.02-1.04-.96-2.28-1.31-3.66-1.18-.5.05-.95.24-1.23.7-.17.27-.23.56-.24.88-.03.96-.06 1.92-.02 2.88.03.51.12 1.02.11 1.53-.01.51.16.96.4 1.38.2.35.49.67.9.74.35.06.71.13 1.07.1.65-.04 1.3-.06 1.95.04.2.03.36.15.54.17.26.03.49.1.74.16.61.14 1.18.42 1.78.59.21.06.42.18.61.33.15.12.22.26.16.43-.06.17-.19.3-.4.3-.1 0-.19-.02-.29-.04-.38-.08-.69-.3-1.02-.48-.42-.22-.79-.56-1.3-.59-1-.06-1.99-.14-2.99-.18-.48-.02-.96.01-1.43.18-.72.26-1.1.7-1.13 1.44-.06 1.29-.07 2.58-.07 3.87 0 .5.03 1-.01 1.49-.01.18 0 .35.09.46.27.35.51.71.99.87.41.13.81.25 1.24.31.95.13 1.89.29 2.84-.02.3-.09.62-.14.94-.12.2.01.43.15.46.28.03.15-.2.42-.4.46-.09.02-.19.02-.29.02-.55.01-1.11.04-1.66.03-.97-.02-1.92.02-2.84.4-.48.2-.89.48-1.23.89-.38.46-.34.97-.3 1.5.01.11.1.2.19.29.3.34.7.56 1.02.87.19.18.46.29.72.35.52.13.99-.11 1.44-.29.26-.1.46-.11.69.01.29.16.32.39.07.61-.24.22-.53.32-.84.36-.41.05-.83.09-1.24.16-.61.11-1.25.15-1.72.63-.26.28-.59.52-.57.97 0 .1-.02.19-.04.29-.16.9.08 1.74.44 2.54.31.68.95.97 1.69.84.4-.07.78-.18 1.14-.38.5-.28 1.02-.5 1.57-.65.51-.14 1.03-.21 1.56-.11.99.19 1.38 1.02 1.15 1.94-.05.21-.18.37-.35.5-.18.14-.4.18-.59.11-.2-.07-.1-.29-.09-.44.01-.37-.01-.72-.17-1.05-.15-.31-.37-.49-.75-.49-.4 0-.77.04-1.13.21-.29.13-.59.25-.89.34-.6.18-1.08.56-1.53.96-.16.14-.28.31-.37.5-.43.87-.26 1.7.17 2.5.21.39.53.68.93.86 1.17.5 2.38.73 3.65.58.6-.07 1.16-.26 1.73-.44.11-.04.25-.14.34 0 .1.14-.03.26-.11.37-.09.12-.21.22-.34.3-.25.16-.52.26-.8.33-.69.19-1.4.14-2.11.14-.84-.01-1.62-.2-2.32-.66-.31-.2-.64-.33-.99-.43-.25-.07-.49-.08-.74 0-.71.22-1.07 1-.77 1.76.36.87 1.01 1.41 1.96 1.52 2.06.23 4.09.11 6.1-.42.21-.05.41-.04.62-.07.07-.01.13.01.17.08.06.1-.02.15-.08.21-.14.15-.3.24-.5.29l-1.04.3c-.77.23-1.55.39-2.36.45-.93.06-1.85.08-2.78.09-.64.01-1.08.27-1.32.87-.4.99-.82 1.97-1.25 2.94-.37.84-.19 1.57.41 2.22.76.82 1.71 1.26 2.83 1.29 1.24.03 2.42-.25 3.56-.72.31-.13.58-.32.85-.52.39-.29.6-.67.64-1.16.02-.22.05-.44.07-.66a.68.68 0 0 1 .16-.38c.18-.21.47-.16.56.1.03.07.03.16.02.24 0 .07-.03.13-.05.2-.19.74-.06.89.72.83.1-.01.2-.03.29-.01 1.02.14 1.93-.25 2.83-.64.4-.17.59-.5.62-.92.03-.53-.12-1.01-.49-1.41a.84.84 0 0 0-.54-.28c-.98-.1-1.94-.04-2.85.37-.44.2-.88.41-1.34.55-.97.3-1.95.55-2.95.66-.29.03-.49.13-.56.44-.03.13-.1.26-.18.37-.12.18-.27.18-.4.01-.11-.14-.13-.3-.13-.47 0-.13.1-.32-.08-.36-.14-.03-.2.16-.26.28-.06.11-.1.23-.16.34-.05.1-.11.19-.19.27-.13.13-.28.17-.45.06-.17-.12-.17-.28-.08-.44.09-.17.2-.33.3-.5.27-.47.45-.98.6-1.5.04-.13.09-.27.25-.3.17-.03.29.05.37.2.02.04.03.11.1.1.37-.38.57-.35.78.12.14.32.5.51.9.43 1.19-.24 2.38-.52 3.55-.87.23-.07.5-.14.57-.43.07-.3-.16-.45-.35-.6a.628.628 0 0 1-.12-.11c-.13-.13-.25-.26-.31-.44-.06-.19-.03-.36.13-.49.15-.12.31-.1.46 0 .1.07.2.15.29.24.32.31.62.63.94.94.13.12.27.25.45.28.49.08.99.14 1.49.11.67-.04 1.08-.55 1.01-1.21-.04-.43-.22-.8-.49-1.12-.64-.74-1.46-.95-2.4-.84-.15.02-.3.03-.45.06-.19.03-.3-.07-.34-.22-.04-.15.12-.16.21-.21.43-.22.78-.52 1-.97.29-.6.38-1.23.27-1.9-.13-.76-.56-1.2-1.3-1.39-.55-.14-1.1-.08-1.66-.11-.12-.01-.25 0-.37-.01-.06 0-.1-.05-.11-.1-.01-.06.02-.1.08-.13l.42-.18c.59-.25 1.18-.51 1.65-.95.65-.61.99-1.34.76-2.24-.16-.61-.6-1.02-1.11-1.35-1.54-1.02-3.22-1.27-5.01-.87-.39.09-.79.13-1.18.17 0-.08.04-.11.09-.14.36-.2.75-.36 1.13-.53.37-.16.75-.3 1.08-.53 1.09-.72 1.37-1.85.65-2.9-.09-.12-.15-.27-.22-.4-.1-.17-.05-.23.14-.28.69-.17 1.37-.35 2.05-.54.36-.1.71-.25 1-.48 1.08-.85 1.07-2.48-.04-3.19-.49-.31-1.02-.57-1.59-.71-.41-.1-.8-.22-1.19-.35-.22-.07-.45-.15-.68-.19-.2-.04-.41-.11-.61-.04s-.17.3-.25.45c-.08.15-.19.24-.37.22-.18-.02-.27-.14-.3-.3-.02-.09-.01-.19-.01-.29.01-.13.04-.29-.1-.33-.16-.04-.16.15-.21.25-.1.22-.23.41-.48.48-.29.08-.47-.06-.44-.36.02-.21.11-.4.24-.57.06-.08.18-.14.12-.29-.15.01-.21.17-.34.2-.14.04-.28.07-.4-.02-.12-.09-.15-.23-.1-.37.08-.26.06-.52 0-.78-.04-.16-.06-.33-.07-.49-.02-.53.08-1.05.52-1.38.55-.4 1.15-.71 1.86-.75.7-.03 1.38.09 2.06.24.93.2 1.86.28 2.79-.03l.12-.03c.44-.06.73.16.78.6.04.35-.05.69-.23 1-.2.32-.61.32-.83.01a.699.699 0 0 1-.12-.35c0-.12-.04-.24-.21-.25-.03.35-.09.67-.27.96-.2.33-.5.34-.73.04a.567.567 0 0 1-.14-.34c.01-.48-.28-.57-.68-.61-1.02-.1-2.04-.17-3.06 0-.38.06-.68.24-.8.63-.11.38.05.68.32.93.45.42.96.76 1.55.94 1.28.4 2.58.74 3.91.96.86.14 1.68.04 2.38-.57.21-.18.3-.43.46-.64.31-.42.71-.51 1.16-.27.21.11.39.27.51.48.28.46.5.95.88 1.36.16.17.13.41-.01.53-.13.12-.36.12-.52-.06-.21-.23-.45-.24-.72-.21-.63.09-1.25.26-1.85.47-.13.05-.25.11-.35.22-.34.38-.5.82-.44 1.34.09.7.5 1.19 1.07 1.55.28.18.57.34.87.48.38.21.55.47.5.89zm-16.9-10.54c-.01-.12-.1-.15-.15-.21-.18-.22-.2-.45-.06-.6.15-.15.33-.13.58.06.16.12.32.17.53.13.6-.1.99-.53 1.29-.96.3-.43.46-.98.44-1.56-.02-.8-.07-1.61-.17-2.4-.07-.57-.16-1.14-.42-1.68-.36-.74-1.42-1.23-2.25-1.01-.26.07-.5.21-.7.4-.19.17-.1.38-.13.58-.07.5.25.84.6 1.03.26.14.28.27.22.47-.14.52-.28 1.03-.62 1.47-.17.22-.26.5-.51.64-.34.18-.64.44-.98.63-.77.44-1.11 1.46-.84 2.22.14.4.32.79.46 1.2.2.58.5 1.09.87 1.56.74.95 1.38 1.95 1.71 3.12.05.18.04.39.13.55.25.48.08.93-.06 1.38-.04.12-.15.25-.31.24-.16-.01-.23-.14-.27-.28-.03-.09-.05-.19-.07-.28-.12-.65-.27-1.29-.57-1.88-.09-.17-.2-.33-.37-.44-.68-.45-1.39-.76-2.23-.71a.947.947 0 0 1-.37-.05c-.17-.05-.31-.13-.32-.32-.01-.12.2-.38.34-.36.26.02.47-.11.71-.16.36-.08.56-.34.71-.65.17-.35.04-.73-.1-1.01-.23-.46-.43-.95-.73-1.38-.26-.38-.37-.79-.35-1.25 0-.11.02-.22-.03-.33-.22-.47-.41-.96-.78-1.34-.09-.09-.18-.18-.22-.3-.04-.12-.04-.25.07-.34.12-.1.27-.1.38 0 .22.21.47.37.65.63.12.18.22.4.45.52.08-.21.05-.38-.04-.54-.11-.21-.18-.43-.23-.66-.03-.14-.1-.32.08-.41.18-.09.31.07.43.17.06.05.11.15.13.25.02.15.08.28.1.43.02.15.16.17.31.09.3-.15.45-.43.66-.66.45-.5.7-1.09.61-1.77-.05-.44-.24-.84-.43-1.23-.25-.53-.71-.75-1.23-.84-.7-.11-1.33-.41-1.97-.67-.09-.04-.18-.07-.15-.21.03-.14.13-.13.22-.14.37-.04.75-.04 1.12.01 1.36.17 2.68.12 4.01-.28.43-.13.84-.3 1.23-.5.82-.42 1.3-1.28 1.18-2.27-.08-.64-.21-1.27-.33-1.91-.13-.68-.5-1.19-1.03-1.59-.29-.22-.63-.4-.98-.52-.98-.35-1.94-.4-2.88.14-.12.07-.18.14-.24.25-.18.34-.13.65.1.93.22.26.45.53.71.74.19.15.42.27.71.28.34.01.7-.01 1.08.16-.35.17-.64.32-.94.45-.13.06-.19.18-.09.24.26.17.34.56.72.57.07 0 .14.07.13.14-.01.08-.08.14-.17.15-.1 0-.2 0-.29-.02-.2-.05-.38.02-.57.07-.13.03-.18.1-.2.22-.06.36 0 .51.32.72.09.06.22.11.17.24-.06.17-.21.09-.32.06-.14-.04-.3-.08-.42-.16-.43-.27-.89-.26-1.36-.14-.82.21-1.64.38-2.49.41-1.01.04-2.02.12-3.03.18-.22.01-.43.05-.63.16-.23.14-.34.49-.29.76.06.36.27.54.58.66.16.06.23.21.16.38-.08.19-.26.16-.39.09-.5-.27-1.06-.3-1.61-.34-1.92-.11-3.67.39-5.29 1.41-.41.26-.75.61-1.18.84-.11.06-.19.18-.08.31.09.1.1.23.13.34.34 1.14.61 2.3.84 3.47.13.66.19.71.86.6.12-.02.25-.04.36-.08.63-.22 1.26-.41 1.87-.69.62-.28 1.21-.61 1.69-1.11.25-.26.47-.55.6-.89.18-.47.02-.92-.41-1.08-.49-.19-1-.22-1.48.05-.4.22-.78.48-1.16.73-.37.25-.74.49-1.11.73-.29.19-.62.24-.95.26-.29.01-.53-.2-.56-.46-.03-.21.13-.4.43-.49.11-.03.22-.05.33-.07.18-.03.34-.1.5-.19 1.13-.63 2.28-1.2 3.59-1.35.23-.03.38-.14.5-.32.12-.19.22-.39.39-.53.18-.15.49-.22.57-.11.12.18.07.37-.03.55-.07.12-.19.23-.19.39.16.05.26-.03.37-.09.32-.19.54-.19.66 0s.05.39-.25.62c-.18.13-.27.28-.26.52.02.53-.15 1-.51 1.41-.2.23-.39.47-.57.71-.19.24-.38.48-.54.74-.52.86-.57 1.75-.1 2.65.46.87 1.39 1.19 2.3.81.77-.32 1.04-.85.83-1.66-.09-.35-.2-.69-.29-1.04-.19-.74-.12-1.45.29-2.12.34-.57.63-1.17.97-1.74.41-.68.26-1.53-.34-2.07-.25-.23-.3-.45-.16-.6.13-.14.33-.11.58.13.39.38.81.71 1.28.99.14.08.28.19.4.3.47.42.5 1.04.07 1.51-.16.17-.34.32-.53.47-.28.23-.6.39-.91.58-.95.6-1.41 1.72-1.09 2.69.16.48.4.91.73 1.29.24.27.53.48.87.63.4.18.77.17 1.14-.08.15-.1.31-.19.47-.25.16-.06.33-.04.44.13.09.14.05.36-.12.47-.41.25-.84.48-1.31.61-.29.08-.58-.01-.86-.07-.58-.14-1.1 0-1.56.36-.36.28-.4.42-.2.81.4.78 1.04 1.18 1.91 1.16.24 0 .47.04.7.07.13.01.21.07.23.2.01.13-.11.15-.19.19-.09.05-.18.07-.27.11-.38.17-.77.32-1.13.53-.75.42-.78 1.31-.08 1.81.06.04.11.08.17.11.6.32 1.15.72 1.72 1.09.09.06.18.13.28.18.1.06.13.13.11.24-.03.12-.1.14-.21.15-.27.03-.53.01-.76-.14-.3-.2-.62-.38-.91-.59-.97-.71-2.06-.88-3.24-.78-.42.04-.69.2-.89.56-.14.25-.29.49-.53.74-.04-.47-.29-.78-.55-1.09-.69-.84-1.56-1.36-2.66-1.44-.26-.02-.29 0-.28.26.02.4.06.8.07 1.2.01.4-.13.76-.42 1.05-.06.06-.18.09-.17.22.1.04.21.07.31.13.56.3.93.72.91 1.41-.01.48.04.97.07 1.45.02.26.03.52.1.78.39 1.53 1.79 2.62 3.73 2.39.68-.08 1.22-.34 1.49-1.02.04-.11.13-.21.22-.3.13-.13.29-.16.46-.09.15.06.22.28.17.47-.03.11-.08.2-.13.3-.27.52-.25 1.04-.02 1.56.05.11.11.22.15.34.13.48.59.78 1.05.65.42-.12.85-.05 1.28-.07.15-.01.31.05.34.24.03.19-.07.32-.24.38-.28.09-.49.26-.59.54-.02.07-.08.11-.16.11-.1 0-.13-.07-.15-.16-.02-.09 0-.21-.14-.21-.12 0-.17.08-.2.18-.02.05-.04.11-.07.15-.12.18-.26.2-.4.04a.644.644 0 0 1-.15-.25c-.07-.35-.33-.57-.58-.78a5.07 5.07 0 0 0-1.01-.64c-1.56-.8-3.19-.96-4.89-.62-.37.07-.74.15-1.08.3-.36.17-.4.3-.22.64.42.79 1.01 1.42 1.71 1.96.1.08.21.12.33.17.53.23 1.1.23 1.67.29 1.82.18 3.65.23 5.48.24 1.69 0 3.3.32 4.75 1.27.15.1.32.16.49.23.89.35 1.77.19 2.64-.12.67-.24 1.02-.75 1.08-1.44.03-.36.04-.72.02-1.08-.09-1.52-.7-2.75-2.04-3.55-.18-.11-.33-.23-.48-.44.22-.05.41-.02.6-.02.37 0 .72-.09 1.05-.26.51-.27.98-1.08.64-1.82-.29-.62-.79-.97-1.43-1.07-1.4-.24-2.8-.28-4.21.01-1.34.27-2.64.67-3.87 1.28-.21.11-.38.24-.47.48-.07.19-.17.37-.31.52-.11.12-.21.17-.36.1-.15-.08-.21-.25-.13-.42.05-.11.11-.22.19-.32.56-.71.42-1.69-.12-2.31-.09-.1-.21-.19-.29-.29-.17-.2-.16-.42.01-.55.18-.14.43-.09.55.14.18.35.45.64.61 1 .04.1.09.18.23.22 1.1.25 2.15.12 3.08-.54.63-.45.92-1.02.56-1.88-.17-.41-.41-.78-.75-1.07a.894.894 0 0 1-.3-.44c-.1-.32.02-.67.28-.84.28-.18.74-.17.93.06.2.23.41.47.48.79.07.27.14.55.28.79.22.36.37.74.54 1.11.24.52.57.97 1.18 1.11.69.16 1.4.21 2.1.23.3.01.58-.16.8-.36.28-.25.47-.57.57-.94.32-1.18.38-2.37.28-3.58-.08-.95-.38-1.85-.72-2.74-.1-.26-.27-.51-.51-.69-.22-.16-.3-.12-.42.13-.06.11-.07.23-.1.35-.03.13-.1.24-.25.23-.15 0-.22-.11-.25-.23a.918.918 0 0 1-.05-.28c-.01-.17.01-.33.04-.49.06-.26-.05-.36-.31-.31-.04.01-.07.05-.11.06-.06.02-.13.04-.2.06-.18.04-.38-.05-.44-.2-.07-.18-.01-.33.18-.45.15-.12.43-.12.62-.29zM108.4 69.18c-.22-.57-.29-1.09-.12-1.61.08-.25.21-.48.33-.71.24-.45.21-.67-.16-1.03-.04-.04-.08-.07-.12-.11-.53-.5-.92-1.43-.39-2.3.14-.23.24-.47.27-.74.04-.39-.02-.74-.37-.99-.08-.05-.17-.12-.2-.21-.09-.23-.26-.24-.46-.24-.79 0-1.58.01-2.37-.01-.97-.02-1.58-.52-1.81-1.46-.02-.09-.05-.19-.06-.28-.25-1.42-.55-2.82-.86-4.23-.29-1.33-.66-2.63-1.27-3.85-.06-.11-.11-.23-.17-.33-.17-.26-.39-.36-.71-.29-.43.09-.71.33-.89.73-.41.91-.72 1.86-.95 2.83-.34 1.42-.51 2.86-.67 4.3-.23 2.01-.42 4.04-.42 6.08 0 1.91.2 3.79.66 5.64.47 1.86 1.11 3.63 2.45 5.06.03.03.05.06.08.1.23.37.63.48.99.65.09.04.16.02.2-.07.05-.1.09-.2.13-.31.32-.87.56-1.77.76-2.67.17-.76.29-1.52.46-2.28.13-.59.49-.98 1.11-1.1.16-.03.29-.08.39-.26.23-.4.61-.58 1.07-.62.35-.02.69.01 1.04.06.66.08 1.33.16 2.06.25zm20.55 15.18.46.03c.99.04 1.89.52 2.86.66.33.05.56.41.56.74 0 .31-.14.57-.43.71-.31.15-.63.13-.9-.09-.3-.24-.62-.48-.87-.77-.44-.51-.96-.65-1.6-.54-.54.1-1.09.18-1.64.25-1.02.13-2.03.21-3.06.07-.59-.08-1.02-.32-1.23-.9-.12-.32-.24-.65-.37-.97-.23-.59-.55-1.12-1.06-1.51-.58-.44-1.3-.23-1.57.44-.12.3-.2.61-.24.92-.18 1.39.23 2.5 1.65 3.08 1.41.58 2.83 1.12 4.27 1.61.23.08.46.11.7.07.68-.1 1.36-.04 2.03-.03.33 0 .62.1.9.28.39.25.81.41 1.26.51.63.13 1.27.12 1.9.02 1.09-.17 1.88-.76 2.33-1.79.18-.41.27-.84.32-1.28.08-.74-.11-1.4-.63-1.94-.41-.43-.91-.74-1.48-.88-.76-.19-1.5-.47-2.29-.57-.67-.09-1.34-.13-2.02 0-.91.17-1.81.41-2.7.67-.54.15-1.08.25-1.64.22-.2-.01-.42-.02-.53.15-.12.2.02.4.13.57.11.18.27.32.45.42.23.13.48.22.74.26.65.11 1.27-.03 1.89-.18.6-.14 1.2-.26 1.81-.23zm-3.66-4.86c.33.02.67 0 .99.11.17.06.29.18.26.37-.02.18-.15.26-.31.28-.21.03-.41.04-.62.06-.78.07-1.47.35-2.12.78a.63.63 0 0 0-.29.47c-.04.4.31.85.74.91.8.12 1.6.1 2.39-.1l1.57-.39c.19-.05.38-.04.57-.11 1.23-.47 2.46-.41 3.64.1.61.26 1.18.23 1.78.11.65-.12 1.1-.51 1.35-1.11.41-.97.77-1.96 1-2.99.28-1.22-.6-2.23-1.85-2.13-.34.03-.57.19-.72.49-.16.33-.23.68-.21 1.05.01.26.03.53-.04.79a2.17 2.17 0 0 1-1.6 1.54c-1.54.38-3.03.28-4.29-.87-.43-.39-.95-.6-1.53-.7-.72-.12-1.41.01-2.08.24-.41.14-.83.22-1.26.22-.26 0-.53.03-.79.03-.74.02-1.47-.01-2.17-.29-.35-.14-.71-.25-1.06-.35-.56-.16-1.13-.27-1.72-.18-.19.03-.29.09-.35.28-.32 1.12-.74 2.2-1.29 3.23-.07.14-.08.23.05.35.77.71 1.66 1.19 2.66 1.47.39.11.77.01 1.1-.23.62-.46.66-1.14.1-1.66-.25-.23-.52-.41-.85-.51a4.67 4.67 0 0 1-.62-.24c-.12-.06-.25-.13-.35-.21-.19-.16-.26-.44-.17-.64.1-.22.3-.27.52-.26.18.01.36.04.53.09.68.2 1.28.53 1.75 1.07.3.34.68.46 1.1.51.67.08 1.19-.22 1.6-.71.41-.49.93-.72 1.54-.83.36-.03.71-.05 1.05-.04zm-15.34-18.3c.1.58.3.91.7 1.22.14.11.28.22.39.37.09.13.04.21-.08.25-.19.07-.4.1-.6.17-.77.31-.94 1.22-.34 1.8.18.18.4.31.64.36.41.09.6.39.77.71-.21.13-.41.24-.59.37-.88.61-.91 1.8-.46 2.53.17.28.4.45.76.51.55.09 1.06.04 1.59-.12.94-.28 1.85-.16 2.68.35.33.2.66.32 1.03.39.82.15 1.2.55 1.21 1.38 0 .32.18.43.35.59.08.08.17.07.26.03.68-.28.99-.98.71-1.66-.34-.81-.9-1.47-1.63-1.94-.81-.53-1.66-1-2.47-1.53-.32-.21-.66-.33-1.03-.38-.07-.01-.14-.01-.21-.03-.09-.03-.19-.06-.27-.1a.333.333 0 0 1-.15-.43c.08-.17.22-.22.38-.16.3.1.6.21.91.28.32.07.39.02.41-.32.02-.57-.18-1.03-.66-1.36-.38-.26-.76-.51-1.14-.76-.1-.07-.21-.13-.29-.24-.08-.11-.11-.22-.04-.35.07-.12.19-.16.32-.15.17.01.31.11.45.21.28.19.57.26.9.17.13-.04.27-.05.41-.06.3-.01.44.09.53.37.05.16.07.32.1.49.11.8.5 1.43 1.2 1.85.66.39 1.36.46 2.07.17.46-.18.61-.53.47-1.01-.05-.19-.15-.36-.25-.52-.38-.64-.61-1.33-.61-2.09 0-.12-.01-.25-.03-.37-.15-.76-.57-1.31-1.27-1.68-.34.54-.83.71-1.41.71-.12 0-.25.01-.37.01h-3.57l-1.77-.03zm43.22 16.96c.33.01.66 0 .99-.07 1.1-.23 2.09-.72 3.05-1.28.42-.25.68-.65.76-1.14.05-.34.04-.69-.02-1.03-.15-.94-.76-1.42-1.92-1.29-.43.05-.73.29-.95.66-.14.23-.15.48-.2.74-.21.9-1.05 1.63-1.88 1.72a.907.907 0 0 1-.73-.24c-.37-.34-.29-.88.17-1.08.19-.08.39-.13.6-.18.3-.07.49-.23.54-.55.06-.38.28-.67.57-.89.49-.37 1.01-.68 1.61-.84 1.28-.34 2.4.37 2.6 1.52.06.34.12.68.2 1.02.08.32.27.46.54.36.64-.24 1.18-.6 1.43-1.28.32-.89.17-1.73-.31-2.53-.22-.37-.56-.57-.97-.65-.22-.04-.44-.07-.66-.11-.34-.06-.69-.1-1.02-.19-.44-.11-.77-.39-1.09-.7-.56-.55-1.15-.65-1.87-.34-.39.17-.7.44-1 .73-.89.86-1.76 1.73-2.81 2.39-.54.34-.93.83-1.12 1.45-.34 1.12.06 2.04.85 2.82.72.7 1.64.97 2.64.98zm-30.66-4.18c.25.04.5.02.75.02s.5-.03.74-.09c.65-.15 1.04-.57 1.06-1.21.02-.74-.19-1.19-.87-1.44-.62-.23-1.26-.31-1.92-.23-1.19.15-2.17.73-3.02 1.53-1.35 1.26-1.18 3.47.29 4.59.91.69 1.62.31 2.2-.34.08-.09.13-.21.2-.31.06-.09.13-.18.23-.23.15-.07.3-.07.42.04.12.11.11.25.06.38-.05.11-.13.21-.21.31-.08.1-.15.2-.18.32-.05.2.02.28.23.26.15-.02.3-.04.45-.07 1.2-.23 2.39-.42 3.61-.11.67.17 1.25.4 1.73.91.54.59 1.22.96 2.01 1.09.85.14 1.63-.04 2.3-.59.53-.44.57-1.22.11-1.72-.31-.33-.69-.56-1.11-.71-.48-.18-.98-.28-1.49-.36-.9-.14-1.74-.42-2.45-1.03-.5-.43-1.11-.61-1.77-.63-.68-.02-1.33.13-1.94.4-.67.3-1.38.38-2.09.47-.28.04-.55.04-.83-.01-.22-.04-.41-.12-.47-.35-.06-.22.02-.41.17-.57.21-.22.48-.32.78-.33.35-.01.68 0 1.01.01zm31.64-29.22c-.05 1.04.04 1.85.46 2.62.35.63.82 1.14 1.37 1.6.23.19.5.38.57.69.22.93.92 1.44 1.65 1.93.34.23.73.35 1.12.48.45.15.73-.02.8-.49.05-.33.02-.67-.1-.98-.44-1.15-1.13-2.12-2.25-2.7-.24-.12-.33-.26-.32-.54.03-1.71-.61-3.11-1.94-4.19a5.97 5.97 0 0 1-1.47-1.77c-.22-.4-.4-.82-.67-1.19a3.128 3.128 0 0 0-1.81-1.23c-.32-.08-.61-.05-.82.24-.2.28-.21.63-.12.91.07.23.1.45.1.68-.01 1-.03 2-.05 2.99 0 .19 0 .39-.05.58-.07.29-.05.58-.04.87.01.25.15.45.33.54.53.27 1.11.39 1.67.13.45-.21.72-.77.48-1.23-.17-.33-.32-.67-.48-1-.16-.32-.22-.65-.16-1 .05-.32.29-.45.55-.53.23-.07.58.08.68.3.18.38.36.77.41 1.18.08.42.11.86.09 1.11zm-29.01-4.3v.02c.28 0 .56.04.83.01 1.16-.12 2.31-.21 3.46-.44.34-.07.66-.17.91-.43.81-.84.74-2.37-.36-3.07-.43-.28-.9-.47-1.41-.54-.96-.13-1.71.27-2.37.91-.09.09-.06.2.01.26.18.14.31.35.58.36.27.01.44.17.53.43.05.13.01.2-.07.29-.08.1-.17.08-.26.04a.743.743 0 0 1-.21-.13c-.23-.19-.49-.33-.65-.61-.09-.16-.31-.37-.51-.24-.31.2-.63.18-.95.19-1.25.05-2.43.3-3.48 1.03-.25.17-.41.38-.53.65-.1.22-.12.44-.11.67.01.21.22.12.31.21.08.09.13.19.06.3-.07.12-.18.13-.29.08-.11-.05-.21-.13-.32-.19-.13-.08-.25-.16-.42-.14-.41.06-.78.2-1.07.5-.13.13-.21.29-.34.42-.31.33-.4.72-.36 1.15.02.28.17.49.47.57.5.14.99.02 1.48-.03.97-.5 1.99-.89 2.99-1.33.11-.05.15-.12.18-.2.19-.5.6-.64 1.08-.69.26-.04.54-.04.82-.05zm18.71 3.41h.02c0 .22.01.44-.01.66-.03.27.11.45.29.6.56.44 1.31.37 1.79-.16.12-.13.23-.28.31-.44.33-.67.45-1.38.41-2.13-.06-.95-.5-1.68-1.28-2.21-.89-.6-1.92-.88-2.95-1.08-.69-.14-1.39-.21-2.04-.5-.16-.07-.28-.16-.4-.27-.15-.15-.14-.33-.08-.5.06-.18.21-.25.39-.25.19 0 .39 0 .58.05.34.09.7.09 1.03.02.34-.07.66-.26.98-.42.45-.22.54-.56.29-.99-.25-.41-.62-.66-1.06-.8-.98-.32-1.94-.2-2.87.19-.69.28-1.31.66-1.62 1.4-.32.77-.43 1.51.19 2.19.24.26.48.53.86.64.51.15 1.04.16 1.54.35.36.14.77.14 1.14.27.16.06.31.15.48.19.55.15 1.06.43 1.42.87.36.44.63.96.63 1.57-.02.25-.03.5-.04.75zm3.76 43.84c.58 0 1.05-.1 1.49-.31.75-.36 1.3-.93 1.72-1.63.28-.46.13-.9-.35-1.14-.12-.06-.26-.1-.39-.13-.48-.13-.96-.06-1.45-.03-1.82.12-3.56.49-5.16 1.41-.58.33-1.2.56-1.87.66-1.09.17-2.15.05-3.21-.18-.18-.04-.35-.08-.53-.09-.64-.03-1.05.43-.96 1.06.05.32.17.61.38.86.35.4.79.65 1.29.79.82.24 1.67.27 2.51.2 1.27-.1 2.44-.5 3.5-1.19.47-.31.85-.69.98-1.28.07-.31.29-.53.57-.69.17-.1.34-.18.52-.26.1-.05.2-.13.3-.02.09.1-.01.18-.06.25-.16.25-.23.53-.32.81-.1.33-.02.52.28.7.27.15.55.22.76.21zm-29.88-34.27c.06.61.11 1.2.19 1.79.04.28-.08.64.13.83.21.19.57.17.87.24.38.08.76.16 1.07.42.78.66 1.69.77 2.66.66.38-.04.73-.16 1.05-.37.71-.47.97-1.19.66-1.99-.29-.74-.77-1.31-1.54-1.58-.88-.31-1.52-.89-1.93-1.73-.14-.29-.3-.56-.51-.8-.25-.28-.54-.48-.92-.52-.65-.06-1.23.13-1.76.5-.22.15-.3.34-.24.61.06.33.1.66.14.99.06.48.13.56.59.65.12.02.25.02.37.03.29.03.58.04.86.12.79.23 1.43.72 2.05 1.23.1.08.13.21.19.32.07.12.05.22-.06.29-.09.07-.15-.03-.21-.07-.11-.08-.22-.17-.33-.25-.61-.44-1.23-.86-1.94-1.11-.44-.17-.88-.31-1.39-.26zm37.37 27.02c.29-.06.55-.11.81-.15 1.11-.2 1.9-.85 2.48-1.78.12-.19.2-.4.22-.62.04-.41-.13-.6-.54-.6-.2 0-.38.06-.57.12-1.13.36-2.26.73-3.4 1.09-.57.18-1.15.32-1.71.52-1.11.39-1.76 1.23-1.63 2.66.03.31.04.61 0 .91-.07.53.12.95.54 1.27.5.38 1.06.47 1.65.31.48-.13.94-.33 1.37-.59.61-.36 1.08-.86 1.46-1.45.26-.41.23-.65-.07-1.02-.1-.12-.21-.22-.32-.33-.09-.11-.23-.17-.29-.34zm-23.01-7.26c-.04.07-.01.14 0 .2.02.18.05.36.06.54 0 .17-.07.3-.25.34-.15.03-.3-.08-.35-.28-.03-.13-.05-.27-.04-.41.02-.6-.25-1.07-.68-1.45-1.09-.93-2.39-1.17-3.77-1.04-.22.02-.44.05-.65.14-.48.2-.67.56-.55 1.07.09.4.28.74.64.99.8.55 1.67.99 2.55 1.39 1.3.6 2.65.97 4.1.8.74-.08 1.44-.26 2.09-.63.75-.43.94-.83.83-1.68-.07-.52-.27-.73-.78-.82-.21-.04-.41-.03-.61.04-.44.14-.85.33-1.27.51-.49.22-.49.22-.29.71.01.03.02.05.03.08.04.13.05.26-.06.34-.13.1-.27.06-.39-.02-.16-.11-.26-.29-.34-.46-.09-.12-.1-.29-.27-.36zm90.04-2.86c-.02.22-.05.38-.05.54-.04 1.4-.09 2.8-.12 4.2-.01.58-.02 1.16-.01 1.75.02.88.37 1.35 1.2 1.64.41.15.83.22 1.26.26.36.03.36.02.51-.33.08-.19.16-.38.22-.58.39-1.19.48-2.38.02-3.58-.28-.72-.66-1.37-1.14-1.97-.55-.7-1.18-1.31-1.89-1.93zm-78.42-32.92c-.05.36.05.72.22 1.02.39.67 1.1.91 1.78 1.11.42.13.91.08 1.35-.05.19-.06.4-.08.59-.17.18-.08.37.01.42.15.07.17-.02.29-.2.42-.23.16-.51.11-.75.21-.1.04-.19.07-.2.17-.02.26-.1.54.08.76.17.22.34.5.71.39.05-.01.11.01.16.02.09.01.13.07.09.14-.09.16 0 .16.12.15.81-.13 1.45-.51 1.75-1.32.18-.49.23-1 .09-1.51-.21-.73-.57-1.31-1.32-1.62-1.15-.47-2.35-.79-3.56-1.02-.57-.11-1.36.47-1.33 1.15zm79.27 9.79c-.3.76-.52 1.47-.45 2.23.15 1.54.96 2.75 1.97 3.98-.01-.24-.01-.39-.03-.53-.17-1.41-.38-2.82-.65-4.22-.11-.56-.41-1-.84-1.46zM117.52 73.33c-.09.62-.17 1.23-.27 1.85-.1.61-.22 1.22-.34 1.9.5-.24.7-.6.8-1.03.21-.93.01-1.82-.19-2.72zm36.57-33.91c.01.02.02.04.03.05.01-.01.03-.02.03-.03 0-.02-.02-.04-.03-.06-.01.02-.02.03-.03.04z" id="path2"/><path class="st1" d="M79.71 106.49c.1-.74.17-1.48.31-2.22.47-2.57 1.41-4.97 2.69-7.24.92-1.64 2.07-3.08 3.58-4.21 1.68-1.25 3.55-2.05 5.63-2.27 2.97-.31 5.4.75 7.31 3.03 1.01 1.21 1.64 2.62 2.14 4.1.19.58.35 1.16.5 1.77.17-.08.17-.25.22-.38.48-1.26 1.07-2.46 1.9-3.54 1.86-2.42 4.31-3.94 7.29-4.51 4.26-.81 7.65.72 10.29 4.08.23.3.44.62.68.97.11-.39.08-.74.08-1.1 0-.17 0-.33.01-.5.05-.77.48-1.22 1.19-1.41.2-.05.34-.14.46-.31.29-.42.74-.58 1.22-.61 1.35-.1 2.71-.18 4.06-.27.77-.05 1.55-.1 2.32-.16.94-.07 1.41.22 1.77 1.11.36.9.72 1.8 1.07 2.7.03.09.07.17.15.24.01-.36.01-.72.02-1.08 0-.18.01-.36.06-.53.17-.54.58-.79 1.1-.9.19-.04.31-.11.42-.28.25-.41.66-.57 1.12-.63.96-.12 1.93-.23 2.89-.34 1.61-.19 3.22-.37 4.83-.55.11-.01.22-.02.33-.02.64.02 1.04.31 1.24.92.06.18.12.23.31.22 1.13-.06 2.27-.1 3.4-.15l5.02-.21c2.42-.1 4.84-.14 7.26-.28.33-.02.66-.04.99.05.55.16.85.53.95 1.09.06.33.02.66.01.99-.07 1.54-.04 3.07-.08 4.61 0 .19-.02.39-.05.58-.07.39-.27.7-.62.89-.16.09-.26.19-.3.36-.18.7-.64 1.08-1.35 1.15-.77.07-1.54.13-2.32.19l-3.97.33c-.17.01-.24.06-.24.24-.01 1.22-.03 2.44-.05 3.66 0 .02.02.05.03.09.23.04.46-.02.69-.02 1.15-.04 2.3-.12 3.44-.21.17-.01.33-.01.5-.01.82.02 1.34.53 1.39 1.35.01.23-.01.47-.01.71l-.03 2.79c-.01.65-.16 1.25-.8 1.57-.14.07-.16.19-.19.3-.22.72-.74 1.08-1.46 1.18-1.03.14-2.06.26-3.09.38-.66.07-.66.07-.67.71l-.03 1.58c0 .08-.02.17.06.26.83-.03 1.67-.06 2.51-.1 1.52-.06 3.04-.12 4.56-.19.04 0 .08-.01.12-.01 1.05-.01 1.61.58 1.57 1.64-.02.6-.06 1.19-.06 1.79-.01.71.01 1.41.01 2.12-.01.63-.14 1.22-.75 1.56-.09.05-.14.11-.16.22-.1.71-.61 1.24-1.54 1.31-1.1.08-2.21.14-3.32.21-1.59.1-3.18.21-4.77.31-1.15.07-2.29.14-3.44.22-1.08.07-2.15.15-3.23.22-.34-.01-.69-.01-1.03-.02-.71-.15-1.08-.61-1.2-1.31-.05-.28-.02-.57-.07-.93-.36.85-.98 1.08-1.76 1.12-1.59.08-3.18.2-4.77.3-.54.03-1.08.07-1.62.09-.67.02-1.17-.27-1.5-.85-.1-.17-.16-.35-.23-.53-.55-1.52-1.11-3.04-1.67-4.56-.04-.12-.05-.27-.22-.38 0 .15 0 .27-.01.38-.01.82-.03 1.64-.04 2.45-.01.58-.2 1.06-.72 1.36-.09.05-.13.12-.16.22-.24.86-.66 1.2-1.55 1.3-1.38.16-2.75.33-4.13.48-.87.1-1.73.2-2.6.27-1.08.09-1.69-.53-1.73-1.45-.01-.14-.01-.28-.01-.41l.06-3.83c0-.13 0-.26.01-.43-.18.11-.22.24-.29.35-.63.98-1.33 1.91-2.13 2.76-1.44 1.52-3.16 2.55-5.23 2.95-.35.07-.72.06-1.06.18l-1.83-.03c-.24.01-.47-.14-.72-.09-.15-.03-.3-.07-.45-.1-1.81-.38-3.42-1.18-4.78-2.44-1.07-.99-1.86-2.2-2.52-3.48-.25-.49-.47-.99-.72-1.5-.14.09-.18.23-.25.34-.48.77-.95 1.56-1.44 2.33a9.152 9.152 0 0 1-4.34 3.6c-2.17.88-4.43 1.08-6.73.71-2.15-.35-3.96-1.37-5.39-3.03-.78-.91-1.37-1.94-1.86-3.03-1.27-2.79-2.17-5.68-2.43-8.75-.02-.18-.03-.36-.06-.54-.03-.13-.1-.09-.16-.01v-.17c.04.06.1.12.14.02.04-.11.04-.24-.01-.36 0-.41-.01-.82 0-1.23.01-.43.03-.87.04-1.31zm65.5-13.63c-.66.07-1.29.14-1.92.21-1.79.21-3.58.42-5.36.62-.51.06-.52.05-.52.56 0 .07.01.14.02.21.07 1.15.14 2.29.22 3.44.09 1.42.19 2.85.29 4.27l.3 4.48c.02.28-.01.55-.09.82-.03.09-.02.2-.15.22-.12.02-.17-.07-.21-.16-.13-.29-.28-.57-.4-.87-.72-1.78-1.43-3.57-2.15-5.35-1-2.5-2-5.01-3-7.52-.24-.61-.35-.68-.99-.63-.41.03-.83.05-1.24.08-1.45.1-2.9.2-4.35.31-.47.03-.47.05-.48.53-.15 9.38-.31 18.77-.46 28.15v.29c-.01.12.04.18.17.17.07-.01.14-.01.21-.02 1.98-.23 3.96-.47 5.94-.7.34-.04.36 0 .36-.4v-.25c.07-4.05.13-8.09.2-12.14.01-.41.07-.8.17-1.19.02-.07.04-.17.15-.17.1 0 .15.06.18.14.12.28.26.55.36.84 1.6 4.33 3.19 8.67 4.79 13.01.26.71.26.72 1.01.67 1.84-.11 3.68-.22 5.51-.34.31-.02.32-.03.33-.34.07-1.65.13-3.29.19-4.94.03-.69.04-1.39.06-2.08.07-1.67.15-3.35.22-5.02.06-1.4.1-2.8.16-4.19l.27-6.72c.06-1.45.12-2.91.17-4.36.03-.52.03-1.06.04-1.63zm-41.98 13.43c-.01 1.97.13 3.71.41 5.43.41 2.5 1.22 4.85 2.56 7.01 1.55 2.48 3.8 3.86 6.69 4.06 2.95.2 5.37-.91 7.14-3.3 2.58-3.48 3.78-7.45 3.94-11.74.04-1.2-.06-2.41-.25-3.6-.35-2.2-.97-4.32-2.05-6.28-.67-1.22-1.44-2.37-2.47-3.32-1.43-1.3-3.11-2.04-5.03-2.26-2.08-.24-4.03.17-5.78 1.35-1.4.93-2.38 2.23-3.11 3.72-1.39 2.88-1.99 5.96-2.05 8.93zm-2.12-.74c.01-.07.02-.13.01-.18-.06-1.38-.1-2.77-.31-4.14-.3-1.96-.85-3.83-1.82-5.57-.95-1.69-2.29-2.91-4.17-3.46-1.62-.48-3.23-.38-4.81.19-1.64.59-2.89 1.67-3.89 3.07-2.34 3.29-3.49 6.98-3.59 11-.04 1.62.12 3.24.4 4.84.37 2.1.98 4.12 1.98 6 .47.88.99 1.74 1.71 2.44 2.41 2.33 5.27 3.16 8.52 2.39 2.94-.7 4.93-2.59 6.13-5.32.93-2.11 1.06-4.37 1.07-6.64 0-.12-.04-.18-.16-.18h-.25l-9.31-.15c-.49-.01-.41-.03-.42.42-.02.96-.03 1.91-.05 2.87-.01.38-.02.36.36.37.37 0 .75.01 1.12.02.42.01.83 0 1.25.02.48.02.65.24.54.7-.1.42-.21.83-.32 1.25-.11.39-.25.76-.46 1.11-.73 1.2-2.18 1.38-3.19.41-.52-.51-.96-1.08-1.25-1.75-.99-2.26-1.52-4.62-1.52-7.09 0-1.55.25-3.06.64-4.55.31-1.19.78-2.31 1.54-3.28.2-.25.41-.49.67-.68.5-.35.98-.32 1.43.1.3.28.51.62.68.98.43.86.66 1.79.89 2.71.17.67.22 1.37.3 2.05.02.2.09.27.28.25.07-.01.14 0 .21 0l3.45-.12c.78-.03 1.55-.05 2.34-.08zm59.08 1.82c-.1 0-.16-.01-.21 0l-4.23.24c-.37.02-.75.06-1.12.06-.36 0-.48-.12-.53-.46-.01-.11-.01-.22-.01-.33.02-.53.04-1.05.05-1.58.02-1.11.04-2.22.05-3.33.01-.55-.01-1.11 0-1.66.01-.49.15-.64.63-.7.33-.04.66-.05.99-.08 1.31-.1 2.62-.2 3.93-.31.98-.08 1.96-.17 2.94-.24.21-.02.31-.07.31-.31.02-1.68.05-3.35.08-5.03 0-.28 0-.28-.27-.28-.64.02-1.27.04-1.91.07-2.38.09-4.76.19-7.14.28-1.72.07-3.43.13-5.15.19-.48.02-.97.05-1.45.06-.18 0-.24.07-.23.25.01.19 0 .39.01.58l.12 6.06c.03 1.52.04 3.05.07 4.57.03 1.85.07 3.71.1 5.56.02 1.3.03 2.6.05 3.9l.12 6.14c.01.65.01 1.3.03 1.95.01.34.02.35.35.33.52-.04 1.05-.08 1.57-.11 1.56-.1 3.12-.19 4.68-.29l6.09-.39c.73-.05 1.46-.09 2.2-.14.17-.01.31-.02.31-.27.01-1.32.03-2.63.06-3.95 0-.21-.08-.27-.27-.26-.32.02-.64.02-.95.03l-4.52.18c-.83.03-1.66.07-2.49.09-.44.01-.5-.07-.53-.5-.03-.43.02-.86.03-1.29.01-1.29.02-2.58.04-3.87.01-.58.19-.79.75-.84 1.52-.14 3.03-.33 4.54-.51.26-.03.59.02.76-.13.2-.17.07-.52.08-.79.04-.94.05-1.9.07-2.89zm-67.43 1.01c-.57-.5-.72-.82-.77-1.49a45.1 45.1 0 0 0-.07-1.16c-.08-.96-.28-1.89-.67-2.77-.03-.08-.03-.2-.18-.19-.83 2.13-1.14 4.33-.94 6.63.12-.04.2-.07.28-.08.26-.03.45-.13.59-.37.19-.33.54-.46.9-.52.26-.06.52-.03.86-.05zm3.43.06c.09-.09.19-.09.28-.06.32.11.65.09.98.1.84.02 1.68.03 2.53.04h.29c.09 0 .17-.02.17-.13 0-.13-.09-.11-.17-.11-.55.02-1.1.05-1.65.06-.73.01-1.46.02-2.17.18-.09.02-.18.03-.26-.08z" id="path3"/><path class="st1" d="M244.46 109.4c-.35 4.48-2.09 8.38-5 11.76-2.29 2.66-5.23 4.32-8.62 5.18-1.51.38-3.05.55-4.6.61-1.19.05-2.38.01-3.57-.01-.11 0-.22-.01-.33-.02-1.02-.12-1.53-.69-1.52-1.72 0-.4.01-.8.02-1.21 0-.09.03-.19-.04-.32-.18.13-.33.29-.54.36-.09.03-.1.11-.11.2-.07.77-.59 1.22-1.47 1.31-1.21.11-2.43.19-3.65.28l-2.4.18c-.3.02-.61.04-.91.03-.73-.02-1.21-.38-1.38-1.09-.16-.66-.27-1.33-.39-2-.21-1.17-.41-2.34-.62-3.52-.05-.28-.06-.29-.35-.26-.43.04-.85.1-1.28.13-.21.01-.29.1-.32.29-.1.56-.21 1.12-.31 1.67-.13.69-.24 1.39-.37 2.09-.09.47-.29.87-.74 1.1-.12.06-.18.16-.22.29-.24.79-.79 1.17-1.59 1.24-1.05.1-2.1.19-3.14.29-.99.09-1.99.17-2.98.25-.35.03-.69.04-1.03-.06-.46-.14-.77-.43-.91-.89-.1-.32-.1-.32-.45-.25l-6.9 1.29c-1.03.19-1.74-.35-1.83-1.4-.01-.15-.01-.3-.01-.46.06-3.44.11-6.88.17-10.31 0-.14.03-.29-.03-.46-.14.1-.19.23-.26.34-.64 1.05-1.29 2.1-2.03 3.09-.04.06-.08.11-.12.17-.71.93-1.9.89-2.54-.09-.28-.43-.53-.88-.79-1.32-.04-.06-.05-.16-.16-.16-.07.05-.04.13-.04.19-.02 1.28-.06 2.55-.06 3.83 0 .76.02 1.52-.04 2.28-.04.49-.25.87-.68 1.12-.12.07-.17.15-.2.28-.18.73-.67 1.12-1.39 1.26-1.66.32-3.32.63-4.98.94-.75.14-1.5.28-2.24.42-.28.05-.55.07-.82-.01-.57-.15-.93-.64-.97-1.31-.02-.36-.03-.72-.03-1.08 0-1.26.01-2.52 0-3.78 0-2.01-.01-4.02-.01-6.03 0-.93-.01-1.86-.01-2.78 0-2.08-.01-4.16-.01-6.23v-3.12c0-2.01 0-4.02-.02-6.03 0-.47-.03-.94.04-1.41.1-.63.45-1.04 1.07-1.18.27-.06.43-.19.59-.4.29-.38.72-.5 1.17-.54 1.01-.07 2.02-.13 3.03-.2 1.06-.08 2.13-.15 3.19-.26 1.14-.12 1.82.09 2.32 1.41.85 2.27 1.75 4.51 2.63 6.77.05.13.06.27.21.37.41-.8.82-1.6 1.22-2.41.49-.96.97-1.93 1.45-2.9.29-.6.69-1.07 1.37-1.23.1-.02.17-.09.22-.17.33-.44.79-.63 1.32-.71 2.64-.39 5.29-.79 7.93-1.18.58-.09 1.16-.03 1.74-.03.25 0 .21.16.2.31-.03.83-.07 1.66-.1 2.49-.03.93-.07 1.85-.1 2.78l-.27 7.85c-.04 1.22-.09 2.44-.13 3.65 0 .14 0 .28.05.42l.39-2.05.87-4.78 1.05-5.76c.09-.5.18-1.01.28-1.51.15-.74.53-1.27 1.33-1.41.12-.02.2-.08.26-.18.29-.48.75-.63 1.27-.68 2.34-.22 4.69-.43 7.03-.71.99-.12 1.61.31 1.88 1.29.55 2.03 1.09 4.06 1.64 6.09 1.96 7.24 3.92 14.48 5.87 21.72.03.12.04.24.15.37.1-5.8.19-11.56.28-17.36-.16.01-.32.01-.48.02-.95.09-1.55-.56-1.64-1.34-.13-1.09-.28-2.17-.41-3.26-.17-1.36-.33-2.72-.49-4.08-.03-.28-.02-.55.07-.82.18-.52.57-.81 1.08-.93.2-.05.34-.1.45-.3.18-.33.51-.46.85-.54.67-.16 1.36-.26 2.04-.36 1.45-.23 2.91-.37 4.38-.4 3.28-.06 6.48.37 9.46 1.81 4.22 2.04 6.78 5.41 7.76 9.98.18.84.26 1.7.28 2.56 0 .13-.04.28.08.39l-.03 1.83c-.01.17-.06.29-.03.43zm-59.9 5.87.2-.3c1.5-2.46 3-4.91 4.51-7.37.07-.12.15-.23.22-.35.05-.09.11-.16.23-.13.11.02.11.1.13.19.06.31.13.62.12.94-.03 1.95-.05 3.91-.08 5.86l-.15 9.27c0 .15-.04.3.03.44.04 0 .07.01.09.01 2.1-.39 4.18-.82 6.29-1.15.59-.09.78-.33.83-.92.01-.1 0-.19.01-.29.04-1.08.07-2.16.11-3.24.07-2.26.15-4.51.22-6.77.03-.96.07-1.91.1-2.87.07-2.12.15-4.24.22-6.35.03-.85.03-1.69.07-2.54.1-2.02.14-4.04.2-6.06 0-.11.04-.22-.07-.33-.25.04-.51.07-.77.11-2.3.33-4.6.68-6.91.99-.55.08-.9.33-1.14.82-.7 1.44-1.43 2.88-2.15 4.31-.76 1.52-1.53 3.04-2.29 4.56-.1.2-.21.43-.47.41-.25-.02-.3-.27-.37-.45l-2.82-7.23c-.37-.94-.73-1.88-1.1-2.82-.23-.6-.39-.69-1.03-.64-.22.02-.44.05-.66.06-1.74.09-3.48.25-5.22.38-.43.03-.44.04-.44.48v4.78c0 .75-.01 1.5-.01 2.24.01 2.08.03 4.15.03 6.23v3.37c0 1.95.01 3.91.01 5.86 0 2.15-.01 4.29-.01 6.44 0 .1-.03.22.06.31.05 0 .09.01.13 0 1.62-.31 3.24-.61 4.85-.92.44-.08.87-.14 1.31-.22.57-.1.79-.35.81-.92v-.25c.02-1.79.03-3.58.06-5.36.04-2.3.09-4.6.14-6.9.01-.23.04-.47.07-.7.01-.11.07-.18.18-.2.11-.02.14.07.18.14.22.34.44.67.64 1.02 1.06 1.79 2.11 3.58 3.17 5.37.17.23.31.44.47.69zm37.22-13.56c.27-.04.49-.08.71-.11.32-.04.63-.09.95-.11.39-.03.49.05.53.45.01.15.01.3.01.46-.12 7.1-.23 14.19-.35 21.29 0 .11 0 .22-.01.33-.02.2.06.26.26.25.65-.03 1.3-.05 1.95-.07 1.58-.04 3.16-.09 4.72-.36 2.33-.39 4.5-1.2 6.38-2.65 3.56-2.74 5.51-6.39 6.08-10.81.24-1.88.18-3.76-.15-5.63-.36-2.03-1.09-3.92-2.38-5.56-2.04-2.61-4.76-4.14-7.96-4.84-1.87-.42-3.78-.51-5.7-.48-1.87.03-3.73.23-5.57.6-.44.09-.37.12-.32.49.19 1.47.37 2.94.55 4.41.1.76.2 1.53.3 2.34zm-22.93 22.04c.23-.01.41-.01.59-.03l5.17-.48c.51-.05.68-.18.79-.68.15-.73.29-1.47.43-2.2.18-.99.35-1.99.54-2.98.09-.47.27-.64.74-.71.27-.04.55-.05.83-.07 1.07-.1 2.15-.22 3.22-.31.51-.04.64.07.73.57.23 1.28.45 2.56.67 3.84.13.75.26 1.5.4 2.25.06.31.06.31.4.29.39-.03.77-.05 1.16-.08 1.44-.11 2.87-.21 4.31-.32.24-.02.58.09.7-.11s-.06-.5-.13-.75l-4.98-18.43c-.81-3.02-1.62-6.04-2.44-9.06-.19-.71-.33-.8-1.06-.71-.56.07-1.13.12-1.69.18-1.46.15-2.92.29-4.38.44-.54.06-.67.18-.77.7l-.36 1.92c-.5 2.74-1 5.48-1.5 8.21-.44 2.41-.89 4.82-1.34 7.23l-1.44 7.84c-.19 1.13-.38 2.27-.59 3.45z" id="path4"/><path class="st1" d="M151.45 65.71c-.04-.07-.07-.13-.1-.19-.18-.42-.51-.6-.94-.63-.21-.02-.41-.01-.62-.01-.3 0-.57-.08-.85-.17-.12-.04-.15-.11-.14-.22.01-.1.08-.13.17-.14.45-.08.9-.14 1.36-.14.39.01.77-.05 1.15-.15 1.04-.29 1.63-1.05 1.64-2.13 0-.39-.04-.77-.09-1.16-.1-.87.64-1.78 1.63-1.73.7.04 1.37.17 2.05.32.26.06.52.08.78.06.31-.02.6-.13.83-.35.79-.77 1.34-2 .64-3.37-.31-.62-.75-.84-1.42-.74-.23.03-.46.07-.69.16a1.4 1.4 0 0 0-.82.83c-.15.39-.24.79-.33 1.2-.03.15-.01.3.04.45.04.1.07.21.08.32.03.35-.21.56-.55.45-.15-.05-.3-.14-.44-.24-.3-.21-.64-.34-1.01-.35-.53-.01-.88-.29-1.17-.69-.15-.21-.09-.39.15-.5.21-.09.43-.11.65-.04.2.06.4.12.58.23.24.14.45.09.66-.03.32-.19.55-.46.7-.8.28-.66.77-1.09 1.41-1.39 1.46-.7 2.65.34 2.9 1.42.21.92.09 1.79-.34 2.62-.17.32-.38.61-.59.9-.27.37-.64.51-1.09.46-.49-.06-.99-.11-1.48-.17-.48-.07-.97-.07-1.45-.07-.6 0-.93.3-.99.89-.03.29.02.58.06.87.16 1.16-.19 2.12-1.15 2.8-.44.32-.79.69-1.03 1.17-.02.09-.07.19-.19.26z" id="path5"/><path class="st1" d="M143.69 72.28c-.47-.03-.89-.18-1.29-.41-.25-.14-.32-.3-.26-.5s.27-.33.53-.3c.34.04.63.2.87.43.18.16.31.38.58.44.09.02.11.14.02.19-.15.08-.27.21-.45.15z" id="path6"/><path class="st1" d="M122.92 62.01c-.04.85-.3 1.64-.85 2.32l-.1.13c-.09.11-.21.15-.33.08-.14-.08-.15-.23-.08-.37.08-.15.14-.3.18-.46.18-.67.15-1.34.07-2.02-.04-.34-.09-.69-.1-1.03-.02-.4.23-.55.59-.39.22.1.34.28.42.49.15.4.2.82.2 1.25z" id="path7"/><path class="st1" d="M128.31 68.07c.05-.22.15-.35.37-.4.81-.18 1.62-.35 2.46-.3.46.03.9.14 1.32.31.59.24.96.69 1.2 1.25.08.2 0 .54-.17.63-.11.06-.21.04-.27-.09-.01-.03-.01-.05-.01-.08-.15-.89-.45-1.22-1.37-1.31-1.1-.11-2.21-.17-3.31-.02-.06.01-.13.01-.22.01z" id="path8"/><path class="st1" d="M132.08 65.07c-.81-.03-1.53.12-2.26.16-.25.01-.49.04-.74.05-.18.01-.38.05-.43-.19-.03-.14.22-.38.4-.41.3-.05.6-.1.9-.12.77-.05 1.55-.03 2.3.2.07.02.13.04.2.07.1.04.25.06.22.2-.04.14-.18.08-.28.07-.14-.01-.26-.03-.31-.03z" id="path9"/><path class="st1" d="M153.93 80.57c.1-.01.19-.02.24.1.04.1-.02.16-.08.21-.15.14-.3.29-.46.42-.13.11-.29.04-.28-.13.03-.42.03-.58.58-.6z" id="path10"/><path class="st1" d="M118.2 109.17c-.05 1.61-.19 3.21-.62 4.77-.37 1.35-.94 2.6-1.92 3.63-.43.45-.92.78-1.56.89-.59.1-1.13-.03-1.64-.32-.53-.31-.96-.73-1.21-1.28-.78-1.7-1.45-3.44-1.8-5.29-.4-2.15-.26-4.24.52-6.29.49-1.29.96-2.59 1.56-3.84.23-.48.5-.93.86-1.32a2.58 2.58 0 0 1 4.01.28c.22.32.39.67.52 1.04.77 2.18 1.21 4.43 1.27 6.75 0 .17.02.33.02.5 0 .14-.01.31-.01.48zm-5.02-6c-.06.1-.08.15-.1.2-.48 1.1-.92 2.22-1.25 3.38-.36 1.28-.51 2.59-.24 3.9.24 1.19.53 2.37.92 3.53.19.55.42 1.08.74 1.57.05.07.07.19.2.17 1.37-2.99 1.62-8.24-.27-12.75z" id="path11"/><path class="st1" d="m229.46 109.81.12-7.44c0-.25.01-.5.08-.74.16-.59.56-.93 1.17-.92 1.71.04 3.14.69 4.13 2.1 1.2 1.71 1.92 3.61 2.1 5.7.32 3.55-.94 6.51-3.38 9.02-.33.34-.74.59-1.17.77-.46.2-.92.39-1.39.55-.96.33-1.77-.25-1.79-1.27-.01-.39.01-.78.02-1.16.04-2.21.08-4.41.11-6.61zm2.18 5.99c.2-.14.29-.31.39-.45 1.33-1.99 1.72-4.16 1.24-6.49-.22-1.05-.56-2.05-1.16-2.95-.08-.11-.13-.27-.3-.3-.06 3.38-.12 6.75-.17 10.19z" id="path12"/><path class="st1" d="M209.39 103.91c.04.07.08.11.1.16.4 1.22.89 2.41 1.12 3.68.23 1.29.53 2.57.79 3.86.02.09.05.19.06.28.12 1.03-.39 1.64-1.42 1.72-.61.04-1.21.14-1.81.25-.23.04-.47.06-.7.05-.7-.03-1.15-.51-1.14-1.21 0-.2.06-.38.1-.57.47-1.76.95-3.52 1.42-5.28.05-.17.09-.35.17-.51.43-.81.86-1.61 1.31-2.43zm-.99 5.53h-.07c-.23.96-.47 1.92-.7 2.88-.03.11.03.15.14.14.46-.05.93-.1 1.42-.15-.26-.97-.52-1.92-.79-2.87z" id="path13"/></g></g></g></svg>