<?xml version="1.0" encoding="UTF-8" standalone="no"?>
<!-- Generator: Adobe Illustrator 24.0.0, SVG Export Plug-In . SVG Version: 6.00 Build 0)  -->

<svg
   version="1.1"
   id="Capa_1"
   x="0px"
   y="0px"
   viewBox="0 0 44.88 43.45"
   style="enable-background:new 0 0 44.88 43.45;"
   xml:space="preserve"
   sodipodi:docname="f91fcf4d-f849-461b-af94-58a591584818.svgz"
   xmlns:inkscape="http://www.inkscape.org/namespaces/inkscape"
   xmlns:sodipodi="http://sodipodi.sourceforge.net/DTD/sodipodi-0.dtd"
   xmlns="http://www.w3.org/2000/svg"
   xmlns:svg="http://www.w3.org/2000/svg"><defs
   id="defs1" /><sodipodi:namedview
   id="namedview1"
   pagecolor="#ffffff"
   bordercolor="#000000"
   borderopacity="0.25"
   inkscape:showpageshadow="2"
   inkscape:pageopacity="0.0"
   inkscape:pagecheckerboard="0"
   inkscape:deskcolor="#d1d1d1" />
<style
   type="text/css"
   id="style1">
	.st0{opacity:0.48;}
	.st1{fill:none;stroke:#13B8AF;stroke-linecap:round;stroke-linejoin:round;stroke-miterlimit:10;}
</style>
<g
   id="NSVS4a_2_"
   class="st0">
	<g
   id="g1">
		<path
   class="st1"
   d="M18.57,28.84c0.23-0.53,0.44-1.07,0.69-1.57c0.23-0.46,0.5-0.89,0.77-1.33c0.15-0.25,0.37-0.27,0.53-0.1    c0.17,0.18,0.18,0.45,0.01,0.69c-0.91,1.34-1.5,2.89-1.82,4.6c-0.11,0.58-0.17,1.17-0.09,1.77c0.01,0.1,0.03,0.2,0.06,0.29    c0.12,0.37,0.35,0.51,0.62,0.31c0.31-0.23,0.62-0.49,0.87-0.81c0.74-0.94,1.26-2.07,1.64-3.29c0.17-0.54,0.28-1.11,0.41-1.67    c0.07-0.3,0.22-0.46,0.43-0.41c0.21,0.04,0.33,0.27,0.28,0.58c-0.14,0.97-0.42,1.88-0.76,2.76c-0.02,0.06-0.05,0.12-0.09,0.22    c2.22,0.71,4.43,0.71,6.61,0.01c-0.22-0.72-0.43-1.42-0.63-2.12c-0.08-0.27-0.12-0.56-0.17-0.85c-0.05-0.32,0.06-0.55,0.27-0.6    c0.18-0.04,0.39,0.12,0.44,0.43c0.32,1.88,0.99,3.54,2.04,4.95c0.21,0.29,0.48,0.53,0.75,0.74c0.38,0.3,0.66,0.14,0.77-0.41    c0.13-0.65,0.05-1.29-0.07-1.92c-0.31-1.69-0.9-3.22-1.8-4.55c-0.17-0.25-0.17-0.52,0-0.7c0.17-0.18,0.37-0.15,0.55,0.1    c0.58,0.82,1.01,1.75,1.37,2.73c0.02,0.05,0.04,0.1,0.06,0.15c0.02,0,0.04,0,0.06-0.01c1.58-1.37,2.8-3.1,3.41-5.4    c0.73-2.75,0.45-5.38-0.76-7.85c-0.06-0.12-0.1-0.29-0.09-0.43c0.01-0.19,0.13-0.31,0.28-0.35c0.17-0.04,0.31,0.05,0.39,0.23    c0.2,0.46,0.42,0.91,0.59,1.38c0.62,1.74,0.84,3.55,0.63,5.44c-0.11,1.05-0.35,2.06-0.73,3.01c-0.07,0.19-0.07,0.32,0.02,0.5    c0.52,0.99,0.95,2.04,1.17,3.2c0.09,0.44,0.13,0.9,0.05,1.35c-0.14,0.91-0.77,1.37-1.53,1.13c-0.56-0.18-1.03-0.58-1.47-1.04    c-0.31-0.32-0.59-0.68-0.89-1.03c-0.28,0.25-0.56,0.51-0.84,0.76c0.1,0.52,0.23,1.04,0.3,1.57c0.1,0.72,0.15,1.45-0.05,2.17    c-0.15,0.53-0.42,0.91-0.88,0.97c-0.24,0.03-0.51-0.02-0.74-0.12c-0.57-0.27-0.99-0.8-1.37-1.37c-0.23-0.34-0.43-0.71-0.63-1.08    c-0.07-0.13-0.12-0.17-0.25-0.12c-1.68,0.56-3.39,0.72-5.12,0.46c-0.65-0.1-1.3-0.29-1.94-0.46c-0.13-0.03-0.19-0.02-0.27,0.13    c-0.4,0.78-0.85,1.52-1.47,2.06c-0.2,0.17-0.42,0.33-0.65,0.43c-0.72,0.32-1.34-0.1-1.54-1.03c-0.16-0.75-0.1-1.5,0.02-2.24    c0.06-0.4,0.17-0.79,0.24-1.18c0.01-0.07,0.01-0.18-0.03-0.21c-0.26-0.25-0.53-0.48-0.8-0.72c-0.15,0.19-0.3,0.38-0.46,0.56    c-0.4,0.48-0.83,0.92-1.33,1.23c-0.17,0.1-0.35,0.19-0.53,0.26c-0.88,0.3-1.56-0.34-1.58-1.48c-0.02-0.72,0.12-1.41,0.37-2.06    c0.28-0.75,0.61-1.47,0.93-2.2c0.05-0.11,0.07-0.19,0.02-0.31c-1.14-3-1.13-6,0.02-9c0.12-0.32,0.27-0.62,0.42-0.93    c0.13-0.26,0.34-0.34,0.52-0.2c0.19,0.14,0.23,0.41,0.1,0.68c-0.5,1.01-0.87,2.09-1.04,3.26c-0.37,2.51,0.05,4.82,1.18,6.94    c0.64,1.2,1.46,2.19,2.4,3.02C18.48,28.78,18.53,28.81,18.57,28.84z M34.06,28.39c0.04,0.06,0.11,0.16,0.19,0.25    c0.47,0.59,0.96,1.14,1.59,1.43c0.58,0.27,0.87,0.02,0.81-0.74c-0.04-0.5-0.16-0.99-0.29-1.47c-0.18-0.65-0.45-1.26-0.73-1.8    C35.1,26.84,34.59,27.61,34.06,28.39z M15.29,26.08c0.01-0.01-0.02,0.02-0.03,0.05c-0.26,0.67-0.56,1.32-0.77,2.01    c-0.14,0.44-0.19,0.94-0.2,1.42c-0.02,0.51,0.24,0.75,0.63,0.58c0.35-0.16,0.68-0.39,0.99-0.64c0.37-0.31,0.69-0.71,0.95-1.09    C16.32,27.61,15.8,26.84,15.29,26.08z M11.83,12.27c0,0,2,3,13,3s13-2,13-2"
   id="path1" />
	</g>
</g>
</svg>
