<?xml version="1.0" encoding="UTF-8" standalone="no"?>
<!-- Generator: Adobe Illustrator 24.0.0, SVG Export Plug-In . SVG Version: 6.00 Build 0)  -->

<svg
   version="1.1"
   id="Capa_1"
   x="0px"
   y="0px"
   viewBox="0 0 44.88 43.45"
   style="enable-background:new 0 0 44.88 43.45;"
   xml:space="preserve"
   sodipodi:docname="63a8c171-4275-45b9-aa1f-08578e716c98.svgz"
   xmlns:inkscape="http://www.inkscape.org/namespaces/inkscape"
   xmlns:sodipodi="http://sodipodi.sourceforge.net/DTD/sodipodi-0.dtd"
   xmlns="http://www.w3.org/2000/svg"
   xmlns:svg="http://www.w3.org/2000/svg"><defs
   id="defs163" /><sodipodi:namedview
   id="namedview163"
   pagecolor="#ffffff"
   bordercolor="#000000"
   borderopacity="0.25"
   inkscape:showpageshadow="2"
   inkscape:pageopacity="0.0"
   inkscape:pagecheckerboard="0"
   inkscape:deskcolor="#d1d1d1" />
<style
   type="text/css"
   id="style1">
	.st0{opacity:0.46;}
	.st1{fill:#13B8AF;}
</style>
<g
   id="SgzJHo_2_"
   class="st0">
	<g
   id="g163">
		<g
   id="g162">
			<path
   class="st1"
   d="M28.01,19.1c0.02-0.02,0.04-0.04,0.06-0.05c0.23,0,0.25-0.21,0.37-0.33c0,0,0,0,0,0     c0.33-0.05,0.47-0.34,0.66-0.56c0.06-0.07,0.13-0.13,0.19-0.2c0.09-0.02,0.18-0.04,0.18-0.16c0,0,0,0,0,0c0.05,0,0.1,0,0.1-0.07     c0,0,0,0,0,0c0.14-0.02,0.24-0.14,0.31-0.24c0.07-0.1,0.22-0.28-0.02-0.39c0,0,0,0,0,0c-0.05-0.11-0.13-0.19-0.24-0.16     c-0.22,0.06-0.45,0.09-0.6,0.28c0,0,0,0,0,0c-0.22,0.01-0.38,0.14-0.5,0.31c0,0-0.02,0.01-0.02,0.01     c-0.08,0.01-0.16,0.02-0.18,0.12l-0.01-0.02c0,0,0.01,0.02,0.01,0.02c-0.09-0.03-0.15,0.01-0.17,0.1c0,0,0,0,0,0     c-0.11-0.01-0.21,0.02-0.23,0.15l-0.01,0.01c0,0-0.01,0-0.01,0c-0.09-0.02-0.17,0-0.18,0.11l-0.01-0.01c0,0,0.01,0.01,0.01,0.01     c-0.04-0.01-0.06,0.01-0.07,0.04c0,0,0,0,0,0c-0.09,0.01-0.18,0.01-0.2,0.13l-0.02,0c0,0,0.02,0,0.02,0     c-0.08,0-0.15,0.01-0.17,0.11l-0.01-0.02c0,0,0.01,0.02,0.01,0.02c-0.09-0.03-0.15,0.01-0.17,0.11c0,0,0,0,0,0     c-0.02,0.02-0.04,0.03-0.07,0.05c0,0,0,0,0,0c-0.08-0.01-0.16-0.01-0.17,0.11c0,0.01-0.01,0.02-0.02,0.01     c-0.13-0.01-0.23,0.04-0.28,0.17c0,0,0,0,0,0c-0.08,0-0.15,0.01-0.16,0.11l-0.02,0c0,0,0.02,0,0.02,0     c-0.08,0-0.15,0.01-0.17,0.11l-0.01-0.01c0,0,0.01,0.01,0.01,0.01c-0.18,0.02-0.34,0.05-0.4,0.25c0,0.01-0.01,0.02-0.02,0.01     c-0.13-0.03-0.19,0.05-0.24,0.15c0,0,0,0,0,0c-0.08-0.01-0.14,0.03-0.17,0.11l0,0c-0.19,0.02-0.35,0.09-0.43,0.28     c0,0-0.02,0.01-0.02,0.01c-0.09-0.02-0.17,0-0.18,0.11c0,0,0,0,0,0c-0.12-0.02-0.21,0.01-0.23,0.15c0,0,0,0,0,0     c-0.09,0.01-0.18,0.02-0.21,0.13c0,0,0-0.01,0-0.01c-0.16,0.06-0.38,0.03-0.43,0.27c0,0,0,0,0,0c-0.1-0.03-0.16,0-0.16,0.11     c0,0,0,0,0,0c-0.13-0.04-0.18,0.05-0.23,0.14c0,0,0,0,0,0c-0.18,0.05-0.39,0.07-0.46,0.29c0,0-0.01,0-0.01,0     c-0.1-0.04-0.16-0.01-0.16,0.1c0,0,0,0,0,0c-0.1-0.03-0.15,0-0.17,0.1l-0.02-0.02c0,0,0.02,0.02,0.02,0.02     c-0.19-0.01-0.33,0.06-0.4,0.25l-0.01,0.01c0,0-0.01,0-0.01,0c-0.12,0.01-0.25,0.01-0.27,0.18c0,0,0,0,0,0     c-0.08-0.04-0.12,0-0.13,0.08l0,0c-0.14,0-0.25,0.05-0.3,0.19l0-0.01c0,0,0,0.01,0,0.01c-0.08-0.01-0.15,0.01-0.17,0.1     l-0.01-0.02c0,0,0.01,0.02,0.01,0.02c-0.08-0.03-0.12,0-0.13,0.08c-0.01,0.01-0.01,0.02-0.03,0.01     c-0.13-0.02-0.23-0.01-0.24,0.16c0,0,0,0,0,0c-0.1,0-0.19-0.01-0.2,0.13l-0.02-0.02c0,0,0.02,0.02,0.02,0.02     c-0.13-0.04-0.18,0.05-0.23,0.14c0,0,0,0,0,0c-0.09,0.01-0.18,0.02-0.2,0.13l-0.01-0.02c0,0,0.01,0.02,0.01,0.02     c-0.12-0.02-0.21,0.01-0.23,0.15c0,0,0,0,0,0c-0.08-0.01-0.16-0.01-0.17,0.11c0,0,0,0,0,0c-0.1,0-0.19-0.01-0.2,0.13l-0.01-0.01     c0,0,0.01,0,0.01,0c-0.04-0.01-0.06,0.01-0.07,0.04c0,0,0,0,0,0c-0.09,0.01-0.18,0.01-0.2,0.13c0,0,0,0,0,0     c-0.08,0-0.15,0.01-0.17,0.11l-0.01-0.02c0,0,0.01,0.02,0.01,0.02c-0.09-0.03-0.15,0.01-0.17,0.11l-0.01-0.01     c0,0,0.01,0.01,0.01,0.01c-0.13-0.01-0.28-0.06-0.26,0.17c0,0,0,0,0,0c-0.13-0.04-0.18,0.05-0.23,0.14c0,0,0,0,0,0     c-0.09-0.01-0.14,0.03-0.17,0.11c0,0-0.02,0.01-0.02,0.01c-0.28,0.01-0.45,0.18-0.61,0.39l-0.01-0.02c0,0,0.01,0.02,0.01,0.02     c-0.2,0.01-0.32,0.12-0.43,0.27c0,0,0,0,0,0c-0.08,0-0.15,0.02-0.17,0.11l-0.01-0.02c0,0,0.01,0.02,0.01,0.01     c-0.09-0.03-0.15,0.01-0.17,0.1c0,0,0,0,0,0c-0.02,0.02-0.04,0.03-0.07,0.05c0,0,0,0,0,0c-0.1,0-0.19-0.01-0.2,0.13l-0.02-0.02     c0,0,0.02,0.02,0.02,0.02c-0.23,0.07-0.46,0.15-0.6,0.38l-0.01-0.01c0,0,0.01,0.01,0.01,0.01c-0.13-0.03-0.18,0.06-0.23,0.15     c0,0-0.02,0.01-0.02,0.01c-0.2,0.02-0.34,0.12-0.45,0.28c0,0,0,0,0,0c-0.23,0.05-0.44,0.14-0.56,0.36c0,0.01-0.01,0.01-0.02,0.01     c-0.26,0.1-0.51,0.01-0.76-0.06c-0.45-0.13-0.9-0.28-1.34-0.42c-1.17-0.37-2.35-0.74-3.52-1.1c-0.42-0.13-0.82-0.3-1.25-0.38     c0,0,0,0,0,0c-0.01-0.14-0.1-0.17-0.22-0.16c0,0,0,0,0,0c0-0.07-0.03-0.11-0.11-0.11c0,0,0,0,0,0c-0.08-0.24-0.05-0.48,0.02-0.72     c0,0,0.01-0.01,0.01-0.01c0.14,0.04,0.13-0.06,0.13-0.14c0,0,0,0,0,0c0.02-0.02,0.04-0.04,0.06-0.06c0,0,0,0,0,0     c0.14,0.03,0.19-0.06,0.22-0.16c0,0,0,0,0,0c0.35-0.06,0.64-0.26,0.96-0.39c1.17-0.45,2.34-0.89,3.5-1.35     c0.84-0.33,1.69-0.65,2.53-0.97c1.02-0.38,2.02-0.8,3.05-1.17c0.89-0.32,1.75-0.68,2.63-1.02c0.88-0.33,1.76-0.65,2.63-0.99     c1.02-0.39,2.03-0.81,3.05-1.21c1.1-0.43,2.2-0.84,3.3-1.26c0.91-0.35,1.84-0.68,2.73-1.07c0.31-0.14,0.65-0.2,0.99-0.17     c0.53,0.05,0.87,0.53,0.9,1.1c0.03,0.55-0.15,1.07-0.26,1.6c-0.16,0.75-0.3,1.5-0.48,2.25c-0.2,0.81-0.33,1.64-0.51,2.46     c-0.12,0.54-0.24,1.08-0.35,1.62c-0.12,0.62-0.27,1.23-0.37,1.86c-0.13,0.77-0.34,1.53-0.5,2.3c-0.22,1.03-0.42,2.06-0.64,3.09     c-0.1,0.49-0.23,0.99-0.32,1.48c-0.11,0.61-0.23,1.23-0.37,1.83c-0.16,0.74-0.24,1.51-0.56,2.22c-0.01,0.02,0,0.05,0,0.08     c0,0.01,0,0.02-0.02,0.03c-0.07,0.01-0.11,0.05-0.09,0.12c0,0,0,0,0,0c-0.07,0.01-0.1,0.05-0.11,0.11c0,0,0,0,0,0     c-0.55,0.3-1.08,0.28-1.61-0.04c-0.04-0.02-0.1-0.01-0.16-0.01c-0.01,0-0.02,0-0.02-0.01c-0.19-0.29-0.48-0.44-0.78-0.57     c0,0,0,0,0,0c-0.02-0.12-0.08-0.19-0.22-0.16l0.02-0.01c0,0-0.02,0.01-0.02,0.01c0-0.11-0.06-0.13-0.16-0.12l0.01-0.01     c0,0-0.01,0.02-0.01,0.02c0-0.04-0.02-0.06-0.06-0.05l0.02-0.01c0,0-0.02,0.01-0.02,0.01c-0.01-0.1-0.09-0.1-0.16-0.12     c0,0,0,0,0,0c-0.03-0.12-0.09-0.19-0.22-0.16l0.01-0.02c0,0-0.01,0.02-0.01,0.02c-0.02-0.14-0.13-0.15-0.23-0.17     c0,0-0.02-0.01-0.02-0.01c-0.21-0.25-0.43-0.5-0.77-0.57c-0.01-0.13-0.11-0.15-0.22-0.16l0.02,0c0,0-0.02,0-0.02,0     c-0.02-0.15-0.12-0.19-0.25-0.18c0,0,0,0,0,0c-0.02-0.06-0.06-0.1-0.12-0.1c0,0,0,0,0,0c0-0.07-0.05-0.07-0.1-0.07c0,0,0,0,0,0     c-0.03-0.19-0.18-0.24-0.34-0.26l0.01-0.02c0,0-0.01,0.02-0.01,0.02c-0.02-0.15-0.14-0.16-0.26-0.18c0,0,0,0,0,0     c-0.06-0.16-0.14-0.29-0.34-0.25l0.01-0.01c0,0-0.01,0.01-0.01,0.01c0-0.11-0.07-0.13-0.16-0.12l0.02-0.01     c0,0-0.02,0.01-0.02,0.01c-0.02-0.16-0.12-0.22-0.28-0.2c0,0,0,0,0,0c0-0.11-0.06-0.13-0.15-0.11l0.01-0.02     c0,0-0.01,0.02-0.01,0.02c-0.02-0.13-0.12-0.15-0.22-0.16c0,0,0,0,0,0c-0.1-0.19-0.25-0.31-0.47-0.34     c-0.02-0.01-0.03-0.02-0.05-0.03c-0.01-0.04-0.03-0.07-0.08-0.06c0,0,0,0,0,0c-0.19-0.31-0.48-0.48-0.81-0.6l0.01-0.02     c0,0-0.01,0.02-0.01,0.02c-0.06-0.17-0.21-0.23-0.37-0.28c0,0,0,0,0,0c0-0.04-0.02-0.05-0.06-0.05l0.01-0.01     c0,0-0.01,0.01-0.01,0.01c-0.02-0.13-0.11-0.15-0.22-0.16l0-0.01c0,0,0,0.01,0,0.01c-0.01-0.11-0.09-0.11-0.16-0.12     c-0.01,0-0.02,0-0.03-0.02c-0.02-0.11-0.06-0.17-0.18-0.13l0.02-0.01c0,0-0.02,0.01-0.02,0.01c-0.01-0.13-0.12-0.15-0.22-0.16     l0.01-0.01c0,0-0.01,0.01-0.01,0.01c0-0.11-0.07-0.13-0.16-0.12c0,0,0,0,0,0c-0.01-0.06-0.05-0.07-0.1-0.07l0,0     c0-0.08-0.05-0.11-0.12-0.09l0.01-0.02c0,0-0.01,0.02-0.01,0.02c-0.02-0.13-0.12-0.15-0.22-0.16c0,0,0,0,0,0     c-0.01-0.1-0.07-0.13-0.16-0.12c0,0,0,0,0,0c0-0.04-0.02-0.05-0.06-0.05l0.02-0.01c0,0-0.02,0.01-0.02,0.01     c-0.01-0.13-0.12-0.15-0.22-0.16l0.02,0c0,0-0.02,0-0.02,0c0.01-0.06-0.03-0.1-0.07-0.14c-0.19-0.15-0.42-0.26-0.59-0.44     c-0.04-0.04-0.1-0.04-0.15-0.02l0.02-0.01c0,0-0.02,0.01-0.02,0.01c-0.04-0.12-0.14-0.17-0.25-0.18l0,0     c-0.06-0.12,0.04-0.22,0.06-0.33c0,0,0,0,0,0c0.26-0.04,0.4-0.21,0.49-0.44c0.02-0.02,0.03-0.03,0.05-0.05     c0.05,0,0.1-0.01,0.09-0.07l0.01,0.01c0,0-0.01-0.01-0.01-0.01c0.04,0,0.06-0.01,0.05-0.05c0.04,0,0.06-0.01,0.06-0.05     c0,0,0,0,0,0c0.14-0.04,0.22-0.15,0.29-0.26c0.02-0.02,0.04-0.03,0.05-0.05c0.05,0,0.09-0.01,0.09-0.08l0.02,0.01     c0,0-0.02-0.01-0.02-0.01c0.04,0.01,0.06-0.01,0.06-0.05l0.01,0.01c0,0-0.01-0.01-0.01-0.01c0.07,0,0.11-0.04,0.12-0.11     c0,0,0,0,0,0c0.15-0.05,0.28-0.11,0.31-0.28c0,0,0,0,0,0c0.04,0.01,0.06-0.01,0.06-0.05l0.02,0c0,0-0.02-0.01-0.02-0.01     c0.23-0.01,0.32-0.17,0.4-0.36c0,0,0,0,0,0c0.2,0,0.3-0.11,0.33-0.3c0,0,0.01-0.01,0.01-0.01c0.11-0.01,0.19-0.04,0.2-0.17l0,0     c0.05,0,0.1-0.01,0.09-0.08l0.02,0c0,0-0.02,0-0.02,0c0.04,0.01,0.06-0.01,0.06-0.05l0.02,0.01c0,0-0.02-0.01-0.02-0.01     c0.04,0,0.06-0.01,0.06-0.05l0.01,0.01c0,0-0.01-0.01-0.01-0.01c0.04,0,0.06-0.02,0.06-0.05c0,0,0,0,0,0     c0.35-0.19,0.66-0.41,0.85-0.77c0,0,0,0,0,0c0.04,0.01,0.06-0.01,0.06-0.05l0.01,0c0,0-0.01,0-0.01,0     c0.23-0.02,0.31-0.19,0.4-0.36c0,0,0,0,0,0c0.02-0.02,0.04-0.03,0.06-0.05c0-0.01,0.01-0.02,0.02-0.02     c0.04,0,0.07-0.02,0.07-0.06l0,0.02c0,0-0.01-0.02-0.01-0.02c0.21-0.04,0.33-0.17,0.4-0.36c0.02-0.02,0.04-0.03,0.06-0.05     c0.05,0,0.09-0.01,0.09-0.08l0.01,0.01c0,0-0.01-0.01-0.01-0.01c0.04,0,0.06-0.01,0.06-0.05c0,0,0,0,0,0     c0.04,0,0.06-0.02,0.06-0.05c0,0,0,0,0,0c0.17,0,0.25-0.11,0.28-0.26c0,0,0,0,0,0c0.05,0,0.09-0.01,0.09-0.08c0,0,0,0,0,0     c0.04,0.01,0.06-0.01,0.06-0.05c0,0,0,0,0,0c0.36-0.2,0.67-0.44,0.88-0.8l0,0c0.24-0.02,0.36-0.17,0.43-0.38c0,0,0,0,0,0     c0.12,0,0.24,0,0.19-0.18c0,0,0.01,0,0.01,0c0.04,0.01,0.06-0.01,0.06-0.05l0.01,0c0,0-0.01,0-0.01,0c0.04,0,0.06-0.02,0.06-0.06     c0.01-0.01,0.03-0.03,0.04-0.04c0.12-0.08,0.28-0.11,0.32-0.29c0,0,0-0.01,0-0.01c0.29-0.03,0.39-0.28,0.54-0.48c0,0,0,0,0,0     c0.04,0.01,0.06-0.01,0.05-0.05l0.01,0.02c0,0-0.01-0.02-0.01-0.01c0.04,0.01,0.06-0.01,0.06-0.05c0,0,0,0,0,0     c0.15,0.02,0.22-0.07,0.22-0.21c0,0,0,0,0,0c0.08,0.01,0.12-0.02,0.12-0.1c0,0,0,0,0,0c0.05,0,0.1-0.01,0.08-0.08     c0,0,0.01,0,0.01,0c0.04,0.01,0.06,0,0.05-0.05l0.01,0.01c0,0-0.01-0.02-0.01-0.02c0.04,0.01,0.06-0.01,0.06-0.05l0.02,0.01     c0,0-0.02-0.01-0.02-0.01c0.04,0,0.06-0.01,0.06-0.05c0,0,0,0,0,0c0.07,0,0.11-0.04,0.11-0.11c0,0,0,0,0,0     c0.07,0,0.1-0.04,0.12-0.1c0.02-0.02,0.03-0.03,0.05-0.05c0.05,0,0.1-0.01,0.09-0.08c0,0.01,0.01,0.01,0.01,0.02     c-0.01,0-0.01-0.01-0.02-0.01c0.06,0.01,0.08-0.03,0.08-0.08l0,0C27.8,19.45,27.93,19.3,28.01,19.1z"
   id="path1" />
			<path
   class="st1"
   d="M30.16,34.99c0-0.03-0.01-0.06,0-0.08c0.32-0.7,0.4-1.47,0.56-2.22c0.13-0.61,0.25-1.22,0.37-1.83     c0.09-0.49,0.22-0.99,0.32-1.48c0.22-1.03,0.42-2.06,0.64-3.09c0.16-0.77,0.37-1.53,0.5-2.3c0.1-0.62,0.25-1.24,0.37-1.86     c0.11-0.54,0.23-1.08,0.35-1.62c0.18-0.82,0.31-1.65,0.51-2.46c0.19-0.75,0.32-1.5,0.48-2.25c0.11-0.53,0.29-1.05,0.26-1.6     c-0.03-0.56-0.37-1.05-0.9-1.1c-0.34-0.03-0.68,0.04-0.99,0.17c-0.9,0.39-1.82,0.72-2.73,1.07c-1.1,0.42-2.2,0.83-3.3,1.26     c-1.02,0.4-2.03,0.81-3.05,1.21c-0.87,0.34-1.76,0.66-2.63,0.99c-0.88,0.34-1.75,0.7-2.63,1.02c-1.03,0.37-2.03,0.79-3.05,1.17     c-0.85,0.32-1.69,0.64-2.53,0.97c-1.16,0.46-2.34,0.9-3.5,1.35c-0.32,0.13-0.62,0.33-0.96,0.39c0.31-0.27,0.69-0.37,1.06-0.51     c5.28-2.04,10.56-4.07,15.84-6.1c2.51-0.97,5.03-1.94,7.54-2.91c0.24-0.09,0.48-0.15,0.73-0.16c0.66-0.02,1.11,0.37,1.18,1.03     c0.03,0.28,0.02,0.56-0.04,0.83c-0.88,4.18-1.77,8.37-2.65,12.55c-0.47,2.23-0.93,4.47-1.4,6.7     C30.45,34.44,30.37,34.74,30.16,34.99z"
   id="path2" />
			<path
   class="st1"
   d="M8.15,24.05c0.43,0.08,0.84,0.25,1.25,0.38c1.18,0.36,2.35,0.73,3.52,1.1c0.45,0.14,0.89,0.29,1.34,0.42     c0.25,0.07,0.5,0.16,0.76,0.06c-0.14,0.16-0.3,0.17-0.5,0.11c-1.96-0.62-3.93-1.24-5.89-1.85C8.46,24.21,8.29,24.17,8.15,24.05z"
   id="path3" />
			<path
   class="st1"
   d="M28.18,35.19c0.05,0,0.12-0.01,0.16,0.01c0.53,0.32,1.07,0.34,1.61,0.04c-0.24,0.29-0.57,0.34-0.92,0.3     C28.72,35.5,28.43,35.4,28.18,35.19z"
   id="path4" />
			<path
   class="st1"
   d="M22.2,24.31c-0.2,0.35-0.51,0.58-0.85,0.77C21.61,24.79,21.9,24.54,22.2,24.31z"
   id="path5" />
			<path
   class="st1"
   d="M24.76,22.01c-0.21,0.36-0.53,0.6-0.88,0.8C24.15,22.51,24.45,22.25,24.76,22.01z"
   id="path6" />
			<path
   class="st1"
   d="M21.72,30.44c0.33,0.12,0.62,0.28,0.81,0.6C22.24,30.86,21.97,30.67,21.72,30.44z"
   id="path7" />
			<path
   class="st1"
   d="M18.65,28.18c0.05-0.03,0.11-0.02,0.15,0.02c0.17,0.18,0.4,0.29,0.59,0.44c0.04,0.03,0.08,0.07,0.07,0.14     C19.16,28.6,18.89,28.41,18.65,28.18z"
   id="path8" />
			<path
   class="st1"
   d="M25.55,33.26c0.35,0.07,0.56,0.32,0.78,0.57C26.05,33.66,25.79,33.47,25.55,33.26z"
   id="path9" />
			<path
   class="st1"
   d="M28.99,17.23c0.15-0.19,0.39-0.23,0.6-0.28c0.12-0.03,0.2,0.05,0.24,0.16C29.53,17,29.27,17.15,28.99,17.23z     "
   id="path10" />
			<path
   class="st1"
   d="M27.38,34.6c0.3,0.13,0.59,0.28,0.78,0.57C27.87,35.02,27.62,34.82,27.38,34.6z"
   id="path11" />
			<path
   class="st1"
   d="M29.09,18.16c-0.19,0.22-0.32,0.5-0.66,0.56C28.64,18.52,28.82,18.29,29.09,18.16z"
   id="path12" />
			<path
   class="st1"
   d="M26.41,20.53c-0.14,0.2-0.24,0.45-0.54,0.48C26.04,20.83,26.21,20.66,26.41,20.53z"
   id="path13" />
			<path
   class="st1"
   d="M17.93,24.19c0.15-0.21,0.32-0.38,0.61-0.39C18.36,23.96,18.15,24.09,17.93,24.19z"
   id="path14" />
			<path
   class="st1"
   d="M18.93,27.23c-0.09,0.22-0.23,0.4-0.49,0.44C18.59,27.51,18.75,27.35,18.93,27.23z"
   id="path15" />
			<path
   class="st1"
   d="M7.85,23.06c-0.07,0.24-0.11,0.48-0.02,0.72C7.64,23.52,7.65,23.34,7.85,23.06z"
   id="path16" />
			<path
   class="st1"
   d="M15.05,26c0.12-0.22,0.33-0.31,0.56-0.36C15.45,25.8,15.25,25.9,15.05,26z"
   id="path17" />
			<path
   class="st1"
   d="M16.31,25.21c0.14-0.22,0.36-0.3,0.6-0.38C16.72,24.99,16.52,25.11,16.31,25.21z"
   id="path18" />
			<path
   class="st1"
   d="M29.83,17.11c0.24,0.11,0.09,0.29,0.02,0.39c-0.07,0.1-0.16,0.21-0.31,0.24c0.08-0.09,0.16-0.17,0.23-0.26     C29.88,17.37,29.93,17.25,29.83,17.11z"
   id="path19" />
			<path
   class="st1"
   d="M25.19,21.63c-0.07,0.21-0.19,0.36-0.43,0.38C24.89,21.86,25.03,21.73,25.19,21.63z"
   id="path20" />
			<path
   class="st1"
   d="M22.65,31.13c0.22,0.03,0.37,0.15,0.47,0.34C22.94,31.39,22.79,31.27,22.65,31.13z"
   id="path21" />
			<path
   class="st1"
   d="M20.55,25.78c-0.07,0.18-0.17,0.34-0.4,0.36C20.27,26,20.4,25.87,20.55,25.78z"
   id="path22" />
			<path
   class="st1"
   d="M28.01,19.1c-0.08,0.19-0.2,0.34-0.43,0.38C27.7,19.34,27.84,19.2,28.01,19.1z"
   id="path23" />
			<path
   class="st1"
   d="M23.2,23.41c-0.06,0.2-0.19,0.32-0.4,0.36C22.91,23.63,23.04,23.5,23.2,23.41z"
   id="path24" />
			<path
   class="st1"
   d="M22.66,23.9c-0.09,0.17-0.17,0.34-0.4,0.36C22.38,24.12,22.5,23.99,22.66,23.9z"
   id="path25" />
			<path
   class="st1"
   d="M28.49,17.54c0.12-0.17,0.28-0.3,0.5-0.31C28.84,17.36,28.67,17.46,28.49,17.54z"
   id="path26" />
			<path
   class="st1"
   d="M24.98,19.75c0.08-0.19,0.24-0.26,0.43-0.28C25.29,19.59,25.14,19.69,24.98,19.75z"
   id="path27" />
			<path
   class="st1"
   d="M23.07,20.96c0.07-0.23,0.28-0.24,0.46-0.29C23.4,20.79,23.23,20.88,23.07,20.96z"
   id="path28" />
			<path
   class="st1"
   d="M23.93,20.41c0.04-0.25,0.27-0.21,0.43-0.27C24.23,20.26,24.09,20.35,23.93,20.41z"
   id="path29" />
			<path
   class="st1"
   d="M23.93,32.07c0.2-0.04,0.28,0.09,0.34,0.25C24.14,32.26,24.03,32.18,23.93,32.07z"
   id="path30" />
			<path
   class="st1"
   d="M25.85,19.21c0.06-0.2,0.22-0.24,0.4-0.25C26.13,19.07,25.99,19.14,25.85,19.21z"
   id="path31" />
			<path
   class="st1"
   d="M18.45,27.67c-0.01,0.11-0.12,0.21-0.06,0.33C18.04,27.83,18.36,27.77,18.45,27.67z"
   id="path32" />
			<path
   class="st1"
   d="M22.34,21.42c0.07-0.19,0.2-0.26,0.4-0.25C22.62,21.27,22.48,21.36,22.34,21.42z"
   id="path33" />
			<path
   class="st1"
   d="M20.89,25.48c-0.03,0.19-0.13,0.3-0.33,0.3C20.64,25.66,20.76,25.57,20.89,25.48z"
   id="path34" />
			<path
   class="st1"
   d="M28.43,18.72c-0.12,0.12-0.14,0.34-0.37,0.33C28.17,18.92,28.29,18.8,28.43,18.72z"
   id="path35" />
			<path
   class="st1"
   d="M15.61,25.64c0.11-0.16,0.25-0.26,0.45-0.28C15.92,25.48,15.78,25.58,15.61,25.64z"
   id="path36" />
			<path
   class="st1"
   d="M17.5,24.46c0.11-0.15,0.24-0.26,0.43-0.27C17.8,24.3,17.66,24.4,17.5,24.46z"
   id="path37" />
			<path
   class="st1"
   d="M24.52,32.5c0.16,0.02,0.31,0.06,0.34,0.26C24.73,32.69,24.61,32.61,24.52,32.5z"
   id="path38" />
			<path
   class="st1"
   d="M21.35,30.17c0.16,0.04,0.31,0.1,0.37,0.28C21.58,30.37,21.45,30.29,21.35,30.17z"
   id="path39" />
			<path
   class="st1"
   d="M23.74,22.93c-0.04,0.15-0.11,0.26-0.28,0.26C23.53,23.08,23.62,22.98,23.74,22.93z"
   id="path40" />
			<path
   class="st1"
   d="M20.1,26.19c-0.03,0.18-0.16,0.24-0.31,0.28C19.87,26.36,19.97,26.26,20.1,26.19z"
   id="path41" />
			<path
   class="st1"
   d="M18.96,23.54c-0.02-0.23,0.13-0.18,0.26-0.17C19.15,23.45,19.06,23.51,18.96,23.54z"
   id="path42" />
			<path
   class="st1"
   d="M23.5,31.75c0.16-0.02,0.25,0.04,0.28,0.2C23.66,31.91,23.57,31.84,23.5,31.75z"
   id="path43" />
			<path
   class="st1"
   d="M25.87,21.02c-0.04,0.17-0.2,0.21-0.32,0.29C25.64,21.18,25.74,21.09,25.87,21.02z"
   id="path44" />
			<path
   class="st1"
   d="M26.75,20.22c-0.01,0.14-0.07,0.23-0.22,0.21C26.58,20.34,26.66,20.27,26.75,20.22z"
   id="path45" />
			<path
   class="st1"
   d="M25.08,32.91c0.13-0.01,0.23,0.03,0.25,0.18C25.22,33.07,25.15,32.99,25.08,32.91z"
   id="path46" />
			<path
   class="st1"
   d="M22.04,21.6c0.02-0.17,0.15-0.17,0.27-0.18C22.24,21.52,22.14,21.56,22.04,21.6z"
   id="path47" />
			<path
   class="st1"
   d="M21.61,21.88c0.05-0.14,0.16-0.19,0.3-0.19C21.83,21.78,21.72,21.83,21.61,21.88z"
   id="path48" />
			<path
   class="st1"
   d="M19.47,26.75c-0.07,0.11-0.15,0.22-0.29,0.26C19.26,26.9,19.35,26.81,19.47,26.75z"
   id="path49" />
			<path
   class="st1"
   d="M21.09,25.3c0,0.13-0.09,0.16-0.2,0.17C20.95,25.39,21.01,25.33,21.09,25.3z"
   id="path50" />
			<path
   class="st1"
   d="M24.55,20.02c0.02-0.14,0.11-0.16,0.23-0.15C24.72,19.95,24.65,20,24.55,20.02z"
   id="path51" />
			<path
   class="st1"
   d="M27.17,34.45c0.13-0.03,0.19,0.04,0.22,0.16C27.29,34.58,27.22,34.52,27.17,34.45z"
   id="path52" />
			<path
   class="st1"
   d="M26.57,18.75c0.05-0.13,0.14-0.18,0.28-0.17C26.78,18.66,26.68,18.71,26.57,18.75z"
   id="path53" />
			<path
   class="st1"
   d="M27.9,17.92c0.02-0.13,0.12-0.16,0.23-0.15C28.07,17.85,27.99,17.89,27.9,17.92z"
   id="path54" />
			<path
   class="st1"
   d="M7.93,23.89c0.12-0.01,0.21,0.02,0.22,0.16C8.05,24.03,7.98,23.97,7.93,23.89z"
   id="path55" />
			<path
   class="st1"
   d="M20.18,22.77c0.02-0.14,0.11-0.16,0.23-0.15C20.35,22.7,20.28,22.75,20.18,22.77z"
   id="path56" />
			<path
   class="st1"
   d="M21.05,22.23c0.01-0.16,0.11-0.18,0.24-0.16C21.22,22.15,21.14,22.2,21.05,22.23z"
   id="path57" />
			<path
   class="st1"
   d="M26.57,34.01c0.13-0.03,0.19,0.04,0.22,0.16C26.7,34.14,26.63,34.09,26.57,34.01z"
   id="path58" />
			<path
   class="st1"
   d="M25.38,21.45c0.05,0.18-0.07,0.18-0.19,0.18C25.24,21.55,25.3,21.49,25.38,21.45z"
   id="path59" />
			<path
   class="st1"
   d="M24.27,32.32c0.11,0.02,0.23,0.03,0.26,0.18C24.42,32.47,24.34,32.4,24.27,32.32z"
   id="path60" />
			<path
   class="st1"
   d="M20.61,22.5c0.05-0.09,0.1-0.18,0.23-0.14C20.78,22.43,20.71,22.48,20.61,22.5z"
   id="path61" />
			<path
   class="st1"
   d="M20.7,29.69c0.12-0.03,0.17,0.03,0.18,0.13C20.8,29.81,20.74,29.76,20.7,29.69z"
   id="path62" />
			<path
   class="st1"
   d="M20.48,29.53c0.1,0.02,0.21,0.03,0.22,0.16C20.61,29.66,20.53,29.61,20.48,29.53z"
   id="path63" />
			<path
   class="st1"
   d="M19.89,29.09c0.1,0.02,0.2,0.03,0.22,0.16C20.01,29.23,19.94,29.17,19.89,29.09z"
   id="path64" />
			<path
   class="st1"
   d="M8.25,22.69c-0.03,0.11-0.08,0.19-0.22,0.16C8.09,22.78,8.16,22.72,8.25,22.69z"
   id="path65" />
			<path
   class="st1"
   d="M16.08,25.36c0.05-0.09,0.1-0.18,0.23-0.15C16.25,25.29,16.17,25.33,16.08,25.36z"
   id="path66" />
			<path
   class="st1"
   d="M26.34,33.84c0.1,0.02,0.21,0.03,0.23,0.17C26.48,33.98,26.4,33.92,26.34,33.84z"
   id="path67" />
			<path
   class="st1"
   d="M21.07,29.97c0.11,0,0.2,0.03,0.22,0.16C21.2,30.1,21.13,30.04,21.07,29.97z"
   id="path68" />
			<path
   class="st1"
   d="M25.58,19.37c0.05-0.1,0.11-0.18,0.24-0.15C25.76,19.3,25.68,19.35,25.58,19.37z"
   id="path69" />
			<path
   class="st1"
   d="M18.73,23.69c0.05-0.09,0.1-0.18,0.23-0.14C18.89,23.61,18.82,23.67,18.73,23.69z"
   id="path70" />
			<path
   class="st1"
   d="M25.33,33.09c0.1,0.01,0.2,0.03,0.22,0.16C25.46,33.23,25.38,33.17,25.33,33.09z"
   id="path71" />
			<path
   class="st1"
   d="M19.45,28.77c0.1,0.01,0.21,0.03,0.22,0.16C19.58,28.91,19.51,28.86,19.45,28.77z"
   id="path72" />
			<path
   class="st1"
   d="M23.53,20.67c0.05-0.09,0.1-0.18,0.23-0.14C23.7,20.6,23.62,20.64,23.53,20.67z"
   id="path73" />
			<path
   class="st1"
   d="M23.12,31.47c0.1,0.02,0.2,0.03,0.22,0.16C23.25,31.6,23.17,31.55,23.12,31.47z"
   id="path74" />
			<path
   class="st1"
   d="M18.39,28c0.12,0.02,0.21,0.07,0.25,0.18C18.54,28.15,18.46,28.08,18.39,28z"
   id="path75" />
			<path
   class="st1"
   d="M16.9,24.83c0.01-0.13,0.11-0.13,0.2-0.13C17.05,24.77,16.99,24.81,16.9,24.83z"
   id="path76" />
			<path
   class="st1"
   d="M20.85,22.36c0.01-0.14,0.11-0.13,0.2-0.13C21,22.3,20.93,22.33,20.85,22.36z"
   id="path77" />
			<path
   class="st1"
   d="M19.82,23c0.01-0.13,0.11-0.13,0.2-0.13C19.97,22.94,19.9,22.98,19.82,23z"
   id="path78" />
			<path
   class="st1"
   d="M7.98,22.91c0,0.09,0.02,0.18-0.13,0.14C7.88,22.98,7.91,22.93,7.98,22.91z"
   id="path79" />
			<path
   class="st1"
   d="M29.46,17.8c0,0.12-0.09,0.14-0.18,0.16C29.32,17.89,29.38,17.83,29.46,17.8z"
   id="path80" />
			<path
   class="st1"
   d="M27.43,18.21c0.02-0.12,0.11-0.12,0.2-0.13C27.59,18.15,27.52,18.19,27.43,18.21z"
   id="path81" />
			<path
   class="st1"
   d="M19.22,23.37c0.02-0.1,0.07-0.13,0.17-0.11C19.35,23.33,19.29,23.36,19.22,23.37z"
   id="path82" />
			<path
   class="st1"
   d="M23.76,20.52c0.01-0.11,0.07-0.14,0.16-0.11C23.88,20.47,23.83,20.51,23.76,20.52z"
   id="path83" />
			<path
   class="st1"
   d="M19.55,23.17c0.02-0.12,0.11-0.12,0.2-0.13C19.7,23.11,19.64,23.15,19.55,23.17z"
   id="path84" />
			<path
   class="st1"
   d="M27.01,34.33c0.09-0.02,0.16,0.01,0.16,0.12C27.1,34.42,27.04,34.4,27.01,34.33z"
   id="path85" />
			<path
   class="st1"
   d="M24.35,20.15c0.03-0.11,0.12-0.12,0.21-0.13C24.5,20.09,24.44,20.13,24.35,20.15z"
   id="path86" />
			<path
   class="st1"
   d="M23.34,31.63c0.09-0.02,0.16,0,0.15,0.11C23.43,31.73,23.37,31.69,23.34,31.63z"
   id="path87" />
			<path
   class="st1"
   d="M28.13,17.77c0.02-0.1,0.07-0.13,0.17-0.1C28.26,17.73,28.2,17.76,28.13,17.77z"
   id="path88" />
			<path
   class="st1"
   d="M20.02,22.88c0-0.12,0.08-0.12,0.17-0.11C20.14,22.83,20.09,22.86,20.02,22.88z"
   id="path89" />
			<path
   class="st1"
   d="M19.73,28.98c0.09-0.02,0.15,0.01,0.16,0.12C19.82,29.08,19.76,29.05,19.73,28.98z"
   id="path90" />
			<path
   class="st1"
   d="M22.9,21.06c0-0.11,0.06-0.14,0.16-0.1C23.02,21.02,22.97,21.05,22.9,21.06z"
   id="path91" />
			<path
   class="st1"
   d="M26.87,18.56c0.01-0.11,0.08-0.12,0.17-0.11C27,18.51,26.94,18.55,26.87,18.56z"
   id="path92" />
			<path
   class="st1"
   d="M24.79,19.88c0.01-0.12,0.08-0.13,0.18-0.11C24.92,19.82,24.86,19.86,24.79,19.88z"
   id="path93" />
			<path
   class="st1"
   d="M20.32,29.41c0.09-0.01,0.15,0.01,0.16,0.12C20.41,29.51,20.35,29.48,20.32,29.41z"
   id="path94" />
			<path
   class="st1"
   d="M20.41,22.62c0.03-0.11,0.11-0.12,0.2-0.13C20.57,22.57,20.5,22.61,20.41,22.62z"
   id="path95" />
			<path
   class="st1"
   d="M23.77,31.95c0.09-0.02,0.16,0.01,0.16,0.12C23.86,32.05,23.81,32.02,23.77,31.95z"
   id="path96" />
			<path
   class="st1"
   d="M17.17,24.67c0.02-0.09,0.08-0.13,0.17-0.1C17.3,24.63,17.24,24.65,17.17,24.67z"
   id="path97" />
			<path
   class="st1"
   d="M27.7,18.04c0.01-0.11,0.08-0.13,0.18-0.11C27.83,17.99,27.77,18.03,27.7,18.04z"
   id="path98" />
			<path
   class="st1"
   d="M22.73,21.17c0.01-0.1,0.07-0.14,0.17-0.1C22.86,21.12,22.8,21.16,22.73,21.17z"
   id="path99" />
			<path
   class="st1"
   d="M27.1,18.42c0.02-0.1,0.07-0.13,0.17-0.11C27.23,18.37,27.17,18.41,27.1,18.42z"
   id="path100" />
			<path
   class="st1"
   d="M17.33,24.56c0.02-0.09,0.09-0.11,0.17-0.11C17.46,24.52,17.4,24.55,17.33,24.56z"
   id="path101" />
			<path
   class="st1"
   d="M20.9,29.84c0.07,0.02,0.16,0.02,0.16,0.12C21,29.95,20.94,29.91,20.9,29.84z"
   id="path102" />
			<path
   class="st1"
   d="M7.82,23.78c0.07,0,0.11,0.04,0.11,0.11C7.87,23.88,7.83,23.84,7.82,23.78z"
   id="path103" />
			<path
   class="st1"
   d="M18.56,23.79c0.03-0.08,0.08-0.12,0.17-0.11C18.69,23.74,18.63,23.78,18.56,23.79z"
   id="path104" />
			<path
   class="st1"
   d="M25.42,19.48c0.03-0.07,0.08-0.11,0.17-0.11C25.54,19.43,25.49,19.47,25.42,19.48z"
   id="path105" />
			<path
   class="st1"
   d="M20.1,29.26c0.08-0.02,0.12,0.01,0.12,0.09C20.17,29.34,20.13,29.31,20.1,29.26z"
   id="path106" />
			<path
   class="st1"
   d="M27.27,18.31c0.02-0.09,0.09-0.11,0.17-0.11C27.4,18.27,27.34,18.3,27.27,18.31z"
   id="path107" />
			<path
   class="st1"
   d="M26.41,18.85c0.01-0.1,0.08-0.11,0.16-0.11C26.53,18.81,26.48,18.84,26.41,18.85z"
   id="path108" />
			<path
   class="st1"
   d="M19.39,23.27c0.02-0.09,0.09-0.11,0.17-0.11C19.51,23.23,19.46,23.26,19.39,23.27z"
   id="path109" />
			<path
   class="st1"
   d="M26.24,18.96c0.02-0.09,0.09-0.11,0.17-0.11C26.37,18.92,26.31,18.95,26.24,18.96z"
   id="path110" />
			<path
   class="st1"
   d="M30.05,35.14c-0.01-0.07,0.02-0.11,0.09-0.12C30.14,35.08,30.11,35.12,30.05,35.14z"
   id="path111" />
			<path
   class="st1"
   d="M21.31,22.06c0.01-0.08,0.05-0.11,0.13-0.08C21.41,22.03,21.37,22.06,21.31,22.06z"
   id="path112" />
			<path
   class="st1"
   d="M28.29,17.67c0.02-0.1,0.1-0.11,0.18-0.12C28.43,17.62,28.37,17.65,28.29,17.67z"
   id="path113" />
			<path
   class="st1"
   d="M21.44,21.98c0.02-0.1,0.09-0.11,0.17-0.1C21.57,21.94,21.51,21.97,21.44,21.98z"
   id="path114" />
			<path
   class="st1"
   d="M26.87,20.12c0,0.08-0.04,0.11-0.12,0.1C26.77,20.17,26.81,20.13,26.87,20.12z"
   id="path115" />
			<path
   class="st1"
   d="M21.91,21.69c0.01-0.08,0.05-0.12,0.13-0.08C22,21.65,21.96,21.68,21.91,21.69z"
   id="path116" />
			<path
   class="st1"
   d="M26.79,34.17c0.07,0.01,0.15,0.02,0.16,0.12C26.88,34.27,26.82,34.23,26.79,34.17z"
   id="path117" />
			<path
   class="st1"
   d="M24.96,32.82c0.07,0,0.1,0.04,0.12,0.1C25.02,32.91,24.98,32.87,24.96,32.82z"
   id="path118" />
			<path
   class="st1"
   d="M27.36,19.69c-0.02,0.06-0.05,0.1-0.12,0.1C27.26,19.74,27.3,19.7,27.36,19.69z"
   id="path119" />
			<path
   class="st1"
   d="M27.24,19.79c-0.01,0.07-0.04,0.11-0.11,0.11C27.15,19.84,27.18,19.81,27.24,19.79z"
   id="path120" />
			<path
   class="st1"
   d="M19.79,26.47c-0.01,0.07-0.04,0.11-0.12,0.11C19.69,26.52,19.73,26.49,19.79,26.47z"
   id="path121" />
			<path
   class="st1"
   d="M29.95,35.25c0-0.07,0.04-0.11,0.11-0.11C30.04,35.19,30,35.23,29.95,35.25z"
   id="path122" />
			<path
   class="st1"
   d="M19.08,27.11c0,0.07-0.04,0.07-0.09,0.07C19,27.14,19.04,27.12,19.08,27.11z"
   id="path123" />
			<path
   class="st1"
   d="M26.95,20.04c0.01,0.07-0.03,0.08-0.08,0.08C26.9,20.1,26.92,20.07,26.95,20.04z"
   id="path124" />
			<path
   class="st1"
   d="M24.86,32.75c0.05,0,0.1,0,0.1,0.07C24.92,32.81,24.88,32.8,24.86,32.75z"
   id="path125" />
			<path
   class="st1"
   d="M19.62,26.62c0,0.07-0.04,0.08-0.09,0.08C19.56,26.68,19.59,26.65,19.62,26.62z"
   id="path126" />
			<path
   class="st1"
   d="M22.53,31.04c0.05-0.01,0.07,0.02,0.08,0.06C22.58,31.08,22.55,31.06,22.53,31.04z"
   id="path127" />
			<path
   class="st1"
   d="M23.83,22.85c0.01,0.07-0.04,0.08-0.09,0.08C23.75,22.88,23.79,22.86,23.83,22.85z"
   id="path128" />
			<path
   class="st1"
   d="M23.35,23.28c0,0.06-0.04,0.07-0.09,0.08C23.27,23.32,23.3,23.29,23.35,23.28z"
   id="path129" />
			<path
   class="st1"
   d="M20.23,29.35c0.05,0,0.09,0.01,0.1,0.07C20.28,29.41,20.24,29.39,20.23,29.35z"
   id="path130" />
			<path
   class="st1"
   d="M21.18,25.22c0.01,0.07-0.04,0.08-0.09,0.08C21.12,25.27,21.15,25.25,21.18,25.22z"
   id="path131" />
			<path
   class="st1"
   d="M27.5,19.56c0.01,0.07-0.04,0.08-0.09,0.08C27.42,19.59,27.45,19.57,27.5,19.56z"
   id="path132" />
			<path
   class="st1"
   d="M27.58,19.49c-0.01,0.05-0.02,0.09-0.08,0.08C27.52,19.54,27.55,19.51,27.58,19.49z"
   id="path133" />
			<path
   class="st1"
   d="M29.56,17.73c0,0.06-0.05,0.07-0.1,0.07C29.49,17.78,29.52,17.76,29.56,17.73z"
   id="path134" />
			<path
   class="st1"
   d="M19.67,28.93c0.04,0,0.06,0.01,0.06,0.05C19.71,28.97,19.69,28.95,19.67,28.93z"
   id="path135" />
			<path
   class="st1"
   d="M21.29,30.12c0.04,0,0.06,0.01,0.06,0.05C21.33,30.15,21.31,30.14,21.29,30.12z"
   id="path136" />
			<path
   class="st1"
   d="M19.13,27.06c0,0.04-0.01,0.06-0.05,0.05C19.1,27.1,19.11,27.08,19.13,27.06z"
   id="path137" />
			<path
   class="st1"
   d="M19.19,27.01c0,0.04-0.02,0.06-0.06,0.05C19.15,27.04,19.17,27.03,19.19,27.01z"
   id="path138" />
			<path
   class="st1"
   d="M19.67,26.58c0,0.04-0.02,0.06-0.06,0.05C19.64,26.61,19.66,26.59,19.67,26.58z"
   id="path139" />
			<path
   class="st1"
   d="M20.16,26.14c0,0.04-0.01,0.06-0.06,0.05C20.12,26.17,20.14,26.16,20.16,26.14z"
   id="path140" />
			<path
   class="st1"
   d="M27.63,18.08c0.01-0.03,0.03-0.05,0.07-0.04C27.68,18.05,27.65,18.07,27.63,18.08z"
   id="path141" />
			<path
   class="st1"
   d="M21.24,25.17c0,0.04-0.02,0.06-0.06,0.05C21.2,25.21,21.22,25.19,21.24,25.17z"
   id="path142" />
			<path
   class="st1"
   d="M21.3,25.12c0,0.04-0.02,0.06-0.06,0.05C21.26,25.16,21.28,25.14,21.3,25.12z"
   id="path143" />
			<path
   class="st1"
   d="M21.35,25.07c0,0.04-0.02,0.06-0.06,0.05C21.31,25.1,21.33,25.09,21.35,25.07z"
   id="path144" />
			<path
   class="st1"
   d="M17.11,24.71c0.02-0.02,0.04-0.03,0.07-0.05C17.15,24.68,17.13,24.69,17.11,24.71z"
   id="path145" />
			<path
   class="st1"
   d="M27.04,18.46c0.02-0.02,0.04-0.03,0.07-0.05C27.08,18.43,27.06,18.44,27.04,18.46z"
   id="path146" />
			<path
   class="st1"
   d="M22.26,24.26c0,0.04-0.02,0.06-0.06,0.05C22.23,24.29,22.24,24.27,22.26,24.26z"
   id="path147" />
			<path
   class="st1"
   d="M22.72,23.84c-0.02,0.02-0.04,0.03-0.06,0.05C22.68,23.88,22.7,23.86,22.72,23.84z"
   id="path148" />
			<path
   class="st1"
   d="M22.8,23.77c0,0.04-0.03,0.06-0.07,0.06C22.76,23.81,22.78,23.79,22.8,23.77z"
   id="path149" />
			<path
   class="st1"
   d="M23.46,23.18c0,0.04-0.02,0.06-0.06,0.05C23.42,23.22,23.44,23.2,23.46,23.18z"
   id="path150" />
			<path
   class="st1"
   d="M19.75,23.04c0.01-0.03,0.03-0.05,0.07-0.04C19.8,23.01,19.77,23.03,19.75,23.04z"
   id="path151" />
			<path
   class="st1"
   d="M8.04,22.85C8.02,22.87,8,22.89,7.98,22.91C8,22.89,8.02,22.87,8.04,22.85z"
   id="path152" />
			<path
   class="st1"
   d="M23.89,22.8c0,0.04-0.02,0.06-0.06,0.05C23.85,22.84,23.87,22.82,23.89,22.8z"
   id="path153" />
			<path
   class="st1"
   d="M25.45,21.4c0,0.04-0.02,0.06-0.06,0.05C25.41,21.43,25.43,21.41,25.45,21.4z"
   id="path154" />
			<path
   class="st1"
   d="M25.51,21.34c0,0.04-0.02,0.06-0.06,0.06C25.47,21.38,25.49,21.36,25.51,21.34z"
   id="path155" />
			<path
   class="st1"
   d="M26.95,34.28c0.04-0.01,0.06,0.01,0.06,0.05C26.99,34.32,26.97,34.3,26.95,34.28z"
   id="path156" />
			<path
   class="st1"
   d="M26.47,20.48c0,0.04-0.01,0.06-0.05,0.05C26.44,20.51,26.45,20.5,26.47,20.48z"
   id="path157" />
			<path
   class="st1"
   d="M26.53,20.43c0,0.04-0.02,0.06-0.06,0.05C26.49,20.46,26.51,20.45,26.53,20.43z"
   id="path158" />
			<path
   class="st1"
   d="M27.01,20c0,0.04-0.01,0.06-0.05,0.05C26.97,20.03,26.99,20.01,27.01,20z"
   id="path159" />
			<path
   class="st1"
   d="M27.07,19.94c0,0.04-0.02,0.06-0.06,0.05C27.03,19.98,27.05,19.96,27.07,19.94z"
   id="path160" />
			<path
   class="st1"
   d="M27.13,19.89c0,0.04-0.02,0.06-0.06,0.05C27.09,19.93,27.11,19.91,27.13,19.89z"
   id="path161" />
			<path
   class="st1"
   d="M23.4,23.23c0,0.04-0.02,0.06-0.06,0.05C23.36,23.27,23.38,23.25,23.4,23.23z"
   id="path162" />
		</g>
	</g>
</g>
</svg>
