<svg xmlns="http://www.w3.org/2000/svg" viewBox="0 0 2137.54 1647.32"><defs><style>.cls-1{fill:#363638;}.cls-2{fill:#181816;}</style></defs><title>JJYeTo</title><g id="Capa_2" data-name="Capa 2"><g id="Capa_1-2" data-name="Capa 1"><g id="JJYeTo"><path class="cls-1" d="M701.29,260.37A94.41,94.41,0,0,1,693.83,288c-23.07,52-90.51,74.17-111.2,127.19C564,463,590.44,517,583.08,567.82c-5.71,39.4-33.33,74.9-70.13,90.1s-81.42,9.57-113.28-14.3c-47.26-35.42-60.17-99.7-91.44-149.79C284.64,456,250.13,426,227,387.88c-37.09-61-40.8-141-9.5-205.18C249.5,117,312.17,72.54,373.32,32.57c122.6-80.13,208.08.35,283.44,103.27C683.31,172.08,706.18,217.56,701.29,260.37Z"/><path class="cls-1" d="M1198.18,383.54c-.23-6.21-.3-12.42-.31-18.6a1233.51,1233.51,0,0,1,10-159c2.61-20.43,6.06-41.61,17.86-58.48,17.8-25.44,50.3-35.41,80.68-41.86a775.74,775.74,0,0,1,234.78-13.17c59,5.67,162.47,9,204.61,57.23,19.45,22.27,25.87,57.44,9.27,81.92-14.58,21.5-41.74,29.79-63.08,44.6-30.77,21.36-48.93,56-70.35,86.72s-51.05,60.55-88.44,62.87-80.16-22.27-109,1.6c-9.7,8-15,20-21.94,30.52-22.19,33.75-64.09,53.43-104.23,48.94s-76.67-32.94-90.85-70.76C1200.93,419.35,1198.85,401.48,1198.18,383.54Z"/><path class="cls-1" d="M0,855.77c-.42-31.47,10.61-66,39.54-76.54,17.8-6.46,38.13-1.92,56-8.24,25.4-9,39-37.15,62.64-50.18,51.61-28.49,131.47,18.72,173.68,47.66,23.07,15.82,43.14,39.74,44.27,67.69.91,22.69-11,44.38-27.15,60.31s-36.37,27-56.29,37.94L200.56,984.8c-32.85,18-70,36.53-106.12,26.78-24.89-6.71-44.56-26.05-59-47.4a208.77,208.77,0,0,1-35-99.91C.18,861.47.05,858.63,0,855.77Z"/><path class="cls-1" d="M1974.83,1647.31c-49.58.19-74.22-15.44-89.73-55.43-9.21-23.75-14.06-49.22-23.75-72.73-11.13-27-23.74-53.73-38.85-78.67-14.53-24-21-48.66-6-72,16.55-25.69,34.77-53.45,74-45.33,19.52,4,39.68,4.89,59.26,8.65,59.57,11.42,98.16,49.69,127.73,100a604.77,604.77,0,0,0,41.65,61.07c27.63,36.07,24.47,73.83-11.85,103.11C2066.87,1628.63,2019.3,1643.44,1974.83,1647.31Z"/><path class="cls-2" d="M2121.25,975.86c-16.64,46.71-39.71,64.58-82.59,65.6-25.46.61-51.07-3.47-76.47-2.34-29.18,1.31-58.6,4.1-87.19,9.85-27.48,5.53-52.91,3.29-69.77-18.78-18.55-24.28-38.48-50.84-17.53-85,10.43-17,18.07-35.66,28.25-52.81,31-52.16,80-75.47,137.44-86.2A606.26,606.26,0,0,0,2025,787.71c43.31-13.75,77.76,2,93,46.14C2134.91,883,2132.7,932.72,2121.25,975.86Z"/><path class="cls-1" d="M2112.37,976.91c-16.65,46.71-39.71,64.58-82.59,65.6-25.47.6-51.07-3.48-76.47-2.34-29.18,1.31-58.6,4.1-87.19,9.85-27.49,5.53-52.92,3.29-69.78-18.78-18.55-24.28-38.48-50.84-17.52-85,10.42-17,18.06-35.67,28.24-52.81,31-52.16,80-75.47,137.45-86.2a606.26,606.26,0,0,0,71.58-18.46c43.31-13.75,77.75,2,93,46.13C2126,884,2123.82,933.77,2112.37,976.91Z"/><path class="cls-1" d="M704.86,1060c59.34,3.12,103.72,30.11,126.34,80.69,25.54,57.1,44.33,117.44,62.78,177.38,8.5,27.61-10.58,48.68-30.69,65.51-18.73,15.68-42.55,16.61-60.33,3.17-33.4-25.24-64.79-53.59-94.43-83.23-25.87-25.87-47.88-55.56-72.17-83.06-27.47-31.1-35.08-66.82-19.52-104.4C632.92,1077.25,667.62,1063.4,704.86,1060Z"/><path class="cls-1" d="M530.82,1159.58c.12,14.33-3.63,28.31-12.27,39.88-10.89,14.59-27.69,23.36-43.9,31.66-25.61,13.1-51.55,26.32-79.57,32.84s-58.79,5.77-84-8.11c-30.31-16.69-48.25-49.73-57.6-83-5.37-19.15-8.4-39.89-2-58.73s24.48-34.85,44.31-33.23c15.27,1.25,29.48,12.31,44.53,9.45,17.33-3.3,25.8-22.61,39.1-34.2,41.54-36.19,110.09,17.15,134.22,51.4C524.25,1122.52,530.67,1141.32,530.82,1159.58Z"/><path class="cls-1" d="M996,858.16c-48.58,0-97.32,2.24-145.69-1-22.88-1.52-47.11-9.95-67.11-21.51-31-17.92-32.48-51.32-6.53-76.46s58.17-34.88,92.57-24.43c33.86,10.28,61.26,6.82,91.74-13.53,57.6-38.45,102.17-21.92,129.08,42.36,27.31,65.24,20.13,79.59-49,95.18-14.63,3.3-29.85,4-44.8,5.86Q996.06,861.4,996,858.16Z"/><path class="cls-1" d="M1535.56,819c-11.14,3.38-22.38,6.54-33.35,10-51.75,16.42-103,42.16-157.16,37.73-18.94-1.55-39.53-8.37-48.53-25.11-5-9.34-5.62-20.62-3.24-30.95s7.55-19.83,13.56-28.56c8.55-12.45,19.23-23.89,32.79-30.53,25.24-12.37,56.38-6.45,81.86-18.31,17.93-8.35,30.8-24.41,44-39.13,14-15.55,30.76-31.07,52.42-33.57,19-2.19,38.95,6.74,53.72,18,16.49,12.63,29.17,29.49,41.34,46.33,5.6,7.74,11.33,16,12.07,25.57,1,13.25-7.9,25.26-18,33.95C1586.84,802,1561.47,811.16,1535.56,819Z"/><path class="cls-1" d="M1229.65,1421.12q-9.89-.06-19.75-.47c-25.12-1-52.6-5-69.48-23.63-19.85-21.93-19-57.9-40.75-77.91-14.17-13-38-20.17-39.56-39.34-.89-10.62,6.17-20.22,13.77-27.68,85-83.47,217.54-9.53,257.65,83.07,9.06,20.91,13.77,47.32-.78,64.85-11.54,13.9-31.23,17.33-49.23,18.94Q1255.66,1421.26,1229.65,1421.12Z"/></g></g></g></svg>