<svg xmlns="http://www.w3.org/2000/svg" viewBox="52.64 51.88 106.37 81.93"> <title>Previous</title> <g id="g1"> 	<path class="st0" fill="#181816" d="M159.01,123.05l-54.74-16.64c0,0,4.83,28.44,1.07,27.37c-3.76-1.07-46.69-40.25-46.69-40.25l42.93-31.66   l1.07,30.05l50.45-13.95L159.01,123.05z" id="path1" opacity="0.3"></path> </g> <path class="st1" fill="#E670BB" d="M153.01,113.05L98.26,96.42c0,0,4.83,28.44,1.07,27.37c-3.76-1.07-46.69-40.25-46.69-40.25l42.93-31.66  l1.07,30.05l50.45-13.95L153.01,113.05z" id="path2" stroke="#222" stroke-width="4"></path> <g class="st2" opacity="0.66" id="g3"> 	<path class="st3" fill="#FFFFFF" d="M58.13,83.87l33-24l1,17C92.13,76.87,88.13,63.87,58.13,83.87z" id="path3"></path> </g> <g class="st2" opacity="0.66" id="g4"> 	<path class="st3" fill="#FFFFFF" d="M100.13,82.88l43-9.01l3,20C146.13,93.87,142.13,74.89,100.13,82.88z" id="path4"></path> </g> </svg>