<svg xmlns="http://www.w3.org/2000/svg" viewBox="54.26 52.48 112.36 83.94"> <title>Next</title> <g id="g1"> 	<path class="st0" fill="#181816" d="M54.26,75.25L109,91.88c0,0-4.83-28.44-1.07-27.37c3.76,1.07,46.69,40.25,46.69,40.25l-42.93,31.66   l-1.07-30.05l-50.45,13.95L54.26,75.25z" id="path1"></path> </g> <path class="st1" fill="#93FFDE" d="M66.26,63.25L121,79.88c0,0-4.83-28.44-1.07-27.37c3.76,1.07,46.69,40.25,46.69,40.25l-42.93,31.66l-1.07-30.05  l-50.45,13.95L66.26,63.25z" id="path2"></path> <path class="st2" opacity="0.61" fill="#FFFFFF" d="M125.69,60.48l35,31l-18,14C142.69,105.48,155.69,92.48,125.69,60.48z" id="path3"></path> <path class="st2" opacity="0.61" fill="#FFFFFF" d="M74.69,95.48l-4-27l50,16C120.69,84.48,79.69,77.48,74.69,95.48z" id="path4"></path> </svg>