<svg xmlns="http://www.w3.org/2000/svg" viewBox="0 0 370 438" xml:space="preserve">
  <path d="M340.4 390.1c-9.1 13.1-22 23.5-37.6 27.4-46.5 11.8-91.8-36.7-138.8-26.9-20.8 4.3-38.8 19.9-60.1 20.6-18.6.6-35.3-10.4-50.6-20.8-12.7-8.7-26.3-18.5-31-33.2-3.4-10.4-1.7-21.7 1.2-32.2 6.8-24.8 20.2-47.3 27.9-71.9 7.3-23.1 9.4-47.4 12.8-71.3 3.4-24 8.4-48.2 20.6-69.1s32.9-38.1 57-40.5c15.3-1.6 31.1 2.7 45.8-1.6 17.3-5.1 28.9-20.8 43.2-31.9 21.3-16.6 50.6-23.1 76.4-15 25.8 8.1 46.7 31.1 50.4 57.9 2.8 20-3.6 40-8.2 59.6-9.2 39.3-11.7 80.5-5.2 120.4 5.3 32.2 16.8 65.5 9.6 98.3-2.4 10.4-7 21-13.4 30.2z" fill="#181816"/>
  <path d="M289.2 1.7h-2.6V2h2.9v-.3h-.3zm-5.8.2H282.6c-.3 0-.6 0-.8.1H281.5c-.2 0-.4 0-.6.1v.3c1-.1 1.9-.2 2.9-.2l-.4-.3zm-5.8.5c-1 .1-1.9.3-2.9.4v.3c1-.2 1.9-.3 2.9-.4v-.3zm-5.7 1c-1 .2-1.9.4-2.9.6l.1.3c.9-.2 1.9-.4 2.8-.6v-.3zm-5.7 1.2s0 .1 0 0c-.1.1-.1.1 0 0h-.1c-.9.2-1.8.5-2.7.7l.1.3c.9-.3 1.9-.5 2.8-.8l-.1-.2zm-5.6 1.7c-.9.3-1.8.6-2.8.9l.1.2 2.7-.9v-.2zm-5.5 1.9c-.9.4-1.8.7-2.7 1.1l.1.2c.9-.4 1.8-.7 2.7-1.1l-.1-.2zm-5.3 2.3s-.1 0 0 0c-.1 0-.1 0 0 0-.1 0-.1 0 0 0-.9.4-1.8.8-2.6 1.3l.1.2c.9-.4 1.7-.9 2.6-1.3l-.1-.2zm-5.3 2.6c-.1.1-.3.1-.4.2H243.8s-.1 0-.1.1c-.1.1-.3.2-.4.2l.1.2c.8-.5 1.7-1 2.5-1.4l-1.4.7zm-5 2.9c-.7.4-1.3.8-2 1.2 0 0-.1 0-.1.1-.1 0-.1.1-.2.1l.1.2c.8-.5 1.6-1.1 2.4-1.6h-.2zm-4.8 3.3c-.2.1-.3.2-.5.3h-.1c-.5.4-1 .8-1.6 1.2l.2.2c.8-.6 1.6-1.2 2.3-1.7h-.3zm-4.7 3.5s-.1 0 0 0l-.1.1c-.7.6-1.4 1.2-2.1 1.7l.2.2c.8-.6 1.5-1.3 2.2-1.9l-.2-.1zm-4.4 3.7c-.2.2-.4.3-.5.5l-.1.1-.1.1-.1.1-.1.1h-1.2l-.1.1H223.1l.2.2c.7-.7 1.4-1.3 2.2-1.9l.1.7zm-4.4 3.9c0 .1 0 .1 0 0l-.1.1-.1.1c-.6.6-1.3 1.2-1.9 1.8l.2.2c.7-.7 1.4-1.3 2.1-2l-.2-.2zm-4.2 4c-.7.6-1.3 1.2-1.9 1.8l-.1.1-.1.1.2.2c.7-.7 1.4-1.3 2.1-2l-.2-.2zm-4.3 4c-.7.7-1.4 1.3-2.2 1.9l.2.2c.7-.6 1.4-1.3 2.2-2l-.2-.1zm-4.4 3.8c-.7.6-1.3 1.1-2 1.7l-.1.1.2.2c.8-.6 1.5-1.2 2.2-1.9l-.3-.1zm-4.5 3.7c-.8.6-1.5 1.2-2.3 1.7l.2.2c.8-.6 1.5-1.1 2.3-1.8l-.2-.1zm-4.7 3.4c-.4.3-.8.6-1.3.8l-.9.6.1.2c.8-.5 1.6-1 2.5-1.6h-.4zm-5 3.1-1.8.9h-.1c-.1.1-.3.1-.4.2l.1.2c.9-.4 1.7-.9 2.6-1.3h-.4zm-5.2 2.5c-.4.2-.8.3-1.2.5H187.4c-.2.1-.4.1-.6.2l.1.3c.9-.3 1.8-.7 2.7-1h-.7zm-5.5 1.8s-.1 0 0 0c-.1 0-.1 0 0 0-.1 0-.1 0 0 0-.1 0-.1 0 0 0h-.2c-.5.1-1.1.3-1.6.4h-.1c-.2 0-.3.1-.5.1l.1.3c1-.2 1.9-.4 2.8-.7l-.5-.1zm-5.7 1.2c-.7.1-1.3.2-2 .3h-.2c-.2 0-.4 0-.6.1v.3c1-.1 2-.2 2.9-.4l-.1-.3zm-5.8.6c-1 .1-1.9.1-2.9.1v.3c1 0 2-.1 2.9-.1v-.3zm-8.8.1v.3h2.9v-.3h-2.9zm-5.8-.3v.3c1 0 1.9.1 2.9.1v-.3c-.9 0-1.9 0-2.9-.1zm-5.8-.3v.3c1 0 1.9.1 2.9.1v-.3c-1 0-1.9 0-2.9-.1zm-5.8-.2v.3c1 0 1.9 0 2.9.1v-.3c-.5 0-1.1 0-1.6-.1h-1.3zm-2.9 0h-2.7v.3c.9 0 1.9-.1 2.9-.1l-.2-.2zm-5.8.2c-.1 0-.1 0 0 0-.1 0-.1 0 0 0h-.1c-.7 0-1.3.1-2 .2-.2 0-.3 0-.5.1v.3c.2 0 .5-.1.7-.1.7-.1 1.4-.1 2.2-.2l-.3-.3zm-5.8.7c-.2 0-.4.1-.5.1-.7.1-1.5.3-2.2.4l.1.3c.9-.2 1.9-.4 2.9-.5l-.3-.3zm-5.7 1.2c-.1 0-.2 0-.3.1-.6.2-1.2.3-1.8.5-.2 0-.3.1-.5.1l.1.3c.9-.3 1.9-.5 2.8-.8l-.3-.2zm-5.6 1.6c-.5.2-.9.3-1.3.5h-.2c-.3.1-.7.2-1 .4l.1.2c.9-.4 1.8-.7 2.7-1l-.3-.1zm-5.4 2.2c-.8.3-1.5.7-2.3 1-.1 0-.1.1-.2.1h-.1l.1.2c.9-.4 1.8-.8 2.6-1.2l-.1-.1zm-5.3 2.5s-.1 0-.1.1c-.8.4-1.5.8-2.3 1.3l.1.2c.8-.5 1.7-1 2.5-1.4l-.2-.2zm-5 2.9c-.8.5-1.6 1.1-2.4 1.6l.1.2c.8-.5 1.6-1.1 2.4-1.6l-.1-.2zm-4.8 3.3c0 .1 0 .1 0 0 0 .1 0 .1 0 0-.1.1-.1.1 0 0-.1.1-.1.1 0 0l-.1.1c-.7.5-1.5 1.1-2.2 1.7l.2.2c.8-.6 1.5-1.2 2.3-1.8l-.2-.2zM94.8 76c-.2.2-.4.3-.6.5l-.1.1-.1.1-.1.1c-.3.2-.5.4-.7.7l.2.2c.7-.6 1.5-1.3 2.2-1.9l-.8.2zm-4.3 3.9c-.7.7-1.4 1.3-2.1 2l.2.2c.7-.7 1.4-1.4 2.1-2l-.2-.2zm-4.1 4.2c-.3.3-.5.6-.8.9l-.1.1c-.3.4-.6.7-1 1.1l.2.2c.6-.7 1.3-1.5 1.9-2.2l-.2-.1zm-3.8 4.3c-.2.3-.5.6-.7.9-.4.4-.7.9-1 1.3l.2.2c.6-.8 1.2-1.5 1.8-2.3l-.3-.1zM79 93l-.1.1c-.5.7-1.1 1.5-1.6 2.2l.2.2c.6-.8 1.1-1.6 1.7-2.4L79 93zm-3.4 4.8s0 .1 0 0c0 .1 0 .1 0 0 0 .1 0 .1 0 0-.4.6-.8 1.2-1.1 1.7-.1.2-.2.3-.3.5l.2.1c.5-.8 1-1.6 1.6-2.5l-.4.2zm-3 5c-.1.2-.2.4-.4.6v.1s0 .1-.1.1c-.3.5-.6 1.1-.9 1.6l.2.1c.5-.8.9-1.7 1.4-2.5h-.2zm-2.8 5.1c-.1.2-.2.3-.3.5v.6s0 .1-.1.1v.1s0 .1-.1.1c0 .1-.1.1-.1.2v.1c-.1.3-.3.6-.4.9l.2.1c.4-.9.9-1.7 1.3-2.6l-.5-.1zm-2.6 5.2c-.1.1-.1.3-.2.4v.1l-.9 2.1.2.1 1.2-2.7h-.3zm-2.3 5.4c-.4.9-.7 1.8-1.1 2.7l.2.1c.4-.9.7-1.8 1.1-2.7l-.2-.1zm-2.1 5.4c-.1.2-.2.5-.2.7v.1c-.2.6-.4 1.2-.7 1.9l.3.1c.3-.9.6-1.8 1-2.7l-.4-.1zm-1.9 5.5c-.2.6-.4 1.2-.6 1.7 0 .1-.1.2-.1.3V131.7l.3.1c.3-.9.6-1.8.9-2.8l-.5.4zm-1.7 5.5c0 .1-.1.2-.1.3v.5c-.2.7-.4 1.3-.6 2l.3.1c.3-.9.5-1.9.8-2.8l-.4-.1zm-1.6 5.7v.5c-.2.8-.4 1.5-.6 2.3l.3.1c.2-.9.5-1.9.7-2.8l-.4-.1zm-1.4 5.6c-.1.6-.3 1.1-.4 1.7v.4c0 .1-.1.3-.1.4l.3.1c.2-.9.4-1.9.6-2.8l-.4.2zm-1.3 5.7c-.2.9-.4 1.9-.6 2.8v.1l.3.1c.2-1 .4-1.9.6-2.8l-.3-.2zm-1.1 5.7c-.1.3-.1.5-.2.8v.2l-.3 1.8h.3c.2-1 .4-1.9.5-2.9l-.3.1zm-1.1 5.7c0 .2-.1.4-.1.5v.2c-.1.7-.2 1.4-.3 2h.3c.2-1 .3-1.9.5-2.9l-.4.2zm-.9 5.8-.3 2.1c0 .3-.1.5-.1.8h.3c.1-1 .3-1.9.4-2.9h-.3zm-.9 5.7c-.1.7-.2 1.5-.3 2.3V177.7h.3l.1-.5.3-2.4h-.4zm-.8 5.8c-.1.4-.1.9-.2 1.3v.1c-.1.5-.1 1-.2 1.4h.3c.1-1 .3-1.9.4-2.9l-.3.1zm-.8 5.8c-.1.8-.2 1.7-.3 2.5v.3h.3l.4-2.9-.4.1zm-.8 5.8c-.1.7-.2 1.3-.2 1.9 0 .3-.1.7-.1 1h.3l.3-1.9.1-.9-.4-.1zm-.7 5.7c0 .2 0 .4-.1.5v.1c0 .3-.1.7-.1 1-.1.4-.1.8-.2 1.2h.3l.3-2.7-.2-.1zm-.8 5.8c0 .3-.1.6-.1.9v.1c-.1.6-.2 1.2-.3 1.9h.3c.1-1 .3-1.9.4-2.9H47zm-.8 5.8c0 .2-.1.4-.1.5-.1.8-.2 1.6-.3 2.3h.3c.1-1 .3-1.9.4-2.9l-.3.1zm-.9 5.7c-.1.5-.1 1-.2 1.4v.2c-.1.4-.1.8-.2 1.3h.3c.2-1 .3-1.9.5-2.9h-.4zm-.9 5.8c-.2 1-.3 1.9-.5 2.9h.3c.2-1 .3-1.9.5-2.9h-.3zm-1 5.7c-.1.4-.2.8-.2 1.3v.2c-.1.5-.2.9-.3 1.4l.3.1c.2-1 .4-1.9.5-2.9l-.3-.1zm-1.1 5.7c-.2.9-.4 1.8-.6 2.8v.1l.3.1c.2-.9.4-1.9.6-2.9l-.3-.1zm-1.2 5.7s0 .1 0 0c0 .1 0 .1 0 0 0 .1 0 .1 0 0v.6c0 .1-.1.3-.1.4 0 .1 0 .2-.1.3V239.7c0 .1 0 .2-.1.3-.1.3-.2.7-.2 1l.3.1c.2-.9.4-1.9.7-2.8l-.5-.2zm-1.4 5.7c-.2.9-.5 1.9-.7 2.8l.3.1c.3-.9.5-1.9.7-2.8l-.3-.1zm-1.5 5.6c0 .1 0 .1 0 0V250.7c0 .1-.1.2-.1.3-.1.4-.3.9-.4 1.3l.3.1c.3-.9.6-1.9.8-2.8l-.6-.2zm-1.6 5.6c-.3.9-.6 1.8-.9 2.8l.3.1c.3-.9.6-1.8.9-2.8l-.3-.1zm-1.9 5.5c-.1.4-.3.7-.4 1.1V261.9c0 .1 0 .1-.1.2v.2c-.1.3-.2.7-.4 1l.2.1c.3-.9.7-1.8 1-2.7l-.3-.2zm-2 5.5-.6 1.5V267.8c-.1.3-.2.6-.4.9l.2.1c.4-.9.7-1.8 1-2.7l-.2-.1zm-2.1 5.4c-.4.9-.7 1.8-1.1 2.7l.2.1c.4-.9.7-1.8 1.1-2.7l-.2-.1zm-2.2 5.4c-.4.9-.8 1.8-1.1 2.7l.2.1c.4-.9.8-1.8 1.1-2.7l-.2-.1zm-2.3 5.4c-.1.3-.2.6-.4.8 0 0 0 .1-.1.1v.5s0 .1-.1.1c0 .1 0 .1-.1.1-.1.3-.3.7-.4 1l.2.1 1.2-2.7h-.3zm-2.3 5.3c-.2.5-.4 1-.7 1.5-.2.4-.3.8-.5 1.1l.2.1 1.2-2.7h-.2zm-2.3 5.4-.3.6-.9 2.1.2.1 1.2-2.7-.2-.1zm-2.4 5.3c-.4.9-.8 1.8-1.1 2.7l.2.1c.4-.9.8-1.8 1.1-2.7l-.2-.1zm-2.3 5.4c-.4.9-.8 1.8-1.1 2.7l.2.1c.4-.9.7-1.8 1.1-2.7l-.2-.1zm-2.2 5.3c-.2.4-.3.8-.5 1.3v.5c-.1.3-.3.7-.4 1l.2.1c.4-.9.7-1.8 1.1-2.7l-.4-.2zm-2.1 5.5c-.2.5-.4 1.1-.6 1.6V316.3c-.1.3-.2.5-.3.8l.2.1c.3-.9.7-1.8 1-2.7l-.3-.1zm-2 5.4c0 .1 0 .1 0 0-.1.1-.1.1 0 0 0 .1 0 .1-.1.2v.2c0 .1-.1.2-.1.3v.4l-.6 1.8.3.1c.3-.9.6-1.8 1-2.7l-.5-.3zm-1.9 5.5s0 .1 0 0c0 .1 0 .1 0 0 0 .1 0 .1 0 0V326.1c0 .1 0 .1-.1.2v.2c0 .1 0 .1-.1.2v.6c0 .1-.1.3-.1.4v.1l.3.1c.3-.9.6-1.9.9-2.8l-.9.2zm-1.7 5.6-.3.9v.4c-.1.2-.1.4-.2.6v.1c0 .1-.1.2-.1.3l.3.1c.1-.4.2-.7.3-1.1.2-.6.3-1.2.5-1.7l-.5.4zm-1.5 5.6-.6 2.4c0 .1 0 .2-.1.3l.3.1c.2-.9.4-1.9.6-2.8h-.2zm-1.2 5.7c-.1.6-.2 1.1-.3 1.7V344.2c0 .2-.1.4-.1.6h.3c.1-.9.3-1.9.5-2.9l-.4.3zm-.8 5.8c-.1.9-.2 1.7-.2 2.6V350.9h.3c0-.9.1-1.9.2-2.9h-.3zm-.3 5.8v.6c0 .7 0 1.4.1 2.1h.3c-.1-.9-.1-1.9-.1-2.9l-.3.2zm.6 5.8h-.3c.1 1 .3 1.9.4 2.9h.3c-.1-1-.3-1.9-.4-2.9zm1.1 5.7-.3.1c.1.3.1.6.2.8 0 .1 0 .1.1.2 0 .1.1.2.1.4v.2l.3-.1c-.1-.2-.1-.3-.2-.5.2.4-.1-.3-.2-1.1zm1.8 5.5-.2.1c0 .1.1.2.1.2 0 .1.1.2.1.3 0 .1.1.2.1.3 0 .1.1.2.1.2l.2-.1c.4.7 0-.2-.4-1zm2.6 5.1-.2.2c.4.6.7 1.2 1.1 1.8l.1.1.2-.1c-.2-.3-.7-1.2-1.2-2zm3.3 4.8-.2.2c.3.4.6.8 1 1.2l.1.1c.1.1.2.2.2.3.1.1.2.2.2.3l.2-.2c-.3-.4-.9-1.1-1.5-1.9zm3.7 4.4-.2.2c.7.7 1.3 1.4 2 2.1l.2-.2c-.6-.7-1.3-1.4-2-2.1zm4.2 4.1-.2.2.6.6c.4.4.9.8 1.3 1.2l.2-.2c-.5-.5-1.2-1.1-1.9-1.8zm4.4 3.8-.2.2c.3.3.7.5 1 .8l.1.1H26c.3.2.5.4.8.6l.2-.2c-.8-.3-1.5-.9-2.2-1.5zm4.5 3.6-.2.2 1.2.9H30.6c.3.2.6.4.9.7l.2-.2c-.8-.5-1.6-1-2.4-1.6zm4.8 3.4-.2.2c.2.1.4.3.6.4h.2l.2.2H35.2c.4.3.7.5 1.1.8l.2-.2c-.9-.3-1.6-.8-2.4-1.4zm4.7 3.3-.1.2s.1 0 .1.1c.5.3.9.6 1.4.9.2.1.4.3.6.4.1.1.2.1.2.2l.1-.2c-.8-.5-1.5-1-2.3-1.6zm4.9 3.3-.1.2c.2.2.5.3.7.5.5.4 1.1.7 1.6 1.1l.1-.2c-.7-.5-1.5-1.1-2.3-1.6zm4.8 3.2-.1.2c.6.4 1.3.8 1.9 1.2h.1c.1.1.3.2.4.2l.1-.2c-.8-.4-1.6-.9-2.4-1.4zm4.9 3.1-.1.2c.8.5 1.7 1 2.5 1.5l.1-.2c-.8-.5-1.6-1-2.5-1.5zm5.1 2.9-.1.2c.8.4 1.6.9 2.4 1.3 0 0 .1 0 .1.1l.1-.2c-.8-.5-1.7-.9-2.5-1.4zm5.1 2.7-.1.2c.9.4 1.7.8 2.6 1.2l.1-.2c-.8-.4-1.7-.8-2.6-1.2zm5.3 2.4-.1.2c.9.4 1.8.7 2.7 1.1l.1-.2c-.9-.4-1.8-.7-2.7-1.1zm5.4 2-.1.3c.9.3 1.9.6 2.8.9l.1-.3c-.9-.3-1.8-.6-2.8-.9zm5.6 1.6-.1.3h.1c.9.2 1.8.4 2.6.5v-.3c-.7-.1-1.6-.3-2.6-.5zm5.7 1.1v.3c1 .1 1.9.2 2.9.3v-.3c-.9-.1-1.9-.2-2.9-.3zm8.7.4H91.4v.3h2.7l.2-.3zm5.8-.6c-1 .1-1.9.3-2.9.4v.3c.6-.1 1.2-.1 1.9-.2h.1l.9-.5zm5.6-1.2c-.9.2-1.9.5-2.8.6l.1.3c.4-.1.9-.2 1.3-.3h.2c.3-.1.7-.2 1-.3l.2-.3zm5.6-1.6c-.9.3-1.9.6-2.8.9l.1.3c.5-.2 1.1-.3 1.6-.5h.2l.9-.3v-.4zm5.5-2c-.9.4-1.8.7-2.7 1l.1.2c.1 0 .2-.1.3-.1.8-.3 1.6-.6 2.3-.9v-.2zm5.3-2.3-2.7 1.2.1.2c.4-.2.9-.4 1.3-.5h.4c.3-.1.7-.3 1-.4l-.1-.5zm5.3-2.4c-.9.4-1.8.8-2.6 1.2l.1.2c.9-.4 1.8-.8 2.6-1.2l-.1-.2zm5.3-2.5-2 .9-.6.3.1.2.6-.3c.5-.2 1-.5 1.5-.7.2-.1.3-.2.5-.2l-.1-.2zm5.3-2.4-2.7 1.2.1.2c.9-.4 1.7-.8 2.6-1.2v-.2zm5.3-2.3c-.9.4-1.8.8-2.7 1.1l.1.2c.6-.2 1.1-.5 1.7-.7h.1c.2-.1.3-.1.5-.2l.3-.4zm5.5-2.1c-.9.3-1.8.7-2.7 1l.1.2H146.5c.1 0 .2-.1.3-.1h.4c.3-.1.7-.2 1-.4l.6-.7zm5.5-1.8c-.9.3-1.9.5-2.8.8l.1.3c.1 0 .1 0 .2-.1h.2l.9-.3 1.4-.7zm5.7-1.4c-.4.1-.7.1-1.1.2-.6.1-1.2.2-1.7.4l.1.3c.4-.1.8-.2 1.3-.3h.2c.1 0 .3-.1.4-.1h.1c.2 0 .3-.1.5-.1l.2-.4zm5.8-.8c-1 .1-1.9.2-2.9.4v.3c1-.1 1.9-.3 2.9-.4v-.3zm5.8-.4c-1 0-2 .1-2.9.1v.3c.7 0 1.5-.1 2.2-.1h.4l.3-.3zm3 0v.3c.9 0 1.7.1 2.6.1v-.3c-.7 0-1.7 0-2.6-.1zm5.8.4v.3c1 .1 1.9.2 2.9.3v-.3c-1-.1-1.9-.2-2.9-.3zm5.8.7v.3c.9.1 1.9.3 2.8.5v-.3c-.9-.2-1.9-.4-2.8-.5zm5.7 1.1-.1.3c.9.2 1.9.4 2.8.6l.1-.3c-.9-.2-1.8-.4-2.8-.6zm5.7 1.3-.1.3 1.2.3c.5.1 1 .3 1.5.4l.1-.3c-.8-.2-1.8-.4-2.7-.7zm5.6 1.6-.1.3h.2c.2.1.3.1.5.2H204.1c.5.2 1.1.3 1.6.5l.1-.3c-.7-.1-1.7-.4-2.6-.7zm5.6 1.8-.1.3c.9.3 1.8.6 2.8 1l.1-.2c-1-.5-1.9-.8-2.8-1.1zm5.5 2-.1.2c.5.2 1 .4 1.4.5h.1c.4.1.7.3 1.1.4l.1-.2c-.8-.3-1.7-.6-2.6-.9zm5.4 2-.1.2h.1c.9.3 1.7.7 2.6 1l.1-.2c-.9-.3-1.8-.6-2.7-1zm5.4 2.2-.1.2c.3.1.6.2.8.3 0 0 .1 0 .1.1 0 0 .1 0 .1.1 0 0 .1 0 .1.1.4.2.9.4 1.3.5l.1-.2c-.6-.4-1.5-.8-2.4-1.1zm5.4 2.2-.1.2c.7.3 1.4.6 2.2.9.2.1.4.1.5.2l.1-.2-2.7-1.1zm5.4 2.2-.1.2c.1 0 .1.1.2.1.8.3 1.7.7 2.5 1l.1-.2c-.9-.4-1.8-.8-2.7-1.1zm5.4 2.2-.1.2c.3.1.5.2.8.3h.1c.4.2.8.3 1.2.5h.1c.2.1.4.2.6.2l.1-.2c-1-.3-1.9-.7-2.8-1zm5.4 2.1-.1.2c.9.3 1.8.7 2.7 1l.1-.2c-.8-.3-1.8-.7-2.7-1zm5.5 2.1-.1.2c.9.3 1.8.7 2.7 1l.1-.2c-.9-.4-1.8-.7-2.7-1zm5.5 1.9-.1.3c.1 0 .2.1.4.1h.2c.7.2 1.4.5 2.2.7l.1-.3c-1-.2-1.9-.5-2.8-.8zm5.5 1.8-.1.3c.1 0 .3.1.4.1.6.2 1.2.4 1.8.5.1 0 .2.1.4.1l.1-.3c-.7-.1-1.7-.4-2.6-.7zm5.6 1.6-.1.3c.5.1.9.2 1.4.4h1.2l.1-.3c-.7.1-1.7-.1-2.6-.4zm5.6 1.4-.1.3c1 .2 1.9.4 2.9.6v-.3c-.9-.2-1.8-.4-2.8-.6zm5.7 1v.3H281.2c.5.1 1.1.1 1.6.2v-.3c-.7.1-1.7 0-2.7-.2zm5.8.7v.3H287.1c.4 0 .8.1 1.2.1v-.3c-.4.1-1.4 0-2.4-.1zm8.7.4H291.7v.3H294.1l.5-.3zm5.8-.4c-1 .1-1.9.2-2.9.2v.3c.5 0 1.1-.1 1.6-.1h.1c.3 0 .7-.1 1-.1l.2-.3zm5.7-.9c-.9.2-1.9.4-2.9.5v.3h.7c.7-.1 1.4-.2 2.1-.4l.1-.4zm5.7-1.4c-.7.2-1.5.4-2.2.6-.2 0-.4.1-.6.1l.1.3c.2 0 .3-.1.5-.1.7-.2 1.5-.4 2.2-.6v-.3zm5.4-1.9c-.9.4-1.8.7-2.7 1l.1.3c.5-.2.9-.3 1.4-.5h.1c.3-.1.5-.2.8-.3l.3-.5zm5.3-2.4c-.9.4-1.7.9-2.6 1.3l.1.2c.2-.1.3-.1.5-.2.1 0 .1-.1.2-.1s.1-.1.2-.1c.4-.2.8-.4 1.1-.6l.5-.5zm5.1-2.8c-.8.5-1.7 1-2.5 1.5l.1.2c.3-.2.7-.4 1-.6 0 0 .1 0 .1-.1.2-.1.4-.2.6-.4l.7-.6zm4.7-3.3c-.8.6-1.6 1.1-2.4 1.7l.1.2c.6-.4 1.3-.9 1.9-1.4l.2-.2.2-.3zm4.5-3.7c-.7.6-1.5 1.3-2.2 1.9l.2.2c.6-.5 1.3-1 1.9-1.6h.1v-.5zm4.3-4c-.7.7-1.4 1.4-2.1 2l.2.2c.2-.2.4-.4.7-.6l1.1-1.1.1-.5zm3.9-4.3c-.6.7-1.3 1.5-1.9 2.2l.2.2.7-.7.2-.2c.2-.3.4-.5.7-.8l.2-.2-.1-.5zm3.6-4.5c-.6.8-1.2 1.6-1.8 2.3l.2.2c0-.1.1-.1.1-.2l.9-1.2c.2-.2.3-.4.5-.7l.1-.4zm3.3-4.8c-.5.8-1.1 1.6-1.6 2.4l.2.2c.3-.4.5-.7.8-1.1.2-.4.5-.7.7-1.1l-.1-.4zm3-4.9c-.5.8-1 1.7-1.5 2.5l.2.1v-.1c.4-.6.8-1.3 1.1-1.9 0 0 0-.1.1-.1l.1-.5zm2.7-5.2c-.4.9-.9 1.7-1.3 2.6l.2.1c0-.1.1-.2.1-.3V392.5l.3-.6v-.2c.1-.1.1-.3.2-.4l.5-.9zm2.3-5.3c-.4.9-.7 1.8-1.1 2.7l.2.1c.3-.6.5-1.2.8-1.8.1-.2.2-.4.2-.6v-.1l-.1-.3zm2.1-5.4c-.3.9-.6 1.8-1 2.7l.2.1c.3-.9.7-1.8 1-2.7l-.2-.1zm1.6-5.6c-.2.9-.5 1.9-.8 2.8l.3.1c.3-.8.5-1.7.7-2.5v-.1l-.2-.3zm1.4-5.7c-.1.6-.2 1.2-.4 1.7-.1.4-.2.7-.2 1.1l.3.1c.1-.4.2-.7.2-1.1.1-.6.3-1.2.4-1.8h-.3zm.9-5.7c-.1 1-.3 1.9-.5 2.9h.3c0-.2.1-.4.1-.5v-.2c.1-.4.1-.8.2-1.2l-.1-1zm.7-5.8c-.1 1-.2 1.9-.3 2.9h.3v-.2c.1-.7.1-1.3.2-2v-.3l-.2-.4zm.4-5.8c0 1-.1 1.9-.2 2.9h.3v-.6c0-.3 0-.7.1-1v-1l-.2-.3zm.3-5.8h-.3v2.9h.3V345.3zm-.1-5.8h-.3c0 1 .1 1.9.1 2.9h.3v-1.2c-.1-.9-.1-1.3-.1-1.7zm-.4-5.8h-.3c.1 1 .1 1.9.2 2.9h.3V334.9c-.1-.4-.1-.8-.2-1.2zm-.5-5.8h-.3c.1 1 .2 1.9.3 2.9h.3c0-.4-.1-.9-.1-1.3V329.2c-.1-.5-.2-.9-.2-1.3zm-.8-5.8h-.3c.1 1 .3 1.9.4 2.9h.3c-.1-.9-.2-1.8-.4-2.7v-.2c0 .1 0 .1 0 0zm-.8-5.7h-.3c.2 1 .3 1.9.4 2.9h.3c0-.1 0-.2-.1-.4v-.1l-.3-2.4zm-1-5.8h-.3c.2 1 .3 1.9.5 2.9h.3c0-.1-.1-.3-.1-.4-.1-.9-.3-1.7-.4-2.5zm-1.1-5.7-.3.1c.2 1 .4 1.9.5 2.9h.3c-.1-1.1-.3-2.1-.5-3zm-1.1-5.7-.3.1c.2 1 .4 1.9.6 2.9l.3-.1c-.1-.4-.1-.8-.2-1.1v-.2c-.2-.6-.3-1.1-.4-1.6zm-1.2-5.7-.3.1c.2.9.4 1.9.6 2.9l.3-.1c-.2-1-.4-2-.6-2.9zm-1.2-5.7-.3.1.4 1.7.2 1.2.3-.1c0-.1 0-.2-.1-.2-.1-.3-.1-.6-.2-.8v-.2c-.1-.7-.2-1.2-.3-1.7zm-1.2-5.7-.3.1c.2 1 .4 1.9.6 2.9l.3-.1c-.1-.6-.2-1.2-.4-1.8v-.1c0-.4-.1-.7-.2-1zm-1.1-5.7-.3.1c.2 1 .4 1.9.6 2.9l.3-.1c0-.2-.1-.4-.1-.5V278.5c-.3-.8-.4-1.4-.5-2.1zm-1.1-5.8h-.3c.2 1 .4 1.9.5 2.9h.3l-.3-1.5v-.1c-.1-.5-.2-.9-.2-1.3zm-1-5.7h-.3c.2 1 .3 1.9.5 2.9h.3c-.2-1-.4-1.9-.5-2.9zm-.9-5.8h-.3c.1 1 .3 1.9.4 2.9h.3l-.3-2.1v-.4c-.1-.1-.1-.2-.1-.4zm-.8-5.7h-.3c.1 1 .3 1.9.4 2.9h.3c-.1-.4-.1-.9-.2-1.3-.1-.6-.2-1.1-.2-1.6zm-.7-5.8h-.3c.1 1 .2 1.9.3 2.9h.3c0-.2 0-.3-.1-.4V249.2c-.1-.6-.2-1.1-.2-1.6zm-.6-5.8h-.3c.1 1 .2 1.9.3 2.9h.3V244.4c-.1-.6-.1-1.2-.2-1.8V242.3c-.1-.2-.1-.3-.1-.5zm-.5-5.8h-.3c.1 1 .1 1.9.2 2.9h.3c0-1-.1-1.9-.2-2.9zm-.3-5.8h-.3c0 1 .1 1.9.2 2.9h.3c0-.5-.1-1-.1-1.5V231.3c-.1-.4-.1-.8-.1-1.1zm-.3-5.8h-.3c0 1 .1 1.9.1 2.9h.3c0-1 0-2-.1-2.9zm-.1-5.9h-.3c0 1 0 1.9.1 2.9h.3V219.7c-.1-.4-.1-.8-.1-1.2zm-.3-5.8v2.9h.3V212.7h-.3zm.1-5.8v2.9h.3V207.3l-.3-.4zm.1-5.8c0 1-.1 1.9-.1 2.9h.3V201.1h-.2zm.3-5.9c-.1 1-.1 1.9-.1 2.9h.3c0-.8.1-1.6.1-2.4v-.5h-.3zm.4-5.8c-.1 1-.1 1.9-.2 2.9h.3v-.1c0-.7.1-1.4.1-2v-.7l-.2-.1zm.5-5.8c-.1 1-.2 1.9-.2 2.9h.3c.1-1 .2-1.9.2-2.9h-.3zm.5-5.8c-.1 1-.2 1.9-.3 2.9h.3c0-.3.1-.5.1-.8v-.5c.1-.5.1-1 .2-1.5l-.3-.1zm.7-5.8c-.1 1-.2 1.9-.3 2.9h.3l.3-2.4v-.1c0-.1 0-.3.1-.4h-.4zm.8-5.8c-.1 1-.3 1.9-.4 2.9h.3c.1-1 .3-1.9.4-2.9h-.3zm.8-5.7c-.2 1-.3 1.9-.4 2.9h.3c.1-1 .3-1.9.4-2.9h-.3zm1-5.8c-.2 1-.3 1.9-.5 2.9h.3c.1-.7.2-1.4.4-2.1V155.2c0-.1.1-.3.1-.4l-.3-.1zm1-5.7c-.2 1-.4 1.9-.5 2.9h.3c0-.3.1-.5.1-.8v-.8c.1-.3.1-.7.2-1l-.1-.3zm1.1-5.7c-.2 1-.4 1.9-.6 2.9l.3.1c0-.2.1-.4.1-.7v-1.4c0-.2.1-.4.1-.6l.1-.3zm1.2-5.7c-.2.9-.4 1.9-.6 2.8l.3.1c0-.2.1-.4.1-.5v-.6l.3-1.5v-.2l-.1-.1zm1.3-5.7-.2 1c-.1.6-.3 1.2-.4 1.8l.3.1c.1-.3.1-.6.2-.9V133.1c.1-.2.1-.5.2-.7 0-.1 0-.2.1-.3l-.2-.2zm1.4-5.7c-.2.9-.5 1.9-.7 2.8l.3.1v-.6c.2-.7.3-1.4.5-2.1l-.1-.2zm1.4-5.6-.6 2.5-.1.4.3.1v-.2c.1-.2.1-.4.2-.7.1-.3.1-.6.2-.9.1-.2.1-.5.2-.7 0-.1.1-.3.1-.4l-.3-.1zm1.4-5.7c-.2.9-.5 1.9-.7 2.8l.3.1c.1-.6.3-1.2.4-1.7.1-.4.2-.7.3-1.1l-.3-.1zm1.3-5.7c-.2.9-.4 1.9-.6 2.8l.3.1c0-.1.1-.2.1-.3.2-.7.3-1.3.5-2v-.4l-.3-.2zm1.2-5.7c-.2 1-.4 1.9-.6 2.8l.3.1c.2-1 .4-1.9.6-2.9h-.3zm1.1-5.7c-.2 1-.3 1.9-.5 2.9h.3c.2-1 .3-1.9.5-2.9h-.3zm.8-5.7c-.1 1-.2 1.9-.4 2.9h.3v-.2l.3-2.4-.2-.3zm.6-5.8c-.1.9-.2 1.9-.3 2.9h.3c0-.5.1-.9.1-1.4v-.1c0-.4.1-.9.1-1.3l-.2-.1zm.2-5.8c0 1 0 1.9-.1 2.9h.3V80.9l-.2-.4zm.2-5.8h-.3c.1 1 .1 1.9.1 2.9h.3v-2c-.1-.7-.1-.8-.1-.9zm-.5-5.8h-.3c.1.9.2 1.9.3 2.9h.3v-.2c0-.5-.1-.9-.1-1.4-.2-.8-.2-1-.2-1.3zm-1-5.8-.3.1c.2.9.4 1.9.6 2.8h.3c0-.2-.1-.3-.1-.5s-.1-.4-.1-.6c-.3-1-.4-1.4-.4-1.8zm-1.5-5.6-.3.1c.3.9.5 1.9.8 2.8l.3-.1c0-.1-.1-.2-.1-.3-.4-1.5-.6-2-.7-2.5zm-1.9-5.5-.2.1c.4.9.7 1.8 1 2.7l.2-.1c-.3-.9-.7-1.8-1-2.7zm-2.4-5.3-.2.1c.4.9.8 1.8 1.2 2.6l.2-.1c-.3-.7-.6-1.4-1-2.1-.1-.2-.1-.4-.2-.5zm-2.8-5.2-.2.1c.5.8 1 1.7 1.4 2.5l.2-.1c-.3-.6-.7-1.3-1.1-1.9 0-.1-.1-.3-.3-.6zm-3.1-4.9-.2.2c.5.8 1.1 1.6 1.6 2.4l.2-.1V39s0-.1-.1-.1l-.1-.1c-.1-.1-.1-.2-.2-.3-1-1.5-1.1-1.7-1.2-1.9zm-3.5-4.6-.2.2c.6.8 1.2 1.5 1.8 2.3l.2-.2-.9-1.2c-.7-.9-.8-1-.9-1.1zm-3.8-4.4-.2.2c.7.7 1.3 1.4 1.9 2.2l.2-.2-.3-.3c-.5-.7-1-1.3-1.6-1.9zm-4.1-4.1-.2.2c.7.7 1.4 1.3 2.1 2l.2-.2-.8-.8-.1-.1c-.9-.8-1-1-1.2-1.1zm-4.4-3.9-.2.2c.7.6 1.5 1.2 2.2 1.9l.2-.2c-.3-.3-.6-.5-.9-.8l-.1-.1c-.9-.7-1.1-.8-1.2-1zm-4.7-3.5-.2.2c.8.6 1.6 1.1 2.4 1.7l.2-.2c-.3-.2-.6-.4-.9-.7l-.1-.1c-.1-.1-.3-.2-.4-.3-.8-.5-.9-.5-1-.6zM331 13l-.1.2c.8.5 1.7 1 2.5 1.5l.1-.2c-.8-.5-1.6-1-2.5-1.5zm-5.1-2.8-.1.2c.9.4 1.7.9 2.6 1.4l.1-.2c-.8-.5-1.7-1-2.6-1.4zm-5.3-2.5-.1.3 2.7 1.2.1-.2c-.3-.1-.6-.3-.9-.4-.8-.5-1.3-.7-1.8-.9zm-5.4-2-.1.3c.9.3 1.8.6 2.7 1l.1-.2c-.1 0-.2-.1-.4-.1-.9-.5-1.6-.7-2.3-1zm-5.6-1.6-.1.3c.9.2 1.9.5 2.8.7l.1-.3c-.1 0-.2-.1-.3-.1h-.2c-.1 0-.3-.1-.4-.1-1.7-.4-1.8-.4-1.9-.5zm-5.7-1.2v.3c1 .2 1.9.3 2.9.5l.1-.3c-1.1-.1-2.1-.3-3-.5zm-5.8-.8v.3c1 .1 1.9.2 2.9.3v-.3c-1 0-1.9-.2-2.9-.3zm-5.8-.4V2c1 0 1.9.1 2.9.1v-.3c-.7 0-1.3-.1-2-.1-.5.1-.7 0-.9 0zm-3.1 0V2h.2v-.3h-.2z" fill="#fff" opacity=".33"/>
</svg>