<?xml version="1.0" encoding="UTF-8" standalone="no"?>
<!-- Generator: Adobe Illustrator 24.0.0, SVG Export Plug-In . SVG Version: 6.00 Build 0)  -->

<svg
   version="1.1"
   id="Capa_1"
   x="0px"
   y="0px"
   viewBox="0 0 306.61 366.22"
   style="enable-background:new 0 0 306.61 366.22;"
   xml:space="preserve"
   sodipodi:docname="b322990e-b4fa-4fd0-9761-556094c9462e.svgz"
   xmlns:inkscape="http://www.inkscape.org/namespaces/inkscape"
   xmlns:sodipodi="http://sodipodi.sourceforge.net/DTD/sodipodi-0.dtd"
   xmlns="http://www.w3.org/2000/svg"
   xmlns:svg="http://www.w3.org/2000/svg"><defs
   id="defs31" /><sodipodi:namedview
   id="namedview31"
   pagecolor="#ffffff"
   bordercolor="#000000"
   borderopacity="0.25"
   inkscape:showpageshadow="2"
   inkscape:pageopacity="0.0"
   inkscape:pagecheckerboard="0"
   inkscape:deskcolor="#d1d1d1" />
<style
   type="text/css"
   id="style1">
	.st0{opacity:0.37;}
	.st1{fill:#157774;}
</style>
<g
   class="st0"
   id="g31">
	<path
   class="st1"
   d="M167.95,157.22c1.68-0.34,3.28-0.67,4.88-0.99c-0.27-1.68-0.88-3.15-2.1-4.39c-1.52-1.54-2.18-3.66-3.34-5.44   c-1.17-1.79-1.33-3.74-1.62-5.71c-0.16-1.12-0.35-2.23-0.48-3.35c-0.03-0.31,0.13-0.63,0.2-0.95c0.1-0.02,0.2-0.04,0.3-0.05   c0.1,0.29,0.2,0.58,0.31,0.86c0.42,1.04,0.84,2.09,1.29,3.12c0.39,0.91,0.81,1.81,1.24,2.71c0.21,0.45,0.45,0.89,0.71,1.31   c1.14,1.89,2.23,3.82,3.46,5.64c0.92,1.36,2.06,2.57,3.08,3.87c0.48,0.61,1,1.2,1.33,1.89c0.77,1.6,2.27,2.32,3.74,2.78   c4,1.25,8.11,1.94,12.34,1.44c1.4-0.17,2.82-0.08,4.22-0.17c2.08-0.14,4.15-0.36,6.23-0.48c1.3-0.08,2.6-0.05,3.91-0.06   c1.49-0.01,3-0.12,4.48,0c3.12,0.25,6.22,0.83,9.33,0.89c3.58,0.07,7.23,0.31,10.64-1.28c1.7-0.79,3.55-1.31,5.16-2.24   c1.34-0.78,2.45-1.97,3.64-3c0.8-0.7,1.56-1.44,2.39-2.2c-0.83,2.42-2.42,4.26-4.22,5.92c-1.38,1.27-2.72,2.62-4.27,3.64   c-2.87,1.87-6.11,2.28-9.48,1.82c-0.2-0.03-0.41-0.05-0.61-0.03c-1.77,0.16-3.27-0.81-4.91-1.13c-1.24-0.24-2.53-0.38-3.79-0.37   c-2.53,0.02-5.07,0.1-7.59,0.3c-3.65,0.3-7.29,0.74-10.91,1.12c-0.09,1.1-0.85,1.46-1.73,1.68c-1.03,0.25-2,0.89-2.89,1.51   c-0.76,0.53-1.2,1.22-1.18,2.35c0.02,1.03-0.75,2.04-0.95,3.11c-0.76,4-1.51,8-2.11,12.02c-0.38,2.49-0.51,5.02-0.69,7.54   c-0.02,0.36,0.31,0.78,0.56,1.11c0.46,0.62,1.07,1.15,1.46,1.81c0.78,1.31,1.45,2.68,2.19,4.01c0.12,0.21,0.4,0.32,0.61,0.47   c1.54,1.1,3.09,2.19,4.62,3.3c1.11,0.8,1.49,1.96,1.53,3.28c0.01,0.53,0.09,1.06,0.15,1.8c0.93-0.66,1.75-1.17,2.49-1.78   c0.8-0.66,1.66-0.99,2.7-0.97c9.2,0.11,16.18,4.3,21.35,11.72c3.26,4.68,5,10.03,6.45,15.49c0.34,1.28,0.67,2.55,0.97,3.84   c0.11,0.48,0.29,0.7,0.82,0.6c2.4-0.47,4.25,0.57,5.51,2.44c1.54,2.3,2.86,4.75,4.22,7.16c1.55,2.74,3.06,5.5,4.55,8.28   c0.43,0.79,0.87,1,1.77,0.67c4.75-1.75,9.66-2.88,14.65-3.72c1.39-0.23,2.59,0.2,3.86,0.46c1.62,0.33,3.27,0.6,4.85,1.07   c5,1.5,7.46,5.07,8.11,10.11c0.12,0.95,0.46,1.89,0.76,2.81c0.32,0.94-0.1,1.56-0.76,2.12c-1.83,1.54-4.03,2.01-6.33,2.14   c-0.71,0.04-1.42,0.04-2.13,0.06c-0.58,0.02-1.28-0.13-1.29,0.83c0,0.12-0.28,0.31-0.45,0.34c-0.55,0.09-1.11,0.13-1.76,0.19   c0.17-1.34-0.78-1.28-1.62-1.3c-2.57-0.07-5.15-0.18-7.72-0.12c-1.25,0.03-2.49,0.38-3.91,0.61c0.43,1.05,0.76,1.82,1.06,2.6   c2.63,6.74,6.44,12.73,11.34,18.04c0.71,0.77,1.36,1.6,1.97,2.45c0.57,0.8,0.55,1.7,0.51,2.7c-0.13,3.41-1.98,6.14-3.36,9.05   c-1.25,2.63-2.68,5.17-4.03,7.75c-0.09,0.17-0.17,0.34-0.25,0.51c0.08,0.04,0.17,0.09,0.25,0.13c2.31-4.21,4.61-8.42,6.92-12.64   c0.09,0.02,0.18,0.04,0.26,0.06c-0.09,0.39-0.13,0.79-0.26,1.16c-2.36,6.59-5.27,12.92-9.53,18.51c-3.95,5.18-8.54,9.76-13.55,13.9   c-0.91,0.75-1.06,1.37-0.71,2.48c2.03,6.32,3.93,12.7,7.03,18.6c1.79,3.41,3.81,6.71,5.72,10.06c0.2,0.34,0.41,0.68,0.67,1.12   c-1.66,0.15-2.93,0.09-4.24-1.15c-2.88-2.75-6.04-5.2-9.29-7.94c-0.64,3.22-1.21,6.15-1.8,9.11c-0.85,0-1.61,0-2.47,0   c0.36-2.05,0.72-4.04,1.04-6.04c0.17-1.04,0.34-2.08,0.38-3.12c0.03-0.67-0.24-1.35-0.27-2.02c-0.02-0.47,0.02-1.03,0.26-1.39   c0.39-0.59,0.46-1.1,0.14-1.7c-1.87-3.6-3.74-7.21-5.67-10.92c-0.45,0.31-0.96,0.62-1.41,1c-3.11,2.54-6.5,4.64-10.12,6.36   c-0.5,0.24-0.79,0.9-1.2,1.35c-0.87,0.97-1.64,2.07-2.65,2.87c-2.47,1.98-5.34,3.3-8.21,4.6c-0.68,0.31-1.22,0.99-1.74,1.57   c-0.9,0.99-1.7,2.08-2.61,3.06c-0.52,0.56-1,0.42-1.31-0.32c-0.57-1.33-0.98-1.54-2.33-1.08c-4.45,1.52-8.9,3.06-13.33,4.64   c-0.42,0.15-0.72,0.64-1.22,1.11c-1.49,0-3.25,0-5,0c-9.41,0.03-18.83,0.08-28.24,0.08c-12.16,0-24.31-0.01-36.47-0.13   c-1.61-0.02-3.23-0.61-4.82-1.05c-2.6-0.73-5.16-1.58-7.74-2.36c-0.28-0.09-0.63-0.2-0.88-0.12c-3.36,1.18-6.8,0.96-10.23,0.56   c-1.61-0.19-3.2-0.55-4.81-0.81c-0.36-0.06-0.75-0.01-1.12-0.01c-0.05,0.12-0.11,0.25-0.16,0.37c1.47,1.13,2.94,2.26,4.52,3.48   c-9.65,0-19.17,0-28.8,0c0.25-0.39,0.46-0.73,0.8-1.27c-0.35,0.14-0.51,0.15-0.56,0.23c-0.73,1.16-1.86,1.12-3.03,1.12   c-8.16-0.03-16.32-0.04-24.48-0.05c-1.07,0-2.15,0-3.26,0c1.13-5.98,3.8-10.85,9.01-14.17c4.36-2.78,9.12-4.25,14.23-4.66   c0.93-0.07,1.87,0.1,3.06,0.18c0.36-3.09,0.74-6.28,1.15-9.73c-1.15-1.32-2.65-2.85-3.93-4.54c-2.52-3.31-4.92-6.72-7.38-10.08   c-0.52-0.71-0.61-1.43-0.4-2.3c1.33-5.67,2.62-11.34,3.92-17.01c0.06-0.28,0.09-0.61,0.01-0.88c-1.55-4.83-3.13-9.66-4.7-14.49   c-0.06-0.18-0.17-0.34-0.46-0.44c0.48,4.27,0.97,8.55,1.45,12.82c-0.11,0.03-0.22,0.05-0.33,0.08c-0.14-0.51-0.33-1.02-0.42-1.54   c-1.18-6.91-2.3-13.82-3.53-20.72c-0.92-5.17-2.04-10.3-2.94-15.47c-1.95-11.2-2.52-22.47-1.36-33.79   c0.94-9.19,3.17-18.08,6.51-26.67c5.12-13.15,10.96-25.95,18.9-37.69c1-1.48,2.09-2.92,3.21-4.32c0.49-0.62,0.69-1.17,0.42-1.94   c-0.66-1.95-0.64-3.9-0.11-5.9c0.38-1.43,1.22-2.49,2.54-2.97c3.03-1.09,6.17-1.79,9.43-1.6c0.77,0.05,1.53,0.37,2.58,0.64   c0.98-0.82,1.15-2.14,0.89-3.73c-0.22-1.39-0.22-2.85-0.08-4.25c0.06-0.58,0.68-1.15,1.13-1.64c0.48-0.52,1.09-0.91,1.6-1.4   c0.54-0.53,1.1-1.07,1.53-1.69c1.4-2.05,2.81-4.11,4.1-6.23c0.98-1.63,1.92-3.31,2.63-5.06c0.7-1.74,2.69-2.63,4.38-2.55   c0.79,0.04,1.28,0.03,1.53-0.97c0.59-2.37,1.38-4.69,2.07-7.04c0.5-1.72,0.97-3.45,1.45-5.17c-0.08-0.08-0.16-0.15-0.24-0.23   c-1.38,0.51-2.78,0.98-4.14,1.55c-2.01,0.85-4.14,1.08-6.28,1.24c-2.54,0.2-4.91-0.48-7.28-1.29c-2.21-0.76-4.48-1.38-6.72-2.04   c-1.94-0.57-3.5-1.76-4.95-3.07c-1.43-1.28-2.73-2.71-4.01-4.15c-1.42-1.6-1.89-3.62-2.14-5.67c-0.32-2.61-0.61-5.25,0.04-7.85   c0.53-2.13,1.18-4.22,1.86-6.3c0.1-0.32,0.62-0.59,1-0.71c2.16-0.64,4.33-0.4,6.51-0.09c3.45,0.48,6.91,0.98,10.38,1.29   c5.68,0.52,11.29-0.35,16.87-1.26c1.85-0.3,3.65-0.89,5.46-1.39c0.23-0.06,0.52-0.43,0.53-0.66c0.08-1.92,0.52-3.73,1.53-5.41   c-1.81-0.14-3.55-0.25-5.28-0.43c-0.4-0.04-0.81-0.25-1.15-0.48c-0.73-0.49-1.38-1.09-2.12-1.57c-1.99-1.31-4.08-2.48-5.98-3.91   c-2.29-1.71-4.31-3.66-5.6-6.37c-1.45-3.05-2.39-6.15-2.12-9.51c0.14-1.78,0.58-3.54,1.02-5.28c0.44-1.75,1.15-3.44,1.53-5.19   c0.27-1.2,0.18-2.48,0.27-3.72c0.02-0.29,0.13-0.58,0.14-0.62c0.73-0.33,1.27-0.58,1.91-0.88c0.36,0.33,0.73,0.75,0.45,1.51   c-0.77,2.08-0.82,4.1,0.1,6.23c1.54,3.55,4.39,5.36,7.84,6.52c3.37,1.13,6.9,1.15,10.39,1.37c2.82,0.18,5.64,0.26,8.46,0.3   c0.57,0.01,1.24-0.24,1.69-0.59c2.82-2.21,5.93-2.97,9.42-2.07c1.1,0.28,2.21,0.52,3.33,0.79c1.84-3.3,3.55-6.8,7.08-8.77   c1.01,1.46-0.13,1.9-0.8,2.71c-1.51,1.82-2.88,3.77-4.19,5.74c-0.48,0.72-0.64,1.66-0.96,2.49c-0.12,0.32-0.29,0.63-0.54,1.18   c-0.27-0.84-0.45-1.41-0.62-1.95c-0.75-0.05-1.56,0-2.33-0.16c-2.56-0.53-4.94,0.02-7.24,1.06c-0.18,0.08-0.31,0.45-0.31,0.69   c0.01,0.49,0.12,0.97,0.2,1.5c-0.38,0.06-0.58,0.14-0.76,0.11c-0.98-0.18-1.76-0.08-2.26,0.98c-0.14,0.29-0.79,0.53-1.16,0.48   c-0.45-0.07-1.1-0.16-1.07-0.96c0.03-0.82-0.68-0.74-1.18-0.76c-1.98-0.07-3.96-0.06-5.94-0.13c-4.1-0.15-8.23-0.31-12.16-1.56   c-3.1-0.99-5.74-2.84-7.51-5.67c-0.5-0.8-0.79-1.72-1.26-2.77c-1.32,4.53-1.93,8.92-0.89,13.36c0.44,1.86,1.61,3.42,2.94,4.83   c2.67,2.83,5.88,4.87,9.3,6.63c0.43,0.22,1,0.17,1.47,0.35c0.83,0.33,1.6,0.97,2.44,1.07c2.19,0.26,4.41,0.34,6.62,0.43   c1.11,0.04,2.25-0.22,3.32-0.03c1.66,0.3,2.55-0.72,3.31-1.75c1.17-1.59,2.24-3.27,3.12-5.04c0.6-1.21,0.79-2.61,1.15-3.93   c0.26-0.94-0.34-1.49-0.92-2.08c-0.46-0.47-0.85-1.01-1.31-1.58c2.18-0.9,3.5,0.72,4.04,2.44c0.6,1.9,0.14,3.74-0.59,5.5   c-1.11,2.69-2.59,5.18-4.8,7.12c-1.2,1.06-2.53,2.07-4.39,1.58c-0.48-0.13-1.05,0.1-1.57,0.18c-0.54,0.09-1.08,0.21-1.76,0.34   c-0.59,1.66-1.23,3.47-1.87,5.27c0.12,0.1,0.24,0.19,0.36,0.29c2.38-1.04,4.8-2,7.13-3.15c1.73-0.85,3.34-1.96,5.02-2.91   c0.2-0.12,0.66-0.1,0.79,0.05c0.22,0.23,0.47,0.72,0.37,0.93c-0.3,0.6-0.68,1.24-1.2,1.64c-3.56,2.72-7.64,4.43-11.73,6.16   c-1.07,0.45-1.99,0.64-3.1,0.79c-2.58,0.34-5.1,1.16-7.68,1.53c-3.72,0.53-7.46,0.95-11.2,1.18c-4.38,0.26-8.71-0.3-13.01-1.18   c-1.79-0.36-3.6-0.74-5.48-0.38c-0.98,0.19-1.57,0.67-1.9,1.57c-1.6,4.45-1.89,8.97-0.17,13.4c0.54,1.39,1.83,2.51,2.87,3.66   c0.66,0.73,1.45,1.38,2.29,1.89c1.16,0.7,2.38,1.33,3.65,1.8c2.44,0.91,4.93,1.68,7.39,2.52c2.28,0.77,4.64,0.91,6.99,0.57   c3.91-0.55,7.53-2.03,11.04-3.75c3.25-1.59,6.44-3.32,9.61-5.07c1.54-0.85,2.97-1.91,4.47-2.85c1.28-0.82,2.58-1.61,4.05-2.25   c-0.34,0.49-0.67,1-1.03,1.47c-1.32,1.72-3,3.01-4.73,4.31c-1.01,0.76-1.88,1.86-3,2.52c-2.67,1.55-5.42,2.95-8.13,4.43   c-0.22,0.12-0.55,0.36-0.55,0.54c0.01,3.22-1.04,6.21-1.87,9.27c-0.96,3.54-2.34,6.89-3.98,10.14c-0.19,0.38-0.44,0.74-0.71,1.18   c1.05,0.7,0.43,1.69,0.54,2.59c0.26,2.13,0.62,4.27,1.26,6.31c1.48,4.75,3.03,9.49,4.76,14.16c1.09,2.95,2.5,5.78,3.9,8.6   c1.31,2.65,2.7,5.27,4.23,7.79c1.83,3.02,3.8,5.95,5.78,8.87c1.57,2.33,3.16,4.67,4.9,6.88c1.83,2.32,3.81,4.51,5.81,6.69   c1.48,1.62,3.07,3.14,4.64,4.67c2.29,2.24,4.52,4.56,6.93,6.67c2.86,2.51,5.85,4.88,8.86,7.2c2.93,2.26,5.92,4.44,8.95,6.55   c1.47,1.02,3.11,1.81,4.69,2.68c0.12,0.07,0.32,0.05,0.47,0.02c1.09-0.19,1.55,0.21,1.53,1.67c-1.91-0.32-3.88-0.37-5.65-0.98   c-9.71-3.31-18.98-7.59-27.86-12.74c-8.13-4.71-16.06-9.73-23.3-15.73c-7.59-6.29-15.01-12.79-21.55-20.19   c-2.45-2.78-4.45-5.95-6.79-9.13c0.14,0.59,0.23,1.02,0.34,1.44c2.99,11.31,7.85,21.74,14.42,31.42   c5.21,7.68,11.14,14.74,17.5,21.47c5.23,5.54,10.67,10.89,15.7,16.6c4.18,4.75,9.14,8.3,14.61,11.29c2.88,1.57,5.71,3.24,8.58,4.85   c0.91,0.51,1.55,0.2,2.03-0.71c0.33-0.62,0.81-1.21,1.34-1.66c1.42-1.2,2.93-2.29,4.34-3.49c0.3-0.25,0.51-0.8,0.49-1.21   c-0.13-3.14-0.32-6.28-0.52-9.42c-0.1-1.58-0.28-3.16-0.36-4.75c-0.02-0.43,0.08-1.02,0.36-1.29c0.62-0.6,1.36-1.09,2.11-1.53   c2.09-1.25,4.2-2.45,6.49-3.78c-0.49-0.2-0.77-0.32-1.16-0.48c0.88-0.82,1.76-1.54,2.52-2.36c2.38-2.56,4.69-5.18,7.09-7.72   c0.82-0.87,0.6-1.87,0.67-2.84c0.15-2.12,0.34-4.24,0.25-6.36c-0.05-1.11,0.58-2.31-0.29-3.37c-0.11-0.14-0.1-0.54,0.02-0.67   c1.11-1.22,0.59-2.78,0.83-4.16c0.29-1.71,0.22-3.48,0.43-5.21c0.41-3.27,0.84-6.54,1.39-9.78c0.51-3,1.19-5.96,1.77-8.95   c0.13-0.66,0.16-1.33,0.26-1.99c0.2-1.29,0.79-2.34,1.95-3.02c0.1-0.06,0.15-0.2,0.33-0.46c-0.64,0.05-1.13,0.15-1.6,0.12   c-1.94-0.12-3.88-0.25-5.81-0.43c-0.62-0.06-0.93,0.1-1.09,0.73c-0.5,1.91-1.6,3.51-3.08,4.75c-0.71,0.6-1.72,0.92-2.65,1.16   c-1.39,0.36-2.82,0.59-4.25,0.75c-0.62,0.07-1.27-0.18-2.21-0.33c-1.13,2.81-2.4,5.8-3.54,8.84c-0.58,1.55-1.44,2.57-3.14,2.87   c-0.74,0.13-1.42,0.58-2.15,0.82c-2.62,0.89-5.19,0.13-7.74-0.39c-0.73-0.15-1.44-0.61-1.86-1.49c-0.51-1.06-1.38-1.95-2.03-2.95   c-0.51-0.8-0.94-1.65-1.36-2.5c-0.71-1.45-0.48-3.04-0.65-4.58c-0.22-1.99,0.09-3.88,0.69-5.73c1.08-3.35,2.95-6.2,5.64-8.49   c0.36-0.3,0.74-0.58,0.98-0.76c-1.32-1.98-2.64-3.65-3.63-5.5c-1.62-3.01-3.09-6.11-4.51-9.22c-0.85-1.87-1.63-3.8-2.21-5.76   c-0.98-3.29-1.78-6.62-2.64-9.94c-0.49-1.88-0.93-3.76-1.42-5.64c-0.59-2.24-1.23-4.46-1.82-6.71c-0.19-0.73-0.31-1.49-0.35-2.25   c-0.01-0.15,0.63-0.52,0.71-0.46c0.43,0.33,0.92,0.71,1.12,1.18c0.87,2.02,1.68,4.07,2.43,6.13c0.29,0.8,0.24,1.74,0.58,2.51   c0.65,1.46,1.46,2.86,2.23,4.27c1.16,2.1,2.81,3.77,4.71,5.17c1.57,1.16,3.45,1.64,5.38,1.79c1.23,0.09,2.36,0.43,3.27,1.28   c1.24,1.16,2.57,2.26,3.61,3.59c1.46,1.86,2.59,3.95,2.33,6.78c-0.49-0.37-0.94-0.58-1.22-0.93c-1.39-1.67-2.38-3.71-4.29-4.9   c-1.49-0.92-2.94-1.88-4.78-2.13c-2.66-0.37-4.96-1.63-6.93-3.47c-0.36-0.33-0.78-0.59-1.28-0.96c1.93,8.78,6.6,16.14,10.46,23.92   c1.51-0.54,2.84-1.11,4.22-1.48c1.24-0.32,2.36,0.1,3.25,1.07c0.09,0.09,0.19,0.25,0.28,0.25c1.39,0,1.73,1.07,2.18,2.06   C167.5,156.48,167.76,156.88,167.95,157.22z M68.89,353.85c0.8,0.92,0.77,1.13-0.34,1.55c-0.6,0.23-1.06,0.45-0.75,1.23   c0.58,1.45,1.14,2.91,1.67,4.37c0.38,1.04,1.76,1.67,2.82,1.32c0.39-0.13,0.86-0.04,1.29-0.04c-0.03,0.41-0.06,0.82-0.09,1.27   c2.76,0.05,5.56-0.04,8.37-0.85c-0.24-0.38-0.52-0.8-0.81-0.81c-1.6-0.05-3.24-0.16-4.81,0.09c-0.88,0.14-1.47,0.13-2.08-0.49   c-1.48-1.5-2.29-3.41-2.76-5.35c-0.38-1.54-1.28-1.97-2.53-2.27c-1.02-1.51-0.72-2.15,1.1-2.5c0.27-0.05,0.67-0.47,0.68-0.72   c0.06-1.81,0.22-3.5,1.43-5.06c0.89-1.16,0.82-1.36,2.27-1.18c1.98,0.24,3.96,0.46,5.95,0.66c0.57,0.06,0.98-0.07,0.85-0.86   c-0.15-0.88,0.42-1.22,1.23-1.19c0.4,0.01,0.79,0.09,1.19,0.14c0.02-0.11,0.03-0.22,0.05-0.34c-4.3-0.99-8.68-1.52-13.12-2.38   c0.48,0.94,0.85,1.65,1.21,2.36c-0.11,0.09-0.21,0.18-0.32,0.27c-1.32-0.98-2.63-1.95-4.21-3.12c-0.15,1.5-0.31,2.66-0.36,3.82   c-0.12,2.5-0.27,5-0.23,7.5c0.03,1.89,0.15,1.89,1.92,2.43C68.64,353.75,68.76,353.8,68.89,353.85z M183.71,316.99   c-0.06-0.11-0.12-0.23-0.17-0.34c0.17-0.15,0.33-0.32,0.51-0.46c5.44-4.31,10.89-8.6,16.33-12.92   c7.02-5.58,14.03-11.18,21.04-16.77c0.94-0.75,1.01-1.27,0.3-2.43c-2.89,1.48-5.59,3.36-8.69,4.47c0.62-0.7,1.31-1.27,2.06-1.77   c1.89-1.25,3.82-2.46,5.71-3.71c0.28-0.18,0.65-0.55,0.63-0.8c-0.12-1.85-0.34-3.7-0.52-5.54c-0.06-0.63-0.39-0.7-0.91-0.53   c-0.61,0.2-1.23,0.41-1.85,0.54c-0.77,0.16-0.99,0.5-0.74,1.28c0.25,0.79,0.34,1.62,0.5,2.44c-0.11,0.02-0.22,0.04-0.33,0.06   c-0.29-0.85-0.6-1.7-0.86-2.56c-0.18-0.59-0.49-0.73-1.06-0.56c-0.71,0.21-1.44,0.38-2.17,0.54c-4.6,1.01-9.21,1.96-13.94,2.15   c-0.39,0.02-0.79-0.08-1.19-0.12c-0.01-0.1-0.01-0.2-0.02-0.3c0.4-0.13,0.79-0.29,1.2-0.37c5.04-1.02,10.09-2.03,15.13-3.06   c0.39-0.08,0.75-0.26,1.13-0.39c0.03-0.11,0.05-0.21,0.08-0.32c-1.02,0.44-1.08-0.1-1.13-0.75c-0.16-2.4-0.87-4.65-1.98-6.77   c-0.17-0.33-0.69-0.63-1.08-0.68c-3.32-0.44-6.66-0.77-9.98-1.21c-2.95-0.39-5.87-1.08-8.83-1.26c-4.21-0.26-8.36-0.73-12.45-1.76   c-7.65-1.92-14.57-5.41-21.14-9.68c-0.76-0.5-1.45-0.96-2.41-0.42c-0.23,0.13-0.75-0.01-0.98-0.21c-0.14-0.12-0.01-0.6,0.04-0.9   c0.02-0.15,0.14-0.28,0.25-0.48c-14.1-9.98-28.15-19.93-42.2-29.89c2.43,3.15,5.12,6.13,7.14,9.62c-0.46-0.12-0.82-0.33-1.09-0.63   c-2.52-2.75-5.12-5.42-7.5-8.28c-2.81-3.38-6.02-6.17-9.86-8.33c-4.49-2.53-8.91-5.16-13.98-6.42c-2.77-0.69-5.53-0.68-8.19,0.37   c-5.21,2.04-9.01,5.54-10.93,10.91c-0.13,0.35-0.31,0.68-0.47,1.02c-0.09-0.02-0.19-0.04-0.28-0.06c-0.02-0.42-0.08-0.83-0.05-1.25   c0.17-2.21,1.09-4.13,2.49-5.79c4.41-5.17,11.21-8.79,19.06-6.11c3.16,1.08,6.19,2.54,9.24,3.91c1.46,0.66,2.83,1.52,4.25,2.3   c-2.84-3.63-5.86-7.08-8.78-10.61c-2.9-3.5-5.89-6.94-8.5-10.7c0.48,0.04,0.86,0.17,1.14,0.42c1.04,0.96,2.13,1.9,3.06,2.96   c6.02,6.79,11.99,13.62,18,20.42c0.55,0.63,1.21,1.19,1.91,1.65c4.37,2.91,8.76,5.78,13.15,8.66c2.12,1.4,4.25,2.79,6.38,4.18   c-0.68-0.97-1.51-1.77-2.32-2.58c-6.68-6.68-13.37-13.37-19.26-20.77c-3.37-4.23-6.27-8.83-9.52-13.16   c-3.46-4.62-6.1-9.67-8.26-14.99c-2.45-6.04-4.4-12.23-5.45-18.68c-0.17-1.02-0.23-2.06-0.38-3.37c-0.61,0.89-1.08,1.57-1.54,2.25   c-0.1-0.05-0.19-0.11-0.29-0.16c0.7-2.19,2.58-3.97,2.4-6.53c-1.21-0.12-2.39-0.17-3.55-0.36c-1.73-0.28-3.24,0.26-4.6,1.18   c-0.46,0.31-0.97,1.04-0.92,1.53c0.21,2.11,0.61,4.2,0.98,6.29c0.09,0.49,0.41,0.94,0.47,1.43c0.13,1.01,0,2.08,0.28,3.05   c0.89,3.12,1.8,6.24,2.93,9.28c1.1,2.95,2.48,5.79,3.71,8.68c0.21,0.48,0.31,1.01,0.46,1.51c-0.13,0.07-0.26,0.13-0.4,0.2   c-0.33-0.38-0.7-0.73-0.99-1.15c-3.85-5.63-6.29-11.89-8.15-18.4c-0.12-0.44-0.28-0.86-0.45-1.39c-0.29,0.2-0.48,0.28-0.6,0.42   c-0.75,0.91-1.55,1.8-2.21,2.78c-3.85,5.68-6.81,11.85-9.92,17.95c-5.28,10.38-9.27,21.2-11.51,32.66   c-1.25,6.39-2.35,12.79-2.05,19.35c0.54,11.85,1.76,23.63,3.84,35.31c2.56,14.44,6.4,28.53,11.36,42.33   c1.06,2.96,1.8,6.03,2.67,9.05c0.09,0.33,0.1,0.68,0.15,1.03c-0.08,0.03-0.16,0.06-0.24,0.09c-0.16-0.24-0.35-0.46-0.46-0.71   c-1.17-2.67-2.3-5.35-3.5-8c-0.29-0.65-0.92-1.15-1.17-1.8c-0.78-2.04-1.45-4.13-2.17-6.2c-0.16-0.45-0.37-0.89-0.59-1.4   c-0.15,0.18-0.22,0.22-0.23,0.28c-1.03,4.56-2.07,9.11-3.08,13.67c-0.06,0.29,0.01,0.7,0.18,0.94c3.03,4.11,6.08,8.21,9.14,12.31   c0.19,0.26,0.46,0.53,0.75,0.64c1.06,0.4,2.15,0.71,3.21,1.1c3.53,1.3,7.06,2.57,10.57,3.94c2.89,1.12,5.91,2.04,8.21,4.31   c0.15,0.15,0.42,0.22,0.65,0.24c1.11,0.1,2.23,0.18,3.34,0.23c0.22,0.01,0.62-0.17,0.63-0.3c0.09-0.8,0.72-0.89,1.29-1.1   c2.51-0.91,5.02-1.83,7.53-2.75c0.13-0.05,0.23-0.19,0.42-0.36c-0.42-0.19-0.72-0.33-1.02-0.46c-2.62-1.11-5.26-2.18-7.85-3.34   c-7.34-3.26-14.28-7.16-20.35-12.49c-0.28-0.25-0.43-0.64-0.64-0.96c0.34-0.09,0.68-0.19,0.97-0.27c-0.52-0.54-1.11-1.17-1.7-1.79   c0.08-0.11,0.16-0.21,0.24-0.32c0.3,0.09,0.61,0.14,0.89,0.28c3.21,1.59,6.45,3.14,9.63,4.81c9.65,5.07,19.74,9.09,30.06,12.54   c0.21,0.07,0.44,0.06,0.68,0.09c0.16-0.9-0.49-1.1-1.02-1.36c-4.83-2.35-9.31-5.27-13.49-8.64   c-12.93-10.42-21.82-23.84-28.59-38.81c-2.9-6.4-4.11-13.23-4.85-20.16c-0.2-1.9-0.23-1.89,1.57-2.21c0.07-0.01,0.13-0.04,0.2-0.05   c1.32-0.29,1.79,0.12,1.89,1.45c0.09,1.24,0.1,2.54,0.5,3.69c1.21,3.44,2.52,6.86,3.94,10.23c2.07,4.94,5.27,9.23,8.27,13.61   c3.73,5.45,7.93,10.54,12.84,14.99c2.93,2.65,5.8,5.38,8.79,7.97c5.39,4.65,11.2,8.77,17.23,12.51c5.02,3.12,10.33,5.78,15.52,8.65   c0.68,0.38,1.34,0.79,2.04,1.14c0.53,0.26,1.09,0.6,1.66,0.64c6.82,0.49,13.64,0.94,20.46,1.38c0.53,0.03,1.08-0.04,1.62-0.13   c17.45-2.91,32.41-10.68,44.97-23.11c4.5-4.46,8.73-9.15,12.71-14.1c3.62-4.51,7.63-8.7,11.46-13.04c0.52-0.59,1.01-1.21,1.53-1.84   c-1.5,0.79-2.91,1.52-4.32,2.29c-0.16,0.08-0.21,0.34-0.36,0.46c-0.32,0.25-0.69,0.66-1.01,0.63c-0.33-0.03-0.69-0.45-0.9-0.79   c-0.23-0.36-0.29-0.83-0.46-1.23c-0.61-1.53-1.22-3.05-1.87-4.67c-0.34,0.24-0.53,0.35-0.71,0.5c-4.61,3.92-9.07,8.06-13.88,11.73   c-7.64,5.84-15.5,11.38-23.28,17.03C184.51,316.66,184.09,316.8,183.71,316.99z M224.47,302.72c-0.05-0.05-0.1-0.11-0.15-0.16   c-0.57,0.61-1.14,1.21-1.7,1.84c-5.08,5.72-9.99,11.6-15.27,17.13c-8.21,8.6-18.01,14.91-29.09,19.23   c-4.87,1.9-9.9,3.25-15.03,4.23c-0.53,0.1-1.05,0.26-1.57,0.4c0,0.11-0.01,0.22-0.01,0.32c0.32,0.21,0.69,0.38,0.95,0.65   c0.22,0.24,0.53,0.74,0.44,0.87c-0.71,1.03-1.21,2.4-2.69,2.53c-2.28,0.2-4.58,0.5-6.85,0.36c-4.58-0.28-9.15-0.76-13.7-1.29   c-2.56-0.3-5.03-0.44-7.62,0.1c-4.54,0.93-9.13,1.65-13.73,2.15c-3.48,0.37-7.02,0.26-10.54,0.36c-0.67,0.02-1.24-0.3-1.13-0.98   c0.07-0.46,0.53-0.92,0.94-1.23c0.25-0.19,0.72-0.1,1.09-0.11c5.79-0.14,11.57-0.26,17.36-0.44c1.61-0.05,3.22-0.26,4.83-0.43   c0.2-0.02,0.38-0.24,0.81-0.54c-0.58-0.07-0.83-0.12-1.08-0.14c-4.01-0.29-8.03-0.53-12.04-0.88c-1.4-0.12-2.83-0.37-4.16-0.82   c-1.77-0.6-3.64-1.03-5.15-2.27c-0.2-0.16-1-0.02-1.08,0.17c-0.49,1.17-1.49,1.7-2.48,2.28c-0.68,0.4-1.13,0.93-1.07,1.8   c0.1,1.55,0.17,3.11,0.23,4.66c0.02,0.58,0.29,0.84,0.87,0.87c2.03,0.11,4.05,0.31,6.08,0.39c15.89,0.64,31.75,0.13,47.57-1.55   c0.5-0.05,1.01-0.07,1.51-0.11c0.02,0.11,0.04,0.22,0.06,0.33c-0.59,0.2-1.16,0.49-1.76,0.57c-4.73,0.63-9.45,1.33-14.19,1.78   c-8.2,0.78-16.43,0.99-24.66,0.94c-4.2-0.02-8.4-0.05-12.6-0.08c-0.73-0.01-1.45-0.09-2.37-0.16c0.25,1,0.43,1.82,0.65,2.62   c0.27,0.97,0.5,1.93-0.59,2.63c1.39,0.4,1.79,0.25,2.52-0.64c1-1.22,2.02-2.44,3.91-1.52c0.56,0.27,1.26,0.24,1.89,0.37   c10.74,2.11,21.52,2.31,32.34,0.71c3.78-0.56,7.57-1.06,11.35-1.6c0.44-0.06,0.86-0.22,1.29-0.33c-0.02-0.05-0.03-0.1-0.05-0.15   c-5.65,0-11.31,0-16.96,0c0.81-0.28,1.62-0.4,2.44-0.47c8.06-0.7,16.12-1.32,24.17-2.13c4.87-0.49,9.72-0.99,14.51-2.25   c9.03-2.37,17.78-5.48,26.45-8.89c5.54-2.18,11.24-3.96,16.55-6.72c0.32-0.17,0.72-0.17,1.08-0.24c0.05,0.09,0.1,0.18,0.14,0.26   c-1.1,1.61-2.76,2.72-4.05,4.19c5.6-2.12,10.88-4.88,16.25-7.77c-0.04,0.45-0.06,0.63-0.1,1.1c1.98-1.17,3.98-1.96,5.48-3.31   c4.83-4.37,9.22-9.16,12.96-14.52c3.81-5.46,6.85-11.37,9.69-17.37c0.74-1.57,1.11-3.31,1.59-4.99c0.07-0.23-0.14-0.59-0.32-0.81   c-0.69-0.87-1.39-1.75-2.15-2.57c-4.36-4.64-7.81-9.86-10.26-15.74c-0.13-0.31-0.33-0.6-0.56-1.02c-0.39,0.55-0.66,0.93-0.94,1.31   c-1.42,1.9-2.78,3.84-4.26,5.69c-2.13,2.66-4.87,4.36-8.24,5.02c-0.55,0.11-1.08,0.34-1.66,0.53c0.1,0.27,0.19,0.5,0.38,0.98   c-0.66-0.11-1.13-0.23-1.6-0.27c-0.3-0.02-0.75-0.03-0.88,0.14c-1.29,1.68-2.52,3.4-3.93,5.33c0.53-0.19,0.8-0.3,1.08-0.38   c2.93-0.93,5.82-2.08,8.81-2.74c3.46-0.77,7-1.21,10.53-1.61c1.19-0.14,2.46,0.24,3.66,0.49c0.26,0.06,0.42,0.59,0.63,0.91   c-0.33,0.11-0.65,0.33-0.98,0.33c-9.15,0.09-17.76,2.3-25.78,6.69c-0.98,0.54-1.88,1.34-2.59,2.2c-2.99,3.63-5.9,7.33-8.84,11.01   c-0.25,0.32-0.51,0.63-0.77,0.95c0.25,0.03,0.36-0.04,0.47-0.12c4.98-3.68,9.91-7.43,14.97-11c2.96-2.09,6.16-3.84,9.68-4.85   c1-0.29,2.05-0.4,3.07-0.59c0.03,0.1,0.05,0.21,0.08,0.31c-0.32,0.16-0.65,0.31-0.97,0.47c-1.88,0.92-3.86,1.69-5.63,2.8   c-6.82,4.27-13.19,9.17-19.23,14.45c-6.29,5.51-12.28,11.35-18.39,17.05c-2.72,2.54-5.39,5.14-8.11,7.68   c-0.46,0.43-1.05,0.73-1.58,1.09c-0.1-0.1-0.2-0.2-0.29-0.3c0.5-0.73,0.92-1.53,1.51-2.17c5.14-5.53,10.3-11.04,15.48-16.53   c1.3-1.38,2.86-2.54,4-4.03C218.48,311.09,221.44,306.88,224.47,302.72z M234.52,244.44c-0.12,0.03-0.25,0.05-0.37,0.08   c-0.34-0.65-0.78-1.26-1.01-1.94c-1.05-3-2.1-6-3.04-9.04c-1.45-4.72-2.81-9.47-5.13-13.88c-3.59-6.81-9.05-11.23-16.61-12.84   c-1.55-0.33-3.24-0.28-4.83-0.11c-2.44,0.26-4.37,2.52-4.5,4.94c-0.03,0.51,0.02,1.03-0.08,1.52c-0.23,1.12-0.5,2.23-0.81,3.33   c-0.06,0.19-0.4,0.44-0.6,0.42c-0.19-0.01-0.45-0.3-0.53-0.51c-0.15-0.44-0.27-0.92-0.29-1.38c-0.09-2.64-0.08-5.28-0.25-7.92   c-0.08-1.24-0.45-2.47-0.75-3.69c-0.07-0.29-0.39-0.51-0.6-0.78c-0.19,0.14-0.29,0.22-0.41,0.29c-0.13,0.08-0.26,0.16-0.37,0.22   c-1.7-2.09-3.6-3.71-6.29-4.18c0,1.27,0,2.42,0,3.5c0.47-0.23,0.96-0.62,1.15-0.51c0.3,0.18,0.55,0.7,0.55,1.07   c0,0.9,0.42,1.45,1.11,1.91c0.56,0.38,1.11,0.78,1.66,1.17c1.37,1,1.37,1,0.25,2.29c-0.04,0.05-0.1,0.1-0.11,0.17   c-0.32,1.44-0.64,2.87-0.96,4.31c0.1,0.03,0.21,0.06,0.31,0.09c0.22-0.75,0.39-1.52,0.67-2.24c0.12-0.32,0.45-0.56,0.69-0.83   c0.17,0.33,0.52,0.68,0.47,0.97c-0.11,0.69-0.31,1.4-0.64,2.01c-1.45,2.67-2.9,5.34-4.47,7.93c-1.77,2.93-3.69,5.76-5.5,8.66   c-3.72,5.97-7.97,11.53-13.13,16.34c-0.94,0.87-2.02,1.58-3.04,2.37c-0.12-0.14-0.24-0.28-0.36-0.41c2.03-2.09,4.13-4.12,6.07-6.29   c1.98-2.22,3.89-4.51,5.66-6.9c1.72-2.32,3.23-4.8,4.83-7.2c-6.41,8.03-13.02,15.83-21.13,22.35c0.32,0.23,0.5,0.39,0.7,0.5   c6.25,3.48,12.68,6.6,19.38,9.1c1.43,0.53,3.01,0.76,4.55,0.91c1.71,0.17,3.45,0.02,5.16,0.17c5.09,0.45,10.18,0.98,15.26,1.47   c0.85,0.08,1.71,0.09,2.7,0.13c-2.9-7.15-6.94-13.39-10.96-19.7c0.49,0.09,0.94,0.26,1.16,0.59c1.91,2.88,3.78,5.78,5.65,8.67   c0.28,0.43,0.53,0.89,0.79,1.33c0.04-0.02,0.08-0.04,0.12-0.06c-0.37-0.96-0.74-1.91-1.1-2.87c0.09-0.03,0.18-0.07,0.26-0.1   c0.2,0.38,0.41,0.76,0.59,1.15c1.54,3.39,3.09,6.77,4.6,10.17c0.29,0.66,0.63,1,1.39,1.05c2.7,0.19,5.4,0.42,8.09,0.7   c0.98,0.1,1.55-0.25,2.07-1.05c2.71-4.2,4.9-8.66,6.58-13.37c0.47-1.31,0.97-2.6,1.53-3.87c0.13-0.3,0.57-0.46,0.86-0.69   c0.1,0.35,0.33,0.73,0.27,1.05c-1.14,5.98-3.31,11.57-6.45,16.79c-0.2,0.33-0.39,0.68-0.76,1.32c2-0.18,3.71-0.34,5.41-0.48   c0.63-0.05,0.88-0.38,1.09-0.98c0.19-0.56,0.58-1.14,1.05-1.49c1.87-1.39,3.8-2.68,5.7-4c-0.21-0.12-0.49-0.26-0.86-0.47   c0.97-1.36,2.33-1.86,3.72-2.24c2.28-0.62,4.41-0.5,6.01,1.66c-0.93-1.87-1.95-3.61-2.95-5.36c-0.44-0.76-0.87-1.53-1.25-2.32   c-1.12-2.31-2.12-4.68-3.35-6.92c-0.55-1-1.48-1.85-2.39-2.58c-0.49-0.39-1.31-0.47-1.98-0.51c-0.69-0.04-0.99,0.35-0.84,1.13   c0.29,1.56,0.5,3.14,0.7,4.72C234.65,243.67,234.55,244.06,234.52,244.44z M105.14,125.17c-1.68-0.15-2.48,0.68-3.1,2.01   c-0.69,1.47-1.63,2.81-2.45,4.21c-0.88,1.5-1.88,2.94-2.58,4.52c-0.65,1.45-1.3,2.79-2.79,3.52c-0.23,0.11-0.54,0.29-0.61,0.5   c-0.52,1.81-1.38,3.58-1.03,5.53c0.3,1.67,0.71,3.31,1.07,4.97c0.92,4.2,2.81,8.04,4.43,11.98c0.71,1.72,1.75,3.3,2.59,4.96   c1.22,2.39,2.39,4.8,3.59,7.2c1.24,2.47,2.56,4.89,4.81,6.62c0.37,0.29,0.73,0.6,1.07,0.93c5.84,5.55,12.15,10.52,18.88,14.94   c8.61,5.65,17.37,11.04,26.83,15.18c1.38,0.6,2.77,1.21,4.16,1.81c-0.39-0.55-0.88-0.89-1.36-1.26c-1.14-0.88-2.26-1.78-3.41-2.65   c-2.12-1.61-4.31-3.15-6.36-4.84c-1.63-1.34-3.09-2.87-4.64-4.31c-4.36-4.03-8.76-8.01-12.41-12.73c-1.99-2.57-4.2-4.99-6.11-7.62   c-2.23-3.06-4.3-6.24-6.33-9.43c-1.49-2.34-2.8-4.79-4.18-7.19c-0.82-1.43-1.69-2.83-2.38-4.31c-1.01-2.15-1.93-4.35-2.81-6.57   c-1.06-2.68-2.06-5.38-3.02-8.09c-0.69-1.95-1.39-3.92-1.9-5.93c-0.57-2.21-1.03-4.45-1.34-6.7c-0.19-1.34-0.17-2.76,0.06-4.09   C104.01,127.25,104.67,126.25,105.14,125.17z M158.51,156.73c0.05,0.12,0.1,0.24,0.16,0.36c-1.34-0.4-2.19,0.3-3.06,1.12   c-2.37,2.23-4,4.91-5.13,7.95c-1.02,2.76-0.15,5.3,0.7,7.86c0.14,0.41,0.29,0.83,0.48,1.22c1.22,2.53,3.32,3.86,6.04,4.24   c1.71,0.24,3.41,0.21,4.86-0.94c0.5-0.4,0.9-1.05,1.46-1.22c0.94-0.29,1.37-0.9,1.68-1.72c0.23-0.59,0.4-1.22,0.71-1.76   c1.74-2.97,3.46-5.95,5.3-8.85c0.55-0.86,1.43-1.55,2.26-2.18c0.24-0.18,1.04-0.05,1.24,0.21c0.45,0.57,0.23,1.17-0.37,1.64   c-0.56,0.43-1.06,0.93-1.8,1.59c1.42,0,2.49-0.01,3.56,0c2.3,0.02,3.5-1.49,4.43-3.29c0.1-0.19-0.16-0.82-0.36-0.88   c-2.2-0.67-4.06-1.91-5.79-3.39c-0.21-0.18-0.53-0.35-0.79-0.34c-1.24,0.05-2.49,0.11-3.71,0.3c-0.41,0.06-0.73,0.58-1.15,0.76   c-0.43,0.19-1.01,0.44-1.38,0.29c-0.5-0.2-0.83-0.2-1.23,0.09c-0.32,0.23-0.61,0.58-0.97,0.67c-0.46,0.11-0.97,0.01-1.46-0.01   c0.02-0.34-0.06-0.74,0.1-1c0.23-0.39,0.57-0.85,0.96-0.99c1.19-0.42,1.22-1.11,0.58-1.97c-0.22-0.29-0.63-0.45-0.99-0.6   c-0.29-0.13-0.74-0.06-0.91-0.26c-0.64-0.74-1.42-0.75-2.23-0.54c-0.87,0.22-1.73,0.52-2.56,0.87   C158.88,156.1,158.72,156.47,158.51,156.73z M181.32,219.73c-1.58,0.79-3.13,1.44-4.55,2.3c-2.34,1.42-4.62,2.96-6.88,4.5   c-0.35,0.24-0.68,0.77-0.7,1.19c-0.25,4.05-0.43,8.1-0.63,12.15c-0.01,0.18,0.02,0.37,0.04,0.55c0.08,0.05,0.17,0.1,0.25,0.15   c2.48-2.71,4.95-5.42,7.43-8.13c-0.38-0.18-0.58-0.14-0.77-0.12c-1.79,0.23-3.12-0.56-3.46-2.05c-0.41-1.77,0.4-3.26,2.08-3.85   c0.21-0.07,0.44-0.18,0.6-0.34c1.42-1.36,3.99-0.58,4.48,1.37c0.07,0.27,0.12,0.54,0.21,0.96c0.33-0.38,0.55-0.63,0.76-0.89   c2.02-2.5,4.01-5.03,6.05-7.51c2.81-3.42,3.95-7.5,4.59-11.75c0.23-1.51-0.05-1.8-1.58-2.38c-1.04,1.92-2.53,3.71-1.72,6.18   c0.11,0.33-0.1,0.75-0.16,1.13c-0.11-0.01-0.22-0.02-0.33-0.02c-0.14-0.75-0.29-1.5-0.48-2.49c-1.93,3.06-3.71,5.88-5.57,8.82   c0.44-0.04,0.98-0.12,1.51-0.13c0.54-0.01,1.09,0.07,1.74,0.11C182.73,220.74,181.83,220.88,181.32,219.73z M90.61,150.27   c-0.08,0-0.17,0.01-0.25,0.01c-0.38,0.77-0.6,1.7-1.17,2.29c-1.27,1.33-0.72,2.59-0.15,3.91c0.89,2.03,1.5,4.26,2.75,6.03   c2.15,3.05,4.71,5.82,7.11,8.7c0.1,0.12,0.28,0.19,0.64,0.42c-0.65-1.39-1.16-2.55-1.71-3.68c-1.19-2.46-2.46-4.88-3.57-7.37   c-1.03-2.31-1.92-4.68-2.79-7.06C91.07,152.47,90.88,151.36,90.61,150.27z M254.39,271.02c-0.11-0.04-0.22-0.09-0.32-0.13   c-0.64,1.1-2.79,0.77-2.42,2.84c0.02,0.1-0.12,0.24-0.19,0.35c-1.48,2.25-3.17,4.31-5.45,5.79c-1.21,0.79-2.48,1.55-3.99,1.59   c-1.11,0.03-1.98,0.59-2.34,1.57c0.59-0.13,1.25-0.29,1.92-0.44c-0.05,0.49-0.11,0.98-0.18,1.64c0.75,0.05,1.74,0.39,2.5,0.11   c1.37-0.52,2.85-1.16,3.83-2.19c2.58-2.71,4.92-5.65,7.33-8.51c0.14-0.16,0.15-0.52,0.08-0.75   C254.93,272.25,254.65,271.64,254.39,271.02z M213.68,267.43c0,0.24-0.03,0.35,0,0.43c0.99,2.45,1.98,4.89,2.99,7.32   c0.07,0.16,0.38,0.37,0.52,0.34c0.96-0.24,1.9-0.54,2.91-0.84c-0.43-0.87-0.71-1.6,0.15-2.04c1.61-0.83,3.24-1.6,4.89-2.34   c1.12-0.5,2.29-0.91,3.44-1.36c-0.24-0.24-0.42-0.29-0.61-0.3c-1.79-0.06-3.59-0.07-5.38-0.18c-1.19-0.08-2.26-0.15-3.29,0.77   c-0.84,0.76-1.54,0.33-1.87-0.83c-0.07-0.24-0.31-0.56-0.52-0.6C215.86,267.64,214.78,267.55,213.68,267.43z M81.18,305.26   c7.88,12.51,18.15,22.42,31.59,28.84c-5.59-4.41-11.4-8.58-16.81-13.2C90.5,316.23,85.73,310.83,81.18,305.26z M209.06,352.02   c0.55-0.19,0.88-0.29,1.2-0.43c2.47-1.03,4.94-2.05,7.39-3.11c6.37-2.76,12.62-5.78,18.48-9.53c1-0.64,1.92-1.4,2.88-2.1   c-0.37-0.08-0.61,0.02-0.84,0.15c-5.73,3.15-11.67,5.87-17.74,8.3c-1.97,0.79-3.96,1.62-5.79,2.69   C212.75,349.11,211.06,350.56,209.06,352.02z M237.36,267.3c-0.87,0.59-1.47,1.08-2.15,1.43c-1.04,0.55-1.25,1.29-0.84,2.35   c1.22,3.19,2.41,6.39,3.62,9.59c0.11,0.29,0.33,0.54,0.57,0.93c0.89-0.78,1.66-1.45,2.44-2.13   C238.33,275.87,236.94,272.01,237.36,267.3z M82.27,328.14c-0.05,0.11-0.11,0.22-0.16,0.33c3.55,1.8,7.02,3.79,10.67,5.36   c7.01,3.03,14.12,5.84,21.2,8.73c2.13,0.87,4.27,1.71,6.41,2.55c0.63,0.25,1.21,0.12,1.39-0.54c0.05-0.19-0.48-0.7-0.84-0.83   c-1.96-0.73-3.95-1.41-5.94-2.07c-9.67-3.2-19.26-6.59-28.35-11.26C85.18,329.68,83.73,328.91,82.27,328.14z M247.55,344.7   c0.01-0.1-0.02,0.08-0.01,0.27c0.16,3.17,0.31,6.35,0.51,9.51c0.02,0.39,0.26,0.86,0.55,1.13c1.94,1.73,3.92,3.42,5.89,5.12   c0.05,0.04,0.17,0.01,0.02,0.01C252.17,355.35,249.81,349.92,247.55,344.7z M233.43,261.76c0.35,0.31,0.52,0.46,0.69,0.61   c0.63,0.58,0.66,1.46-0.07,1.88c-0.98,0.57-0.67,1.29-0.51,2.1c0.78-0.1,1.21-0.37,1.43-1.13c0.24-0.83,0.58-1.66,1.04-2.4   c1.52-2.49,3.72-4.24,6.33-5.5c0.64-0.31,1.26-0.67,1.88-1.01c-0.04-0.14-0.09-0.29-0.13-0.43c-0.4,0.04-0.86-0.03-1.19,0.15   c-2.23,1.19-4.45,2.4-6.64,3.68C235.3,260.27,234.45,261.01,233.43,261.76z M245,348.41c0.1-0.02,0.2-0.04,0.31-0.06   c-0.34-3.82-0.29-7.68-1.07-11.63c-1.05,0.77-1.9,1.38-2.74,2.01c-0.38,0.29-0.96,0.51-0.56,1.18c0.34,0.56,0.38,1.37,1.47,1.14   c0.43-0.09,1.16,0.33,1.47,0.73c0.44,0.57,0.01,1.1-0.49,1.56c-0.23,0.21-0.44,0.72-0.34,0.96   C243.65,345.7,244.34,347.05,245,348.41z M222.22,266.58c0.49,0.04,0.88,0.09,1.27,0.09c2.13,0.02,4.26-0.01,6.39,0.06   c0.83,0.03,0.94-0.33,0.95-1.02c0.01-0.74-0.26-0.92-0.96-0.88c-1.82,0.11-3.65,0.23-5.47,0.17   C223.22,264.97,222.69,265.52,222.22,266.58z M228.45,274.1c-1.14,0.21-2.08,0.32-2.99,0.57c-0.37,0.1-0.96,0.56-0.93,0.77   c0.15,0.9,0.49,1.77,0.78,2.65c0.01,0.03,0.27,0.03,0.37-0.03c1.13-0.66,2.29-1.28,3.35-2.04c0.29-0.2,0.46-0.89,0.34-1.24   C229.27,274.46,228.71,274.28,228.45,274.1z M114.84,338.19c-0.03,0.16-0.05,0.33-0.08,0.49c4.08,1.42,8.15,2.84,12.23,4.26   c0.07-0.13,0.13-0.25,0.2-0.38c-0.56-0.37-1.07-0.89-1.69-1.1c-3.22-1.11-6.47-2.15-9.72-3.19   C115.49,338.19,115.15,338.22,114.84,338.19z M236.96,285.85c-0.16-0.02-0.31-0.04-0.47-0.06c-2.29,3.23-4.57,6.46-6.86,9.69   c0.27,0.02,0.44-0.05,0.54-0.17c2.29-2.85,4.58-5.7,6.83-8.58C237.14,286.56,236.98,286.15,236.96,285.85z M212.6,264.5   c-0.05,0.11-0.09,0.22-0.14,0.33c0.28,0.18,0.53,0.46,0.84,0.52c1.65,0.33,3.31,0.62,4.97,0.91c0.94,0.17,1.39-0.36,1.74-1.27   C217.47,264.81,215.04,264.65,212.6,264.5z M162.28,252.13c4.09,2.82,8.48,5.13,13.17,6.83c0.04-0.08,0.09-0.17,0.13-0.25   C171.14,256.51,166.71,254.32,162.28,252.13z M175.16,230.49c1.14-0.02,2.28-1.03,2.23-1.84c-0.01-0.23-0.36-0.65-0.49-0.62   c-0.65,0.12-1.35,0.25-1.9,0.59c-0.33,0.2-0.56,0.81-0.54,1.22C174.48,230.11,175.01,230.36,175.16,230.49z M224.27,282.73   c-0.09-0.03-0.18-0.06-0.27-0.1c-0.07,0.3-0.27,0.64-0.19,0.88c0.72,2.21,1.47,4.42,2.26,6.61c0.08,0.22,0.43,0.34,0.65,0.51   c-0.01-0.26,0.05-0.55-0.04-0.78c-0.33-0.85-0.78-1.65-1.06-2.51C225.12,285.82,224.71,284.27,224.27,282.73z M77.19,353.19   c-1.27,0.11-2.37,0.18-3.47,0.32c-0.12,0.02-0.32,0.45-0.26,0.63c0.09,0.31,0.29,0.73,0.55,0.83   C74.61,355.21,76.68,354.1,77.19,353.19z M96.69,344.04c2.75,0.45,4.07-0.1,4.18-1.72C99.43,342.91,98.06,343.48,96.69,344.04z    M223.37,281.41c0.71-0.85,0.17-4.9-0.81-5.81C222.82,277.45,223.08,279.31,223.37,281.41z M68.01,336.97   c-0.05,0.09-0.1,0.17-0.15,0.26c1.1,1.8,3.09,0.97,4.58,1.6c0.04-0.11,0.07-0.21,0.11-0.32C71.04,337.99,69.53,337.48,68.01,336.97   z M211.15,264.92c0.03-0.17,0.06-0.34,0.09-0.51c-1.76-0.23-3.53-0.4-5.33-0.43C207.65,264.29,209.4,264.61,211.15,264.92z"
   id="path1" />
	<path
   class="st1"
   d="M193.74,32.16c0.12,0.46,0.33,0.91,0.34,1.37c0.08,2.59-0.22,5.03-1.63,7.39c-1.65,2.74-4.09,4.53-6.57,6.29   c-2.29,1.63-4.79,2.95-7.17,4.39c5.27,1.1,7.73,4,7.02,8.45c2.01-1.52,4.16-2.81,5.86-4.53c1.61-1.62,3.27-3.31,4.11-5.57   c0.38-1.01,1.03-1.92,1.52-2.9c0.16-0.32,0.25-0.71,0.27-1.07c0.08-1.8,0.2-3.61,0.15-5.4c-0.04-1.43-0.21-2.89-0.54-4.28   c-0.19-0.82-0.79-1.54-1.2-2.31c-0.11-0.21-0.32-0.43-0.3-0.63c0.05-0.41,0.22-0.8,0.35-1.19c0.38,0.21,0.89,0.33,1.11,0.65   c1.29,1.93,2.19,4.03,2.51,6.36c0.2,1.44,0.6,2.86,0.63,4.3c0.02,1.41-0.15,2.87-0.53,4.22c-0.82,2.92-2.33,5.54-4.2,7.89   c-1.09,1.36-2.49,2.49-3.83,3.63c-1.57,1.34-3.25,2.55-4.85,3.86c-0.8,0.65-1.71,0.85-2.65,0.69c-0.33-0.06-0.72-0.62-0.8-1   c-0.09-0.43,0-1.04,0.26-1.37c0.42-0.53,1.04-0.9,1.59-1.35c-1.56-2.78-3.41-5.23-7.52-4.61c1.06,1.23,2.04,2.3,2.93,3.44   c0.95,1.21,1.91,2.38,2.09,4.05c0.11,1,0.66,1.97,1.08,2.93c0.08,0.19,0.43,0.29,0.67,0.36c3.51,1.13,6.7,2.71,9,5.77   c0.31,0.41,1.34,0.44,2.01,0.37c3.83-0.36,7.55-1.21,11.12-2.71c1.67-0.7,3.4-1.25,5.11-1.85c2.25-0.79,4.45-1.77,6.76-2.3   c2.5-0.58,5.1-0.79,7.67-1.05c3.88-0.4,7.68,0.37,11.44,1.12c2.45,0.49,4.72,1.67,6.74,3.2c0.96,0.73,2.05,1.37,2.78,2.29   c2.49,3.15,2.67,6.87,1.95,10.58c-0.59,3.02-2.69,5.25-5.03,7.15c-3.55,2.89-7.77,4.35-12.11,5.54   c-6.01,1.66-12.11,1.68-18.21,0.76c-2.35-0.36-4.73-0.83-6.96-1.64c-1.88-0.68-3.74-1.66-4.97-3.39c-0.3-0.43-0.45-0.96-0.73-1.58   c0.32,0.02,0.57-0.03,0.66,0.06c1.39,1.55,3.26,2.26,5.14,2.91c3.35,1.15,6.87,1.54,10.36,1.69c2.97,0.13,5.97-0.12,8.94-0.4   c4.05-0.38,7.85-1.7,11.52-3.46c2.97-1.42,5.49-3.34,7.39-6.03c1.93-2.73,1.91-5.73,1.06-8.81c-0.06-0.22-0.17-0.46-0.33-0.62   c-1.13-1.14-2.19-2.37-3.44-3.36c-2.46-1.92-5.33-2.79-8.46-2.97c-2.27-0.13-4.53-0.68-6.8-0.74c-1.84-0.04-3.69,0.44-5.55,0.57   c-2.96,0.21-5.61,1.5-8.4,2.32c-1.69,0.5-3.33,1.14-5,1.71c-2.24,0.76-4.45,1.66-6.74,2.22c-2.06,0.5-4.21,0.63-6.55,0.95   c0.06,0.6,0.18,1.37,0.21,2.14c0.07,1.61,0.26,3.23,0.09,4.81c-0.15,1.38-0.74,2.71-1.16,4.14c2.47,3.92,6.09,6.84,10.06,9.4   c-0.04,0.11-0.09,0.22-0.13,0.33c-0.24,0.02-0.49,0.11-0.71,0.06c-2.34-0.46-4.37-1.44-6.06-3.2c-1.41-1.46-3.03-2.72-4.38-3.9   c-1.77,1.02-3.48,2-5.29,3.05c3.3,1.08,6.87,0.82,10.36,2.05c-2.91,1.92-15.85-1.65-16.85-4.48c0.43,0.12,0.79,0.21,1.15,0.31   c0.07-0.06,0.13-0.12,0.2-0.19c-0.52-0.59-0.94-1.37-1.58-1.76c-4.08-2.44-4.9-6.27-4.02-10.36c0.3-1.38,0.8-2.73,1.34-4.04   c0.54-1.31,1.24-2.55,1.97-4.03c-0.35,0.23-0.54,0.43-0.78,0.5c-0.29,0.08-0.72,0.18-0.88,0.04c-0.17-0.15-0.25-0.7-0.12-0.86   c0.68-0.83,1.37-1.67,2.2-2.35c0.55-0.45,0.55-0.71,0.18-1.22c-0.63-0.89-1.32-1.76-1.79-2.73c-1.07-2.19-2.64-3.96-4.35-5.65   c-2.97-2.93-6.62-4.67-10.46-6.05c-0.89-0.32-1.92-0.23-2.88-0.37c-1.58-0.22-3.15-0.51-4.74-0.71c-0.62-0.08-1.27-0.07-1.88,0.05   c-1.29,0.24-2.56,0.57-3.9,0.88c0.29-0.38,0.63-0.87-0.42-0.91c1.33-1.33,2.91-1.94,4.47-2.17c1.97-0.29,4.02-0.11,6.03-0.11   c0.79,0,1.63-0.14,2.37,0.06c1.77,0.48,3.54,1.04,5.24,1.74c1.88,0.78,3.67,1.76,5.29,2.54c0.51-0.27,1-0.58,1.52-0.8   c1.88-0.77,3.84-1.37,5.63-2.31c2.01-1.05,3.96-2.27,5.76-3.64c2.55-1.94,4.95-4.1,5.78-7.4c0.31-1.22,0.4-2.5,0.63-3.75   c0.09-0.51,0.27-1,0.41-1.51C193.47,32.14,193.61,32.15,193.74,32.16z M194.16,80.2c0.06-4.49-1.7-7.03-4.82-8.83   c-2.19-1.27-4.52-2.07-6.99-2.57c-0.61-0.12-0.91,0.01-1.16,0.6c-0.74,1.78-1.56,3.52-2.31,5.3c-0.97,2.28-1.36,4.66-1.22,7.13   c0.05,0.96,0.37,1.76,1.01,2.46c1.89,2.05,4.25,3.05,7,3.19c2.06,0.1,4-0.13,5.72-1.54C193.5,84.21,194.18,81.97,194.16,80.2z"
   id="path2" />
	<path
   class="st1"
   d="M168.69,110.79c0.5-0.92,0.93-1.9,1.52-2.76c2.7-3.87,6.02-7.08,10.31-9.15c2.97-1.43,6.14-2.31,9.42-2.52   c4.07-0.26,8.15-0.27,12.23-0.37c1.2-0.03,2.41,0.03,3.62,0.05c0.17,0,0.35,0,0.5-0.06c1.96-0.74,3.73,0.17,5.55,0.62   c0.81,0.2,1.63,0.47,2.45,0.5c2.5,0.11,4.9,1.1,7.49,0.61c1.47-0.28,3.06,0.09,4.59,0.05c2.07-0.06,4.14-0.33,6.21-0.32   c2.58,0.01,5.2-0.01,7.72,0.44c1.54,0.28,3.12,0.74,4.64,1.42c1.99,0.89,3.75,2.01,5.35,3.43c1.05,0.93,1.97,2,2.91,3.04   c0.41,0.46,0.68,1.06,1.1,1.51c0.62,0.65,0.81,1.36,0.85,2.25c0.09,2,0.43,4,0.49,6c0.08,2.42,0.28,4.89-0.1,7.25   c-0.62,3.79-1.6,7.53-2.58,11.25c-0.59,2.26-1.4,4.48-2.24,6.67c-0.59,1.54-1.35,3.02-2.15,4.46c-0.53,0.96-1.25,1.82-1.89,2.72   c-0.24,0.34-0.52,0.67-0.75,1.02c-0.33,0.52-0.66,1.01-1.48,0.86c0.76-1.8,1.49-3.54,2.26-5.37c-3.04-0.25-5.94-0.49-8.84-0.73   c0.86-0.82,1.9-0.72,2.88-0.74c1.06-0.02,2.14,0,3.19,0.13c1.02,0.13,2.03,0.43,3.22,0.7c0.69-2.1,1.24-4.24,2.09-6.25   c1.24-2.95,1.76-6.06,2.38-9.16c0.92-4.59,1.36-9.22,1.19-13.92c-0.14-3.87-1.58-7-4.69-9.42c-1.34-1.05-2.6-2.18-4.23-2.71   c-2.3-0.75-4.48-1.76-7-1.9c-4.02-0.22-8.04-0.05-12.05-0.09c-3.61-0.03-7.27,0-10.77-1.15c-1.75-0.58-3.47-1.28-5.24-1.76   c-0.95-0.26-2-0.24-3-0.2c-3.36,0.1-6.71,0.23-10.07,0.43c-2.31,0.14-4.64,0.27-6.91,0.67c-3.07,0.54-6.09,1.25-8.9,2.83   c-3.83,2.16-6.73,5.24-9.46,8.56c-0.42,0.51-1,0.89-1.51,1.33C168.88,110.94,168.78,110.86,168.69,110.79z"
   id="path3" />
	<path
   class="st1"
   d="M197.13,110.2c0.48-1.28,1.5-1.24,2.35-1.39c2.24-0.39,3.99,0.7,5.56,2.09c0.97,0.86,1.91,1.81,2.65,2.87   c0.95,1.38,1.77,2.87,2.49,4.39c0.96,2,1.39,4.18,1.15,6.38c-0.23,2.17-0.2,4.46-1.75,6.31c-1.61,1.91-3.5,3.41-5.85,4.25   c-0.5,0.18-1.17,0.02-1.72-0.12c-1.52-0.41-3.2-0.38-4.42-1.65c-1.06-1.1-1.69-2.38-2.01-3.85c-0.05-0.23-0.09-0.47-0.19-0.68   c-0.78-1.55-0.65-3.18-0.49-4.82c0.29-3.09,2.05-5.19,4.56-6.73c1.81-1.11,3.81-1.1,5.71-0.26c0.64,0.28,1.03,1.1,1.54,1.67   c-0.07,0.16-0.14,0.31-0.22,0.47c-0.71-0.03-1.42-0.01-2.12-0.1c-2.37-0.31-4.3,0.81-5.66,2.78c-1.01,1.47-1.47,3.04-1.27,4.63   c0.16,1.28,0.32,2.7,1.41,3.79c1.33,1.32,4.16,1.93,5.64,0.85c1.16-0.85,2.3-1.81,3.16-2.94c0.57-0.75,0.7-1.87,0.9-2.85   c0.73-3.65-0.47-6.8-2.66-9.64c-1.06-1.36-2.25-2.62-3.35-3.94c-0.96-1.15-2.27-1.38-3.65-1.42   C198.34,110.27,197.79,110.23,197.13,110.2z"
   id="path4" />
	<path
   class="st1"
   d="M126.51,83.42c0,0.52-0.14,0.97,0.02,1.14c0.71,0.72,0.49,1.46,0.04,2.11c-2.18,3.13-4.68,5.98-7.8,8.21   c-0.53,0.38-1.33,0.4-2.13,0.38c2.41-2.65,4.82-5.29,7.22-7.94c-3.76,2.11-7.64,3.44-11.91,3.87c-3.49,0.36-7.03,0.76-10.3,2.2   c-1.29,0.56-2.56,1.18-3.32,2.5c-0.74,1.28-0.08,2.9,1.39,2.91c2.17,0,4.35-0.21,6.52-0.38c1.06-0.09,2.11-0.31,3.36-0.5   c-0.58,1.14-1.5,1.66-2.41,2.01c-1.26,0.49-2.45,1.26-3.94,1.1c-1.05-0.11-2.12,0.09-3.19,0.1c-1.25,0.02-2.11-0.47-2.93-1.55   c-1.23-1.6-1.31-3.16-0.63-4.87c0.76-1.92,2.37-2.9,4.2-3.62c2.97-1.17,6.11-1.49,9.23-1.95c2.83-0.42,5.66-0.92,8.43-1.61   c2.08-0.52,4.05-1.4,5.75-2.83C124.77,84.14,125.66,83.86,126.51,83.42z"
   id="path5" />
	<path
   class="st1"
   d="M166.89,69.64c-0.57-0.25-0.94-0.5-1.34-0.58c-0.83-0.17-1.69-0.21-2.52-0.37c-0.33-0.06-0.64-0.29-0.95-0.45   c-0.43-0.22-0.85-0.45-1.27-0.68c-0.08,0.11-0.15,0.22-0.23,0.33c0.23,0.21,0.46,0.42,0.69,0.64c2.58,2.46,4.6,5.26,5.13,8.88   c0.49,3.32,0.12,6.54-1.34,9.6c-1.07,2.24-2.89,3.77-4.98,4.9c-0.95,0.51-2.22,0.57-3.34,0.55c-2.28-0.03-4.46-0.54-6.47-1.76   c-2.33-1.41-3.16-3.54-3.48-6.08c-0.42-3.34,0.19-6.46,1.55-9.56c-0.59,0.61-1.18,1.22-1.77,1.83c-0.12-0.07-0.23-0.15-0.35-0.22   c0.52-1.14,0.9-2.38,1.59-3.41c2.39-3.53,5.43-6.36,9.33-8.18c1.01-0.47,1.97-0.54,3.03-0.08c0.98,0.43,2.18,0.51,3.01,1.11   c1.19,0.85,2.68,1.39,3.42,2.8C166.68,69.09,166.74,69.27,166.89,69.64z M165.34,79.82c-0.03-0.53-0.02-1.31-0.12-2.08   c-0.53-4.19-3.13-7.16-5.97-9.97c-0.21-0.21-0.71-0.31-1-0.22c-2.46,0.78-4.73,1.94-6.23,4.12c-2.71,3.92-4.17,8.23-3.76,13.06   c0.23,2.73,1,5.07,4.08,5.8c0.59,0.14,1.16,0.37,1.74,0.54c3.4,0.98,6.21-0.08,8.46-2.65C164.62,86.06,165.34,83.17,165.34,79.82z"
   id="path6" />
	<path
   class="st1"
   d="M237.44,76.93c-0.48-2.54-2.64-2.32-4.28-2.44c-3.13-0.22-6.3-0.28-9.42-0.02c-3.87,0.32-7.8,0.7-11.3,2.61   c-1.21,0.66-2.22,1.71-3.24,2.67c-0.62,0.58-1.17,1.28-1.61,2.01c-0.37,0.61-0.54,1.34-0.73,1.85c0.96,0.76,1.76,1.37,2.52,2   c1.68,1.4,3.56,1.37,5.51,0.77c2.36-0.73,4.74-1.43,7.07-2.24c1.01-0.35,1.94-0.92,2.91-1.38c0.17-0.08,0.34-0.14,0.52-0.21   c0.06,0.07,0.13,0.13,0.19,0.2c-0.84,0.93-1.53,2.09-2.54,2.74c-2.49,1.58-5.11,3.02-8.05,3.58c-2.12,0.41-4.25,0.51-6.23-0.72   c-0.77-0.47-1.97-0.56-2.39-1.2c-0.77-1.19-1.47-2.65-1.51-4.02c-0.04-1.22,0.65-2.61,1.38-3.68c2.61-3.84,6.37-5.62,10.97-6.14   c4.89-0.56,9.77-0.53,14.65-0.22c1.72,0.11,3.43,0.88,5.07,1.53C237.8,74.98,237.9,75.83,237.44,76.93z"
   id="path7" />
	<path
   class="st1"
   d="M145.91,97.2c1.69-0.33,3.38-0.66,4.94-0.97c-1.08-1.7-2.15-3.37-3.28-5.14c1.29-0.37,1.78,0.38,2.31,1   c0.52,0.61,0.99,1.27,1.46,1.92c0.88,1.21,2.68,1.64,4.05,1.05c-0.53-0.35-1.05-0.7-1.57-1.05c0.04-0.08,0.08-0.15,0.12-0.23   c0.52,0.21,1.06,0.37,1.54,0.64c0.78,0.43,1.51,0.4,2.33,0.09c3.47-1.3,6.49-3.31,9.23-5.77c0.37-0.33,0.81-0.58,1.22-0.86   c0.08,0.09,0.17,0.18,0.25,0.27c-0.27,0.4-0.5,0.84-0.82,1.19c-2.12,2.35-4.46,4.43-7.33,5.84c-0.44,0.22-0.7,0.83-1.14,1.01   c-1.72,0.7-3.45,1.24-5.38,1.2c-2.09-0.05-4.18,0.21-6.27,0.3c-0.53,0.02-1.06-0.05-1.6-0.09   C145.95,97.47,145.93,97.34,145.91,97.2z"
   id="path8" />
	<path
   class="st1"
   d="M149.82,63.6c-0.36-1.42-0.36-2.85,0.3-4.19c1.85-3.75,4.92-5.83,9.06-6.31c0.69-0.08,1.71-0.17,1.78,0.68   c0.08,0.89-0.37,1.84-0.64,2.75c-0.03,0.11-0.35,0.22-0.53,0.21c-1.7-0.18-3.09,0.62-4.42,1.48c-1.64,1.06-3.04,2.36-4.05,4.05   c-0.32,0.53-0.78,0.97-1.17,1.46C150.04,63.69,149.93,63.65,149.82,63.6z"
   id="path9" />
	<path
   class="st1"
   d="M134.27,112c0.28-1.61,0.46-3.19,0.84-4.72c0.48-1.96,1.81-3.33,3.47-4.39c0.81-0.52,2.45-0.11,3.28,0.77   c0.76,0.8,1.56,1.57,2.28,2.41c0.29,0.34,0.53,0.81,0.58,1.25c0.12,1.07-0.58,1.51-1.53,0.98c-0.58-0.32-1.13-0.71-1.67-1.1   c-1.31-0.96-2.03-0.93-3.25,0.14c-1.1,0.98-1.56,2.31-1.99,3.66c-0.03,0.09-0.01,0.2-0.03,0.3   C135.94,112.51,135.35,112.73,134.27,112z"
   id="path10" />
	<path
   class="st1"
   d="M170.52,182.38c1.79-0.61,3.57-1.03,5.18-1.8c2.01-0.96,3.28-2.8,4.54-4.59c0.78-1.11,1.57-2.2,2.39-3.34   c0.56,0.68,0.59,1.98,0.06,2.81c-1.32,2.05-2.55,4.17-4.07,6.06c-1.63,2.02-3.81,3.16-6.55,2.82   C170.99,184.2,170.36,183.35,170.52,182.38z"
   id="path11" />
	<path
   class="st1"
   d="M158.28,40.7c0,1.18-0.59,1.71-1.51,2.22c-3.92,2.15-7.06,5.22-9.78,8.73c-0.39,0.5-0.62,1.11-1,1.62   c-0.19,0.26-0.56,0.39-0.84,0.57c-0.16-0.36-0.55-0.82-0.45-1.07c0.46-1.07,0.94-2.18,1.66-3.09c1.3-1.65,2.67-3.26,4.19-4.7   c1.95-1.84,4.2-3.3,6.77-4.2C157.61,40.68,157.95,40.72,158.28,40.7z"
   id="path12" />
	<path
   class="st1"
   d="M228,354.62c-0.4,0.51-0.78,1.04-1.22,1.52c-2.73,3.03-5.5,6.04-8.2,9.1c-0.74,0.84-1.55,1.11-2.95,0.8   c4.12-3.99,8.09-7.84,12.07-11.69C227.8,354.44,227.9,354.53,228,354.62z"
   id="path13" />
	<path
   class="st1"
   d="M170.28,55.41c0.78,1.27,1.59,2.57,1.76,4.12c0.29,2.57-0.45,4.87-1.89,6.92c-0.14-0.02-0.29-0.04-0.43-0.06   c0-0.51-0.03-1.02,0.01-1.52c0.17-2.32,0.4-4.64,0.51-6.96c0.04-0.77-0.21-1.56-0.32-2.34C170.03,55.51,170.16,55.46,170.28,55.41z   "
   id="path14" />
	<path
   class="st1"
   d="M222.56,365.9c2.7-1.87,5.4-3.75,8.1-5.62c0.09,0.1,0.17,0.2,0.26,0.31c-0.14,0.19-0.25,0.42-0.42,0.58   c-1.74,1.56-3.42,3.19-5.27,4.61c-0.62,0.48-1.68,0.39-2.53,0.56C222.65,366.19,222.61,366.05,222.56,365.9z"
   id="path15" />
	<path
   class="st1"
   d="M126.25,73.39c4.38-1.86,7.4-5.01,9.26-9.33c-0.91,3.97-3.08,7.01-6.69,8.97   C127.38,73.8,127.03,73.88,126.25,73.39z"
   id="path16" />
	<path
   class="st1"
   d="M190.25,116.06c0.41-0.92,0.68-1.84,1.18-2.61c0.59-0.91,1.36-1.71,2.11-2.51c0.19-0.2,0.59-0.2,0.9-0.29   c-0.01,0.4,0.13,0.88-0.05,1.17c-0.58,0.93-1.32,1.77-1.92,2.69c-0.33,0.5-0.47,1.11-0.76,1.63c-0.18,0.32-0.48,0.56-0.73,0.84   C190.74,116.7,190.51,116.4,190.25,116.06z"
   id="path17" />
	<path
   class="st1"
   d="M244.75,125.79c-0.31,0.3-0.44,0.43-0.58,0.55c-1.01,0.86-2.02,1.72-3.05,2.55c-0.23,0.18-0.75,0.39-0.84,0.29   c-0.24-0.25-0.49-0.69-0.43-0.99c0.29-1.26,2.44-2.96,3.74-2.96C243.94,125.23,244.28,125.55,244.75,125.79z"
   id="path18" />
	<path
   class="st1"
   d="M226.91,141.64c1.41-0.25,3.26,2.23,3.3,4.14c-0.26-0.03-0.66,0.04-0.75-0.09   C228.6,144.39,227.79,143.05,226.91,141.64z"
   id="path19" />
	<path
   class="st1"
   d="M232.17,365.91c1.56-0.86,3.11-1.72,4.9-2.7C236.42,365.23,234.4,366.33,232.17,365.91z"
   id="path20" />
	<path
   class="st1"
   d="M221.05,119.84c0.02-1.06,0.81-1.91,1.42-1.66c0.45,0.18,0.86,0.77,1.03,1.27c0.16,0.46-1,1.55-1.47,1.35   C221.57,120.61,221.26,120.06,221.05,119.84z"
   id="path21" />
	<path
   class="st1"
   d="M231.47,126.82c0.25,0.26,0.67,0.49,0.72,0.79c0.11,0.59-0.8,1.51-1.38,1.43c-0.27-0.04-0.66-0.38-0.71-0.63   C229.99,127.84,230.81,126.97,231.47,126.82z"
   id="path22" />
	<path
   class="st1"
   d="M102.59,86.16c-0.31-0.06-0.62-0.12-0.94-0.18c-0.15,0.72-0.25,1.4-0.47,2.05c-0.04,0.13-0.66,0.25-0.79,0.13   c-0.69-0.64-0.57-1.22,0.25-1.75c0.36-0.24,0.66-0.62,1.04-0.74c0.29-0.09,0.68,0.14,1.03,0.22   C102.67,85.98,102.63,86.07,102.59,86.16z"
   id="path23" />
	<path
   class="st1"
   d="M217.26,132.08c0.5,0.6,1.15,1.11,1.06,1.34c-0.16,0.43-0.71,0.81-1.18,1c-0.15,0.06-0.83-0.58-0.8-0.85   C216.39,133.14,216.82,132.74,217.26,132.08z"
   id="path24" />
	<path
   class="st1"
   d="M234.99,147.2c0.13,1.28,0.99,2.47,0.6,3.82C234.86,149.82,234.64,148.55,234.99,147.2z"
   id="path25" />
	<path
   class="st1"
   d="M-8.96-6.79c0.74,0.83,0.74-0.37,1.3-0.29c-0.14,0.62-0.26,1.24-0.43,1.84c-0.03,0.11-0.29,0.25-0.38,0.22   C-8.62-5.08-8.82-5.25-8.84-5.4C-8.92-5.86-8.92-6.33-8.96-6.79z"
   id="path26" />
	<path
   class="st1"
   d="M154.71,242.63c-0.65,0.09-1.22,0.16-1.93,0.26C153.41,241.89,153.89,241.85,154.71,242.63z"
   id="path27" />
	<path
   class="st1"
   d="M161.61,269.15c-0.63-0.33-1.29-0.62-1.89-0.99c-4.18-2.55-8.59-4.6-13.34-5.85   c-4.31-1.14-8.72-1.58-13.16-1.68c-4.23-0.1-8.46-0.05-12.69-0.07c-0.57,0-1.13,0-1.7,0c-0.01-0.11-0.03-0.21-0.04-0.32   c0.72-0.12,1.44-0.27,2.17-0.34c6.44-0.63,12.89-1.04,19.35-0.37c7.87,0.82,14.83,3.77,20.91,8.84c0.2,0.16,0.45,0.26,0.68,0.39   C161.81,268.89,161.71,269.02,161.61,269.15z"
   id="path28" />
	<path
   class="st1"
   d="M60.78,319.75c1.15,1.04,2.3,2.07,3.44,3.12c7.57,7.02,15.83,13.06,24.95,17.93c0.22,0.12,0.42,0.27,0.59,0.5   c-2.29-0.41-4.37-1.36-6.39-2.44c-4.89-2.6-9.4-5.8-13.53-9.47c-2.9-2.58-5.64-5.34-8.43-8.05c-0.39-0.38-0.67-0.89-0.99-1.33   C60.53,319.92,60.65,319.83,60.78,319.75z"
   id="path29" />
	<path
   class="st1"
   d="M188.38,83.93c-0.3,0.79-0.38,1.49-0.76,1.88c-0.46,0.45-1.18,0.87-1.79,0.87c-0.83,0-1.48-0.62-1.7-1.51   c-0.27-1.12-0.21-2.21,0.36-3.25c0.64-1.15,1.67-1.39,2.54-0.4C187.63,82.22,187.96,83.16,188.38,83.93z M187.37,83.3   c-0.62-0.51-0.99-0.83-1.36-1.14c-0.23,0.31-0.7,0.65-0.65,0.91c0.08,0.45,0.47,0.85,0.73,1.28   C186.43,84.07,186.78,83.79,187.37,83.3z"
   id="path30" />
	<path
   class="st1"
   d="M158.08,87.77c0.18-1.84,0.54-3.26,1.57-4.44c0.63-0.72,1.39-0.96,2.27-0.53c0.88,0.43,0.82,1.21,0.68,2.01   c-0.24,1.36-0.66,2.67-1.79,3.51c-0.5,0.37-1.3,0.55-1.91,0.47C158.52,88.74,158.24,88,158.08,87.77z M159.94,84.93   c0.46,0.46,0.72,0.95,1.04,1c0.85,0.13,0.99-0.61,0.94-1.2c-0.03-0.4-0.42-0.77-0.65-1.15C160.88,83.98,160.49,84.37,159.94,84.93z   "
   id="path31" />
</g>
</svg>
